<?xml version="1.0" encoding="UTF-8" standalone="no"?>
<!DOCTYPE svg PUBLIC "-//W3C//DTD SVG 1.1//EN" "http://www.w3.org/Graphics/SVG/1.1/DTD/svg11.dtd">
<svg width="100%" height="100%" viewBox="0 0 559 861" version="1.1" xmlns="http://www.w3.org/2000/svg" xmlns:xlink="http://www.w3.org/1999/xlink" xml:space="preserve" xmlns:serif="http://www.serif.com/" style="fill-rule:evenodd;clip-rule:evenodd;stroke-linejoin:round;stroke-miterlimit:2;">
    <g transform="matrix(1,0,0,1,-389.440417,-1083.293278)">
        <g transform="matrix(4.166667,0,0,4.166667,0,0)">
            <g>
                <g transform="matrix(1,0,0,1,203.9951,418.1233)">
                    <path d="M0,-2.928C-3.315,-1.564 -7.043,-1.749 -10.561,-1.208C-10.891,-1.157 -11.222,-1.095 -11.551,-1.036C-6.577,-1.101 -1.56,-0.482 3.352,0C2.371,-0.932 1.356,-1.836 0.279,-2.686C0.169,-2.754 0.08,-2.838 0,-2.928" style="fill:rgb(201,49,71);fill-rule:nonzero;"/>
                </g>
                <g transform="matrix(1,0,0,1,161.6426,353.2321)">
                    <path d="M0,4.14C2.501,3.934 4.347,1.613 6.047,-0.003C2.768,2.108 -1.372,2.277 -5.022,1.095C-3.862,2.762 -2.106,4.143 0,4.14" style="fill:rgb(255,185,161);fill-rule:nonzero;"/>
                </g>
                <g transform="matrix(1,0,0,1,157.6812,365.9021)">
                    <path d="M0,8.384C-0.695,8.392 -1.397,8.463 -2.094,8.404C-4.341,8.26 -6.518,7.334 -8.11,5.731C-8.782,5.932 -10.17,5.818 -11.293,5.404C-11.156,6.265 -10.797,7.104 -10.152,7.832C-7.218,11.247 -2.415,12.208 1.879,12.493C8.97,12.888 16.108,10.505 21.493,5.948C22.309,4.762 22.878,3.156 23.053,1.56C23.024,1.576 22.995,1.6 22.965,1.613C21.838,2.034 20.621,2.5 19.41,2.547C17.514,3.288 15.681,4.28 13.69,4.814C13.56,4.852 13.415,4.761 13.373,4.636C13.324,4.508 13.384,4.364 13.505,4.3C15.002,3.544 16.605,2.897 18.042,2.048C18.534,1.811 18.896,1.321 19.433,1.196C20.202,1.119 20.898,0.947 21.58,0.671C22.162,0.4 22.624,-0.064 23.038,-0.548C22.725,-2.687 21.45,-4.418 18.736,-4.504C17.294,-4.479 15.804,-3.934 14.543,-3.383C6.678,1.394 1.747,-1.175 -6.52,-0.901C-8.909,-0.666 -10.701,1.228 -11.21,3.388C-11.152,3.405 -11.093,3.424 -11.037,3.438C-9.999,3.794 -8.696,3.51 -7.82,4.236C-7.458,4.801 -7.578,5.096 -6.897,5.558C-4.732,7.004 -1.912,6.57 0.506,6.979C0.849,7.009 1.137,7.266 1.164,7.62C1.219,8.291 0.491,8.445 0,8.384" style="fill:white;fill-rule:nonzero;"/>
                </g>
                <g transform="matrix(1,0,0,1,210.0273,359.8998)">
                    <path d="M0,-18.474C-1.323,-17.159 -2.469,-15.689 -3.635,-14.239C-3.672,-14.181 -3.723,-14.126 -3.769,-14.071C-4.256,-11.102 -5.281,-7.404 -5.39,-6.253C-5.867,-4.13 -6.333,-1.968 -6.83,0.2C-6.554,0.038 -6.28,-0.112 -6.109,-0.271C-4.245,-1.786 -2.854,-3.677 -2.321,-5.973C-1.677,-8.846 -2.507,-11.745 -0.065,-13.995C0.702,-14.917 4.63,-19.236 5.266,-16.762C5.213,-16.205 4.809,-15.809 4.435,-15.44C4.307,-15.312 4.178,-15.181 4.049,-15.052C4.155,-10.397 2.813,-5.41 -0.982,-2.446C-1.395,-2.095 -1.832,-1.698 -2.292,-1.323C-2.862,-0.469 -3.644,0.319 -4.756,1.047C-5.445,1.398 -6.495,2.356 -7.253,2.005C-7.421,2.709 -7.594,3.412 -7.773,4.113C-6.77,4.249 -5.72,4.174 -4.794,3.771C2.628,0.83 7.264,-10.315 6.687,-17.86C6.149,-22.723 2.295,-20.991 0,-18.474" style="fill:rgb(255,226,204);fill-rule:nonzero;"/>
                </g>
                <g transform="matrix(1,0,0,1,117.3691,339.4258)">
                    <path d="M0,20.915C-1.319,20.3 -2.546,19.341 -3.476,18.168C-7.962,16.107 -9.749,10.17 -9.709,5.513C-9.703,5.372 -9.645,5.271 -9.564,5.196C-9.88,4.941 -10.205,4.698 -10.533,4.474C-10.79,4.283 -11.111,3.867 -10.767,3.604C-9.08,3.427 -7.268,4.957 -6.068,6.057C-2.163,9.207 -5.632,11.568 -3.388,15.067C-2.293,16.715 -0.998,18.089 0.442,19.397C-0.118,17.098 -0.667,14.667 -1.224,12.072C-1.251,11.446 -1.72,9.765 -2.088,8.041C-2.857,6.935 -3.613,5.629 -3.92,5.394C-5.823,3.076 -10.688,-3.2 -13.196,1.437C-15.051,6.403 -9.634,19.954 -4.999,22.462C-3.041,23.536 -0.66,24.115 1.525,23.603C1.268,22.662 1.014,21.698 0.764,20.702C0.585,20.909 0.31,21.027 0,20.915" style="fill:rgb(255,226,204);fill-rule:nonzero;"/>
                </g>
                <g transform="matrix(1,0,0,1,222.812,288.1149)">
                    <path d="M0,25.388C-0.106,28.27 -0.774,31.23 -2.408,33.686C-2.398,33.483 -2.389,33.28 -2.379,33.086C-2.292,31.549 -2.602,30.04 -3.095,28.599C-3.25,28.183 -3.482,27.66 -3.965,27.574C-4.391,27.506 -4.594,28.019 -4.652,28.347C-4.623,33.541 -5,38.802 -7.244,43.609C-7.882,45.166 -8.617,46.675 -9.43,48.145C-9.488,48.251 -9.507,48.377 -9.517,48.493C-11.915,48.996 -14.381,51.133 -16.132,53.435C-16.268,53.61 -16.393,53.784 -16.519,53.957C-16.577,53.851 -16.645,53.793 -16.731,53.735C-16.354,50.417 -16.529,45.853 -16.548,44.624C-16.645,43.338 -16.025,41.491 -17.379,40.611C-21.277,37.7 -24.256,33.599 -24.865,28.725C-22.718,29.847 -20.068,30.65 -16.731,30.968C-16.2,30.997 -15.648,30.978 -15.117,30.891C-13.985,30.824 -14.014,29.053 -15.136,29.034C-20.03,28.319 -25.204,27.003 -28.26,22.786C-30.523,19.982 -31.625,16.674 -32.458,13.183C-33.289,10.136 -34.015,6.49 -36.906,4.701C-37.738,4.227 -38.744,4.082 -39.682,4.324C-39.837,4.363 -40.03,4.44 -40.214,4.536C-43.647,-1.537 -51.056,-3.278 -56.675,1.026C-60.417,3.743 -62.516,8.008 -64.847,11.867C-68.696,18.822 -74.905,24.489 -82.739,26.423C-81.056,24.479 -79.393,22.544 -78.242,20.224C-77.971,19.498 -77.033,18.473 -77.091,17.651C-75.486,15.272 -74.354,12.718 -74.412,10.185C-74.315,9.866 -74.828,9.759 -74.876,10.069C-76.733,12.448 -77.913,15.32 -79.905,17.67C-82.942,21.674 -86.966,25.137 -91.366,27.68C-93.91,29.141 -96.521,30.455 -99.152,31.752C-99.287,31.839 -99.452,31.936 -99.635,32.023C-99.161,30.572 -98.813,29.082 -98.668,27.526C-98.62,26.954 -98.31,21.867 -99.548,23.812C-100.622,26.684 -100.97,29.808 -102.256,32.622C-103.774,36.346 -106.241,39.808 -108.349,43.251C-108.262,46.849 -107.836,50.814 -107.314,54.673C-107.479,54.712 -107.604,54.799 -107.701,54.934C-108.891,53.261 -110.438,51.646 -112.034,50.476C-113.021,49.75 -114.007,49.19 -114.945,48.9C-114.926,48.774 -114.936,48.648 -115.003,48.512C-115.845,46.675 -116.705,44.847 -117.247,42.893C-118.794,37.971 -118.698,32.893 -118.069,27.777C-118.069,27.429 -117.74,24.672 -118.504,25.534C-119.839,27.467 -120.497,29.818 -120.69,32.313C-120.961,31.52 -121.212,30.717 -121.454,29.914C-122.895,20.059 -119.655,9.923 -113.214,2.273C-98.658,-16.179 -78.387,-29.546 -54.005,-24.884C-46.964,-23.366 -39.682,-20.3 -34.933,-14.68C-34.305,-13.84 -33.898,-13.124 -33.415,-12.108C-33.299,-11.905 -33.192,-11.682 -33.076,-11.479C-33.376,-11.025 -33.386,-10.26 -32.719,-10.193C-31.017,-10.512 -29.527,-11.654 -27.815,-12.05C-25.204,-12.853 -22.264,-12.891 -19.604,-12.195C-5.087,-8.298 0.513,11.984 0,25.388" style="fill:rgb(198,106,44);fill-rule:nonzero;"/>
                </g>
                <g transform="matrix(1,0,0,1,209.5493,351.728)">
                    <path d="M0,-0.268C-0.264,1.952 -0.411,3.902 -1.144,5.618C1.736,2.88 3.403,-2.132 3.565,-5.886C2.029,-4.246 0.63,-2.427 0,-0.268" style="fill:rgb(255,185,161);fill-rule:nonzero;"/>
                </g>
                <g transform="matrix(1,0,0,1,127.0039,418.2177)">
                    <path d="M0,-0.871C-1.201,-1.055 -2.405,-1.225 -3.61,-1.381C-6.044,-1.644 -8.529,-2.105 -10.676,-3.279C-10.76,-3.148 -10.871,-3.023 -11.023,-2.914C-13,-1.265 -14.831,0.518 -16.534,2.408C-11.758,0.895 -6.838,-0.174 -1.854,-0.694C-1.239,-0.752 -0.621,-0.811 0,-0.871" style="fill:rgb(201,49,71);fill-rule:nonzero;"/>
                </g>
                <g transform="matrix(1,0,0,1,147.4224,446.5802)">
                    <path d="M0,-23.337C0.42,-24.054 0.741,-25.024 1.373,-25.603C0.858,-26.247 0.313,-26.87 -0.238,-27.475C-0.483,-27.103 -0.802,-26.733 -0.93,-26.398C-3.422,-22.17 -5.026,-17.707 -5.842,-12.928C-6.406,-9.213 -8.264,0.447 -5.773,3.192C-4.058,4.138 -4.915,0.803 -4.745,0.057C-4.807,-2.925 -4.811,-5.913 -4.292,-8.859C-3.392,-13.816 -2.173,-18.77 0,-23.337" style="fill:rgb(158,173,172);fill-rule:nonzero;"/>
                </g>
                <g transform="matrix(1,0,0,1,225.5396,393.6899)">
                    <path d="M0,55.648C-3.163,57.332 -6.383,58.908 -9.652,60.387C-22.196,66.132 -35.833,69.208 -49.615,70.02C-68.02,71.239 -86.646,69.972 -104.52,65.291C-113.35,63.038 -122.286,60.174 -129.723,54.739C-129.54,54.43 -129.414,54.082 -129.365,53.772C-128.853,51.896 -128.292,50.029 -127.625,48.202C-124.955,40.967 -121.193,34.12 -116.212,28.25C-114.171,27.465 -112.111,26.76 -109.994,26.238C-105.206,25.077 -100.245,24.284 -95.283,24.216C-93.601,24.526 -91.937,24.883 -90.273,25.329C-87.362,26.054 -84.586,27.05 -81.898,28.394C-82.633,29.942 -83.223,31.421 -83.426,31.895C-85.07,36.044 -89.906,57.379 -83.417,58.008C-79.209,57.931 -81.289,52.689 -81.037,50.048C-81.018,45.648 -80.206,41.287 -79.103,37.05C-78.494,34.778 -77.739,32.495 -76.82,30.319C-76.753,29.961 -76.26,29.129 -75.95,28.365C-75.863,28.501 -75.766,28.617 -75.679,28.752C-75.554,28.956 -75.263,29.023 -75.051,28.917C-74.315,28.365 -75.466,27.175 -75.631,26.499C-76.356,24.932 -77.652,23.733 -78.977,22.669C-79.238,22.465 -79.558,22.262 -79.906,22.349C-80.979,22.814 -79.993,23.771 -79.403,24.303C-79.857,24.739 -80.37,25.502 -80.873,26.392C-83.581,24.284 -91.299,22.775 -93.649,22.146C-100.97,20.309 -110.98,21.915 -113.001,12.426C-113.93,7.919 -110.061,5.337 -107.083,2.755C-106.821,2.475 -106.667,2.107 -106.638,1.73C-106.55,0.047 -106.56,-1.635 -106.367,-3.309C-105.835,-7.873 -103.833,-12.197 -100.738,-15.591C-99.258,-13.125 -97.566,-11.017 -95.563,-9.218C-93.271,-7.129 -90.563,-5.446 -87.324,-4.092C-87.237,-3.918 -87.14,-3.744 -87.063,-3.57C-87.42,-2.834 -87.701,-2.071 -88.088,-1.355C-88.223,-1.075 -88.349,-0.785 -88.484,-0.504C-88.736,-0.581 -89.026,-0.562 -89.258,-0.426C-90.418,0.202 -90.786,1.643 -91.096,2.833C-93.533,14.4 -78.455,13.974 -71.772,18.539C-71.163,19.033 -70.621,19.574 -70.128,20.164C-68.474,22.108 -67.362,24.497 -66.085,26.692C-66.076,27.05 -66.008,27.398 -65.747,27.64C-64.857,28.085 -64.567,26.605 -64.209,26.044C-63.658,24.854 -63.165,23.877 -62.342,22.785C-61.666,21.924 -60.93,21.179 -60.127,20.512L-60.118,20.512C-55.031,16.266 -47.738,15.532 -42.139,12.088C-39.962,10.637 -38.106,8.635 -36.936,6.286C-36.636,5.067 -34.44,1.363 -36.162,0.783C-36.616,0.627 -37.197,0.84 -37.4,1.304C-37.497,1.643 -37.612,1.982 -37.719,2.32C-37.845,-0.108 -38.812,-2.554 -40.108,-4.546C-37.361,-5.765 -34.789,-7.371 -32.651,-9.469C-32.109,-10.098 -31.606,-10.737 -31.123,-11.394C-30.204,-12.651 -29.373,-13.956 -28.628,-15.311C-23.173,-11.597 -21.161,-5.901 -22.361,0.676C-22.728,1.962 -21.577,2.852 -20.852,3.752C-18.569,6.489 -15.648,9.806 -16.78,13.655C-18.211,18.742 -24.005,20.338 -28.715,20.483C-32.09,20.802 -35.456,21.315 -38.706,22.321C-40.088,22.765 -47.003,24.836 -48.996,26.857C-49.305,26.295 -49.634,25.735 -49.963,25.193C-50.146,24.932 -50.331,24.623 -50.572,24.39C-50.098,23.858 -49.692,23.317 -49.508,22.727C-49.499,22.524 -49.634,22.301 -49.837,22.244C-51.955,22.137 -53.203,24.632 -54.199,26.179C-54.528,27.011 -54.934,27.698 -55.224,28.617C-55.282,28.859 -55.127,29.12 -54.915,29.226C-54.692,29.333 -54.393,29.284 -54.238,29.09C-54.131,28.936 -54.035,28.781 -53.928,28.617C-53.89,28.674 -53.851,28.723 -53.812,28.771C-50.176,34.052 -48.996,40.599 -48.986,46.934C-48.967,48.675 -49.005,50.677 -49.141,52.486C-49.208,54.169 -49.605,56.374 -47.864,57.379C-46.839,58.018 -45.563,57.505 -44.779,56.712C-40.891,52.167 -43.512,42.447 -44.808,37.108C-45.563,34.207 -46.704,31.286 -48.106,28.53C-47.932,28.453 -47.758,28.365 -47.603,28.288C-46.684,27.814 -45.766,27.35 -44.818,26.944C-42.4,25.909 -39.856,25.019 -37.264,24.323C-30.62,23.723 -23.908,24.642 -17.254,25.338C-9.063,33.559 -4.159,44.545 -0.106,55.387C-0.087,55.484 -0.039,55.561 0,55.648" style="fill:rgb(229,97,97);fill-rule:nonzero;"/>
                </g>
                <g transform="matrix(1,0,0,1,180.1938,421.7304)">
                    <path d="M0,26.295C2.256,18.113 -2.09,5.124 -6.235,-2.062C-6.315,-2.15 -6.388,-2.245 -6.451,-2.347C-6.742,-2.023 -7.007,-1.696 -7.208,-1.354C-7.406,-1.118 -7.577,-0.865 -7.754,-0.614C-6.876,-0.129 -6.166,1.528 -5.705,2.191C-3.176,7.2 -2.194,12.845 -1.973,18.416C-1.863,21.272 -1.937,24.144 -2.083,26.997C-1.726,28.642 -0.283,27.232 0,26.295" style="fill:rgb(158,173,172);fill-rule:nonzero;"/>
                </g>
                <g transform="matrix(1,0,0,1,130.0508,357.375)">
                    <path d="M0,-31.082C2.096,-34.298 5.72,-36.918 9.614,-37.144C12.498,-37.219 15.877,-35.675 16.498,-32.619C16.598,-31.827 16.565,-30.72 15.697,-30.383C13.721,-30.395 11.626,-31.195 9.682,-31.006C6.086,-31.091 2.97,-29.816 -0.174,-28.468C-1.361,-28.845 -0.306,-30.359 0,-31.082M22.547,5.527C24.457,5.545 26.232,6.283 28.066,6.691C30.892,7.011 33.752,6.599 36.378,5.637C39.588,4.646 42.175,2.36 45.528,1.897C53.51,1.011 55,11.629 49.896,16.042C44.646,21.024 37.106,23.092 29.99,23.049C22.831,23.391 10.526,18.626 14.938,9.627C16.4,6.817 19.402,5.21 22.547,5.527M23.811,-7.668C24.289,-8.597 25.212,-8.191 25.333,-7.274C25.573,-3.94 29.44,-3.161 32.181,-3.604C34.907,-3.973 36.945,-5.392 39.277,-6.433C39.835,-6.399 40.135,-5.702 39.757,-5.288C39.167,-4.551 38.75,-3.687 38.183,-2.935C36.647,-0.548 34.02,1.323 31.072,0.927C28.31,0.38 25.482,-1.575 24.5,-4.271C23.704,-5.19 23.225,-6.52 23.811,-7.668M44.99,-32.619C45.61,-35.675 48.991,-37.219 51.874,-37.144C55.768,-36.918 59.392,-34.298 61.488,-31.082C61.792,-30.359 62.849,-28.845 61.662,-28.468C58.518,-29.816 55.402,-31.091 51.806,-31.006C49.862,-31.195 47.767,-30.395 45.791,-30.383C44.923,-30.72 44.89,-31.827 44.99,-32.619M53.972,-11.255C51.164,-10.634 48.802,-13.576 49.234,-16.23C49.362,-17.591 50.044,-19.247 51.614,-19.313C55.986,-19.822 58.842,-12.638 53.972,-11.255M7.516,-11.255C2.646,-12.638 5.502,-19.822 9.874,-19.313C11.444,-19.247 12.126,-17.591 12.254,-16.23C12.687,-13.576 10.324,-10.634 7.516,-11.255M28.483,34.081C29.231,34.278 30.383,34.099 31.254,34.27C31.778,34.074 32.439,34.204 32.955,34.179C36.248,34.074 39.498,33.403 42.728,32.784C49.311,31.572 56.323,29.977 61.207,25.073C68.115,16.746 70.045,5.669 72.331,-4.586C72.743,-5.646 73.231,-9.812 74.024,-12.71C73.513,-15.033 74.529,-21.45 74.564,-22.658C74.573,-23.889 75.332,-26.039 74.092,-26.774C69.336,-30.203 65.7,-35.288 65.491,-41.311C65.446,-41.596 65.445,-41.853 65.473,-42.088C56.232,-49.284 59.406,-63.744 52.357,-62.981C51.896,-62.739 51.163,-62.959 50.628,-63.761C44.619,-65.36 37.979,-64.513 32.795,-61.019C31.011,-58.255 29.527,-55.272 27.576,-52.62C23.691,-46.699 17.578,-42.563 10.696,-40.977C10.019,-40.807 9.235,-40.491 8.584,-40.897C8.332,-41.056 8.161,-41.381 8.221,-41.676C8.227,-41.705 8.236,-41.733 8.245,-41.763C8.244,-41.761 8.243,-41.76 8.241,-41.759C9.151,-43.084 9.96,-44.469 10.733,-45.879C10.153,-45.313 9.585,-44.779 9.05,-44.29C5.309,-40.955 0.85,-38.577 -3.647,-36.428C-5.056,-35.781 -6.467,-35.111 -7.931,-34.596C-9.502,-31.175 -11.743,-28.011 -13.909,-24.98C-14.097,-22.563 -13.18,-20.127 -13.051,-17.688C-12.822,-15.733 -12.773,-13.778 -12.78,-11.828C-11.648,-7.061 -10.776,-2.236 -9.455,2.483C-3.908,26.371 4.871,31.73 28.483,34.081" style="fill:rgb(255,226,204);fill-rule:nonzero;"/>
                </g>
                <g transform="matrix(1,0,0,1,140.6055,405.7711)">
                    <path d="M0,-1.401C5.509,1.748 13.298,1.489 17.187,7.178C18.136,8.484 19.026,9.898 19.505,11.449C20.559,8.952 22.716,6.946 24.964,5.455C29.423,2.07 35.265,1.351 40.12,-1.189C39.94,-1.327 39.796,-1.515 39.747,-1.751C39.15,-4.294 38.313,-9.16 38.892,-12.85C33.231,-7.268 26.17,-1.698 17.87,-1.902C12.87,-2.387 7.874,-4.256 4.251,-7.826C3.28,-8.872 2.146,-9.819 1.086,-10.824C1.097,-8.488 0.679,-6.102 0.387,-3.83C0.18,-3.259 0.19,-2.221 0,-1.401" style="fill:rgb(255,226,204);fill-rule:nonzero;"/>
                </g>
                <g transform="matrix(1,0,0,1,181.8691,391.8217)">
                    <path d="M0,9.524C-0.02,10.18 0.395,11.115 0.401,11.861C0.663,11.689 0.926,11.518 1.181,11.332C2.718,10.102 3.883,8.59 4.772,6.919C4.888,6.484 4.988,6.047 5.042,5.605C5.326,2.792 4.19,0.024 2.744,-2.337C2.081,-2.064 1.411,-1.811 0.734,-1.579C0.693,-1.451 0.642,-1.323 0.572,-1.205C-0.69,2.207 -0.505,5.989 0,9.524" style="fill:rgb(201,49,71);fill-rule:nonzero;"/>
                </g>
                <g transform="matrix(1,0,0,1,138.1714,401.6815)">
                    <path d="M0,-8.993C-0.238,-8.497 -0.489,-8.005 -0.736,-7.512C-1.517,-5.179 -2.142,-2.53 -0.971,-0.191C-0.496,0.416 0.042,0.929 0.607,1.403C0.659,0.897 0.699,0.399 0.755,-0.148C1.027,-3.42 1.677,-6.937 0.814,-10.122C0.769,-10.211 0.73,-10.305 0.687,-10.396C0.449,-9.932 0.206,-9.471 0,-8.993" style="fill:rgb(201,49,71);fill-rule:nonzero;"/>
                </g>
                <g transform="matrix(1,0,0,1,149.1465,395.9415)">
                    <path d="M0,4.204C9.26,9.497 20.174,3.979 27.26,-2.499C28.104,-3.19 28.853,-3.903 29.595,-4.61C26.337,-3.854 23.054,-3.186 19.764,-2.601C17.491,-2.329 15.015,-1.671 12.733,-2.03C12.533,-1.912 12.31,-1.831 12.066,-1.844C3.741,-2.47 -2.831,-3.542 -8.119,-5.293C-8.056,-5.11 -7.996,-4.931 -7.943,-4.747C-7.066,-3.352 -6.341,-1.853 -5.341,-0.537C-3.863,1.346 -2.01,2.922 0,4.204" style="fill:rgb(255,185,161);fill-rule:nonzero;"/>
                </g>
                <g transform="matrix(1,0,0,1,118.8115,365.4148)">
                    <path d="M0,0.009C0.01,0.006 0.02,0.003 0.03,0C0.025,0.001 0.021,0.002 0.017,0.003C0.011,0.005 0.006,0.007 0,0.009" style="fill:rgb(68,8,41);fill-rule:nonzero;"/>
                </g>
                <g transform="matrix(1,0,0,1,118.8853,365.4124)">
                    <path d="M0,-0.012C-0.014,-0.007 -0.029,-0.002 -0.043,0.003C-0.023,-0.003 -0.002,-0.01 0.018,-0.015L0.011,-0.015C0.01,-0.014 0.009,-0.014 0.008,-0.014C0.005,-0.013 0.002,-0.013 0,-0.012" style="fill:rgb(68,8,41);fill-rule:nonzero;"/>
                </g>
                <g transform="matrix(1,0,0,1,139.9248,346.2325)">
                    <path d="M0,-8.171C-4.372,-8.68 -7.228,-1.495 -2.358,-0.112C0.45,0.509 2.813,-2.434 2.38,-5.088C2.252,-6.448 1.57,-8.105 0,-8.171" style="fill:rgb(68,8,41);fill-rule:nonzero;"/>
                </g>
                <g transform="matrix(1,0,0,1,181.665,346.2325)">
                    <path d="M0,-8.171C-1.57,-8.105 -2.252,-6.448 -2.38,-5.088C-2.813,-2.434 -0.451,0.509 2.358,-0.112C7.228,-1.495 4.372,-8.68 0,-8.171" style="fill:rgb(68,8,41);fill-rule:nonzero;"/>
                </g>
                <g transform="matrix(1,0,0,1,167.6899,354.2475)">
                    <path d="M0,-1.018C-1.7,0.597 -3.546,2.919 -6.047,3.125C-8.154,3.128 -9.909,1.747 -11.07,0.08C-7.419,1.261 -3.28,1.092 0,-1.018M-6.567,4.054C-3.619,4.451 -0.992,2.58 0.543,0.193C1.111,-0.56 1.528,-1.423 2.118,-2.161C2.496,-2.575 2.196,-3.272 1.638,-3.305C-0.694,-2.264 -2.732,-0.845 -5.458,-0.477C-8.199,-0.034 -12.066,-0.813 -12.306,-4.147C-12.427,-5.064 -13.351,-5.469 -13.828,-4.54C-14.414,-3.393 -13.936,-2.063 -13.14,-1.144C-12.157,1.552 -9.329,3.507 -6.567,4.054" style="fill:rgb(68,8,41);fill-rule:nonzero;"/>
                </g>
                <g transform="matrix(1,0,0,1,158.187,366.2709)">
                    <path d="M0,6.61C-2.418,6.201 -5.238,6.635 -7.403,5.189C-8.083,4.727 -7.964,4.432 -8.326,3.867C-9.202,3.141 -10.505,3.425 -11.543,3.069C-11.599,3.055 -11.658,3.037 -11.716,3.019C-11.207,0.859 -9.415,-1.035 -7.025,-1.27C1.241,-1.543 6.172,1.025 14.037,-3.751C15.298,-4.303 16.789,-4.848 18.23,-4.872C20.944,-4.786 22.219,-3.056 22.532,-0.916C22.118,-0.433 21.656,0.031 21.074,0.302C20.393,0.579 19.696,0.751 18.927,0.827C18.39,0.952 18.028,1.442 17.536,1.679C16.099,2.528 14.497,3.175 13,3.931C12.878,3.996 12.818,4.139 12.867,4.267C12.909,4.392 13.054,4.483 13.184,4.445C15.175,3.912 17.008,2.92 18.904,2.178C20.115,2.131 21.333,1.666 22.459,1.245C22.489,1.231 22.518,1.208 22.547,1.191C22.372,2.788 21.803,4.393 20.987,5.58C15.602,10.136 8.464,12.519 1.374,12.125C-2.92,11.839 -7.724,10.879 -10.658,7.464C-11.303,6.735 -11.662,5.896 -11.799,5.035C-10.676,5.449 -9.288,5.563 -8.616,5.362C-7.023,6.965 -4.847,7.891 -2.6,8.035C-1.903,8.094 -1.201,8.023 -0.506,8.015C-0.015,8.076 0.713,7.922 0.658,7.252C0.631,6.897 0.343,6.64 0,6.61M-13.198,0.731C-17.61,9.73 -5.306,14.495 1.854,14.153C8.97,14.196 16.51,12.129 21.76,7.146C26.864,2.733 25.374,-7.885 17.392,-6.998C14.039,-6.536 11.452,-4.25 8.242,-3.259C5.616,-2.297 2.755,-1.885 -0.07,-2.204C-1.904,-2.613 -3.68,-3.351 -5.589,-3.369C-8.734,-3.686 -11.736,-2.078 -13.198,0.731" style="fill:rgb(68,8,41);fill-rule:nonzero;"/>
                </g>
                <g transform="matrix(1,0,0,1,178.2207,283.5815)">
                    <path d="M0,156.565C-0.221,150.994 -1.203,145.349 -3.732,140.339C-4.192,139.677 -4.903,138.02 -5.781,137.535C-5.604,137.284 -5.433,137.031 -5.235,136.794C-5.034,136.453 -4.769,136.126 -4.478,135.802C-4.415,135.904 -4.342,135.999 -4.262,136.086C-0.117,143.273 4.229,156.262 1.973,164.444C1.69,165.381 0.248,166.791 -0.109,165.146C0.036,162.293 0.11,159.42 0,156.565M-35.543,163.055C-35.713,163.801 -34.856,167.136 -36.571,166.191C-39.062,163.446 -37.204,153.786 -36.64,150.071C-35.825,145.292 -34.22,140.829 -31.728,136.601C-31.601,136.265 -31.281,135.896 -31.037,135.524C-30.485,136.128 -29.94,136.752 -29.425,137.396C-30.058,137.975 -30.378,138.945 -30.798,139.662C-32.972,144.229 -34.19,149.182 -35.091,154.139C-35.609,157.086 -35.605,160.074 -35.543,163.055M37.671,170.494C25.126,176.238 11.487,179.312 -2.299,180.129C-20.703,181.346 -39.324,180.084 -57.204,175.399C-66.033,173.149 -74.963,170.281 -82.405,164.848C-82.223,164.542 -82.095,164.188 -82.048,163.883C-81.539,162.003 -80.977,160.141 -80.303,158.308C-77.633,151.072 -73.87,144.232 -68.895,138.355C-66.855,137.577 -64.789,136.873 -62.67,136.342C-57.883,135.189 -52.921,134.392 -47.965,134.322C-46.281,134.638 -44.604,134.996 -42.947,135.44C-42.95,135.439 -42.954,135.438 -42.957,135.437C-40.041,136.158 -37.263,137.16 -34.576,138.504C-35.311,140.055 -35.909,141.526 -36.11,142.004C-37.75,146.149 -42.583,167.493 -36.1,168.122C-31.892,168.035 -33.974,162.795 -33.714,160.16C-33.697,155.76 -32.884,151.398 -31.781,147.155C-31.172,144.883 -30.42,142.605 -29.504,140.428C-29.43,140.071 -28.936,139.237 -28.63,138.478C-28.544,138.607 -28.446,138.729 -28.364,138.858C-28.232,139.067 -27.947,139.131 -27.734,139.021C-26.998,138.477 -28.143,137.281 -28.311,136.607C-29.035,135.044 -30.331,133.839 -31.654,132.78C-31.923,132.572 -32.237,132.368 -32.592,132.459C-33.664,132.921 -32.67,133.878 -32.08,134.415C-32.542,134.846 -33.052,135.607 -33.552,136.501C-36.262,134.389 -43.978,132.881 -46.327,132.254C-53.655,130.421 -63.661,132.024 -65.682,122.534C-66.608,118.029 -62.739,115.442 -59.766,112.863C-59.505,112.581 -59.343,112.22 -59.317,111.836C-59.23,110.155 -59.237,108.474 -59.053,106.797C-58.517,102.235 -56.516,97.914 -53.419,94.514C-50.249,99.808 -46.077,103.484 -40.007,106.014C-39.915,106.189 -39.823,106.364 -39.744,106.542C-40.103,107.269 -40.383,108.039 -40.767,108.755C-40.907,109.035 -41.033,109.322 -41.168,109.605C-41.416,109.526 -41.708,109.55 -41.944,109.68C-43.102,110.309 -43.464,111.755 -43.773,112.945C-46.213,124.506 -31.138,124.08 -24.452,128.648C-21.818,130.754 -20.432,133.938 -18.765,136.801C-18.753,137.154 -18.686,137.506 -18.424,137.748C-17.538,138.197 -17.251,136.711 -16.894,136.149C-16.336,134.965 -15.851,133.986 -15.019,132.889C-10.05,126.54 -1.299,126.178 5.18,122.199C7.353,120.746 9.216,118.741 10.382,116.394C10.684,115.179 12.879,111.467 11.162,110.893C10.7,110.739 10.118,110.951 9.918,111.411C9.82,111.753 9.711,112.089 9.597,112.424C9.474,110.002 8.511,107.558 7.214,105.558C9.958,104.339 12.527,102.743 14.664,100.636C16.234,98.822 17.552,96.857 18.694,94.794C24.145,98.512 26.156,104.206 24.954,110.78C24.592,112.072 25.744,112.961 26.468,113.861C28.752,116.598 31.67,119.914 30.54,123.759C29.104,128.85 23.313,130.442 18.602,130.593C15.226,130.907 11.864,131.42 8.617,132.425C7.233,132.872 0.313,134.941 -1.677,136.962C-1.991,136.401 -2.312,135.846 -2.644,135.303C-2.833,135.044 -3.014,134.73 -3.251,134.497C-2.78,133.971 -2.372,133.43 -2.192,132.836C-2.181,132.628 -2.313,132.413 -2.518,132.352C-4.631,132.241 -5.887,134.74 -6.881,136.292C-7.213,137.121 -7.615,137.81 -7.901,138.722C-7.961,138.963 -7.811,139.228 -7.595,139.335C-7.376,139.44 -7.077,139.392 -6.923,139.198C-6.816,139.044 -6.713,138.885 -6.609,138.729C-6.572,138.783 -6.531,138.835 -6.49,138.88C-2.858,144.159 -1.68,150.706 -1.666,157.044C-1.645,158.786 -1.686,160.783 -1.821,162.594C-1.886,164.279 -2.281,166.486 -0.547,167.491C0.484,168.124 1.752,167.613 2.535,166.819C6.428,162.28 3.81,152.554 2.509,147.214C1.755,144.316 0.611,141.396 -0.789,138.634C-0.611,138.563 -0.44,138.477 -0.287,138.394C0.632,137.925 1.551,137.458 2.497,137.052C4.923,136.014 7.464,135.125 10.053,134.432C16.702,133.832 23.408,134.753 30.063,135.443C38.255,143.667 43.161,154.655 47.209,165.492C47.229,165.596 47.276,165.673 47.319,165.755C44.158,167.437 40.935,169.012 37.671,170.494M-62.24,131.722C-62.087,131.613 -61.977,131.488 -61.893,131.357C-59.746,132.531 -57.261,132.992 -54.827,133.255C-53.622,133.411 -52.418,133.582 -51.217,133.765C-51.838,133.825 -52.456,133.884 -53.071,133.942C-58.055,134.462 -62.975,135.531 -67.751,137.044C-66.048,135.154 -64.216,133.372 -62.24,131.722M-39.294,117.952C-39.35,118.499 -39.391,118.997 -39.442,119.502C-40.007,119.029 -40.545,118.516 -41.021,117.909C-42.191,115.57 -41.566,112.921 -40.785,110.588C-40.539,110.095 -40.287,109.603 -40.049,109.107C-39.843,108.629 -39.601,108.168 -39.362,107.704C-39.319,107.794 -39.28,107.889 -39.235,107.978C-38.372,111.163 -39.022,114.68 -39.294,117.952M-37.193,107.067C-31.905,108.818 -25.333,109.89 -17.008,110.516C-16.764,110.529 -16.541,110.448 -16.341,110.33C-14.059,110.689 -11.583,110.031 -9.311,109.759C-6.021,109.174 -2.737,108.506 0.521,107.75C-0.221,108.457 -0.97,109.17 -1.814,109.861C-8.9,116.339 -19.814,121.857 -29.074,116.564C-31.084,115.282 -32.937,113.706 -34.416,111.823C-35.416,110.507 -36.14,109.008 -37.017,107.613C-37.07,107.429 -37.13,107.25 -37.193,107.067M-36.529,111.366C-35.469,112.371 -34.335,113.318 -33.364,114.364C-29.742,117.933 -24.745,119.802 -19.745,120.288C-11.445,120.492 -4.384,114.921 1.277,109.339C0.698,113.03 1.535,117.896 2.132,120.439C2.181,120.674 2.325,120.863 2.505,121.001C-2.35,123.541 -8.192,124.259 -12.651,127.645C-14.899,129.135 -17.057,131.141 -18.11,133.638C-18.589,132.087 -19.479,130.673 -20.429,129.368C-24.317,123.678 -32.106,123.938 -37.615,120.789C-37.425,119.968 -37.435,118.93 -37.228,118.36C-36.936,116.087 -36.518,113.702 -36.529,111.366M6.392,105.903C7.839,108.264 8.974,111.032 8.69,113.845C8.637,114.288 8.536,114.724 8.421,115.159C7.531,116.831 6.367,118.342 4.829,119.572C4.575,119.758 4.312,119.929 4.049,120.101C4.043,119.355 3.629,118.42 3.648,117.764C3.144,114.229 2.958,110.447 4.221,107.036C4.291,106.918 4.342,106.79 4.382,106.662C5.059,106.429 5.729,106.176 6.392,105.903M-57.625,76.277C-58.946,71.557 -59.818,66.733 -60.95,61.965C-60.943,60.015 -60.992,58.06 -61.221,56.105C-61.35,53.667 -62.267,51.23 -62.079,48.813C-59.913,45.783 -57.672,42.619 -56.101,39.198C-54.637,38.682 -53.226,38.012 -51.817,37.366C-47.32,35.216 -42.861,32.838 -39.12,29.503C-38.585,29.014 -38.017,28.48 -37.437,27.915C-38.21,29.325 -39.019,30.71 -39.929,32.035C-39.927,32.034 -39.926,32.033 -39.925,32.031C-39.934,32.06 -39.943,32.088 -39.949,32.118C-40.009,32.413 -39.838,32.738 -39.586,32.896C-38.935,33.302 -38.151,32.987 -37.474,32.817C-30.592,31.23 -24.479,27.094 -20.594,21.173C-18.643,18.521 -17.159,15.539 -15.375,12.774C-10.191,9.281 -3.551,8.433 2.458,10.033C2.993,10.835 3.727,11.054 4.187,10.812C11.236,10.049 8.062,24.509 17.303,31.706C17.275,31.94 17.276,32.198 17.321,32.483C17.53,38.505 21.166,43.59 25.922,47.019C27.162,47.754 26.403,49.905 26.395,51.135C26.359,52.343 25.343,58.76 25.854,61.084C25.062,63.981 24.573,68.147 24.161,69.208C21.875,79.462 19.945,90.54 13.037,98.867C8.153,103.77 1.141,105.366 -5.442,106.578C-8.672,107.197 -11.922,107.868 -15.215,107.972C-15.73,107.998 -16.392,107.868 -16.916,108.063C-17.787,107.892 -18.938,108.072 -19.687,107.875C-43.299,105.523 -52.078,100.165 -57.625,76.277M-65.123,72.816C-68.575,70.652 -69.828,65.731 -69.6,61.756C-67.58,63.654 -66.046,66.185 -66.008,68.965C-66.117,70.334 -65.766,71.645 -65.123,72.816M-65.851,78.306C-70.485,75.798 -75.902,62.248 -74.047,57.282C-71.54,52.644 -66.675,58.92 -64.771,61.238C-64.465,61.473 -63.708,62.779 -62.939,63.885C-62.571,65.609 -62.103,67.291 -62.075,67.917C-61.519,70.511 -60.97,72.942 -60.41,75.242C-61.85,73.933 -63.145,72.559 -64.24,70.912C-66.483,67.413 -63.014,65.051 -66.919,61.901C-68.12,60.801 -69.931,59.271 -71.619,59.449C-71.963,59.711 -71.641,60.127 -71.385,60.318C-71.056,60.543 -70.732,60.786 -70.416,61.041C-70.496,61.116 -70.554,61.216 -70.561,61.357C-70.601,66.014 -68.814,71.952 -64.328,74.012C-63.398,75.185 -62.171,76.144 -60.852,76.759C-60.542,76.872 -60.267,76.753 -60.087,76.546C-59.838,77.543 -59.583,78.506 -59.326,79.448C-61.511,79.96 -63.892,79.38 -65.851,78.306M1.266,8.618C-3.538,6.66 -9.41,7.987 -13.857,10.619C-13.339,9.945 -12.799,9.289 -12.198,8.673C-7.925,4.41 -2.603,4.591 1.266,8.618M-72.659,47.426C-74.198,42.505 -74.11,37.426 -73.48,32.312C-73.474,31.963 -73.151,29.211 -73.915,30.068C-75.243,32.002 -75.907,34.347 -76.096,36.846C-76.369,36.052 -76.624,35.252 -76.86,34.445C-78.306,24.594 -75.062,14.46 -68.62,6.803C-54.062,-11.645 -33.793,-25.01 -9.412,-20.348C-2.375,-18.834 4.913,-15.762 9.66,-10.149C10.292,-9.309 10.694,-8.585 11.18,-7.575C11.292,-7.374 11.398,-7.153 11.52,-6.945C11.213,-6.495 11.21,-5.727 11.873,-5.664C13.573,-5.982 15.066,-7.121 16.777,-7.514C19.386,-8.321 22.329,-8.353 24.986,-7.662C39.504,-3.76 45.108,16.519 44.593,29.924C44.482,32.802 43.818,35.765 42.182,38.217C42.191,38.017 42.207,37.818 42.211,37.617C42.296,36.082 41.987,34.576 41.493,33.128C41.346,32.72 41.111,32.191 40.624,32.108C40.201,32.037 40,32.554 39.94,32.878C39.968,38.079 39.592,43.338 37.345,48.141C36.712,49.697 35.972,51.206 35.161,52.675C35.106,52.789 35.083,52.909 35.072,53.028C32.492,53.568 29.844,55.994 28.074,58.487C28.018,58.388 27.945,58.323 27.863,58.272C28.233,54.95 28.067,50.389 28.046,49.163C27.944,47.871 28.563,46.023 27.207,45.147C23.317,42.234 20.339,38.129 19.723,33.255C21.874,34.377 24.525,35.181 27.856,35.499C28.396,35.533 28.943,35.516 29.477,35.427C30.607,35.359 30.574,33.588 29.455,33.565C24.558,32.855 19.391,31.54 16.327,27.321C14.071,24.518 12.97,21.205 12.132,17.717C11.299,14.67 10.574,11.019 7.686,9.239C6.851,8.756 5.849,8.612 4.913,8.857C4.75,8.896 4.561,8.97 4.374,9.067C0.941,2.994 -6.467,1.252 -12.083,5.56C-15.825,8.278 -17.921,12.542 -20.258,16.406C-24.101,23.35 -30.316,29.022 -38.148,30.957C-36.465,29.015 -34.799,27.081 -33.647,24.754C-33.376,24.031 -32.441,23.003 -32.503,22.182C-30.896,19.808 -29.765,17.248 -29.821,14.719C-29.725,14.398 -30.235,14.289 -30.289,14.601C-32.139,16.985 -33.32,19.857 -35.311,22.201C-38.349,26.21 -42.374,29.671 -46.774,32.212C-49.318,33.673 -51.935,34.986 -54.563,36.289C-54.692,36.377 -54.86,36.465 -55.048,36.555C-54.567,35.108 -54.227,33.614 -54.081,32.062C-54.033,31.484 -53.718,26.402 -54.958,28.345C-56.03,31.222 -56.375,34.341 -57.663,37.159C-59.18,40.884 -61.65,44.338 -63.756,47.782C-63.671,51.381 -63.243,55.343 -62.718,59.207C-62.883,59.242 -63.014,59.331 -63.113,59.469C-65.036,56.767 -67.897,54.211 -70.353,53.435C-70.338,53.312 -70.347,53.181 -70.417,53.042C-71.258,51.21 -72.112,49.38 -72.659,47.426M30.185,73.764C30.918,72.048 31.065,70.098 31.329,67.878C31.958,65.719 33.358,63.901 34.894,62.26C34.732,66.014 33.065,71.027 30.185,73.764M38.494,58.459C39.071,66.003 34.435,77.148 27.012,80.089C26.087,80.493 25.037,80.567 24.034,80.431C24.212,79.73 24.386,79.027 24.554,78.324C25.312,78.674 26.361,77.716 27.05,77.366C28.163,76.637 28.945,75.849 29.515,74.996C29.975,74.621 30.412,74.223 30.825,73.873C34.619,70.909 35.961,65.921 35.856,61.266C35.985,61.137 36.113,61.006 36.242,60.878C36.615,60.509 37.02,60.113 37.073,59.556C36.437,57.083 32.509,61.401 31.742,62.323C29.3,64.574 30.129,67.472 29.485,70.345C28.953,72.641 27.562,74.533 25.697,76.047C25.527,76.207 25.252,76.356 24.977,76.518C25.474,74.35 25.94,72.188 26.417,70.065C26.526,68.915 27.55,65.216 28.038,62.248C28.084,62.192 28.134,62.137 28.172,62.08C29.337,60.629 30.483,59.16 31.807,57.844C34.102,55.328 37.956,53.595 38.494,58.459M29.126,134.542C24.214,134.06 19.198,133.441 14.223,133.505C14.553,133.447 14.883,133.384 15.213,133.334C18.731,132.793 22.459,132.978 25.774,131.614C25.854,131.704 25.944,131.788 26.053,131.856C27.13,132.706 28.145,133.61 29.126,134.542M49.183,165.215C48.912,162.688 47.453,160.414 46.647,158.018C45.178,154.252 43.514,150.554 41.566,147.009C39.652,143.514 37.335,140.258 34.773,137.21C32.674,134.892 30.604,132.193 27.902,130.544C31.311,128.548 33.724,124.653 33.065,120.641C32.21,116.718 29.453,113.355 26.674,110.588C27.596,104.287 27.023,98.46 21.587,94.326C21.144,94.005 20.443,93.351 19.706,92.844C21.301,89.562 22.498,86.065 23.484,82.498C29.976,83.664 35.127,77.729 37.613,72.39C39.978,67.068 42.836,59.782 39.351,54.403C38.725,53.735 38.043,53.322 37.334,53.105C38.09,51.778 38.771,50.403 39.419,49.022C40.722,46.281 41.625,43.351 42.007,40.344C43.033,39.157 44.054,37.968 44.782,36.562C48.5,29.368 46.749,20.618 44.938,13.089C41.72,2.009 33.878,-10.605 20.97,-10.485C18.379,-10.345 15.415,-9.86 13.175,-8.388C13.013,-9.022 12.741,-9.641 12.529,-9.989C9.18,-15.583 2.906,-18.723 -2.998,-20.986C-20.991,-27.141 -41.427,-21.991 -55.65,-9.732C-66.234,-0.532 -77.65,10.497 -79.187,25.169C-79.4,27.763 -79.432,30.453 -78.896,33.015C-78.466,35.716 -77.545,38.311 -76.055,40.54C-75.633,45.114 -73.958,49.785 -71.958,53.198C-72.102,53.207 -72.243,53.222 -72.379,53.251C-81.766,55.561 -74.083,71.579 -70.842,76.711C-68.778,79.95 -65.048,81.969 -61.223,82.057C-60.583,82.095 -59.944,82.027 -59.335,81.819C-59.333,81.818 -59.331,81.818 -59.328,81.817C-59.327,81.817 -59.326,81.816 -59.325,81.816C-59.122,81.755 -58.915,81.691 -58.714,81.607C-57.484,85.793 -56.14,89.411 -54.532,92.52C-56.259,93.562 -58.217,97.519 -58.806,98.59C-60.813,102.441 -60.48,106.814 -61.074,110.961C-63.432,112.732 -65.954,114.638 -67.25,117.363C-69.188,121.716 -67.435,126.945 -63.908,129.946C-73.181,137.931 -79.692,148.872 -83.442,160.45C-83.76,161.458 -84.065,162.471 -84.3,163.502C-84.348,163.718 -84.395,163.978 -84.402,164.241C-84.557,164.336 -84.684,164.494 -84.755,164.746C-84.75,166.121 -83.225,166.89 -82.278,167.693C-67.838,177.58 -39.889,182.291 -22.402,182.726C2.028,183.706 27.388,180.368 48.612,167.504C49.197,167.116 49.155,166.461 48.828,166.015C49.055,165.837 49.211,165.574 49.183,165.215" style="fill:rgb(68,8,41);fill-rule:nonzero;"/>
                </g>
                <g transform="matrix(0.263117,0.964764,0.964764,-0.263117,118.887906,365.393988)">
                    <path d="M0.005,-0.004C0.005,-0.002 0.006,0.001 0.006,0.004C0.006,0.005 0.006,0.006 0.005,0.007C0.005,0.005 0.006,0.005 0.005,0.003C0.006,0.001 0.005,-0.002 0.005,-0.004" style="fill:rgb(68,8,41);fill-rule:nonzero;"/>
                </g>
                <g transform="matrix(1,0,0,1,216.7769,298.1926)">
                    <path d="M0,13.531C-1.721,11.896 -3.443,10.261 -5.165,8.618C-2.93,13.676 -3.491,19.469 -4.265,24.943C-4.855,29.15 -5.571,33.377 -7.118,37.332C-7.94,39.422 -8.985,41.404 -10.097,43.357C-10.232,43.532 -10.358,43.706 -10.484,43.88C-10.542,43.773 -10.609,43.716 -10.696,43.657C-10.319,40.34 -10.494,35.775 -10.513,34.547C-10.609,33.26 -9.99,31.413 -11.344,30.533C-15.242,27.622 -18.221,23.521 -18.83,18.647C-16.683,19.769 -14.033,20.572 -10.696,20.89C-10.165,20.92 -9.613,20.9 -9.082,20.813C-7.95,20.746 -7.979,18.975 -9.101,18.957C-13.995,18.241 -19.168,16.926 -22.225,12.709C-24.488,9.904 -25.59,6.596 -26.422,3.105C-27.254,0.058 -27.979,-3.588 -30.871,-5.377C-31.703,-5.851 -32.708,-5.995 -33.647,-5.754C-33.802,-5.715 -33.995,-5.638 -34.179,-5.541C-37.612,-11.615 -45.021,-13.356 -50.64,-9.052C-54.382,-6.334 -56.481,-2.07 -58.812,1.79C-62.661,8.744 -68.87,14.411 -76.704,16.345C-75.021,14.401 -73.358,12.467 -72.207,10.146C-71.936,9.421 -70.998,8.395 -71.056,7.573C-69.451,5.194 -68.319,2.64 -68.377,0.107C-68.28,-0.212 -68.793,-0.319 -68.841,-0.009C-70.698,2.37 -71.878,5.242 -73.87,7.593C-76.907,11.596 -80.931,15.059 -85.331,17.602C-87.875,19.063 -90.486,20.378 -93.117,21.675C-93.252,21.761 -93.417,21.858 -93.6,21.945C-93.126,20.494 -92.778,19.005 -92.633,17.448C-92.584,16.877 -92.275,11.79 -93.513,13.734C-94.586,16.606 -94.935,19.73 -96.221,22.545C-97.739,26.268 -100.206,29.73 -102.314,33.174C-102.227,36.771 -101.801,40.736 -101.279,44.595C-101.443,44.635 -101.569,44.721 -101.666,44.856C-102.855,43.183 -104.403,41.568 -105.999,40.398C-106.869,35.233 -107.198,29.963 -106.666,24.76C-105.97,18.086 -103.803,11.5 -99.857,6.074C-102.488,8.472 -105.119,10.871 -107.75,13.26C-107.053,8.841 -105.09,4.807 -102.72,1.016C-96.173,-9.458 -87.207,-18.627 -76.172,-24.149C-65.127,-29.681 -51.926,-31.325 -40.233,-27.379C-38.337,-26.732 -36.471,-25.948 -34.846,-24.787C-32.109,-22.844 -30.175,-19.971 -28.463,-17.079C-23.995,-19.072 -19.198,-17.456 -14.961,-15.01C-5.165,-9.323 0.899,2.234 0,13.531" style="fill:rgb(165,73,33);fill-rule:nonzero;"/>
                </g>
                <g transform="matrix(1,0,0,1,155.4116,384.4715)">
                    <path d="M0,29.382C-6.189,28.154 -12.292,26.51 -18.26,24.459C-20.735,23.618 -23.26,22.651 -25.117,20.814C-26.983,18.956 -27.979,16.374 -28.405,13.773C-29.169,9.024 -28.057,4.014 -25.436,0C-23.144,2.089 -20.436,3.773 -17.196,5.126C-17.109,5.3 -17.012,5.475 -16.935,5.649C-17.292,6.384 -17.573,7.148 -17.96,7.863C-18.095,8.144 -18.221,8.434 -18.356,8.714C-18.608,8.637 -18.898,8.656 -19.13,8.792C-20.291,9.42 -20.658,10.861 -20.968,12.051C-23.405,23.618 -8.327,23.193 -1.644,27.757C-1.035,28.251 -0.493,28.792 0,29.382" style="fill:rgb(201,49,71);fill-rule:nonzero;"/>
                </g>
                <g transform="matrix(1,0,0,1,198.3237,402.3064)">
                    <path d="M0,-8.115C-0.57,-2.853 -4.429,1.596 -9.004,4.255C-13.579,6.915 -18.84,8.075 -24.014,9.197C-27.07,9.864 -29.962,11.151 -32.902,11.896C-27.815,7.65 -20.522,6.915 -14.923,3.472C-12.747,2.021 -10.89,0.019 -9.72,-2.331C-9.42,-3.55 -7.225,-7.254 -8.946,-7.834C-9.4,-7.989 -9.981,-7.776 -10.184,-7.312C-10.281,-6.973 -10.396,-6.635 -10.503,-6.297C-10.629,-8.724 -11.596,-11.171 -12.892,-13.163C-10.145,-14.382 -7.573,-15.987 -5.435,-18.086C-4.894,-18.715 -4.391,-19.353 -3.907,-20.011C-1.276,-16.519 0.464,-12.38 0,-8.115" style="fill:rgb(201,49,71);fill-rule:nonzero;"/>
                </g>
            </g>
            <g transform="matrix(1,0,0,1,131.3506,319.3841)">
                <path d="M0,7.446C4.07,5.194 8.941,4.81 13.417,5.915C10.99,0 2.745,3.576 0,7.446" style="fill:rgb(165,73,33);fill-rule:nonzero;"/>
            </g>
            <g transform="matrix(1,0,0,1,113.0981,345.3375)">
                <path d="M0,11.06C-0.643,9.889 -0.994,8.578 -0.886,7.209C-0.923,4.429 -2.458,1.898 -4.477,0C-4.705,3.975 -3.453,8.896 0,11.06" style="fill:rgb(255,185,161);fill-rule:nonzero;"/>
            </g>
            <g transform="matrix(1,0,0,1,190.2388,319.3841)">
                <path d="M0,7.446C-2.746,3.576 -10.99,0 -13.416,5.915C-8.941,4.81 -4.07,5.194 0,7.446" style="fill:rgb(165,73,33);fill-rule:nonzero;"/>
            </g>
            <g transform="matrix(1,0,0,1,166.0225,289.9359)">
                <path d="M0,2.319C-0.601,2.934 -1.141,3.59 -1.659,4.264C2.788,1.632 8.661,0.305 13.464,2.263C9.596,-1.763 4.273,-1.945 0,2.319" style="fill:rgb(165,73,33);fill-rule:nonzero;"/>
            </g>
            <g transform="matrix(1,0,0,1,131.3506,321.4611)">
                <path d="M0,5.369C2.745,1.499 10.99,-2.077 13.417,3.838C8.941,2.733 4.07,3.117 0,5.369M14.397,5.531C15.266,5.194 15.298,4.087 15.198,3.295C14.578,0.239 11.198,-1.305 8.314,-1.231C4.42,-1.004 0.796,1.616 -1.3,4.832C-1.605,5.555 -2.661,7.069 -1.474,7.446C1.67,6.098 4.787,4.823 8.382,4.908C10.326,4.719 12.421,5.519 14.397,5.531" style="fill:rgb(68,8,41);fill-rule:nonzero;"/>
            </g>
            <g transform="matrix(1,0,0,1,190.2388,321.4611)">
                <path d="M0,5.369C-4.07,3.117 -8.941,2.733 -13.416,3.838C-10.99,-2.077 -2.746,1.499 0,5.369M-14.397,5.531C-12.421,5.519 -10.326,4.719 -8.382,4.908C-4.786,4.823 -1.67,6.098 1.474,7.446C2.661,7.069 1.604,5.555 1.3,4.832C-0.796,1.616 -4.42,-1.004 -8.314,-1.231C-11.197,-1.305 -14.578,0.239 -15.198,3.295C-15.298,4.087 -15.265,5.194 -14.397,5.531" style="fill:rgb(68,8,41);fill-rule:nonzero;"/>
            </g>
        </g>
    </g>
</svg>
