<?xml version="1.0" encoding="UTF-8" standalone="no"?>
<!DOCTYPE svg PUBLIC "-//W3C//DTD SVG 1.1//EN" "http://www.w3.org/Graphics/SVG/1.1/DTD/svg11.dtd">
<svg width="100%" height="100%" viewBox="0 0 590 914" version="1.1" xmlns="http://www.w3.org/2000/svg" xmlns:xlink="http://www.w3.org/1999/xlink" xml:space="preserve" xmlns:serif="http://www.serif.com/" style="fill-rule:evenodd;clip-rule:evenodd;stroke-linejoin:round;stroke-miterlimit:2;">
    <g transform="matrix(1,0,0,1,-353.45139,-81.136478)">
        <g transform="matrix(4.166667,0,0,4.166667,0,0)">
            <g transform="matrix(-0.870777,0.491678,0.491678,0.870777,110.716927,124.737556)">
                <path d="M3.072,-11.691C5.073,-7.938 4.652,-3.19 3.118,0.654C3.114,0.691 3.097,0.743 3.072,0.808C3.132,-1.22 2.611,-3.309 1.964,-5.42C1.732,-7.597 2.321,-9.674 3.072,-11.691" style="fill:rgb(252,149,149);fill-rule:nonzero;"/>
            </g>
            <g transform="matrix(1,0,0,1,185.9224,86.6895)">
                <path d="M0,6.039C-1.421,3.326 -4.11,0 -7.512,0.429C-8.195,0.646 -9.376,1.24 -9.127,2.096C-6.032,3.281 -2.717,4.039 0,6.039" style="fill:rgb(229,137,62);fill-rule:nonzero;"/>
            </g>
            <g transform="matrix(1,0,0,1,155.8457,127.7701)">
                <path d="M0,3.62C2.592,3.723 4.97,2.139 6.082,-0.146C2.906,1.874 -1.096,2.72 -4.637,1.138C-3.564,2.672 -1.918,3.766 0,3.62" style="fill:rgb(252,149,149);fill-rule:nonzero;"/>
            </g>
            <g transform="matrix(1,0,0,1,133.6904,92.2997)">
                <path d="M0,-5.181C-3.402,-5.61 -6.091,-2.284 -7.512,0.429C-4.795,-1.571 -1.48,-2.329 1.615,-3.514C1.864,-4.37 0.683,-4.964 0,-5.181" style="fill:rgb(229,137,62);fill-rule:nonzero;"/>
            </g>
            <g transform="matrix(1,0,0,1,201.0586,124.206)">
                <path d="M0,-7.496C-0.636,-3.907 -1.265,-0.239 -2.053,3.379C-1.655,3.105 -1.148,2.927 -0.803,2.598C0.985,1.092 2.958,-0.7 3.466,-3.071C3.69,-4.176 3.332,-5.272 3.354,-6.353C3.881,-7.951 5.621,-8.824 6.808,-9.915C8.085,-10.723 9.532,-12.022 11.046,-12.157C11.779,-11.78 10.959,-11.142 10.577,-10.845C10.479,-10.759 10.387,-10.666 10.289,-10.579C10.348,-5.767 8.305,-0.816 4.071,1.735C3.538,2.047 2.879,2.48 2.206,2.736C1.099,3.886 -0.299,4.745 -1.829,5.077C-2.024,5.062 -2.215,4.982 -2.366,4.857C-2.374,4.861 -2.381,4.86 -2.388,4.863C-2.631,5.905 -2.888,6.94 -3.166,7.968C-0.687,7.986 1.663,7.452 3.95,6.538C9.125,4.374 12.175,-1.03 12.767,-6.394C12.996,-9.353 13.762,-14.844 9.817,-15.482C5.533,-14.696 2.564,-10.827 0,-7.496" style="fill:rgb(255,222,204);fill-rule:nonzero;"/>
            </g>
            <g transform="matrix(-0.857745,-0.514076,-0.514076,0.857745,202.121396,123.193778)">
                <path d="M-2.53,-11.324C-2.101,-9.666 -1.77,-7.981 -1.414,-6.308C-0.747,-4.974 -2.123,-3.806 -2.53,-2.569C-2.963,-1.548 -3.145,-0.426 -3.134,0.7C-5.027,-2.881 -4.444,-7.811 -2.53,-11.324" style="fill:rgb(252,149,149);fill-rule:nonzero;"/>
            </g>
            <g transform="matrix(1,0,0,1,124.4922,130.5377)">
                <path d="M0,-35.505C-2.29,-36.287 3.174,-42.585 4.312,-43.334C5.888,-44.571 7.932,-45.579 9.976,-45.154C11.919,-44.799 13.47,-42.613 12.578,-40.713C11.703,-39.161 9.424,-39.656 8.023,-39.061C5.574,-38.294 3.137,-37.275 1.058,-35.748C0.772,-35.521 0.345,-35.236 0,-35.505M11.699,-19.126C11.239,-17.687 9.497,-16.75 8.188,-17.762C5.462,-19.282 6.323,-30.29 10.566,-27.462C11.758,-26.398 11.428,-24.688 11.695,-23.267C11.832,-21.897 12.11,-20.466 11.699,-19.126M24.632,-5.16C25.356,-4.978 25.746,-4.206 26.345,-3.806C29.068,-1.643 32.841,-2.32 35.849,-3.44C36.922,-3.997 37.625,-5.085 38.73,-5.492C40.983,-5.305 37.999,-1.504 37.372,-0.66C35.773,1.314 32.996,2.367 30.488,1.981C28.783,1.677 27.108,0.847 26.131,-0.637C25.479,-1.623 24.891,-2.619 24.132,-3.519C23.709,-4.053 23.707,-5.276 24.632,-5.16M41.513,11.107C42.389,14.016 29.309,14.686 27.294,14.381C26.731,14.371 25.753,14.213 25.825,13.468C25.903,13.127 26.212,12.995 26.516,12.912C29.041,12.641 31.607,12.558 34.117,12.203C35.77,11.954 37.15,11.614 38.634,11.041C39.551,10.743 40.974,9.805 41.513,11.107M53.14,-45.154C55.184,-45.579 57.229,-44.571 58.804,-43.334C59.942,-42.585 65.406,-36.287 63.116,-35.505C62.771,-35.236 62.344,-35.521 62.058,-35.748C59.98,-37.275 57.542,-38.294 55.093,-39.061C53.693,-39.656 51.413,-39.161 50.538,-40.713C49.646,-42.613 51.198,-44.799 53.14,-45.154M54.929,-17.762C53.62,-16.75 51.877,-17.687 51.417,-19.126C51.006,-20.466 51.285,-21.897 51.421,-23.267C51.689,-24.688 51.358,-26.398 52.55,-27.462C56.793,-30.29 57.654,-19.282 54.929,-17.762M4.407,21.597C10.714,26.144 18.308,28.516 25.981,29.523C27.396,29.636 28.805,29.711 30.194,29.725C31.507,29.74 32.823,29.724 34.139,29.709C64.91,25.969 69.821,12.276 74.457,-15.802C75.308,-20.397 76.08,-25.006 77.293,-29.522C77.357,-29.717 77.413,-29.961 77.478,-30.21C76.112,-31.014 75.007,-32.309 73.982,-33.48C71.766,-36.301 71.966,-40.076 72.107,-43.467C72.263,-44.286 72.017,-45.942 72.361,-46.976C72.351,-46.985 72.341,-46.989 72.332,-47C70.936,-48.695 69.676,-50.531 68.722,-52.515C68.176,-50.66 66.895,-44.755 64.359,-48.234C63.147,-50.417 61.886,-52.621 61.709,-55.17C59.68,-53.648 58.091,-51.313 55.387,-50.992C54.122,-50.729 52.174,-50.907 52.137,-52.559C52.442,-54.377 54.006,-55.805 54.126,-57.869C54.183,-58.052 54.199,-58.296 54.204,-58.562C54.015,-58.54 53.827,-58.53 53.648,-58.539C52.228,-58.442 50.806,-58.325 49.383,-58.347C43.742,-58.482 38.12,-60.044 33.287,-62.963C33.43,-61.898 33.416,-60.891 33.244,-60.452C31.155,-55.318 24.733,-59.858 22.149,-62.348C22.346,-59.715 21.484,-55.254 17.959,-55.999C14.522,-57.174 12.526,-60.629 10.857,-63.647C10.731,-63.998 10.343,-64.593 9.953,-65.245C9.924,-65.115 9.897,-64.987 9.877,-64.862C8.721,-58.759 3.906,-51.484 -3.074,-52.792C-4.468,-51.516 -6.044,-50.432 -7.688,-49.505C-8.328,-49.274 -9.232,-48.505 -10.049,-48.201C-8.971,-42.711 -9.059,-36.455 -13.315,-32.287C-13.621,-32.04 -14.039,-31.563 -14.511,-31.044C-14.189,-30.26 -14.201,-29.035 -14.087,-28.414C-13.548,-24.328 -12.818,-20.276 -12.056,-16.231C-11.068,-10.838 -9.77,-5.271 -8.333,-0.02C-6.289,8.303 -2.672,16.422 4.407,21.597" style="fill:rgb(255,222,204);fill-rule:nonzero;"/>
            </g>
            <g transform="matrix(1,0,0,1,210.8501,64.4201)">
                <path d="M0,4.39C0.05,4.51 0.09,4.63 0.13,4.76C1.57,8.51 3.14,12.33 2.47,16.5C2.04,20.06 0.65,23.49 -0.41,26.89C-0.65,32.15 -1.71,37.31 -2.39,42.51C-3.61,43.03 -4.81,43.88 -5.94,44.88L-5.95,44.88C-7.08,45.9 -8.13,47.07 -9.05,48.25C-8.95,47.72 -8.85,47.19 -8.74,46.67C-8.69,45.21 -7.04,39.25 -7.05,36.29C-5.58,35.39 -10.66,31.9 -10.96,30.75C-12.46,28.14 -12.1,25.02 -12.19,22.12C-12.33,21.21 -11.79,18.87 -12.82,18.36L-12.82,18.34C-13.9,16.16 -15.11,14 -16.03,11.72C-16.38,11.09 -16.34,10.04 -16.97,9.54C-17.47,9.16 -18.24,9.37 -18.53,9.92C-19.03,12.11 -19.66,14.32 -20.54,16.45C-21.55,14.48 -22.07,12.38 -22.34,10.17C-22.41,9.66 -22.51,9.13 -22.87,8.74C-23.93,7.71 -24.93,8.64 -25.23,9.79C-26.84,11.54 -29.15,13.56 -31.72,13.32C-30.62,11.33 -28.79,7.08 -31.1,5.44L-31.11,5.44C-31.33,5.25 -31.62,5.13 -31.93,5.13C-36.3,5.55 -40.74,5.51 -44.99,4.2C-48.63,3.12 -51.95,1.32 -54.96,-1.06C-55.79,-1.53 -57.95,-4.32 -58.73,-2.77C-58.72,-1.03 -57.17,0.18 -55.8,1.25C-52.63,10.01 -61.11,4.11 -63.99,0.88C-64.43,0.45 -65.02,-0.26 -65.49,-0.74C-66.01,-1.12 -66.77,-0.85 -66.99,-0.27C-67.2,1.26 -66.34,2.82 -66.55,4.41C-66.69,5.31 -66.68,8.27 -68.06,7.84C-71.54,5.96 -73.49,2.34 -75.46,-0.99C-75.75,-1.5 -76.14,-2.28 -76.84,-2.18C-77.2,-2.05 -77.34,-1.79 -77.35,-1.47C-77.39,-1.4 -77.42,-1.32 -77.43,-1.25C-79.06,3.9 -81.88,11.32 -87.96,11.82C-87.51,11.29 -87.08,10.75 -86.7,10.17C-85.62,8.5 -84.94,6.52 -84.85,4.53C-84.65,4.19 -85.06,3.86 -85.28,4.21C-87.88,9.18 -91.77,13.4 -96.84,15.96C-97.11,16.05 -97.4,16.2 -97.63,16.4C-97.96,16.46 -98.21,16.75 -98.29,17.09C-97.57,24.99 -97.62,29.39 -104.02,34.95C-104.58,35.44 -105.15,36.19 -104.55,36.88C-104.09,37.37 -103.51,37.29 -102.91,36.93C-102.85,37.43 -102.77,37.93 -102.75,38.37C-102.38,41.59 -101.84,44.79 -101.25,47.98C-102.53,46.35 -104.05,44.92 -105.77,43.85C-105.82,43.81 -105.88,43.77 -105.94,43.74C-106.4,43.54 -106.83,43.37 -107.26,43.23C-107.93,39.83 -109.24,36.61 -109.96,33.2C-110.93,29.77 -110.84,26.11 -111.69,22.68C-116.02,17.38 -116.15,10.12 -113.45,4.01C-113.33,3.61 -113.13,3.23 -113.07,2.81C-113.11,2.16 -113.85,2.47 -114.08,2.84C-115.49,4.55 -116.5,6.57 -117.08,8.72C-117.62,8.1 -118.3,7.56 -118.46,6.66C-118.91,4.43 -118.28,2.15 -117.4,0.06C-117.12,-0.65 -116.64,-1.54 -116.76,-2.36C-116.84,-2.76 -117.11,-3.14 -117.49,-3.32C-119.17,-4 -121.7,-3.79 -122.58,-5.7C-111.3,-7.95 -111.91,-16.15 -103.48,-21.41C-102.06,-22.23 -100.53,-22.83 -98.99,-23.38C-97.48,-23.83 -97.32,-25.45 -98.5,-26.39C-98.94,-27.03 -99.7,-27.8 -99.51,-28.62C-99.43,-28.83 -99.27,-29.03 -99.1,-29.18C-93.42,-32.13 -85.29,-31.21 -80.73,-26.53C-79.98,-25.9 -79.44,-24.8 -78.47,-24.46C-78.36,-24.44 -78.25,-24.45 -78.15,-24.47C-77.27,-24.15 -76.95,-25.53 -76.82,-26.24C-76.48,-27.54 -76.04,-28.79 -75.57,-30.04C-74.46,-32.71 -72.86,-35.51 -70.9,-37.71C-70.28,-38.29 -69.65,-39.1 -68.77,-39.21C-68.53,-39 -68.51,-38.63 -68.44,-38.34C-68.37,-37.5 -68.35,-36.64 -68.33,-35.78C-69.35,-34.67 -69.99,-33.51 -69.84,-32.4C-69.35,-31.56 -68.42,-32.29 -67.95,-32.78C-60.97,-40.29 -54.72,-40.26 -45.18,-38.97C-42.05,-38.75 -38.86,-38.97 -35.91,-40.1C-33.87,-40.69 -28.93,-43.86 -27.13,-42.33C-26.86,-39.76 -29.38,-37.69 -30.82,-35.8C-31.41,-34.91 -30.27,-33.81 -29.41,-34.44C-29.08,-34.76 -28.75,-35.09 -28.42,-35.43C-27.96,-35.51 -27.48,-35.69 -27.1,-35.71C-22.76,-36.28 -15.44,-36.25 -12.37,-32.72C-12.89,-31.16 -14.89,-30.6 -15.52,-29.1C-15.86,-28.07 -14.86,-27.41 -14.01,-27.13C-9.03,-25.26 -2.44,-22.12 -3.05,-15.84C-3.72,-16.39 -4.38,-16.96 -5.03,-17.53C-5.9,-18.17 -6.91,-19.34 -8.08,-19.07L-8.09,-19.07C-8.23,-19.03 -8.28,-18.88 -8.24,-18.75C-7.95,-17.88 -7.21,-17.22 -6.67,-16.5C-3.61,-12.58 0.84,-10.18 5.81,-10.04C4.3,-7.93 1.83,-6.76 -0.43,-5.62C-2.64,-3.81 1.08,-2.84 2.23,-1.82C3.69,-0.75 4.91,0.59 5.91,2.08C6.91,3.58 7.69,5.24 8.27,6.94C6.39,7.23 4.44,6.66 2.6,6.04C2.06,5.28 1.36,4.65 0.46,4.2C0.31,3.96 -0.05,4.13 0,4.39" style="fill:rgb(247,183,107);fill-rule:nonzero;"/>
            </g>
            <g transform="matrix(1,0,0,1,112.8296,110.7112)">
                <path d="M0,19.949C-0.849,19.617 -1.574,19.199 -2.207,18.715C-6.63,16.248 -10.452,12.111 -11.116,6.938C-11.153,6.245 -11.38,5.436 -11.319,4.713C-11.638,4.454 -11.957,4.197 -12.274,3.941C-13.273,3.265 -13.862,2.066 -12.231,2.648C-9.404,3.959 -5.53,5.86 -4.707,9.109C-4.504,10.92 -4.643,12.924 -3.692,14.525C-2.73,16.149 -1.212,17.303 0.356,18.296C-0.522,14.848 -1.281,11.368 -2.049,7.917C-2.11,7.607 -2.169,7.297 -2.23,6.986C-4.164,4.192 -6.092,1.38 -8.988,-0.378C-16.052,-4.148 -16.034,5.311 -14.619,9.724C-12.886,17.337 -6.599,24.097 1.681,23.101C1.35,22.011 1.041,20.914 0.746,19.811C0.552,19.976 0.292,20.057 0,19.949" style="fill:rgb(255,222,204);fill-rule:nonzero;"/>
            </g>
            <g transform="matrix(1,0,0,1,114.4072,199.3949)">
                <path d="M0,22.566C0.459,23.142 1.247,23.454 1.878,23.691C2.469,18.915 3.788,14.295 5.656,9.868C6.769,6.648 8.698,3.821 9.398,0.537L9.384,0.526C8.687,-0.017 7.999,-0.573 7.309,-1.125C4.442,3.172 2.231,8.01 0.663,12.876C-0.069,16.05 -1.193,19.44 0,22.566" style="fill:rgb(170,137,128);fill-rule:nonzero;"/>
            </g>
            <g transform="matrix(1,0,0,1,176.7773,215.242)">
                <path d="M0,-19.95C1.321,-24.097 3.091,-28.118 5.421,-31.802C6.352,-33.35 7.491,-34.883 8.536,-36.447C6.436,-37.535 4.372,-38.785 2.436,-40.208C2.263,-39.98 2.085,-39.768 1.94,-39.586C0.088,-37.189 -1.99,-34.953 -4.442,-33.156C-9.561,-29.417 -16.119,-28.34 -22.337,-28.524C-31.279,-28.455 -40.427,-32.991 -44.779,-40.955C-46.577,-39.71 -48.468,-38.596 -50.41,-37.593C-50.757,-37.395 -51.192,-37.138 -51.616,-37.033C-50.409,-33.996 -48.583,-31.084 -46.757,-28.258C-43.282,-22.796 -40.325,-16.986 -38.679,-10.715C-35.888,-0.981 -34.858,9.189 -34.23,19.266C-34.184,19.741 -34.164,20.321 -34.327,20.775C-29.933,20.962 -25.539,21.005 -21.179,20.943C-16.189,20.907 -11.192,20.715 -6.219,20.308C-6.522,19.367 -6.041,17.8 -6.176,16.968C-6.142,15.004 -6.005,13.042 -5.875,11.081C-5.112,0.562 -3.312,-9.923 0,-19.95" style="fill:rgb(255,248,159);fill-rule:nonzero;"/>
            </g>
            <g transform="matrix(1,0,0,1,187.7183,167.2369)">
                <path d="M0,0.621C-0.064,0.401 -0.095,0.214 -0.114,0.044C-2.254,-2.57 -4.66,-4.967 -7.353,-7.021C-8.271,-7.781 -9.252,-8.456 -10.221,-9.141C-11.012,-8.803 -11.818,-8.495 -12.629,-8.204C-12.531,-4.967 -12.954,-1.558 -12.128,1.502C-9.056,4.895 -4.974,7.137 -1.275,9.762C0.355,6.959 1.332,3.999 0,0.621" style="fill:rgb(229,101,14);fill-rule:nonzero;"/>
            </g>
            <g transform="matrix(1,0,0,1,188.1553,222.5781)">
                <path d="M0,-23.73C-0.236,-23.494 -0.483,-23.264 -0.702,-23.014C1.862,-15.706 4.865,-8.535 6.621,-0.977C6.715,-0.676 6.812,-0.379 6.906,-0.082C6.987,0.161 7.061,0.405 7.149,0.645C8.51,-0.09 9.114,-1.478 8.746,-2.941C8.447,-5.169 7.699,-7.292 6.871,-9.375C4.861,-14.474 2.862,-19.401 0.669,-24.375C0.42,-24.134 0.169,-23.896 0,-23.73" style="fill:rgb(170,137,128);fill-rule:nonzero;"/>
            </g>
            <g transform="matrix(1,0,0,1,177.4697,171.5202)">
                <path d="M0,2.16C-4.62,7.95 -10.32,12.04 -17.96,12.67C-28.36,13.99 -37.59,10.73 -43.78,2.01C-43.84,1.92 -43.92,1.81 -44,1.7C-43.45,1.28 -42.9,0.85 -42.38,0.4C-39.22,-2.29 -38.5,-3.76 -38.61,-7.9C-38.6,-8.11 -38.6,-8.32 -38.6,-8.53C-38.58,-9.56 -38.6,-10.59 -38.67,-11.62C-34.37,-10.12 -29.86,-9.18 -25.43,-8.71C-23.74,-8.54 -22.05,-8.5 -20.35,-8.55C-20.15,-8.56 -19.979,-8.63 -19.81,-8.73C-15.76,-8.7 -11.82,-9.84 -7.92,-10.84C-6.72,-11.13 -5.52,-11.46 -4.33,-11.83C-4.39,-10.98 -4.37,-10.1 -4.53,-9.3C-4.52,-9.2 -4.52,-9.1 -4.52,-8.99C-4.5,-6.68 -4.979,-4.04 -4.15,-1.92C-2.91,-0.45 -1.51,0.91 0,2.16" style="fill:rgb(255,222,204);fill-rule:nonzero;"/>
            </g>
            <g transform="matrix(1,0,0,1,140.29,151.9102)">
                <path d="M0,84C-13.2,83.29 -26.37,81.17 -38.66,76.31C-43.78,74.27 -48.7,71.77 -53.24,68.65C-53.34,68.58 -53.47,68.49 -53.61,68.41C-53.56,68.17 -53.52,67.93 -53.48,67.72C-52.87,65.26 -52.31,62.78 -51.66,60.33C-49.99,55.2 -47.24,50.35 -43.76,46.13C-41.74,43.67 -39.46,41.42 -37,39.46C-36.89,39.38 -36.8,39.3 -36.71,39.22C-35.92,39.59 -35.06,39.87 -34.3,40.26C-29.98,42.22 -26.04,44.98 -22.71,48.38C-22.57,48.54 -22.44,48.66 -22.3,48.78C-22.51,49.14 -22.71,49.51 -22.9,49.88C-25.39,54.58 -26.94,59.75 -27.74,65.03C-28.43,68.93 -28.45,72.98 -23.56,73.49C-22.69,73.6 -21.9,72.92 -21.95,72.03C-21.77,70.64 -21.54,69.25 -21.31,67.82C-20.45,63.24 -18.91,58.81 -17.32,54.44C-16.61,52.17 -14.96,49.42 -14.64,47.22C-14.83,46.21 -15.91,45.72 -16.64,45.13C-17.5,44.53 -18.34,43.84 -19.34,43.47C-20.87,42.97 -21.2,44.42 -20.04,45.21C-20.23,45.47 -20.4,45.73 -20.58,45.99C-20.78,46.29 -20.97,46.59 -21.17,46.9C-21.21,46.86 -21.24,46.81 -21.29,46.77C-24.34,43.45 -28.04,40.83 -32.02,38.74C-33.72,38 -35.4,36.57 -37.29,36.57C-38.96,33.81 -38.54,30.32 -37.14,27.37C-36.52,26.04 -35.69,24.82 -34.76,23.82C-33.59,22.46 -31.44,22.02 -30.9,20.17C-29.89,16.8 -29.04,13.31 -27.23,10.25C-24.57,6.19 -20.93,2.62 -16.53,0.5C-16.24,0.3 -15.84,0.16 -15.45,0C-12.73,2.45 -9.62,4.45 -6.27,6.04C-7.12,6.69 -7.94,7.36 -8.14,7.47C-10.57,9.26 -12.92,11.16 -15.17,13.18C-14.87,11.67 -17.27,13.98 -17.66,14.86C-19.4,17.8 -19.25,21.49 -18.27,24.66C-15.56,33 -9.23,39.59 -6.22,47.83C-1.91,59.19 -0.88,71.61 -0.06,83.73C-0.06,83.82 -0.02,83.91 0,84" style="fill:rgb(244,143,42);fill-rule:nonzero;"/>
            </g>
            <g transform="matrix(1,0,0,1,224.1299,166.88)">
                <path d="M0,53.41C-8.66,57.72 -17.69,61.28 -27.01,63.91C-35.03,66.29 -43.28,67.71 -51.6,68.5C-51.59,68.42 -51.59,68.34 -51.6,68.26C-51.39,64.27 -51.08,60.21 -50.72,56.22C-49.66,46.63 -47.9,36.93 -44.7,27.78C-43.08,23.01 -40.74,18.72 -37.77,14.59C-35.79,11.6 -33.33,8.42 -33.39,4.67C-33.42,3.06 -33.98,1.43 -35.11,0.26C-35.4,-0.02 -35.66,-0.2 -35.86,-0.29C-37.68,-2.49 -40.72,-5.32 -41.17,-5.59C-42.66,-6.87 -44.31,-7.94 -45.84,-9.14C-43.5,-10.21 -41.25,-11.49 -39.2,-13.07C-38.36,-13.72 -37.58,-14.39 -36.84,-15.09C-35.92,-14.81 -34.98,-14.57 -34.11,-14.16C-29.27,-12.14 -26.24,-7.26 -24.94,-2.35C-24.12,0.48 -24.14,4.14 -21.93,6.35C-19.97,7.46 -18.41,8.81 -17.29,10.36C-15,13.51 -14.49,17.45 -15.96,21.83C-20.73,23.34 -25.21,25.54 -29.05,28.84C-30.24,29.98 -31.92,31.18 -32.56,32.76C-33,31.82 -33.45,30.87 -33.93,29.94C-33.5,29.45 -32.83,29.14 -32.54,28.57C-32.43,28.12 -32.73,27.95 -33.07,27.96C-33.29,27.97 -33.53,28.06 -33.68,28.2C-34.27,28.56 -34.79,29.01 -35.44,29.25C-36.27,30.19 -37.42,30.85 -38.28,31.78C-38.91,33.06 -37.81,34.44 -37.45,35.67C-35.66,40.5 -33.88,45.34 -32.44,50.29C-31.57,52.78 -31.66,55.65 -30.47,58C-29.26,59.27 -27.43,58.16 -26.46,57.14C-25.39,56.33 -25.05,55 -25.1,53.71C-25.21,49.63 -27.12,45.86 -28.56,42.12C-29.26,40.48 -29.94,38.83 -30.64,37.19C-31.08,36.12 -31.53,35.06 -32,34.01C-31.56,33.81 -31.08,33.21 -30.78,32.92C-28.57,30.78 -26.14,28.92 -23.45,27.37C-21.21,26.14 -19,25.02 -16.57,24.14C-16.28,24.02 -15.96,23.95 -15.66,23.86C-13.76,25.65 -12.03,27.59 -10.47,29.66C-5.21,36.58 -1.8,44.9 0,53.41" style="fill:rgb(244,143,42);fill-rule:nonzero;"/>
            </g>
            <g transform="matrix(1,0,0,1,136.6055,174.9492)">
                <path d="M0,-15.374C-0.021,-15.518 -0.028,-15.69 -0.022,-15.872C-0.652,-16.125 -1.275,-16.393 -1.892,-16.673C-5.348,-14.27 -8.734,-11.763 -11.814,-8.885C-13.208,-5.309 -13.07,-1.932 -12.115,1.299C-11.829,1.088 -11.501,0.912 -11.229,0.773C-7.33,-1.603 -3.434,-3.827 -0.668,-7.436C-0.001,-9.898 -0.162,-12.884 0,-15.374" style="fill:rgb(229,101,14);fill-rule:nonzero;"/>
            </g>
            <g transform="matrix(1,0,0,1,195.0264,45.3521)">
                <path d="M0,167.851C0.828,169.934 1.576,172.057 1.875,174.285C2.243,175.748 1.639,177.136 0.278,177.871C0.19,177.631 0.116,177.387 0.035,177.144C-0.059,176.847 -0.156,176.55 -0.25,176.249C-2.006,168.691 -5.009,161.52 -7.573,154.212C-7.354,153.962 -7.107,153.732 -6.871,153.496C-6.702,153.33 -6.451,153.092 -6.202,152.851C-4.009,157.825 -2.01,162.752 0,167.851M2.096,185.435C-5.927,187.822 -14.172,189.241 -22.494,190.023C-22.486,189.947 -22.486,189.869 -22.496,189.79C-22.282,185.798 -21.981,181.735 -21.612,177.745C-20.552,168.153 -18.794,158.461 -15.594,149.307C-13.974,144.54 -11.634,140.25 -8.671,136.116C-6.687,133.129 -4.23,129.952 -4.288,126.198C-4.32,124.587 -4.881,122.962 -6.011,121.791C-6.3,121.509 -6.552,121.327 -6.761,121.233C-8.577,119.034 -11.621,116.203 -12.071,115.938C-13.555,114.656 -15.206,113.59 -16.74,112.384C-14.394,111.32 -12.151,110.037 -10.097,108.454C-9.261,107.812 -8.475,107.137 -7.732,106.434C-6.817,106.718 -5.881,106.955 -5.009,107.364C-0.171,109.383 2.862,114.264 4.163,119.18C4.984,122.005 4.966,125.665 7.175,127.875C13.128,131.244 15.345,136.83 13.146,143.358C8.375,144.869 3.892,147.067 0.058,150.364C-1.138,151.511 -2.816,152.706 -3.46,154.292C-3.898,153.344 -4.35,152.402 -4.827,151.472L-4.825,151.47C-4.396,150.981 -3.729,150.671 -3.434,150.093C-3.26,149.356 -4.188,149.365 -4.578,149.73C-5.167,150.092 -5.689,150.541 -6.34,150.777C-7.165,151.718 -8.32,152.378 -9.176,153.304C-9.811,154.589 -8.703,155.966 -8.344,157.199C-6.561,162.03 -4.772,166.869 -3.333,171.816C-2.464,174.307 -2.552,177.179 -1.367,179.527C-0.16,180.8 1.673,179.69 2.648,178.671C3.717,177.862 4.056,176.53 4.008,175.242C3.898,171.159 1.988,167.389 0.543,163.644C-0.602,160.945 -1.705,158.219 -2.901,155.539C-2.454,155.337 -1.974,154.741 -1.68,154.449C0.529,152.31 2.961,150.446 5.656,148.897C7.893,147.665 10.103,146.55 12.534,145.672C12.823,145.545 13.139,145.475 13.443,145.383C21.716,153.166 26.762,163.883 29.103,174.937C20.443,179.247 11.413,182.811 2.096,185.435M-24.468,190.198C-29.441,190.605 -34.438,190.797 -39.428,190.833C-43.788,190.895 -48.182,190.852 -52.576,190.665C-52.413,190.211 -52.433,189.631 -52.479,189.156C-53.107,179.079 -54.137,168.909 -56.928,159.175C-58.574,152.904 -61.531,147.094 -65.006,141.632C-66.832,138.806 -68.658,135.894 -69.865,132.857C-69.441,132.752 -69.006,132.495 -68.659,132.297C-66.717,131.294 -64.826,130.18 -63.028,128.935C-58.676,136.899 -49.528,141.435 -40.586,141.366C-34.368,141.55 -27.81,140.473 -22.691,136.734C-20.239,134.937 -18.161,132.701 -16.309,130.304C-16.164,130.122 -15.986,129.91 -15.813,129.682C-13.877,131.105 -11.813,132.355 -9.713,133.443C-10.758,135.007 -11.897,136.54 -12.828,138.088C-15.158,141.772 -16.928,145.793 -18.249,149.94C-21.561,159.967 -23.361,170.452 -24.124,180.971C-24.254,182.932 -24.391,184.894 -24.425,186.858C-24.29,187.69 -24.771,189.257 -24.468,190.198M-73.31,152.918C-72.62,153.47 -71.932,154.026 -71.235,154.569L-71.221,154.58C-71.921,157.864 -73.85,160.691 -74.963,163.911C-76.831,168.338 -78.15,172.958 -78.741,177.734C-79.372,177.497 -80.16,177.185 -80.619,176.609C-81.812,173.483 -80.688,170.093 -79.956,166.919C-78.388,162.053 -76.177,157.215 -73.31,152.918M-93.399,182.869C-98.512,180.823 -103.433,178.324 -107.975,175.205C-108.073,175.134 -108.204,175.052 -108.344,174.972C-108.296,174.727 -108.26,174.483 -108.213,174.279C-107.611,171.817 -107.042,169.342 -106.392,166.89C-103.76,158.767 -98.418,151.353 -91.74,146.013C-91.625,145.941 -91.538,145.86 -91.444,145.781C-90.654,146.15 -89.801,146.423 -89.035,146.814C-84.716,148.782 -80.781,151.534 -77.444,154.941C-77.307,155.097 -77.172,155.222 -77.039,155.333C-79.874,160.33 -81.62,165.892 -82.479,171.586C-83.17,175.488 -83.188,179.537 -78.295,180.047C-77.423,180.156 -76.639,179.475 -76.682,178.586C-76.511,177.196 -76.279,175.809 -76.045,174.379C-75.187,169.801 -73.647,165.366 -72.057,160.997C-71.347,158.731 -69.698,155.973 -69.376,153.774C-69.568,152.771 -70.642,152.279 -71.373,151.688C-72.238,151.092 -73.08,150.395 -74.076,150.032C-75.604,149.523 -75.939,150.975 -74.777,151.769C-75.175,152.318 -75.54,152.885 -75.906,153.453C-75.947,153.413 -75.981,153.372 -76.026,153.331C-79.072,150.01 -82.777,147.391 -86.753,145.296C-88.452,144.556 -90.14,143.129 -92.031,143.123C-94.448,139.125 -92.478,133.576 -89.496,130.373C-88.323,129.014 -86.181,128.575 -85.632,126.73C-84.628,123.359 -83.775,119.871 -81.965,116.804C-79.309,112.75 -75.664,109.175 -71.265,107.054C-70.976,106.856 -70.576,106.713 -70.182,106.562C-67.466,109.01 -64.355,111.012 -61.002,112.602C-61.86,113.243 -62.677,113.918 -62.877,114.024C-65.303,115.821 -67.658,117.721 -69.909,119.739C-69.605,118.228 -72.003,120.541 -72.396,121.417C-74.133,124.356 -73.986,128.046 -73.01,131.218C-70.297,139.553 -63.965,146.152 -60.959,154.386C-56.647,165.749 -55.619,178.168 -54.799,190.285C-54.797,190.382 -54.759,190.467 -54.732,190.557C-67.932,189.846 -81.103,187.731 -93.399,182.869M-19.436,123.387C-20.262,120.327 -19.839,116.918 -19.937,113.681C-19.126,113.39 -18.32,113.082 -17.529,112.744C-16.56,113.429 -15.579,114.104 -14.661,114.864C-11.968,116.918 -9.562,119.315 -7.422,121.929C-7.403,122.099 -7.372,122.286 -7.308,122.506C-5.976,125.884 -6.953,128.844 -8.583,131.647C-12.282,129.022 -16.364,126.78 -19.436,123.387M-69.65,130.37C-69.922,130.509 -70.25,130.685 -70.536,130.896C-71.491,127.665 -71.629,124.288 -70.235,120.712C-67.155,117.834 -63.769,115.327 -60.313,112.924C-59.696,113.204 -59.073,113.472 -58.443,113.725C-58.449,113.907 -58.442,114.079 -58.421,114.223C-58.583,116.713 -58.422,119.699 -59.089,122.161C-61.855,125.77 -65.751,127.994 -69.65,130.37M-59.937,126.563C-56.774,123.881 -56.06,122.408 -56.167,118.266C-56.13,117.031 -56.15,115.788 -56.228,114.55C-51.931,116.046 -47.415,116.991 -42.988,117.459C-41.301,117.631 -39.605,117.666 -37.91,117.616C-37.711,117.61 -37.533,117.535 -37.371,117.433C-33.316,117.471 -29.375,116.329 -25.479,115.325C-24.273,115.038 -23.075,114.704 -21.888,114.334C-21.946,115.19 -21.927,116.072 -22.082,116.866C-22.011,119.246 -22.572,122.026 -21.711,124.248C-20.466,125.722 -19.065,127.08 -17.561,128.324C-22.172,134.119 -27.873,138.211 -35.515,138.841C-45.912,140.156 -55.142,136.896 -61.335,128.174C-61.401,128.087 -61.478,127.98 -61.559,127.871C-61.008,127.448 -60.46,127.021 -59.937,126.563M-78.867,85.166C-80.304,79.915 -81.602,74.348 -82.59,68.955C-83.352,64.909 -84.082,60.858 -84.621,56.772C-84.735,56.151 -84.723,54.925 -85.045,54.142C-84.573,53.623 -84.155,53.146 -83.849,52.899C-79.593,48.731 -79.505,42.475 -80.583,36.985C-79.766,36.68 -78.862,35.912 -78.222,35.681C-76.578,34.754 -75.002,33.67 -73.608,32.394C-66.628,33.701 -61.813,26.426 -60.657,20.323C-60.637,20.198 -60.61,20.071 -60.581,19.941C-60.191,20.592 -59.803,21.188 -59.677,21.539C-58.008,24.557 -56.012,28.011 -52.575,29.187C-49.05,29.932 -48.188,25.47 -48.385,22.838C-45.801,25.328 -39.379,29.867 -37.29,24.734C-37.118,24.295 -37.104,23.288 -37.247,22.222C-32.414,25.142 -26.792,26.704 -21.151,26.839C-19.728,26.861 -18.306,26.744 -16.886,26.647C-16.707,26.656 -16.519,26.646 -16.33,26.624C-16.335,26.89 -16.351,27.133 -16.408,27.317C-16.528,29.381 -18.092,30.809 -18.397,32.627C-18.36,34.279 -16.412,34.457 -15.147,34.194C-12.443,33.873 -10.854,31.538 -8.825,30.016C-8.648,32.565 -7.387,34.769 -6.175,36.952C-3.639,40.43 -2.358,34.526 -1.812,32.671C-0.858,34.655 0.402,36.49 1.798,38.186C1.807,38.197 1.817,38.2 1.827,38.21C1.483,39.244 1.729,40.9 1.573,41.718C1.432,45.11 1.232,48.884 3.448,51.706C4.473,52.877 5.578,54.172 6.944,54.976C6.879,55.225 6.823,55.468 6.759,55.664C5.546,60.179 4.774,64.789 3.923,69.383C-0.713,97.462 -5.624,111.155 -36.395,114.895C-37.711,114.91 -39.027,114.925 -40.34,114.911C-41.729,114.897 -43.138,114.822 -44.553,114.709C-52.226,113.701 -59.82,111.33 -66.127,106.782C-73.206,101.608 -76.823,93.489 -78.867,85.166M-86.588,81.599C-86.641,81.555 -86.681,81.518 -86.703,81.489C-89.929,78.895 -92.63,74.967 -92.733,70.716C-91.087,72.102 -89.553,73.622 -88.685,75.631C-88.21,77.788 -87.637,79.864 -86.588,81.599M-96.816,75.083C-98.231,70.67 -98.249,61.211 -91.185,64.981C-88.289,66.739 -86.361,69.551 -84.427,72.345C-84.366,72.656 -84.307,72.966 -84.246,73.276C-83.478,76.727 -82.719,80.207 -81.841,83.655C-83.409,82.662 -84.927,81.508 -85.889,79.884C-86.84,78.283 -86.701,76.279 -86.904,74.468C-87.727,71.219 -91.601,69.318 -94.428,68.007C-96.059,67.425 -95.47,68.624 -94.471,69.3C-94.154,69.556 -93.835,69.813 -93.516,70.072C-93.577,70.795 -93.35,71.604 -93.313,72.297C-92.649,77.47 -88.827,81.607 -84.404,84.074C-83.771,84.558 -83.046,84.976 -82.197,85.308C-81.905,85.416 -81.645,85.335 -81.451,85.17C-81.156,86.273 -80.847,87.37 -80.516,88.46C-88.796,89.456 -95.083,82.696 -96.816,75.083M-94.141,52.272C-95.104,48.838 -95.013,45.176 -95.867,41.745C-100.194,36.444 -100.331,29.185 -97.629,23.077C-97.504,22.681 -97.303,22.293 -97.25,21.878C-97.291,21.227 -98.025,21.541 -98.254,21.905C-99.668,23.613 -100.676,25.639 -101.252,27.786C-101.8,27.168 -102.479,26.627 -102.636,25.731C-103.087,23.496 -102.459,21.215 -101.573,19.126C-101.296,18.414 -100.817,17.524 -100.938,16.71C-101.02,16.305 -101.283,15.927 -101.664,15.749C-103.343,15.064 -105.881,15.273 -106.755,13.365C-95.476,11.114 -96.091,2.917 -87.657,-2.338C-86.238,-3.163 -84.711,-3.764 -83.168,-4.31C-81.658,-4.758 -81.492,-6.378 -82.672,-7.321C-83.115,-7.959 -83.878,-8.729 -83.682,-9.557C-83.602,-9.767 -83.449,-9.961 -83.279,-10.114C-77.597,-13.058 -69.463,-12.145 -64.91,-7.462C-64.16,-6.836 -63.613,-5.731 -62.648,-5.396C-62.532,-5.371 -62.429,-5.379 -62.331,-5.4C-61.444,-5.087 -61.129,-6.461 -60.995,-7.173C-60.659,-8.469 -60.218,-9.727 -59.742,-10.977C-58.635,-13.647 -57.04,-16.447 -55.073,-18.643C-54.452,-19.223 -53.831,-20.028 -52.944,-20.146C-52.71,-19.932 -52.69,-19.566 -52.617,-19.274C-52.551,-18.437 -52.525,-17.577 -52.507,-16.715C-53.523,-15.607 -54.163,-14.441 -54.021,-13.337C-53.526,-12.49 -52.597,-13.22 -52.123,-13.712C-45.145,-21.222 -38.895,-21.19 -29.354,-19.903C-26.229,-19.687 -23.033,-19.902 -20.088,-21.028C-18.046,-21.623 -13.107,-24.793 -11.306,-23.262C-11.036,-20.691 -13.556,-18.619 -14.994,-16.728C-15.591,-15.842 -14.451,-14.742 -13.584,-15.368C-13.259,-15.69 -12.928,-16.024 -12.598,-16.366C-12.141,-16.444 -11.652,-16.626 -11.278,-16.638C-6.935,-17.214 0.386,-17.184 3.454,-13.657C2.933,-12.096 0.937,-11.533 0.308,-10.033C-0.04,-9.002 0.968,-8.347 1.815,-8.06C6.796,-6.192 13.388,-3.053 12.776,3.225C12.103,2.679 11.446,2.109 10.795,1.541C9.926,0.893 8.918,-0.269 7.74,-0.002L7.729,-0.005C7.597,0.041 7.542,0.19 7.58,0.319C7.869,1.184 8.61,1.85 9.158,2.565C12.21,6.484 16.663,8.886 21.637,9.028C20.126,11.137 17.655,12.311 15.389,13.452C13.183,15.256 16.902,16.23 18.049,17.243C20.974,19.388 22.92,22.599 24.092,26.004L24.092,26.006C22.209,26.295 20.265,25.726 18.424,25.103C17.883,24.35 17.187,23.715 16.283,23.267C16.135,23.03 15.769,23.198 15.825,23.458C15.874,23.576 15.916,23.701 15.95,23.826C17.392,27.577 18.962,31.395 18.29,35.572C17.867,39.132 16.478,42.562 15.411,45.962C15.174,51.221 14.116,56.376 13.433,61.579C10.98,62.614 8.604,64.958 6.771,67.32C6.871,66.789 6.974,66.262 7.079,65.739C7.13,64.275 8.782,58.319 8.77,55.357C10.244,54.461 5.168,50.968 4.86,49.817C3.362,47.212 3.727,44.086 3.632,41.187C3.489,40.277 4.03,37.941 3.006,37.426C3.003,37.42 3.004,37.415 3.001,37.409C1.92,35.227 0.714,33.066 -0.207,30.789C-0.561,30.159 -0.519,29.109 -1.147,28.604C-1.646,28.227 -2.421,28.439 -2.702,28.987C-3.202,31.178 -3.832,33.391 -4.713,35.515C-5.731,33.543 -6.242,31.443 -6.515,29.233C-6.584,28.728 -6.691,28.194 -7.042,27.808C-8.108,26.78 -9.104,27.705 -9.405,28.862C-11.016,30.603 -13.328,32.631 -15.893,32.383C-14.797,30.402 -12.964,26.144 -15.28,24.506L-15.289,24.506C-15.511,24.315 -15.798,24.2 -16.108,24.202C-20.477,24.62 -24.917,24.58 -29.167,23.264C-32.811,22.186 -36.127,20.389 -39.132,18.007C-39.97,17.538 -42.125,14.748 -42.909,16.295C-42.892,18.035 -41.344,19.247 -39.974,20.314C-36.811,29.078 -45.283,23.177 -48.165,19.949C-48.608,19.52 -49.199,18.809 -49.665,18.331C-50.183,17.952 -50.943,18.215 -51.169,18.8C-51.377,20.323 -50.521,21.884 -50.723,23.481C-50.864,24.382 -50.855,27.336 -52.241,26.905C-55.72,25.028 -57.669,21.406 -59.634,18.074C-59.923,17.57 -60.317,16.785 -61.013,16.89C-61.374,17.017 -61.517,17.273 -61.528,17.6C-61.563,17.672 -61.592,17.746 -61.606,17.819C-63.239,22.965 -66.059,30.384 -72.134,30.883C-71.683,30.362 -71.256,29.82 -70.874,29.24C-69.795,27.568 -69.113,25.586 -69.03,23.596C-68.828,23.261 -69.241,22.924 -69.456,23.279C-72.057,28.25 -75.947,32.466 -81.013,35.023C-81.285,35.122 -81.578,35.271 -81.803,35.469C-82.134,35.53 -82.385,35.816 -82.462,36.157C-81.744,44.059 -81.793,48.454 -88.2,54.02C-88.76,54.505 -89.322,55.259 -88.728,55.95C-88.266,56.44 -87.689,56.356 -87.087,56.001C-87.029,56.498 -86.945,56.995 -86.931,57.44C-86.555,60.662 -86.018,63.859 -85.431,67.048C-86.743,65.363 -88.322,63.89 -90.121,62.812C-90.575,62.607 -91.011,62.439 -91.432,62.296C-92.102,58.901 -93.421,55.68 -94.141,52.272M9.423,80.053C10.012,79.093 10.432,78.037 10.586,76.939C10.873,75.668 10.293,73.959 11.551,73.158C12.716,71.906 13.866,70.631 15.087,69.429C14.922,73.426 12.888,77.955 9.423,80.053M15.849,63.372C19.794,64.01 19.028,69.501 18.799,72.46C18.207,77.824 15.157,83.228 9.982,85.392C7.695,86.306 5.345,86.84 2.866,86.822C3.144,85.794 3.401,84.759 3.644,83.717C3.651,83.714 3.658,83.715 3.666,83.711C3.817,83.836 4.008,83.916 4.203,83.931C5.733,83.599 7.131,82.74 8.238,81.59C8.911,81.334 9.57,80.901 10.103,80.589C14.337,78.038 16.38,73.087 16.321,68.275C16.419,68.188 16.511,68.095 16.609,68.009C16.991,67.712 17.811,67.074 17.078,66.697C15.564,66.832 14.117,68.131 12.84,68.939C11.653,70.03 9.913,70.903 9.386,72.501C9.364,73.582 9.722,74.678 9.498,75.783C8.99,78.154 7.017,79.946 5.229,81.452C4.884,81.781 4.377,81.959 3.979,82.233C4.767,78.615 5.396,74.947 6.032,71.358C8.596,68.027 11.565,64.158 15.849,63.372M14.745,144.268C15.003,143.754 15.161,143.181 15.284,142.629C16.299,137.033 15.197,130.602 10.104,127.317C9.152,126.422 7.562,126.202 7.118,124.86C6.004,121.737 5.812,118.293 4.647,115.161C3.012,110.219 -0.981,106.03 -6.046,104.696C-2.04,100.243 0.463,94.846 2.22,89.08C10.704,90.054 19.212,83.69 20.732,75.27C21.542,70.831 22.544,64.357 18.115,61.538C17.11,61.039 16.064,60.929 15.014,61.106C15.241,60.335 15.361,59.511 15.638,58.705C16.273,55.938 16.062,53.085 16.231,50.279C16.333,48.59 17.334,47.087 17.892,45.521C19.146,41.708 20.356,37.802 20.356,33.751C20.282,31.487 20.165,28.726 19.21,26.509C20.472,27.117 21.861,27.47 23.244,27.682C24.357,27.877 25.911,27.681 26.135,26.342C26.107,25.035 25.196,23.881 24.827,22.635C23.425,19.252 20.828,16.405 17.661,14.583C19.706,13.401 25.27,10.346 23.749,7.471C23.484,7.135 23.045,7.005 22.631,6.991C20.733,6.934 18.713,6.529 16.874,5.82C16.124,5.502 15.42,5.105 14.742,4.666C14.956,4.051 14.949,3.244 15.007,2.698C15.581,-4.052 8.72,-7.923 3.182,-9.796C9.634,-14.82 2.655,-17.726 -2.325,-18.634C-5.104,-19.076 -8.044,-19.066 -10.811,-18.428C-9.966,-19.566 -9.3,-20.81 -9.061,-22.192C-8.849,-23.773 -9.791,-25.515 -11.455,-25.763C-14.348,-26.295 -17.097,-24.894 -19.67,-23.759C-22.002,-22.675 -24.556,-22.168 -27.122,-22.118C-32.976,-22.323 -39.043,-24.14 -44.736,-21.758C-46.154,-21.239 -48.597,-19.975 -50.624,-18.416C-50.558,-18.99 -50.567,-19.571 -50.688,-20.141C-52.98,-26.452 -59.188,-17.57 -60.421,-14.656C-60.934,-13.474 -62.272,-10.807 -62.809,-8.585C-64.888,-11.382 -68.448,-13.083 -71.805,-13.708C-76.582,-14.84 -88.99,-13.752 -84.531,-6.281C-88.754,-4.864 -92.472,-2.154 -95.203,1.362C-97.617,4.356 -99.472,8.018 -102.955,9.936C-103.945,10.483 -104.884,10.938 -105.984,11.292C-106.814,11.539 -107.745,11.676 -108.348,12.354C-108.945,13.059 -108.813,14.105 -108.395,14.862C-107.371,16.827 -104.952,17.202 -102.984,17.624C-104.612,21.32 -106.734,27.204 -102.199,29.675C-102.025,29.769 -101.841,29.797 -101.661,29.78C-102.063,32.655 -101.707,35.636 -100.52,38.284C-99.67,40.007 -98.655,41.671 -97.457,43.175C-97.204,43.468 -97.013,43.994 -96.897,44.393C-95.48,50.111 -95.461,56.348 -93.252,61.858C-105.418,60.18 -100.211,88.899 -84.664,90.807C-83.649,90.904 -81.186,91.254 -79.789,90.719C-79.066,92.879 -78.259,95.008 -77.31,97.08C-75.914,100.037 -74.075,102.605 -71.934,104.856C-79.885,108.538 -85.548,116.006 -87.221,124.593C-87.355,125.027 -87.501,125.655 -87.752,126.19C-88.286,126.466 -88.796,126.791 -89.276,127.16C-91.311,128.55 -92.796,130.653 -93.577,132.98C-94.759,136.822 -94.373,141.093 -92.771,144.739C-101.94,151.017 -107.549,161.548 -109.685,172.287C-109.71,173.344 -110.919,175.7 -109.536,176.158C-109.412,176.296 -109.283,176.427 -109.166,176.544C-105.668,179.76 -101.329,181.89 -97.057,183.88C-83.558,189.866 -68.71,192.314 -54.033,192.99C-27.206,194.303 -1.772,191.742 22.938,180.544C24.825,179.718 26.71,178.874 28.572,177.986C29.505,177.49 31.255,177.037 31.119,175.822C31.934,173.341 28.409,164.285 27.896,162.884C24.915,155.92 20.906,148.861 14.745,144.268" style="fill:rgb(38,7,61);fill-rule:nonzero;"/>
            </g>
            <g transform="matrix(1,0,0,1,133.6904,93.1417)">
                <path d="M0,-6.023C0.683,-5.806 1.864,-5.212 1.615,-4.356C-1.48,-3.171 -4.795,-2.413 -7.512,-0.413C-6.091,-3.126 -3.402,-6.452 0,-6.023M-1.175,-1.665C0.226,-2.26 2.505,-1.765 3.38,-3.317C4.272,-5.217 2.721,-7.403 0.778,-7.758C-1.266,-8.183 -3.31,-7.175 -4.886,-5.938C-6.024,-5.189 -11.488,1.109 -9.198,1.891C-8.853,2.16 -8.426,1.875 -8.14,1.648C-6.061,0.121 -3.624,-0.898 -1.175,-1.665" style="fill:rgb(38,7,61);fill-rule:nonzero;"/>
            </g>
            <g transform="matrix(-0.990889,0.134678,0.134678,0.990889,132.045718,111.164013)">
                <path d="M-4.075,-7.608C-0.251,-10.982 2.084,-0.191 -0.411,1.682C-1.572,2.862 -3.425,2.168 -4.075,0.804C-4.663,-0.469 -4.579,-1.924 -4.628,-3.3C-4.555,-4.744 -5.113,-6.394 -4.075,-7.608" style="fill:rgb(38,7,61);fill-rule:nonzero;"/>
            </g>
            <g transform="matrix(1,0,0,1,178.4102,93.1417)">
                <path d="M0,-6.023C3.402,-6.452 6.091,-3.126 7.512,-0.413C4.795,-2.413 1.48,-3.171 -1.615,-4.356C-1.864,-5.212 -0.683,-5.806 0,-6.023M1.175,-1.665C3.624,-0.898 6.062,0.121 8.14,1.648C8.426,1.875 8.853,2.16 9.198,1.891C11.488,1.109 6.024,-5.189 4.886,-5.938C3.311,-7.175 1.266,-8.183 -0.778,-7.758C-2.72,-7.403 -4.272,-5.217 -3.38,-3.317C-2.505,-1.765 -0.225,-2.26 1.175,-1.665" style="fill:rgb(38,7,61);fill-rule:nonzero;"/>
            </g>
            <g transform="matrix(-0.990889,-0.134678,-0.134678,0.990889,180.054882,111.164013)">
                <path d="M4.075,-7.608C5.113,-6.394 4.554,-4.744 4.628,-3.3C4.579,-1.924 4.663,-0.469 4.075,0.804C3.425,2.168 1.572,2.862 0.411,1.682C-2.084,-0.191 0.251,-10.982 4.075,-7.608" style="fill:rgb(38,7,61);fill-rule:nonzero;"/>
            </g>
            <g transform="matrix(1,0,0,1,161.9277,130.327)">
                <path d="M0,-2.703C-1.112,-0.418 -3.49,1.166 -6.082,1.063C-8,1.209 -9.646,0.115 -10.719,-1.419C-7.178,0.163 -3.176,-0.683 0,-2.703M-11.304,-0.426C-10.327,1.058 -8.653,1.888 -6.947,2.192C-4.44,2.578 -1.662,1.525 -0.064,-0.449C0.563,-1.293 3.548,-5.094 1.295,-5.281C0.189,-4.874 -0.513,-3.786 -1.587,-3.229C-4.594,-2.109 -8.367,-1.432 -11.091,-3.595C-11.69,-3.995 -12.079,-4.767 -12.803,-4.949C-13.729,-5.065 -13.726,-3.842 -13.303,-3.308C-12.545,-2.408 -11.957,-1.412 -11.304,-0.426" style="fill:rgb(38,7,61);fill-rule:nonzero;"/>
            </g>
            <g transform="matrix(1,0,0,1,158.6094,142.8252)">
                <path d="M0,-0.084C-2.51,0.271 -5.076,0.354 -7.601,0.625C-7.905,0.707 -8.214,0.84 -8.292,1.18C-8.364,1.926 -7.386,2.084 -6.823,2.094C-4.808,2.399 8.272,1.728 7.396,-1.18C6.857,-2.483 5.434,-1.545 4.517,-1.246C3.033,-0.674 1.653,-0.333 0,-0.084" style="fill:rgb(38,7,61);fill-rule:nonzero;"/>
            </g>
            <g transform="matrix(1,0,0,1,122.6899,122.2001)">
                <path d="M0,-0.33L0.25,-0.19C0.3,0 -0.1,-0.09 -0.04,-0.28C-0.03,-0.3 -0.03,-0.31 0,-0.33" style="fill:rgb(229,137,62);fill-rule:nonzero;"/>
            </g>
            <g transform="matrix(1,0,0,1,203.7002,75.1298)">
                <path d="M0,-9.58C5.15,-2.49 6.81,7.03 4.35,15.44C3.21,14.84 2.33,13.76 1.95,12.53C3.04,19.71 2.78,27.09 1.21,34.17L1.2,34.17C0.07,35.19 -0.98,36.36 -1.9,37.54C-1.8,37.01 -1.7,36.48 -1.59,35.96C-1.54,34.5 0.11,28.54 0.1,25.58C1.57,24.68 -3.51,21.19 -3.81,20.04C-5.31,17.43 -4.95,14.31 -5.04,11.41C-5.18,10.5 -4.64,8.16 -5.67,7.65L-5.67,7.63C-6.75,5.45 -7.96,3.29 -8.88,1.01C-9.23,0.38 -9.19,-0.67 -9.82,-1.17C-10.32,-1.55 -11.09,-1.34 -11.38,-0.79C-11.88,1.4 -12.51,3.61 -13.39,5.74C-14.4,3.77 -14.92,1.67 -15.19,-0.54C-15.26,-1.05 -15.36,-1.58 -15.72,-1.97C-16.78,-3 -17.78,-2.07 -18.08,-0.92C-19.69,0.83 -22,2.85 -24.57,2.61C-23.47,0.62 -21.64,-3.63 -23.95,-5.27L-23.96,-5.27C-24.18,-5.46 -24.47,-5.58 -24.78,-5.58C-29.15,-5.16 -33.59,-5.2 -37.84,-6.51C-41.48,-7.59 -44.8,-9.39 -47.81,-11.77C-48.64,-12.24 -50.8,-15.03 -51.58,-13.48C-51.57,-11.74 -50.02,-10.53 -48.65,-9.46C-45.48,-0.7 -53.96,-6.6 -56.84,-9.83C-57.28,-10.26 -57.87,-10.97 -58.34,-11.45C-58.86,-11.83 -59.62,-11.56 -59.84,-10.98C-60.05,-9.45 -59.19,-7.89 -59.4,-6.3C-59.54,-5.4 -59.53,-2.44 -60.91,-2.87C-64.39,-4.75 -66.34,-8.37 -68.31,-11.7C-68.6,-12.21 -68.99,-12.99 -69.69,-12.89C-70.05,-12.76 -70.19,-12.5 -70.2,-12.18C-70.24,-12.11 -70.27,-12.03 -70.28,-11.96C-71.91,-6.81 -74.73,0.61 -80.81,1.11C-80.36,0.58 -79.93,0.04 -79.55,-0.54C-78.47,-2.21 -77.79,-4.19 -77.7,-6.18C-77.5,-6.52 -77.91,-6.85 -78.13,-6.5C-80.73,-1.53 -84.62,2.69 -89.69,5.25C-89.96,5.34 -90.25,5.49 -90.48,5.69C-90.81,5.75 -91.06,6.04 -91.14,6.38C-90.42,14.28 -90.47,18.68 -96.87,24.24C-97.43,24.73 -98,25.48 -97.4,26.17C-96.94,26.66 -96.36,26.58 -95.76,26.22C-95.7,26.72 -95.62,27.22 -95.6,27.66C-95.23,30.88 -94.69,34.08 -94.1,37.27C-95.38,35.64 -96.9,34.21 -98.62,33.14C-101.25,23.66 -103.44,13.97 -102.42,4.23C-103.39,5.29 -104.35,6.34 -105.31,7.4C-107.07,0.46 -104.6,-7.37 -99.19,-12.05C-101.89,-11.81 -104.61,-11.85 -107.29,-12.18C-105.83,-14.48 -104.36,-16.79 -102.89,-19.09C-101.64,-21.05 -100.35,-23.06 -98.51,-24.47C-97.25,-25.44 -95.78,-26.09 -94.3,-26.68C-90.61,-28.16 -86.77,-29.3 -82.87,-30.08C-85.29,-30.71 -87.26,-32.81 -87.74,-35.26C-81.87,-36.31 -75.64,-35.19 -70.49,-32.17C-69.94,-31.84 -70.05,-31.48 -69.47,-31.2C-67.55,-35.47 -65.04,-40.24 -60.48,-41.3C-61.14,-39.51 -61.79,-37.73 -62.45,-35.94C-58.33,-41.22 -51.95,-44.66 -45.27,-45.2C-42.75,-45.41 -40.19,-45.21 -37.69,-45.6C-35.13,-45.99 -32.67,-46.98 -30.08,-47.1C-29.65,-47.12 -29.16,-47.09 -28.91,-46.75C-28.61,-46.34 -28.84,-45.77 -29.09,-45.33C-30.01,-43.65 -31.1,-42.06 -32.32,-40.58C-27.68,-42.19 -22.74,-42.91 -17.83,-42.71C-16.9,-42.67 -15.94,-42.58 -15.15,-42.11C-14.36,-41.63 -13.8,-40.63 -14.11,-39.76C-14.29,-39.27 -14.7,-38.9 -15.1,-38.57C-16.45,-37.49 -17.93,-36.58 -19.51,-35.89C-15.31,-35.87 -11.77,-32.89 -8.78,-29.95C-5.78,-27 -2.63,-23.76 1.5,-23C-0.72,-21.28 -3.67,-20.55 -6.42,-21.05C-1.04,-18.02 2.85,-13.83 7.2,-9.43C4.94,-8.39 2.21,-8.45 0,-9.58" style="fill:rgb(229,137,62);fill-rule:nonzero;"/>
            </g>
            <g transform="matrix(1,0,0,1,172.9399,167.0597)">
                <path d="M0,-4.84C0.01,-4.74 0.01,-4.64 0.01,-4.53C-3.59,-1.89 -9.43,1.36 -16.94,1.94C-24.58,2.53 -30.49,-1.03 -34.07,-4.069C-34.05,-5.1 -34.07,-6.13 -34.14,-7.16C-29.84,-5.66 -25.33,-4.72 -20.9,-4.25C-19.21,-4.08 -17.52,-4.04 -15.82,-4.09C-15.62,-4.1 -15.45,-4.17 -15.28,-4.27C-11.23,-4.24 -7.29,-5.38 -3.39,-6.38C-2.19,-6.67 -0.99,-7 0.2,-7.37C0.14,-6.52 0.16,-5.64 0,-4.84" style="fill:rgb(252,149,149);fill-rule:nonzero;"/>
            </g>
            <g transform="matrix(1,0,0,1,88.3999,190.4001)">
                <path d="M0,-0.09C0.05,-0.07 0.04,-0.03 0.02,0L0,-0.09Z" style="fill:rgb(229,101,14);fill-rule:nonzero;"/>
            </g>
            <g transform="matrix(1,0,0,1,117.9902,192.2299)">
                <path d="M0,8.46C-0.21,8.82 -0.41,9.19 -0.6,9.56C-4.31,7.06 -8.64,5.45 -13.09,5.07C-15.89,4.83 -18.74,5.08 -21.46,5.81C-19.44,3.35 -17.16,1.1 -14.7,-0.86C-14.59,-0.94 -14.5,-1.02 -14.41,-1.1C-13.62,-0.73 -12.76,-0.45 -12,-0.06C-7.68,1.9 -3.74,4.66 -0.41,8.06C-0.271,8.22 -0.14,8.34 0,8.46" style="fill:rgb(229,101,14);fill-rule:nonzero;"/>
            </g>
            <g transform="matrix(1,0,0,1,119.71,180.1899)">
                <path d="M0,17.71C-0.2,18.01 -0.39,18.31 -0.59,18.62C-0.63,18.58 -0.66,18.53 -0.71,18.49C-3.76,15.17 -7.46,12.55 -11.44,10.46C-13.14,9.72 -14.82,8.29 -16.71,8.29C-18.38,5.53 -17.96,2.04 -16.56,-0.91C-16.46,-0.44 -16.33,0.02 -16.16,0.47C-15.31,2.71 -13.51,4.46 -11.58,5.89C-9.65,7.32 -7.54,8.5 -5.71,10.05C-3.25,12.12 -1.38,14.79 0,17.71" style="fill:rgb(229,101,14);fill-rule:nonzero;"/>
            </g>
            <g transform="matrix(1,0,0,1,191.5698,177.2401)">
                <path d="M0,22.4C-0.44,21.46 -0.89,20.51 -1.37,19.58C-0.94,19.09 -0.27,18.78 0.02,18.21C0.13,17.76 -0.17,17.59 -0.51,17.6C3.97,12.68 11.69,10.19 14.32,3.95C14.86,2.68 15.14,1.36 15.27,0C17.56,3.15 18.07,7.09 16.6,11.47C11.83,12.98 7.35,15.18 3.51,18.48C2.32,19.62 0.64,20.82 0,22.4" style="fill:rgb(229,101,14);fill-rule:nonzero;"/>
            </g>
            <g transform="matrix(1,0,0,1,213.6602,198.27)">
                <path d="M0,-1.73C-3.07,-2.26 -6.26,-2.14 -9.27,-1.32C-13.53,-0.16 -17.39,2.39 -20.17,5.8C-20.61,4.73 -21.06,3.67 -21.53,2.62C-21.09,2.42 -20.61,1.82 -20.31,1.53C-18.1,-0.61 -15.67,-2.47 -12.98,-4.02C-10.74,-5.25 -8.53,-6.37 -6.1,-7.25C-5.81,-7.37 -5.49,-7.44 -5.19,-7.53C-3.29,-5.74 -1.56,-3.8 0,-1.73" style="fill:rgb(229,101,14);fill-rule:nonzero;"/>
            </g>
        </g>
    </g>
</svg>
