<?xml version="1.0" encoding="UTF-8" standalone="no"?>
<!DOCTYPE svg PUBLIC "-//W3C//DTD SVG 1.1//EN" "http://www.w3.org/Graphics/SVG/1.1/DTD/svg11.dtd">
<svg width="100%" height="100%" viewBox="0 0 532 879" version="1.1" xmlns="http://www.w3.org/2000/svg" xmlns:xlink="http://www.w3.org/1999/xlink" xml:space="preserve" xmlns:serif="http://www.serif.com/" style="fill-rule:evenodd;clip-rule:evenodd;stroke-linejoin:round;stroke-miterlimit:2;">
    <g transform="matrix(1,0,0,1,-2252.452024,-1072.375405)">
        <g transform="matrix(4.166667,0,0,4.166667,0,0)">
            <g>
                <g transform="matrix(1,0,0,1,654.3418,356.5189)">
                    <path d="M0,-28.347C-2.275,-28.128 -3.457,-25.932 -5.192,-24.784C-5.206,-24.777 -5.216,-24.779 -5.229,-24.774C-5.785,-21.157 -6.468,-17.555 -7.105,-13.963C-7.571,-11.46 -8.036,-8.954 -8.521,-6.451C-7.181,-8.212 -5.801,-10.044 -5.018,-12.059C-4.083,-18.009 -8.234,-15.065 -2.417,-22.176C-1.256,-23.247 -0.015,-24.695 1.528,-25.086C2.746,-24.655 0.613,-23.393 0.38,-22.81C0.758,-22.621 0.744,-22.076 0.798,-21.729C0.854,-19.456 0.339,-17.184 -0.237,-14.996C-1.631,-10.399 -4.216,-4.875 -9.116,-3.462C-9.365,-2.238 -9.623,-1.014 -9.892,0.206C-9.422,0.13 -8.949,0.081 -8.617,0C-5.944,-0.774 -3.647,-2.601 -2.175,-4.946C1.084,-10.742 3.357,-17.482 2.951,-24.119C2.74,-25.84 2.261,-28.553 0,-28.347" style="fill:rgb(255,222,204);fill-rule:nonzero;"/>
                </g>
                <g transform="matrix(1,0,0,1,630.7402,359.9408)">
                    <path d="M0,-33.014C-0.168,-32.942 -0.367,-33.038 -0.527,-33.092C-2.541,-34.351 -4.403,-35.83 -6.551,-36.904C-8.245,-37.73 -9.845,-38.672 -11.736,-39.029C-12.135,-38.953 -12.557,-39.077 -12.801,-39.428C-13.317,-40.154 -12.812,-41.176 -12.027,-41.455C-10.25,-42.165 -8.268,-41.592 -6.547,-40.959C-3.383,-39.748 -1.442,-36.881 -0.078,-33.932C0.055,-33.695 0.285,-33.229 0,-33.014M-7.372,-18.358C-10.336,-18.021 -11.953,-22.948 -8.613,-23.771C-5.539,-24.647 -4.068,-18.661 -7.372,-18.358M-14.088,6.028C-14.432,5.743 -14.775,5.445 -15.113,5.139C-15.934,6.085 -17.942,6.81 -18.667,7.311C-21.549,8.804 -24.861,9.501 -28.09,9.042C-29.351,8.925 -30.627,8.569 -31.602,7.737C-31.796,7.564 -31.961,7.183 -31.656,7.034C-28.23,7.142 -24.667,7.731 -21.391,6.333C-19.624,5.589 -18.033,4.824 -16.561,3.721C-16.541,3.696 -16.51,3.684 -16.487,3.661C-16.527,3.607 -16.574,3.557 -16.613,3.503C-16.805,3.24 -17.032,2.891 -16.938,2.563C-16.204,1.427 -13.938,3.412 -13.459,4.188C-12.784,4.926 -12.752,6.458 -14.088,6.028M-33.035,-6.99C-33.004,-7.243 -32.652,-7.293 -32.555,-7.058C-30.335,-5.574 -27.415,-5.577 -24.856,-5.853C-23.168,-5.835 -21.708,-6.578 -20.346,-7.497C-19.918,-8.035 -19.049,-8.158 -18.75,-7.423C-18.46,-6.452 -19.042,-5.428 -19.535,-4.618C-21.143,-2.097 -23.984,-0.129 -27.079,-0.535C-29.267,-0.705 -33.569,-4.001 -32.708,-6.42C-32.818,-6.604 -33.035,-6.771 -33.035,-6.99M-39.028,-39.428C-39.273,-39.077 -39.694,-38.953 -40.093,-39.03C-41.984,-38.672 -43.584,-37.73 -45.278,-36.904C-47.426,-35.83 -49.288,-34.351 -51.302,-33.092C-51.463,-33.038 -51.662,-32.942 -51.829,-33.014C-52.114,-33.229 -51.885,-33.695 -51.751,-33.932C-50.387,-36.881 -48.446,-39.748 -45.282,-40.959C-43.562,-41.592 -41.58,-42.165 -39.802,-41.455C-39.018,-41.176 -38.513,-40.155 -39.028,-39.428M-44.457,-18.358C-47.762,-18.661 -46.29,-24.647 -43.216,-23.771C-39.876,-22.948 -41.493,-18.021 -44.457,-18.358M3.745,17.901C6.836,14.039 7.776,8.922 9.313,4.326C11.482,-3.476 12.902,-11.396 14.363,-19.324C15.098,-23.404 15.865,-27.477 16.496,-31.574C17.034,-34.195 17.098,-37.009 17.854,-39.588C17.632,-39.558 17.396,-39.61 17.178,-39.783C14.647,-42.55 12.252,-46.035 12.006,-49.888C11.813,-52.504 12.531,-55.217 11.648,-57.752C10.255,-61.054 7.016,-62.66 3.747,-63.789C10.079,-56.759 11.766,-46.61 10.732,-37.443C10.563,-36.292 10.301,-33.329 8.557,-34.4C7.994,-35.069 8.145,-36.065 7.99,-36.884C7.663,-41.082 6.867,-45.423 5.357,-49.322C3.021,-54.927 -1.277,-63.578 -8.258,-62.52C-1.573,-58.044 1.445,-48.766 2.657,-41.08C2.759,-39.548 4.128,-31.586 1.36,-32.526C0.573,-33.176 0.659,-34.402 0.305,-35.307C-0.643,-39.071 -1.958,-42.799 -3.842,-46.187C-6.25,-50.574 -9.29,-54.689 -13.007,-58.051C-13.101,-58.128 -13.199,-58.199 -13.295,-58.273C-13.492,-58.018 -13.797,-57.856 -14.103,-57.735C-19.094,-55.765 -24.533,-55.358 -29.841,-55.856C-30.788,-56.008 -35.337,-56.259 -36.769,-57.299C-44.476,-53.621 -50.961,-43.131 -54.252,-36.289C-54.647,-35.475 -54.919,-34.715 -55.342,-33.926C-55.535,-33.561 -55.798,-33.145 -56.257,-33.136C-56.687,-33.136 -57.094,-33.545 -56.959,-34.005C-54.911,-42.621 -51.714,-51.276 -45.936,-58.115C-45.011,-59.051 -44.015,-60.178 -42.931,-61.177C-51.429,-59.082 -57.103,-50.029 -59.046,-41.92C-59.462,-40.307 -59.716,-38.571 -59.991,-36.975C-60.203,-36.028 -60.165,-34.076 -61.593,-34.44C-61.966,-34.585 -62.183,-34.947 -62.249,-35.327C-62.617,-37.217 -62.636,-39.185 -62.553,-41.092C-62.486,-47.73 -59.182,-57.451 -53.442,-62.736C-57.615,-62.521 -63.164,-61.619 -64.249,-56.965C-64.703,-53.521 -63.972,-50.121 -64.738,-46.731C-64.863,-45.351 -68.197,-39.627 -70.368,-38.611C-70.031,-36.757 -69.814,-34.88 -69.471,-33.03C-68.208,-25.957 -67.143,-18.821 -65.686,-11.787C-64.154,-4.588 -62.363,2.869 -60.08,9.801C-59.152,12.538 -58.167,15.346 -56.158,17.498C-49.473,24.481 -40.063,28.45 -30.717,30.049C-29.335,30.332 -27.943,30.569 -26.549,30.762C-26.353,30.767 -26.154,30.775 -25.959,30.774C-25.761,30.717 -25.538,30.671 -25.27,30.639C-15.745,29.608 -2.834,25.066 3.745,17.901" style="fill:rgb(255,222,204);fill-rule:nonzero;"/>
                </g>
                <g transform="matrix(1,0,0,1,564.7998,362.2268)">
                    <path d="M0,-3.594C-0.215,-3.524 -0.442,-3.487 -0.647,-3.383C-1.424,-2.838 -1.694,-1.48 -1.266,-0.653C-0.702,0.052 0.218,-0.083 0.975,-0.409C0.786,-1.11 0.597,-1.809 0.399,-2.503C0.304,-2.883 0.219,-3.266 0.125,-3.646C0.083,-3.629 0.046,-3.605 0,-3.594" style="fill:rgb(249,220,78);fill-rule:nonzero;"/>
                </g>
                <g transform="matrix(1,0,0,1,654.1602,280.5193)">
                    <path d="M0,44.761C-0.03,44.941 0,45.111 0.05,45.271C-1.2,45.37 -2.47,45.91 -3.58,46.711C-3.91,46.941 -4.23,47.211 -4.53,47.49C-4.18,44.691 -3.95,41.881 -3.92,39.061C-3.92,38.54 -4.03,37.221 -4.8,37.821C-4.851,37.921 -4.88,38.031 -4.93,38.131C-6.47,36.061 -7.82,33.821 -8.73,31.41C-9.98,27.971 -9.42,23.931 -10.2,20.361C-11.24,17.281 -13.95,15.181 -17,13.971C-15.07,13.271 -13.26,12.101 -11.54,11.061C-9.891,10.031 -8.29,8.901 -6.851,7.591C-6.71,7.471 -6.67,7.261 -6.8,7.12C-6.91,6.971 -7.12,6.961 -7.271,7.071C-8.11,7.721 -8.93,8.391 -9.79,9.011C-12.391,10.821 -15.3,12 -18.43,12.691C-18.95,12.811 -19.5,12.931 -20.07,13.051C-20.641,12.941 -21.21,12.851 -21.76,12.79C-21.891,12.771 -21.99,12.79 -22.11,12.79C-21.07,12.301 -20.07,11.731 -19.101,11.12C-17.101,9.931 -15.33,8.45 -13.74,6.79C-12.311,5.301 -11.03,3.681 -9.87,1.981C-8.99,0.49 -7.8,-1.05 -7.22,-2.729C-3.2,1.891 -0.23,7.351 1.109,13.601C3.109,22.33 1.77,31.511 0.6,40.311C0.399,41.801 0.22,43.281 0,44.761" style="fill:rgb(216,133,91);fill-rule:nonzero;"/>
                </g>
                <g transform="matrix(1,0,0,1,649.2725,335.3851)">
                    <path d="M0,13.321C-0.148,13.577 -0.304,13.826 -0.461,14.074C3.11,10.118 4.851,4.477 4.744,-0.753C3.5,0.991 2.396,2.75 1.38,4.619C1.141,6.08 1.812,7.547 1.535,9.023C1.315,10.542 0.763,11.998 0,13.321" style="fill:rgb(252,149,149);fill-rule:nonzero;"/>
                </g>
                <g transform="matrix(1,0,0,1,645.8896,304.5899)">
                    <path d="M0,-27.96C-0.279,-26.98 -0.97,-26.09 -1.489,-25.21C-1.79,-24.76 -2.09,-24.32 -2.399,-23.89L-2.399,-23.88C-4.6,-20.85 -7.159,-18.149 -10.21,-15.83C-11.779,-14.649 -13.35,-13.43 -15.08,-12.48C-15.29,-12.38 -15.56,-12.22 -15.77,-12.03C-16.87,-12.64 -18.05,-13.06 -19.31,-13.12C-20.399,-13.24 -20.56,-11.55 -19.479,-11.45C-19.069,-11.39 -18.649,-11.32 -18.25,-11.2C-9.88,-7.26 -6.72,3.28 -6.21,11.87C-7.79,4.79 -15.34,-13.38 -24.83,-8.58C-24.989,-8.51 -25.149,-8.38 -25.29,-8.24C-26.199,-8.68 -27.149,-9.06 -28.17,-9.32C-28.71,-9.23 -28.949,-8.51 -28.54,-8.14C-28.239,-7.87 -27.859,-7.76 -27.51,-7.6C-18.569,-3.12 -15.12,7.561 -14.22,16.92C-16.56,8.59 -21.72,-1.88 -29.739,-5.91C-30.489,-6.29 -33.05,-6.45 -32.46,-5.04C-32.18,-4.74 -31.729,-4.72 -31.359,-4.57C-31.1,-4.49 -30.84,-4.38 -30.59,-4.26C-32.85,-3.49 -35.26,-3 -37.64,-2.75C-41.199,-2.42 -44.569,-2.54 -48.159,-3.06C-48.26,-3.06 -48.359,-3.08 -48.47,-3.09C-48.37,-3.109 -48.27,-3.13 -48.18,-3.149C-47.729,-3.25 -47.189,-3.17 -46.84,-3.51C-46.38,-4.01 -46.909,-4.67 -47.479,-4.75C-56.14,-5.18 -63.47,5.4 -67.89,11.84C-64.42,4.72 -60.729,-5.96 -51.6,-6.82C-50.689,-6.79 -50.3,-7.55 -51.159,-8.05C-52.649,-8.59 -54.01,-8.399 -55.26,-7.82C-55.359,-7.899 -55.489,-7.97 -55.64,-8.02C-66.159,-8.76 -73.1,5.67 -75.97,14.12C-75.42,5.141 -70.699,-7.96 -60.72,-9.76C-60.27,-9.84 -59.81,-9.91 -59.359,-10.03C-58.55,-10.46 -59.13,-11.189 -59.88,-11.149C-61.909,-11.13 -63.79,-10.58 -65.51,-9.64C-67.21,-11.1 -69.1,-12.42 -70.71,-14.04C-71.93,-15.189 -73.109,-16.39 -74.21,-17.649C-74.21,-17.66 -74.22,-17.66 -74.22,-17.67C-77.069,-20.88 -79.489,-24.46 -81.22,-28.41C-77.8,-31.689 -73.859,-34.45 -69.67,-36.75C-70.239,-33.189 -68.729,-29.12 -67.06,-26.1C-66.189,-24.47 -65.199,-22.93 -64.08,-21.48C-64.069,-21.47 -64.06,-21.46 -64.06,-21.45C-60.71,-17.06 -56.34,-13.48 -51.489,-10.79C-51.21,-10.63 -50.979,-11.09 -51.25,-11.23C-54.27,-12.939 -57.04,-14.99 -59.58,-17.359C-60.02,-17.76 -60.439,-18.17 -60.85,-18.609C-65.67,-23.66 -68.649,-30.84 -67.63,-37.83C-65.229,-39.05 -62.77,-40.12 -60.3,-41.05C-55.1,-42.98 -49.569,-44.17 -43.989,-44.77C-43.55,-44.87 -42.96,-44.859 -42.37,-44.88C-38.6,-44.75 -34.859,-44.56 -31.01,-43.85C-27.029,-43.18 -23.01,-42.07 -19.13,-40.55C-19.229,-40.43 -19.34,-40.31 -19.43,-40.2C-21.14,-38.04 -22.68,-35.76 -24.29,-33.53C-26.409,-30.45 -28.37,-27.26 -30.14,-23.96C-31.33,-21.75 -32.439,-19.5 -33.439,-17.2C-34.27,-15.28 -35.029,-13.32 -35.81,-11.38C-35.89,-11.2 -35.79,-10.99 -35.609,-10.92C-35.43,-10.85 -35.22,-10.939 -35.149,-11.12C-33.59,-14.71 -32.149,-18.34 -30.5,-21.89C-30.029,-22.85 -29.55,-23.79 -29.04,-24.73C-26.05,-30.3 -22.359,-35.51 -17.51,-39.649C-17.46,-39.7 -17.399,-39.76 -17.34,-39.82C-13.609,-38.22 -10.029,-36.24 -6.76,-33.88C-6.779,-33.85 -6.8,-33.81 -6.819,-33.78C-8.43,-30.95 -10.29,-28.22 -12.39,-25.68C-12.58,-25.46 -12.77,-25.25 -12.97,-25.04C-14.779,-23.05 -16.81,-21.25 -18.75,-19.39C-18.859,-19.31 -18.87,-19.149 -18.79,-19.04C-18.699,-18.93 -18.54,-18.92 -18.43,-19.01C-15.949,-20.77 -13.5,-22.609 -11.38,-24.83C-11.17,-25.03 -10.649,-25.609 -9.97,-26.399C-8.51,-28.109 -6.37,-30.8 -5.319,-32.8C-3.42,-31.32 -1.64,-29.7 0,-27.96" style="fill:rgb(216,133,91);fill-rule:nonzero;"/>
                </g>
                <g transform="matrix(1,0,0,1,618.4102,408.6803)">
                    <path d="M0,-9.9C-0.101,-9.69 -0.19,-9.47 -0.26,-9.251C-2.97,-4.18 -6.75,7.629 -13.12,8.2C-18.09,8.12 -22.46,2.65 -25.11,-1.171C-26.49,-3.38 -27.68,-5.78 -28.521,-8.27C-27.45,-9.421 -26.83,-10.81 -26.811,-12.4C-26.73,-13.05 -26.66,-13.711 -26.61,-14.371C-26.51,-15.6 -26.45,-16.84 -26.49,-18.07C-25.79,-17.86 -25.101,-17.661 -24.4,-17.47C-21.57,-16.501 -18.07,-15.76 -17.37,-15.74C-15.04,-15.53 -12.61,-15.43 -10.29,-15.88C-7.351,-16.07 -4.49,-17.171 -1.59,-18.1C-1.59,-17.76 -1.561,-17.411 -1.561,-17.081C-1.49,-16.251 -1.45,-15.411 -1.38,-14.581C-1.3,-13.48 -1.18,-12.38 -0.88,-11.31C-0.7,-10.76 -0.38,-10.31 0,-9.9" style="fill:rgb(255,222,204);fill-rule:nonzero;"/>
                </g>
                <g transform="matrix(1,0,0,1,620.3096,323.1696)">
                    <path d="M0,-3.401C2.856,-2.425 5.586,-1.251 8.021,0.622C6.388,-1.993 3.18,-4.023 0,-3.401" style="fill:rgb(183,95,65);fill-rule:nonzero;"/>
                </g>
                <g transform="matrix(1,0,0,1,662.0098,391.45)">
                    <path d="M0,-3.49C-0.04,-0.03 -1.149,3.26 -2.109,6.56C-2.49,3.8 -3.02,1.04 -3.77,-1.66C-4.81,-5.48 -6.26,-9.19 -8.29,-12.58C-8.55,-13.35 -8.859,-13.5 -8.99,-13.219C-9.01,-13.18 -9.029,-13.13 -9.04,-13.07C-8.979,-12.83 -8.84,-12.62 -8.76,-12.39C-6.649,-3.64 -3.83,4.95 -3.84,14.06C-3.58,19.7 -4.43,25.3 -5.069,30.89C-5.14,31.4 -5.2,31.9 -5.26,32.41C-7.279,29.49 -9.47,26.67 -11.85,24.02C-14.71,20.8 -17.85,17.82 -21.27,15.19C-21.79,14.87 -22.29,14.4 -22.84,14.07C-20.14,9.87 -19.5,5.31 -22.72,-0.969C-20.41,-5.55 -19.93,-11.82 -23.149,-16.06C-21.96,-18.52 -21.069,-21.37 -20.06,-24.86C-19.88,-25.46 -19.72,-26.06 -19.55,-26.67C-19.54,-26.65 -19.529,-26.64 -19.51,-26.62C-19.149,-26.41 -18.75,-26.21 -18.33,-26.15C-16.81,-26.28 -15.41,-27.219 -14.51,-28.45C-13.81,-29.79 -14.09,-31.68 -15.02,-32.85C-14.08,-33.17 -13.12,-33.63 -12.25,-34.16C-11.319,-34.71 -10.5,-35.32 -9.899,-35.9C-9.779,-35.01 -9.56,-34.11 -9.479,-33.39C-7.38,-23.06 0.3,-14.38 0,-3.49" style="fill:rgb(216,133,91);fill-rule:nonzero;"/>
                </g>
                <g transform="matrix(0.581697,-0.813405,-0.813405,-0.581697,606.406163,357.428826)">
                    <path d="M-1.833,0.651C-0.178,-1.214 2.464,-1.805 4.806,-1.116C1.059,0.435 -1.716,3.722 -1.833,7.863C-2.46,7.054 -2.525,5.986 -2.757,5.006C-3.123,3.494 -2.873,1.835 -1.833,0.651" style="fill:rgb(252,149,149);fill-rule:nonzero;"/>
                </g>
                <g transform="matrix(1,0,0,1,581.3203,319.146)">
                    <path d="M0,4.646C2.436,2.773 5.165,1.598 8.021,0.623C4.842,0 1.633,2.031 0,4.646" style="fill:rgb(183,95,65);fill-rule:nonzero;"/>
                </g>
                <g transform="matrix(1,0,0,1,645.5791,361.1122)">
                    <path d="M0,0.837C0.475,-0.325 -0.157,-1.32 -0.988,-2.075C-1.216,-2.079 -1.432,-2.106 -1.638,-2.149C-2.017,-0.525 -2.414,1.093 -2.848,2.702C-2.77,2.686 -2.688,2.68 -2.599,2.703C-1.469,2.986 -0.613,1.61 0,0.837" style="fill:rgb(249,220,78);fill-rule:nonzero;"/>
                </g>
                <g transform="matrix(1,0,0,1,622.04,461.4508)">
                    <path d="M0,-56.483C0.4,-57.344 0.832,-58.204 1.27,-59.067C0.118,-59.404 -0.875,-60.161 -1.766,-60.941C-1.827,-61.002 -1.892,-61.059 -1.955,-61.118C-2.149,-60.713 -2.365,-60.321 -2.473,-59.99C-3.274,-58.197 -4.059,-56.387 -4.891,-54.603C-7.512,-49.16 -11.524,-42.5 -18.398,-42.779C-23.726,-43.436 -27.596,-48.177 -30.504,-52.322C-31.032,-53.228 -33.18,-56.63 -33.954,-59.153C-34.339,-58.778 -34.734,-58.413 -35.155,-58.078C-35.194,-58.046 -35.242,-58.021 -35.286,-57.991C-34.55,-56.737 -33.843,-55.473 -33.243,-54.17C-30.437,-47.371 -30.195,-39.879 -29.169,-32.674C-28.166,-24.259 -27.788,-15.78 -27.446,-7.315C-27.322,-4.187 -27.174,-1.058 -27.11,2.072C-27.091,2.548 -27.064,3.313 -27.152,4.015C-20.278,4.621 -13.592,4.635 -6.973,4.077C-7.154,2.614 -6.822,1.003 -6.897,-0.432C-6.729,-6.611 -6.327,-12.78 -5.836,-18.94C-5.02,-27.361 -5.049,-35.868 -3.812,-44.241C-3.121,-48.481 -1.771,-52.577 0,-56.483" style="fill:white;fill-rule:nonzero;"/>
                </g>
                <g transform="matrix(1,0,0,1,592.5098,379.6205)">
                    <path d="M0,85.61C-0.63,85.54 -1.24,85.479 -1.87,85.41C-11.149,84.259 -20.67,82.83 -29.63,79.899C-29.68,76.86 -33.34,65.86 -33.609,65.229C-35.609,59.979 -37.529,54.45 -40.68,49.769C-38.16,45.479 -35.3,41.38 -32.04,37.63C-29.54,34.75 -26.8,32.07 -23.8,29.66C-21.05,32.11 -17.7,33.809 -14.77,36.019C-12.66,37.559 -10.85,39.42 -9.06,41.299C-9.05,41.299 -9.05,41.309 -9.05,41.309C-7.97,42.429 -6.91,43.549 -5.779,44.62C-5.569,44.79 -5.31,45.049 -5.01,45.009C-3.96,44.63 -5.25,42.88 -5.62,42.2C-5.979,41.63 -6.37,41.07 -6.779,40.53C-9.3,37.149 -12.64,34.389 -16.16,32.08C-19,30.03 -22.8,28.269 -24.8,25.259C-25.33,24.46 -25.729,23.57 -25.95,22.559C-26.359,20.259 -25.229,18.08 -23.92,16.269C-23.29,15.219 -22.26,14.259 -22.33,12.95C-22.88,8.62 -22.42,4.07 -19.59,0.519C-19.479,0.349 -19.33,0.17 -19.16,0C-18.609,0.58 -18.04,1.139 -17.439,1.689C-13.35,5.439 -8.1,8.37 -2.59,10.33C-2.7,11.86 -2.609,13.45 -2.85,14.99C-2.95,17.149 -3.979,18.79 -5.54,20.29C-5.84,20.67 -6.479,21.179 -7.01,21.729C-8.899,18.53 -10.68,15.28 -11.029,11.469C-10.609,9.38 -12.84,8.939 -12.91,11.08C-12.77,15.429 -10.399,19.339 -8.51,23.149C-6.5,27.03 -4.83,31.009 -3.979,35.37L-3.979,35.38C-3.88,35.929 -3.79,36.479 -3.71,37.04C-2.1,47.38 -1.01,57.88 -0.6,68.349C-0.38,72.839 -0.2,77.36 -0.06,81.839C0.101,83.009 -0.149,84.38 0,85.61" style="fill:rgb(98,189,204);fill-rule:nonzero;"/>
                </g>
                <g transform="matrix(1,0,0,1,656.3799,415.4603)">
                    <path d="M0,12.07C-1.13,14.349 -1.689,17 -2.52,19.38C-3.729,23.49 -4.79,27.639 -5.64,31.84C-6.229,34.73 -6.75,37.62 -7.12,40.549C-7.11,41.03 -7.31,41.73 -7.33,42.33C-9.64,43.139 -11.97,43.889 -14.32,44.62C-22.63,47.25 -30.8,48.99 -39.04,49.86C-38.71,47.54 -38.96,44.009 -38.77,43.09C-38.229,30.639 -37.04,18.21 -36.229,5.77C-35.84,1.59 -34.8,-2.72 -33.24,-6.741C-32.88,-7.701 -32.479,-8.64 -32.05,-9.56C-29.71,-14.87 -26.689,-20.26 -26.95,-26.25C-26.99,-26.73 -27.05,-27.29 -27.31,-27.71C-27.75,-28.55 -29.05,-28.13 -28.95,-27.21C-28.42,-22.781 -30.2,-18.781 -32.16,-14.88C-33.33,-15.3 -34.21,-16.34 -35.16,-17.151C-36.99,-18.531 -36.78,-20.741 -37,-22.89C-37.04,-23.48 -37.08,-24.701 -37.35,-25.62C-34.11,-26.741 -30.88,-28.02 -27.89,-29.79C-25.54,-31.111 -23.67,-32.42 -22.16,-33.8C-20.78,-35.05 -19.7,-36.361 -18.79,-37.79C-17.49,-34.951 -17.16,-31.63 -17.75,-28.56C-18.01,-27.04 -19.18,-25.781 -19.25,-24.25C-18.61,-22 -17.53,-19.741 -17.39,-17.39L-17.39,-17.38C-17.34,-16.58 -17.41,-15.77 -17.64,-14.951C-18.46,-11.14 -21.3,-8.62 -23.97,-5.93C-25.64,-4.33 -27.189,-2.59 -28.55,-0.72C-29.81,1.02 -30.91,2.88 -31.8,4.849C-32.17,5.86 -33.61,8.45 -32.24,9.11C-31.899,9.12 -31.71,8.86 -31.56,8.57L-31.55,8.559C-31.45,8.389 -31.37,8.2 -31.28,8.059C-29.29,4.27 -26.83,0.57 -23.86,-2.56C-21.85,-4.441 -20.04,-6.23 -18.58,-8.05C-18.47,-7.96 -18.36,-7.88 -18.25,-7.821C-16.18,-6.23 -14.18,-4.531 -12.27,-2.72C-7.61,1.67 -3.47,6.66 0,12.07" style="fill:rgb(98,189,204);fill-rule:nonzero;"/>
                </g>
                <g transform="matrix(1,0,0,1,577.2598,310.6701)">
                    <path d="M0,-15.8C-0.17,-15.8 -0.34,-15.8 -0.5,-15.79C-1.16,-15.95 -1.81,-16.12 -2.45,-16.33C-7,-17.92 -11.05,-20.93 -13.979,-24.79C-14.51,-25.47 -15,-26.19 -15.45,-26.92C-15.62,-27.08 -15.67,-27.46 -15.96,-27.44C-16.17,-27.41 -16.229,-27.16 -16.109,-27.01C-15.54,-26.09 -14.96,-25.19 -14.359,-24.321C-11.59,-20.29 -8.399,-16.95 -3.89,-15.48C-5.06,-15.28 -6.2,-14.97 -7.26,-14.53C-9.93,-15.34 -12.6,-16.111 -15.17,-17.26C-15.99,-17.64 -16.77,-18.13 -17.439,-18.75C-17.47,-18.79 -17.51,-18.821 -17.56,-18.83C-17.68,-18.861 -17.84,-18.81 -17.87,-18.67C-17.88,-18.55 -17.83,-18.44 -17.75,-18.35C-17.6,-18.16 -17.34,-18.02 -17.18,-17.88C-14.66,-16.05 -11.87,-14.54 -8.85,-13.73C-10.3,-12.84 -11.51,-11.62 -12.29,-9.94C-13.689,-6.8 -11.74,-3.38 -12.55,-0.09C-13.029,2.75 -14.689,5.23 -16.52,7.41C-17.029,8.179 -18.72,9.11 -18.35,10.15C-18.66,11.7 -18.42,14.75 -18.04,17.75C-18.33,17.47 -18.649,17.21 -18.979,16.98C-19.8,16.389 -20.72,15.97 -21.67,15.8C-21.649,15.599 -21.68,15.4 -21.75,15.23C-21.91,14.46 -22.109,13.75 -22.24,12.91C-23.14,7.62 -23.87,2.36 -24.1,-3.02C-24.5,-9.89 -23.91,-17.04 -20.88,-23.31C-19.01,-27.151 -16.49,-30.55 -13.54,-33.55C-13.189,-31.96 -12.55,-30.43 -11.819,-28.98C-11.1,-27.59 -10.279,-26.26 -9.359,-24.98C-6.819,-21.41 -3.58,-18.3 0,-15.8" style="fill:rgb(216,133,91);fill-rule:nonzero;"/>
                </g>
                <g transform="matrix(1,0,0,1,564.3242,326.6189)">
                    <path d="M0,29.468C-0.343,28.023 -0.675,26.574 -0.993,25.123C-4.878,23.44 -8.108,20.034 -9.17,15.864C-9.688,13.58 -10.096,10.633 -8.763,8.617C-9.438,7.376 -10.352,6.312 -11.177,5.203C-11.223,4.027 -9.493,5.832 -9.107,6.047C-2.369,11.636 -6.945,11.011 -5.357,17.039C-4.459,18.84 -3.076,20.353 -1.703,21.844C-2.546,17.758 -3.3,13.655 -3.961,9.534C-4.021,9.02 -4.243,7.703 -4.503,6.029C-4.697,5.653 -4.871,5.306 -5.037,5.123C-6.776,2.453 -11.648,0 -12.281,4.736C-12.867,10.623 -10.558,22.709 -5.982,26.675C-4.229,28.108 -2.179,29.064 0,29.468" style="fill:rgb(255,222,204);fill-rule:nonzero;"/>
                </g>
                <g transform="matrix(-0.950884,0.309546,0.309546,0.950884,558.985078,346.550027)">
                    <path d="M-1.07,-8.102C-1.03,-9.171 -0.633,-10.144 -0.4,-11.173C2.834,-6.967 2.425,-0.474 -1.07,3.45C-0.113,1.373 0.503,-0.948 0.002,-3.231C-0.328,-4.868 -1.099,-6.428 -1.07,-8.102" style="fill:rgb(252,149,149);fill-rule:nonzero;"/>
                </g>
                <g transform="matrix(1,0,0,1,656.9609,457.1503)">
                    <path d="M0,-28.704C-2.694,-21.695 -3.909,-14.251 -5.146,-6.876C-5.52,-4.59 -5.903,-2.305 -6.107,0C-0.902,-1.897 4.159,-4.122 8.854,-7.055C8.926,-7.12 9.007,-7.175 9.092,-7.223C8.977,-7.35 8.882,-7.495 8.837,-7.668C7.094,-15.088 4.039,-22.191 0,-28.704" style="fill:white;fill-rule:nonzero;"/>
                </g>
                <g transform="matrix(1,0,0,1,551.4609,459.1503)">
                    <path d="M0,-29.121C-1.291,-26.889 -2.498,-24.61 -3.623,-22.3C-5.22,-19.088 -6.65,-15.802 -8.02,-12.489C-8.276,-11.938 -8.405,-11.127 -8.742,-10.577C-7.298,-9.267 -5.773,-8.025 -4.18,-6.934C0.368,-3.966 5.259,-1.737 10.336,0C8.047,-9.87 5.458,-19.956 0.233,-28.719C0.198,-28.814 0.111,-28.956 0,-29.121" style="fill:white;fill-rule:nonzero;"/>
                </g>
                <g transform="matrix(1,0,0,1,568.3896,394.65)">
                    <path d="M0,-7.69C-0.17,-5.93 0.44,-4.01 -0.22,-2.35C-4.46,1.97 -5.159,8.47 -1.18,13.1C-5.609,16.32 -9.38,20.26 -12.67,24.59C-14.239,26.65 -15.689,28.79 -17.069,31C-17.05,24.91 -17.989,18.86 -17.989,12.77C-18.25,3.081 -15.159,-6.33 -12.649,-15.62C-12.51,-16.169 -12.359,-16.71 -12.22,-17.25C-12.17,-17.37 -12.13,-17.48 -12.08,-17.6C-11.96,-17.89 -12.42,-18.08 -12.54,-17.78C-15.149,-13.04 -17.06,-8.12 -18.33,-3.07C-18.96,-0.58 -19.43,1.94 -19.75,4.49C-19.949,3.43 -20.159,2.36 -20.479,1.31C-24.479,-16.07 -11.409,-23.64 -10.38,-38.69C-9.47,-38.05 -8.47,-37.53 -7.409,-37.15C-6.939,-36.98 -6.46,-36.83 -5.96,-36.72C-6.46,-36.05 -6.76,-35.19 -6.739,-34.46C-7.04,-32.82 -6,-31.36 -4.29,-31.36C-3.659,-31.36 -2.92,-31.4 -2.3,-31.64C-1.05,-26.94 0.17,-22.18 2.551,-17.93C2.86,-17.5 3.2,-17.09 3.53,-16.669C3.24,-16.34 2.98,-15.97 2.761,-15.69C1.061,-13.47 0.051,-10.53 0,-7.69" style="fill:rgb(216,133,91);fill-rule:nonzero;"/>
                </g>
                <g transform="matrix(1,0,0,1,665.8154,275.7377)">
                    <path d="M0,174.358C-4.695,177.291 -9.757,179.515 -14.962,181.413C-14.758,179.108 -14.374,176.823 -14,174.537C-12.764,167.162 -11.549,159.717 -8.854,152.709C-4.815,159.221 -1.761,166.325 -0.018,173.745C0.027,173.918 0.122,174.063 0.237,174.19C0.152,174.238 0.071,174.293 0,174.358M-16.555,180.268C-16.544,180.753 -16.744,181.449 -16.762,182.051C-19.075,182.858 -21.41,183.616 -23.752,184.341C-32.067,186.968 -40.231,188.717 -48.478,189.579C-48.146,187.267 -48.396,183.734 -48.208,182.816C-47.67,170.359 -46.472,157.932 -45.67,145.488C-45.184,140.314 -43.71,134.928 -41.485,130.16C-39.141,124.849 -36.125,119.461 -36.381,113.476C-36.423,112.992 -36.485,112.433 -36.747,112.011C-37.187,111.174 -38.483,111.595 -38.388,112.511C-37.857,116.943 -39.634,120.946 -41.593,124.843C-42.768,124.418 -43.643,123.379 -44.596,122.569C-46.424,121.191 -46.217,118.985 -46.432,116.835C-46.478,116.242 -46.518,115.021 -46.786,114.106C-43.549,112.987 -40.313,111.701 -37.325,109.931C-32.847,107.42 -30.147,104.955 -28.222,101.928C-26.922,104.774 -26.599,108.095 -27.19,111.165C-27.447,112.681 -28.616,113.938 -28.681,115.477C-27.827,118.489 -26.166,121.523 -27.078,124.769C-27.9,128.581 -30.736,131.107 -33.403,133.797C-36.639,136.883 -39.392,140.482 -41.231,144.575C-41.608,145.581 -43.043,148.168 -41.673,148.829C-41.126,148.845 -40.968,148.159 -40.72,147.778C-38.729,143.991 -36.264,140.295 -33.296,137.164C-31.283,135.285 -29.474,133.493 -28.016,131.67C-27.907,131.76 -27.795,131.838 -27.683,131.901C-20.569,137.364 -14.325,144.159 -9.437,151.797C-10.569,154.077 -11.126,156.722 -11.957,159.107C-13.17,163.216 -14.221,167.364 -15.074,171.561C-15.664,174.449 -16.187,177.341 -16.555,180.268M-50.673,185.281C-50.598,186.716 -50.93,188.327 -50.748,189.79C-57.367,190.348 -64.054,190.334 -70.928,189.728C-70.84,189.026 -70.866,188.261 -70.886,187.785C-70.949,184.655 -71.098,181.526 -71.222,178.398C-71.563,169.933 -71.941,161.454 -72.944,153.039C-73.971,145.835 -74.213,138.342 -77.019,131.543C-77.618,130.24 -78.325,128.976 -79.062,127.722C-79.018,127.692 -78.97,127.667 -78.931,127.635C-78.51,127.3 -78.114,126.935 -77.729,126.56C-76.955,129.083 -74.808,132.485 -74.279,133.391C-71.371,137.536 -67.501,142.277 -62.174,142.934C-55.3,143.213 -51.287,136.553 -48.666,131.11C-47.834,129.326 -47.05,127.516 -46.248,125.723C-46.141,125.392 -45.925,125 -45.73,124.595C-45.667,124.654 -45.603,124.712 -45.541,124.772C-44.65,125.552 -43.657,126.309 -42.506,126.646C-42.943,127.509 -43.375,128.369 -43.775,129.23C-45.547,133.136 -46.896,137.232 -47.587,141.472C-48.824,149.845 -48.795,158.352 -49.611,166.773C-50.103,172.933 -50.504,179.102 -50.673,185.281M-75.174,189.291C-84.452,188.139 -93.975,186.711 -102.94,183.782C-102.988,180.745 -106.646,169.743 -106.918,169.116C-108.92,163.858 -110.834,158.335 -113.982,153.651C-109.522,146.077 -104.021,139.107 -97.103,133.54C-94.359,135.991 -91.008,137.695 -88.076,139.907C-84.701,142.358 -82.096,145.648 -79.083,148.504C-78.875,148.675 -78.617,148.933 -78.32,148.894C-77.267,148.513 -78.558,146.767 -78.922,146.078C-81.546,141.919 -85.382,138.645 -89.461,135.963C-93.063,133.358 -98.204,131.23 -99.258,126.446C-99.663,124.14 -98.537,121.963 -97.228,120.148C-96.594,119.1 -95.562,118.145 -95.633,116.828C-96.188,112.507 -95.722,107.951 -92.896,104.402C-92.787,104.228 -92.631,104.054 -92.464,103.879C-88.173,108.451 -82.205,111.968 -75.892,114.211C-76.006,115.746 -75.915,117.33 -76.157,118.877C-76.252,121.031 -77.282,122.674 -78.841,124.17C-79.15,124.552 -79.784,125.062 -80.312,125.608C-82.201,122.409 -83.983,119.158 -84.339,115.351C-83.916,113.262 -86.142,112.824 -86.218,114.961C-86.08,119.317 -83.703,123.221 -81.819,127.035C-79.559,131.402 -77.715,135.905 -77.016,140.92C-75.407,151.259 -74.319,161.758 -73.901,172.234C-73.687,176.727 -73.502,181.241 -73.37,185.72C-73.21,186.895 -73.457,188.266 -73.31,189.493C-73.931,189.426 -74.55,189.367 -75.174,189.291M-118.534,176.479C-120.128,175.387 -121.652,174.146 -123.097,172.836C-122.76,172.286 -122.631,171.474 -122.374,170.923C-121.005,167.611 -119.574,164.325 -117.978,161.113C-116.853,158.802 -115.646,156.524 -114.354,154.292C-114.243,154.457 -114.156,154.598 -114.121,154.694C-108.896,163.457 -106.308,173.543 -104.019,183.413C-109.096,181.675 -113.986,179.447 -118.534,176.479M-117.174,123.407C-117.375,122.338 -117.585,121.269 -117.91,120.224C-121.907,102.846 -108.832,95.272 -107.81,80.226C-106.483,81.143 -104.994,81.823 -103.389,82.196C-103.89,82.867 -104.19,83.723 -104.168,84.454C-104.469,86.091 -103.429,87.555 -101.711,87.555C-101.09,87.549 -100.341,87.516 -99.725,87.269C-98.479,91.973 -97.252,96.731 -94.874,100.978C-94.567,101.41 -94.229,101.823 -93.893,102.239C-94.187,102.575 -94.447,102.943 -94.661,103.218C-96.362,105.439 -97.374,108.386 -97.422,111.218C-97.599,112.978 -96.984,114.902 -97.65,116.562C-101.881,120.879 -102.59,127.378 -98.609,132.009C-105.135,136.765 -110.226,143.056 -114.491,149.908C-114.476,143.818 -115.416,137.772 -115.419,131.679C-115.688,121.428 -112.218,111.482 -109.644,101.663C-109.598,101.547 -109.552,101.431 -109.505,101.316C-109.384,101.019 -109.849,100.836 -109.97,101.132C-113.864,108.208 -116.206,115.695 -117.174,123.407M-104.745,73.762C-109.283,71.112 -111.682,65.065 -109.908,60.064C-109.368,60.971 -108.689,61.773 -108.321,62.777C-107.775,64.36 -108.025,66.082 -107.832,67.741C-107.603,70.067 -106.298,72.083 -104.745,73.762M-113.772,55.617C-113.14,50.881 -108.268,53.335 -106.528,56.004C-106.362,56.187 -106.188,56.534 -105.994,56.91C-105.734,58.585 -105.513,59.901 -105.452,60.416C-104.791,64.536 -104.037,68.639 -103.194,72.725C-104.567,71.234 -105.95,69.721 -106.849,67.92C-108.437,61.892 -103.86,62.517 -110.599,56.928C-110.984,56.713 -112.714,54.908 -112.668,56.085C-111.843,57.193 -110.929,58.257 -110.254,59.499C-111.587,61.514 -111.179,64.462 -110.661,66.745C-109.6,70.916 -106.369,74.321 -102.484,76.004C-102.166,77.456 -101.834,78.904 -101.491,80.349C-103.67,79.945 -105.72,78.989 -107.474,77.556C-112.049,73.59 -114.358,61.504 -113.772,55.617M-112.66,31.909C-113.053,25.046 -112.465,17.89 -109.439,11.62C-107.57,7.779 -105.048,4.379 -102.094,1.379C-101.741,2.969 -101.103,4.503 -100.373,5.951C-97.642,11.212 -93.427,15.735 -88.559,19.129C-88.724,19.129 -88.892,19.134 -89.059,19.138C-89.713,18.979 -90.365,18.811 -91.006,18.607C-96.366,16.731 -101.039,12.879 -104.01,8.015C-104.176,7.848 -104.229,7.468 -104.518,7.496C-104.721,7.52 -104.789,7.768 -104.67,7.918C-101.455,13.115 -97.926,17.66 -92.449,19.454C-93.611,19.654 -94.754,19.96 -95.82,20.403C-98.487,19.593 -101.16,18.82 -103.73,17.671C-104.548,17.289 -105.329,16.805 -105.992,16.182C-106.096,16.039 -106.389,16.058 -106.43,16.26C-106.455,16.634 -105.975,16.831 -105.734,17.057C-103.214,18.887 -100.423,20.397 -97.407,21.207C-98.856,22.092 -100.069,23.314 -100.845,24.988C-102.25,28.135 -100.291,31.557 -101.11,34.84C-101.586,37.685 -103.244,40.16 -105.079,42.347C-105.587,43.11 -107.277,44.043 -106.903,45.087C-107.22,46.632 -106.973,49.684 -106.596,52.683C-107.617,51.698 -108.881,50.969 -110.223,50.728C-110.21,50.536 -110.233,50.337 -110.303,50.161C-110.47,49.391 -110.669,48.687 -110.793,47.838C-111.696,42.548 -112.429,37.288 -112.66,31.909M-89.599,-7.902C-90.161,-4.336 -88.653,-0.27 -86.99,2.75C-83.495,9.313 -77.885,14.477 -71.42,18.058C-71.131,18.224 -70.902,17.765 -71.178,17.621C-74.193,15.916 -76.966,13.867 -79.502,11.496C-85.052,6.418 -88.67,-1.385 -87.553,-8.981C-85.154,-10.193 -82.699,-11.269 -80.23,-12.197C-75.027,-14.126 -69.491,-15.32 -63.918,-15.919C-63.476,-16.017 -62.888,-16.003 -62.299,-16.028C-58.521,-15.895 -54.782,-15.708 -50.938,-14.993C-46.954,-14.323 -42.938,-13.218 -39.054,-11.702C-39.159,-11.579 -39.262,-11.458 -39.359,-11.349C-41.063,-9.187 -42.61,-6.908 -44.219,-4.673C-47.753,0.468 -50.862,5.93 -53.363,11.651C-54.192,13.577 -54.952,15.528 -55.738,17.471C-55.813,17.651 -55.715,17.862 -55.535,17.932C-55.356,18.006 -55.148,17.91 -55.074,17.729C-53.514,14.145 -52.071,10.509 -50.422,6.963C-47.177,0.33 -43.104,-5.954 -37.438,-10.798C-37.382,-10.846 -37.322,-10.906 -37.263,-10.966C-33.534,-9.369 -29.958,-7.384 -26.688,-5.026C-26.709,-4.994 -26.726,-4.957 -26.746,-4.926C-28.351,-2.098 -30.211,0.634 -32.316,3.169C-34.271,5.418 -36.526,7.407 -38.676,9.461C-38.781,9.546 -38.797,9.707 -38.711,9.812C-38.625,9.919 -38.465,9.933 -38.359,9.847C-35.873,8.086 -33.421,6.244 -31.309,4.023C-30.642,3.374 -26.774,-1.023 -25.247,-3.946C-23.344,-2.466 -21.562,-0.852 -19.929,0.889C-20.205,1.875 -20.898,2.762 -21.415,3.645C-23.798,7.223 -26.648,10.367 -30.137,13.021C-31.71,14.204 -33.273,15.422 -35.008,16.369C-35.216,16.473 -35.489,16.632 -35.696,16.826C-36.799,16.214 -37.979,15.793 -39.237,15.737C-40.324,15.614 -40.487,17.302 -39.409,17.405C-38.994,17.464 -38.576,17.537 -38.171,17.649C-29.81,21.597 -26.644,32.137 -26.134,40.727C-27.712,33.64 -35.262,15.476 -44.752,20.276C-44.919,20.345 -45.076,20.47 -45.219,20.614C-46.124,20.174 -47.072,19.796 -48.098,19.533C-48.637,19.619 -48.879,20.341 -48.461,20.716C-48.164,20.978 -47.789,21.091 -47.438,21.254C-38.492,25.735 -35.044,36.414 -34.146,45.777C-36.482,37.447 -41.646,26.977 -49.664,22.947C-50.414,22.56 -52.978,22.402 -52.387,23.81C-52.103,24.114 -51.66,24.134 -51.286,24.278C-51.022,24.366 -50.767,24.473 -50.515,24.588C-52.774,25.367 -55.182,25.848 -57.567,26.106C-61.125,26.43 -64.493,26.315 -68.088,25.796C-68.188,25.79 -68.29,25.775 -68.392,25.762C-68.295,25.745 -68.198,25.721 -68.101,25.706C-67.651,25.606 -67.12,25.686 -66.769,25.343C-66.302,24.842 -66.84,24.181 -67.401,24.101C-76.069,23.671 -83.398,34.254 -87.812,40.696C-84.35,33.568 -80.657,22.89 -71.526,22.03C-70.615,22.066 -70.228,21.305 -71.089,20.799C-72.578,20.261 -73.935,20.454 -75.187,21.033C-75.289,20.954 -75.415,20.885 -75.566,20.83C-86.081,20.088 -93.03,34.518 -95.894,42.971C-95.342,33.993 -90.629,20.891 -80.646,19.095C-80.191,19.009 -79.734,18.939 -79.285,18.818C-78.473,18.391 -79.053,17.66 -79.805,17.705C-81.832,17.72 -83.712,18.273 -85.434,19.217C-87.133,17.754 -89.021,16.434 -90.639,14.814C-94.985,10.724 -98.736,5.947 -101.147,0.442C-97.729,-2.833 -93.784,-5.6 -89.599,-7.902M-18.879,2.05C-14.859,6.671 -11.888,12.131 -10.543,18.382C-8.542,27.11 -9.883,36.293 -11.055,45.093C-11.254,46.578 -11.438,48.062 -11.66,49.543C-11.688,49.719 -11.66,49.891 -11.601,50.05C-13.222,50.18 -14.899,51.055 -16.181,52.269C-15.837,49.473 -15.604,46.666 -15.571,43.845C-15.575,43.32 -15.683,42.004 -16.451,42.599C-16.503,42.703 -16.539,42.811 -16.587,42.916C-18.123,40.846 -19.476,38.603 -20.39,36.19C-21.638,32.751 -21.079,28.708 -21.854,25.139C-22.896,22.064 -25.607,19.963 -28.653,18.751C-26.724,18.049 -24.913,16.879 -23.196,15.844C-21.543,14.809 -19.948,13.682 -18.501,12.376C-18.364,12.251 -18.329,12.047 -18.451,11.898C-18.568,11.754 -18.778,11.739 -18.923,11.851C-19.765,12.5 -20.583,13.174 -21.442,13.797C-24.05,15.606 -26.958,16.781 -30.087,17.476C-30.604,17.595 -31.157,17.713 -31.724,17.835C-32.294,17.718 -32.861,17.629 -33.417,17.573C-33.541,17.557 -33.649,17.571 -33.762,17.576C-32.73,17.079 -31.728,16.511 -30.758,15.904C-26.979,13.645 -23.997,10.373 -21.523,6.767C-20.646,5.273 -19.455,3.734 -18.879,2.05M-15.163,64.266C-14.147,62.397 -13.043,60.638 -11.799,58.894C-11.692,64.125 -13.433,69.765 -17.004,73.721C-16.847,73.473 -16.691,73.224 -16.543,72.968C-15.78,71.645 -15.228,70.189 -15.008,68.67C-14.73,67.194 -15.402,65.727 -15.163,64.266M-8.522,56.662C-8.116,63.299 -10.39,70.04 -13.648,75.836C-15.121,78.18 -17.418,80.007 -20.091,80.781C-20.423,80.862 -20.896,80.911 -21.365,80.987C-21.097,79.767 -20.839,78.544 -20.59,77.319C-15.689,75.906 -13.104,70.382 -11.711,65.785C-11.135,63.597 -10.619,61.325 -10.676,59.052C-10.729,58.706 -10.716,58.16 -11.094,57.971C-10.86,57.388 -8.728,56.127 -9.945,55.695C-11.488,56.087 -12.729,57.534 -13.891,58.605C-19.708,65.716 -15.557,62.772 -16.491,68.722C-17.274,70.737 -18.654,72.569 -19.995,74.33C-19.51,71.827 -19.045,69.321 -18.579,66.818C-17.941,63.226 -17.259,59.625 -16.702,56.007C-16.689,56.003 -16.68,56.004 -16.666,55.998C-14.931,54.849 -13.749,52.653 -11.474,52.434C-9.213,52.228 -8.733,54.941 -8.522,56.662M-21.874,83.225C-21.668,83.268 -21.452,83.295 -21.225,83.299C-20.394,84.054 -19.762,85.049 -20.236,86.212C-20.85,86.985 -21.705,88.361 -22.835,88.078C-22.924,88.054 -23.006,88.06 -23.084,88.077C-22.65,86.467 -22.253,84.849 -21.874,83.225M-100.041,86.08C-100.798,86.406 -101.718,86.542 -102.281,85.837C-102.71,85.009 -102.439,83.651 -101.663,83.106C-101.458,83.003 -101.23,82.965 -101.016,82.895C-100.97,82.884 -100.933,82.86 -100.891,82.843C-100.797,83.223 -100.712,83.606 -100.616,83.986C-100.419,84.68 -100.229,85.379 -100.041,86.08M-60.345,114.842C-60.613,114.874 -60.836,114.92 -61.034,114.977C-61.229,114.978 -61.428,114.97 -61.624,114.965C-63.019,114.772 -64.41,114.535 -65.792,114.252C-75.139,112.653 -84.548,108.684 -91.233,101.701C-93.242,99.549 -94.228,96.741 -95.155,94.004C-97.438,87.072 -99.229,79.615 -100.761,72.416C-102.218,65.382 -103.283,58.246 -104.546,51.173C-104.89,49.323 -105.106,47.446 -105.443,45.592C-103.272,44.576 -99.938,38.852 -99.813,37.472C-99.047,34.082 -99.778,30.682 -99.324,27.238C-98.239,22.584 -92.69,21.682 -88.518,21.467C-94.257,26.753 -97.562,36.473 -97.628,43.111C-97.711,45.018 -97.692,46.986 -97.324,48.877C-97.258,49.256 -97.041,49.618 -96.668,49.763C-95.24,50.127 -95.278,48.175 -95.066,47.228C-94.791,45.632 -94.537,43.896 -94.121,42.283C-92.178,34.174 -86.504,25.121 -78.006,23.026C-79.09,24.025 -80.086,25.152 -81.011,26.088C-86.789,32.927 -89.986,41.582 -92.034,50.198C-92.169,50.658 -91.762,51.067 -91.332,51.067C-90.873,51.058 -90.61,50.642 -90.417,50.277C-89.994,49.488 -89.723,48.728 -89.327,47.914C-86.036,41.072 -79.551,30.582 -71.844,26.904C-70.412,27.944 -65.863,28.195 -64.916,28.347C-59.608,28.845 -54.169,28.438 -49.178,26.468C-48.872,26.347 -48.567,26.185 -48.37,25.93C-48.274,26.004 -48.176,26.075 -48.082,26.152C-44.365,29.514 -41.325,33.629 -38.917,38.016C-37.033,41.404 -35.718,45.132 -34.771,48.896C-34.416,49.801 -34.502,51.027 -33.715,51.677C-30.947,52.617 -32.316,44.655 -32.418,43.123C-33.63,35.437 -36.648,26.159 -43.333,21.683C-36.353,20.625 -32.055,29.276 -29.718,34.881C-28.208,38.78 -27.412,43.121 -27.085,47.319C-26.931,48.138 -27.081,49.134 -26.519,49.803C-24.774,50.874 -24.512,47.911 -24.343,46.76C-23.31,37.593 -24.996,27.444 -31.328,20.414C-28.06,21.544 -24.82,23.149 -23.427,26.451C-22.544,28.986 -23.263,31.699 -23.069,34.315C-22.823,38.169 -20.428,41.653 -17.897,44.421C-17.68,44.593 -17.443,44.645 -17.221,44.615C-17.978,47.194 -18.041,50.008 -18.579,52.629C-19.21,56.726 -19.978,60.799 -20.712,64.879C-22.173,72.807 -23.593,80.727 -25.763,88.529C-27.299,93.125 -28.239,98.242 -31.33,102.104C-37.909,109.269 -50.82,113.811 -60.345,114.842M-73.894,114.873C-73.198,115.087 -72.503,115.287 -71.805,115.471C-68.979,116.445 -65.474,117.187 -64.779,117.205C-62.442,117.415 -60.013,117.51 -57.691,117.064C-54.751,116.868 -51.896,115.771 -49,114.838C-48.995,115.187 -48.967,115.537 -48.967,115.866C-48.801,117.791 -48.803,119.764 -48.287,121.635C-48.103,122.181 -47.781,122.635 -47.403,123.047C-47.509,123.25 -47.597,123.471 -47.67,123.688C-50.373,128.766 -54.158,140.574 -60.523,141.141C-65.497,141.058 -69.869,135.591 -72.511,131.768C-73.898,129.563 -75.081,127.159 -75.926,124.67C-74.859,123.519 -74.237,122.129 -74.212,120.538C-73.993,118.673 -73.837,116.766 -73.894,114.873M-3.809,112.22C-3.843,115.684 -4.955,118.977 -5.915,122.275C-6.846,115.608 -8.64,108.92 -12.097,103.129C-12.394,102.245 -12.756,102.185 -12.843,102.647C-12.79,102.882 -12.646,103.096 -12.563,103.325C-10.452,112.072 -7.639,120.659 -7.644,129.772C-7.382,135.413 -8.238,141.011 -8.878,146.6C-8.944,147.108 -9.006,147.616 -9.064,148.125C-13.541,141.633 -18.851,135.692 -25.072,130.901C-25.592,130.578 -26.098,130.112 -26.648,129.783C-23.941,125.587 -23.309,121.027 -26.523,114.743C-24.22,110.165 -23.733,103.891 -26.96,99.657C-25.769,97.193 -24.871,94.341 -23.864,90.853C-23.687,90.253 -23.524,89.649 -23.356,89.045C-23.341,89.06 -23.333,89.077 -23.315,89.089C-22.955,89.305 -22.554,89.504 -22.132,89.566C-20.615,89.435 -19.218,88.491 -18.312,87.261C-17.617,85.924 -17.899,84.028 -18.823,82.858C-16.881,82.203 -14.862,80.929 -13.706,79.81C-13.59,80.705 -13.364,81.606 -13.281,82.32C-11.184,92.651 -3.509,101.329 -3.809,112.22M-3.257,157.651C-4.562,155.227 -5.969,152.837 -7.475,150.506C-7.071,149.434 -7.122,147.533 -6.913,146.815C-6.021,139.929 -4.923,132.985 -5.501,126.032C-5.267,125.677 -5.118,125.219 -4.952,124.879C-4.184,122.626 -3.332,120.574 -2.729,118.234C1.911,103.919 -10.148,91.784 -11.828,78.074C-11.838,77.901 -11.864,77.696 -11.911,77.494C-7.767,71.096 -4.258,58.259 -7.437,52.252C-8.021,51.266 -8.773,50.661 -9.603,50.332C-9.483,50.17 -9.389,49.991 -9.359,49.781C-9.063,47.695 -8.742,45.609 -8.457,43.523C-6.074,29.61 -5.999,14.033 -15.294,2.492C-25.64,-10.649 -42.446,-17.513 -58.883,-18.305C-60.514,-18.436 -62.131,-18.349 -63.739,-18.159C-67.863,-17.976 -74.266,-16.407 -75.484,-16.083C-92.383,-11.44 -109.701,-0.016 -113.922,17.96C-115.374,24.164 -115.104,30.623 -114.402,36.909C-113.717,41.504 -113.529,46.336 -111.766,50.67C-111.971,50.696 -112.176,50.732 -112.381,50.784C-119.511,53.241 -115.019,66.897 -113.522,72.174C-112.828,74.608 -111.511,76.832 -109.753,78.592C-109.938,87.127 -115.254,94.204 -118.478,101.806C-121.546,109.486 -121.793,118.726 -117.439,125.929C-117.894,131.188 -117.728,136.541 -116.989,141.929C-116.786,145.037 -116.446,147.959 -116.345,151.113C-116.243,151.618 -116.361,152.338 -116.312,152.952C-118.217,156.254 -119.965,159.644 -121.609,163.027C-122.785,165.545 -123.987,168.06 -124.883,170.699C-125.198,171.458 -125.479,172.582 -124.853,173.129C-124.769,175.632 -116.557,180.618 -114.826,181.377C-101.572,187.772 -86.771,190.416 -72.225,191.888C-64.292,192.515 -56.307,192.794 -48.373,192.052C-40.614,191.337 -33.058,189.318 -25.537,187.361C-17.052,185.013 -8.623,182.003 -0.959,177.627C0.026,176.827 2.679,176.103 1.75,174.467C4.016,173.067 -2.358,159.475 -3.257,157.651" style="fill:rgb(38,7,61);fill-rule:nonzero;"/>
                </g>
                <g transform="matrix(1,0,0,1,587.5244,341.0439)">
                    <path d="M0,-4.874C-3.074,-5.75 -4.546,0.235 -1.241,0.539C1.723,0.876 3.34,-4.051 0,-4.874" style="fill:rgb(38,7,61);fill-rule:nonzero;"/>
                </g>
                <g transform="matrix(1,0,0,1,610.1094,357.4259)">
                    <path d="M0,-3.257C-0.802,-0.952 -2.818,0.854 -5.299,1.115C-6.867,1.272 -8.361,0.512 -9.379,-0.666C-10.041,-1.425 -10.872,-2.099 -11.165,-3.08C-7.729,-0.766 -3.44,-1.111 0,-3.257M-6.448,1.979C-3.354,2.386 -0.512,0.418 1.096,-2.104C1.589,-2.913 2.171,-3.937 1.881,-4.908C1.582,-5.643 0.713,-5.52 0.285,-4.983C-1.077,-4.064 -2.537,-3.32 -4.226,-3.338C-6.784,-3.063 -9.704,-3.059 -11.924,-4.543C-12.021,-4.778 -12.373,-4.728 -12.404,-4.475C-12.404,-4.256 -12.188,-4.089 -12.077,-3.905C-12.938,-1.486 -8.636,1.809 -6.448,1.979" style="fill:rgb(38,7,61);fill-rule:nonzero;"/>
                </g>
                <g transform="matrix(1,0,0,1,613.8018,368.3049)">
                    <path d="M0,-5.801C-0.094,-5.473 0.134,-5.124 0.325,-4.862C0.364,-4.807 0.411,-4.757 0.451,-4.703C0.429,-4.68 0.397,-4.668 0.378,-4.643C-1.095,-3.54 -2.686,-2.776 -4.452,-2.031C-7.729,-0.633 -11.292,-1.222 -14.718,-1.33C-15.022,-1.181 -14.857,-0.8 -14.663,-0.627C-13.688,0.205 -12.412,0.561 -11.151,0.678C-7.923,1.136 -4.61,0.44 -1.729,-1.053C-1.004,-1.554 1.005,-2.28 1.825,-3.225C2.163,-2.919 2.507,-2.621 2.851,-2.336C4.187,-1.906 4.154,-3.438 3.479,-4.176C3.001,-4.952 0.734,-6.937 0,-5.801" style="fill:rgb(38,7,61);fill-rule:nonzero;"/>
                </g>
                <g transform="matrix(1,0,0,1,581.3203,320.982)">
                    <path d="M0,2.81C1.633,0.195 4.842,-1.836 8.021,-1.213C5.165,-0.238 2.436,0.937 0,2.81M9.618,-2.497C7.84,-3.207 5.858,-2.633 4.138,-2.001C0.974,-0.79 -0.967,2.078 -2.331,5.027C-2.465,5.264 -2.694,5.73 -2.409,5.945C-2.242,6.017 -2.043,5.92 -1.882,5.867C0.132,4.608 1.994,3.128 4.142,2.055C5.836,1.229 7.436,0.287 9.327,-0.071C9.726,0.005 10.146,-0.119 10.392,-0.469C10.907,-1.196 10.402,-2.217 9.618,-2.497" style="fill:rgb(38,7,61);fill-rule:nonzero;"/>
                </g>
                <g transform="matrix(1,0,0,1,622.127,341.0439)">
                    <path d="M0,-4.874C-3.34,-4.051 -1.723,0.876 1.241,0.539C4.545,0.235 3.074,-5.75 0,-4.874" style="fill:rgb(38,7,61);fill-rule:nonzero;"/>
                </g>
                <g transform="matrix(1,0,0,1,620.3096,325.0056)">
                    <path d="M0,-5.237C3.18,-5.859 6.388,-3.829 8.021,-1.214C5.586,-3.087 2.856,-4.261 0,-5.237M3.884,-6.024C2.163,-6.657 0.181,-7.23 -1.597,-6.52C-2.381,-6.241 -2.887,-5.218 -2.37,-4.493C-2.126,-4.142 -1.704,-4.018 -1.306,-4.093C0.586,-3.737 2.186,-2.795 3.88,-1.968C6.027,-0.895 7.89,0.584 9.903,1.843C10.063,1.897 10.263,1.993 10.431,1.921C10.716,1.706 10.485,1.241 10.353,1.003C8.988,-1.946 7.048,-4.813 3.884,-6.024" style="fill:rgb(38,7,61);fill-rule:nonzero;"/>
                </g>
                <g transform="matrix(1,0,0,1,560.0801,327.95)">
                    <path d="M0,-35.16C2.52,-33.33 5.31,-31.82 8.33,-31.01C6.88,-30.12 5.67,-28.9 4.89,-27.22C3.49,-24.08 5.439,-20.66 4.63,-17.37C4.15,-14.53 2.49,-12.05 0.66,-9.87C0.15,-9.1 -1.54,-8.17 -1.17,-7.13C-1.48,-5.58 -1.24,-2.53 -0.86,0.47C-1.15,0.19 -1.47,-0.07 -1.8,-0.3C-2.43,-4.44 -2.72,-8.63 -2.94,-12.82C-3.23,-18.22 -3.4,-23.681 -2.46,-29C-2.05,-31.26 -1.44,-33.5 -0.57,-35.63C-0.42,-35.44 -0.16,-35.3 0,-35.16" style="fill:rgb(183,95,65);fill-rule:nonzero;"/>
                </g>
                <g transform="matrix(1,0,0,1,559.8203,290.5699)">
                    <path d="M0,1.35C-0.03,1.31 -0.07,1.28 -0.12,1.27C0.72,-0.69 1.779,-2.55 3.08,-4.22C5.85,-0.19 9.04,3.15 13.55,4.621C12.38,4.82 11.239,5.13 10.18,5.57C7.51,4.76 4.84,3.99 2.27,2.84C1.449,2.46 0.67,1.97 0,1.35" style="fill:rgb(183,95,65);fill-rule:nonzero;"/>
                </g>
                <g transform="matrix(1,0,0,1,563.2803,292.9599)">
                    <path d="M0,-7.08C0.38,-7.55 0.779,-8 1.21,-8.44C1.479,-8.71 1.8,-9 2.18,-8.99C2.51,-8.979 2.79,-8.769 3.04,-8.559C3.569,-8.13 4.09,-7.7 4.62,-7.269C7.16,-3.7 10.399,-0.59 13.979,1.91C13.81,1.91 13.64,1.91 13.479,1.92C12.819,1.76 12.17,1.59 11.529,1.38C6.979,-0.21 2.93,-3.22 0,-7.08" style="fill:rgb(183,95,65);fill-rule:nonzero;"/>
                </g>
                <g transform="matrix(1,0,0,1,643.4902,304.4092)">
                    <path d="M0,-23.709L0,-23.699C-2.2,-20.669 -4.76,-17.969 -7.811,-15.649C-9.38,-14.469 -10.95,-13.249 -12.681,-12.299C-12.891,-12.199 -13.16,-12.039 -13.37,-11.85C-14.471,-12.459 -15.65,-12.879 -16.91,-12.939C-18,-13.06 -18.16,-11.369 -17.08,-11.27C-16.67,-11.209 -16.25,-11.14 -15.851,-11.02C-7.48,-7.079 -4.32,3.461 -3.811,12.051C-5.391,4.971 -12.94,-13.199 -22.431,-8.399C-22.59,-8.329 -22.75,-8.199 -22.891,-8.06C-23.8,-8.499 -24.75,-8.879 -25.771,-9.14C-26.311,-9.049 -26.55,-8.329 -26.141,-7.959C-25.84,-7.689 -25.46,-7.579 -25.11,-7.419C-16.17,-2.939 -12.721,7.741 -11.82,17.101C-14.16,8.77 -19.32,-1.699 -27.34,-5.73C-28.09,-6.109 -30.65,-6.27 -30.061,-4.859C-29.78,-4.56 -29.33,-4.539 -28.96,-4.39C-28.7,-4.31 -28.44,-4.199 -28.19,-4.079C-30.45,-3.31 -32.86,-2.819 -35.24,-2.569C-38.8,-2.239 -42.17,-2.359 -45.76,-2.879C-45.86,-2.879 -45.96,-2.899 -46.07,-2.909C-45.971,-2.929 -45.87,-2.949 -45.78,-2.969C-45.33,-3.069 -44.79,-2.989 -44.44,-3.329C-43.98,-3.829 -44.51,-4.489 -45.08,-4.569C-53.74,-4.999 -61.07,5.581 -65.49,12.02C-62.021,4.9 -58.33,-5.779 -49.2,-6.64C-48.29,-6.609 -47.9,-7.369 -48.76,-7.869C-50.25,-8.409 -51.61,-8.219 -52.86,-7.64C-52.96,-7.719 -53.09,-7.789 -53.24,-7.839C-63.76,-8.579 -70.7,5.851 -73.57,14.301C-73.021,5.321 -68.3,-7.779 -58.32,-9.579C-57.87,-9.659 -57.41,-9.73 -56.96,-9.85C-56.15,-10.279 -56.73,-11.009 -57.48,-10.969C-59.51,-10.949 -61.391,-10.399 -63.11,-9.459C-64.811,-10.919 -66.7,-12.239 -68.311,-13.859C-69.53,-15.009 -70.71,-16.209 -71.811,-17.469C-71.811,-17.48 -71.82,-17.48 -71.82,-17.489C-73.08,-20.899 -72.78,-24.919 -70.79,-27.98C-70.11,-29.029 -68.86,-30.06 -67.75,-29.499C-67.17,-29.219 -66.86,-28.609 -66.57,-28.039C-65.28,-25.569 -63.63,-23.299 -61.681,-21.299C-61.67,-21.289 -61.66,-21.279 -61.66,-21.27C-58.311,-16.879 -53.94,-13.299 -49.09,-10.609C-48.811,-10.449 -48.58,-10.909 -48.851,-11.049C-51.87,-12.759 -54.641,-14.81 -57.181,-17.179C-57.62,-17.579 -58.04,-17.989 -58.45,-18.429C-57.49,-17.689 -56.471,-17.02 -55.42,-16.419C-57.79,-19.81 -60.11,-23.689 -59.61,-27.799C-59.19,-31.259 -56.76,-34.239 -53.79,-36.079C-50.83,-37.919 -47.37,-38.77 -43.94,-39.419C-39.391,-40.279 -34.63,-40.81 -30.19,-39.52C-27.74,-38.81 -25.2,-37.239 -24.721,-34.73C-24.48,-33.469 -24.811,-32.169 -25.17,-30.939C-25.88,-28.499 -26.74,-26.109 -27.74,-23.779C-28.931,-21.569 -30.04,-19.319 -31.04,-17.02C-31.87,-15.1 -32.63,-13.14 -33.41,-11.199C-33.49,-11.02 -33.391,-10.81 -33.21,-10.739C-33.03,-10.669 -32.82,-10.759 -32.75,-10.939C-31.19,-14.529 -29.75,-18.159 -28.101,-21.709C-27.63,-22.669 -27.15,-23.609 -26.641,-24.549C-25.51,-26.109 -24.23,-27.56 -22.78,-28.829C-19.721,-31.499 -15.82,-33.339 -11.76,-33.359C-10.311,-33.369 -8.641,-32.98 -8.021,-31.679C-7.44,-30.449 -8.08,-29.009 -8.75,-27.819C-9.32,-26.81 -9.931,-25.829 -10.57,-24.859C-12.38,-22.869 -14.41,-21.069 -16.351,-19.209C-16.46,-19.129 -16.471,-18.969 -16.391,-18.859C-16.3,-18.749 -16.141,-18.739 -16.03,-18.829C-13.55,-20.589 -11.101,-22.429 -8.98,-24.649C-8.771,-24.85 -8.25,-25.429 -7.57,-26.219C-7.4,-26.329 -7.23,-26.429 -7.061,-26.52C-4.681,-27.789 -1.01,-27.369 -0.16,-24.799C-0.04,-24.439 0.01,-24.079 0,-23.709" style="fill:rgb(183,95,65);fill-rule:nonzero;"/>
                </g>
                <g transform="matrix(1,0,0,1,650.5801,287.1895)">
                    <path d="M0,40.041C-0.33,40.27 -0.65,40.541 -0.95,40.82C-0.6,38.02 -0.37,35.211 -0.34,32.391C-0.34,31.87 -0.45,30.551 -1.22,31.15C-1.271,31.251 -1.3,31.36 -1.35,31.461C-2.89,29.391 -4.24,27.15 -5.15,24.74C-6.4,21.301 -5.84,17.261 -6.62,13.69C-7.66,10.61 -10.37,8.511 -13.42,7.301C-11.49,6.601 -9.68,5.431 -7.96,4.391C-6.311,3.36 -4.71,2.23 -3.271,0.921C-3.13,0.801 -3.09,0.591 -3.22,0.45C-3.33,0.301 -3.54,0.291 -3.69,0.4C-4.53,1.051 -5.35,1.721 -6.21,2.341C-8.811,4.15 -11.72,5.33 -14.85,6.02C-15.37,6.141 -15.92,6.261 -16.49,6.381C-17.061,6.27 -17.63,6.181 -18.18,6.12C-18.311,6.101 -18.41,6.12 -18.53,6.12C-17.49,5.631 -16.49,5.061 -15.521,4.45C-13.521,3.261 -11.75,1.78 -10.16,0.12C-8.57,-0.34 -6.99,-0.779 -5.39,-0.529C-2.21,-0.039 -0.43,3.36 0.49,6.431C3.74,17.301 2.43,28.851 0,40.041" style="fill:rgb(183,95,65);fill-rule:nonzero;"/>
                </g>
                <g transform="matrix(1,0,0,1,568.3896,389.78)">
                    <path d="M0,-2.82C-0.17,-1.06 0.44,0.86 -0.22,2.52C-4.46,6.84 -5.159,13.34 -1.18,17.97C-5.609,21.19 -9.38,25.13 -12.67,29.46C-12.75,28.72 -12.819,27.98 -12.88,27.25C-14.13,12.22 -12.71,-3.03 -8.699,-17.57C-10.13,-15.37 -11.449,-13.09 -12.649,-10.75C-12.51,-11.299 -12.359,-11.84 -12.22,-12.38C-12.17,-12.5 -12.13,-12.61 -12.08,-12.73C-11.96,-13.02 -12.42,-13.21 -12.54,-12.91C-15.149,-8.17 -17.06,-3.25 -18.33,1.8C-19.399,-5.07 -16.13,-11.98 -12.909,-18.24C-10.62,-22.69 -8.26,-27.43 -7.409,-32.28C-6.939,-32.11 -6.46,-31.96 -5.96,-31.85C-6.46,-31.18 -6.76,-30.32 -6.739,-29.59C-7.04,-27.95 -6,-26.49 -4.29,-26.49C-3.659,-26.49 -2.92,-26.53 -2.3,-26.77C-1.05,-22.07 0.17,-17.31 2.551,-13.06C2.86,-12.63 3.2,-12.22 3.53,-11.799C3.24,-11.47 2.98,-11.1 2.761,-10.82C1.061,-8.6 0.051,-5.66 0,-2.82" style="fill:rgb(183,95,65);fill-rule:nonzero;"/>
                </g>
                <g transform="matrix(1,0,0,1,658.2402,382.97)">
                    <path d="M0,6.82C-1.04,3 -2.49,-0.71 -4.521,-4.1C-4.78,-4.87 -5.09,-5.02 -5.221,-4.74C-6.271,-6.52 -7.5,-8.201 -8.891,-9.74C-7.78,-6.09 -6.67,-2.42 -6.11,1.35C-5.57,5.01 -5.561,8.72 -5.63,12.42C-5.75,19.14 -6.21,26.09 -8.08,32.5C-10.94,29.28 -14.08,26.299 -17.5,23.67C-18.021,23.35 -18.521,22.88 -19.07,22.549C-16.37,18.35 -15.73,13.79 -18.95,7.51C-16.641,2.93 -16.16,-3.34 -19.38,-7.58C-18.19,-10.04 -17.3,-12.89 -16.29,-16.38C-16.11,-16.98 -15.95,-17.58 -15.78,-18.19C-15.771,-18.17 -15.76,-18.16 -15.74,-18.14C-15.38,-17.93 -14.98,-17.73 -14.561,-17.67C-13.04,-17.8 -11.641,-18.74 -10.74,-19.97C-10.04,-21.31 -10.32,-23.201 -11.25,-24.37C-10.311,-24.69 -9.351,-25.15 -8.48,-25.68C-8.12,-23.201 -7.65,-20.74 -6.931,-18.34C-5.51,-13.59 -3.2,-9.16 -1.601,-4.47C-0.37,-0.85 0.43,3.06 0,6.82" style="fill:rgb(183,95,65);fill-rule:nonzero;"/>
                </g>
                <g transform="matrix(1,0,0,1,617.0303,394.7296)">
                    <path d="M0,-0.63C-1.11,-0.09 -2.25,0.431 -3.391,0.91C-6.74,2.33 -10.29,3.52 -13.931,3.45C-18,3.37 -21.74,1.77 -25.23,-0.42C-25.13,-1.65 -25.07,-2.89 -25.11,-4.119C-24.41,-3.909 -23.721,-3.71 -23.021,-3.52C-20.19,-2.55 -16.69,-1.81 -15.99,-1.789C-13.66,-1.579 -11.23,-1.48 -8.91,-1.93C-5.971,-2.119 -3.11,-3.22 -0.21,-4.15C-0.21,-3.81 -0.181,-3.46 -0.181,-3.13C-0.11,-2.3 -0.07,-1.46 0,-0.63" style="fill:rgb(252,149,149);fill-rule:nonzero;"/>
                </g>
                <g transform="matrix(1,0,0,1,575.0703,414.9906)">
                    <path d="M0,-33.681C4.09,-29.931 9.34,-27 14.85,-25.04C14.739,-23.51 14.83,-21.92 14.59,-20.38C14.489,-18.221 13.46,-16.58 11.899,-15.08C11.6,-14.701 10.96,-14.191 10.43,-13.641C8.54,-16.84 6.76,-20.09 6.41,-23.901C6.83,-25.991 4.6,-26.431 4.529,-24.29C4.67,-19.941 7.04,-16.031 8.93,-12.221C10.939,-8.34 12.609,-4.361 13.46,0C12.489,-1.811 11.449,-3.59 10.34,-5.321C8.55,-8.09 6.56,-10.741 4.92,-13.611C3.17,-16.67 1.819,-19.96 0.92,-23.38C0.04,-26.731 -0.4,-30.25 0,-33.681" style="fill:rgb(74,150,188);fill-rule:nonzero;"/>
                </g>
                <g transform="matrix(1,0,0,1,634.2197,408.7202)">
                    <path d="M0,-27.06C-0.45,-18.63 -3.779,-10.31 -8.729,-3.371C-9.529,-2.26 -10.37,-1.161 -11.08,0C-10.72,-0.96 -10.319,-1.9 -9.89,-2.82C-7.55,-8.13 -4.529,-13.52 -4.79,-19.51C-4.83,-19.99 -4.89,-20.55 -5.149,-20.97C-5.59,-21.81 -6.89,-21.39 -6.79,-20.47C-6.26,-16.04 -8.04,-12.04 -10,-8.14C-11.17,-8.56 -12.05,-9.6 -13,-10.411C-14.83,-11.79 -14.62,-14 -14.84,-16.15C-14.88,-16.74 -14.92,-17.96 -15.189,-18.88C-11.95,-20 -8.72,-21.28 -5.729,-23.05C-3.38,-24.371 -1.51,-25.68 0,-27.06" style="fill:rgb(74,150,188);fill-rule:nonzero;"/>
                </g>
                <g transform="matrix(1,0,0,1,644.1104,419.1502)">
                    <path d="M0,-6.41C-7.29,-4.131 -14.051,-0.11 -19.42,5.33C-19.38,5.18 -19.33,5.029 -19.29,4.88L-19.28,4.869C-19.181,4.699 -19.101,4.51 -19.011,4.369C-17.021,0.58 -14.561,-3.12 -11.591,-6.25C-9.58,-8.131 -7.771,-9.92 -6.311,-11.74C-6.2,-11.65 -6.091,-11.57 -5.98,-11.511C-3.91,-9.92 -1.91,-8.221 0,-6.41" style="fill:rgb(74,150,188);fill-rule:nonzero;"/>
                </g>
                <g transform="matrix(1,0,0,1,583.4502,409.2799)">
                    <path d="M0,11.64C-1.16,10.83 -2.46,10.161 -3.76,9.59C-9.76,6.99 -16.65,6.411 -22.98,7.97C-20.48,5.09 -17.74,2.411 -14.74,0C-11.99,2.451 -8.641,4.15 -5.71,6.36C-3.601,7.9 -1.79,9.76 0,11.64" style="fill:rgb(74,150,188);fill-rule:nonzero;"/>
                </g>
            </g>
        </g>
    </g>
</svg>
