<?xml version="1.0" encoding="UTF-8" standalone="no"?>
<!DOCTYPE svg PUBLIC "-//W3C//DTD SVG 1.1//EN" "http://www.w3.org/Graphics/SVG/1.1/DTD/svg11.dtd">
<svg width="100%" height="100%" viewBox="0 0 586 838" version="1.1" xmlns="http://www.w3.org/2000/svg" xmlns:xlink="http://www.w3.org/1999/xlink" xml:space="preserve" xmlns:serif="http://www.serif.com/" style="fill-rule:evenodd;clip-rule:evenodd;stroke-linejoin:round;stroke-miterlimit:2;">
    <g transform="matrix(1,0,0,1,-2227.112518,-156.756683)">
        <g transform="matrix(4.166667,0,0,4.166667,0,0)">
            <g transform="matrix(1,0,0,1,603.0801,141.4759)">
                <path d="M0,5.964C1.702,4.957 3.719,4.595 5.637,5.135C6.036,5.241 6.492,5.301 6.914,5.424C6.995,4.937 7.067,4.479 7.136,4.079C7.303,2.081 8.078,-0.148 6.977,-1.882C5.751,-2.471 4.384,-1.187 3.147,-0.972C1.752,-0.57 0.304,-0.269 -1.149,-0.195C-2.422,-0.235 -3.689,-0.656 -4.959,-0.649C-4.872,1.305 -4.123,5.241 -2.711,8.435C-2.116,7.361 -0.908,6.416 0,5.964" style="fill:rgb(237,84,110);fill-rule:nonzero;"/>
            </g>
            <g transform="matrix(1,0,0,1,596.9746,88.0108)">
                <path d="M0,56.852C-0.201,55.19 -0.869,53.228 -0.009,51.727C1.014,50.866 2.675,51.616 3.827,51.587C6.591,51.752 9.207,50.519 11.894,50.055C12.884,49.817 13.923,50.185 14.437,51.087C16.509,53.587 15.594,57.113 15.089,60.024C14.293,63.58 12.709,69.298 8.108,68.825C2.688,67.904 0.995,61.485 0,56.852M-5.001,6.057C-7.61,7.354 -10.672,7.765 -13.36,8.975C-15.201,9.571 -16.761,10.931 -18.553,11.474C-18.819,11.617 -19.203,11.513 -19.341,11.237C-19.764,7.568 -15.205,3.203 -11.88,2.194C-9.578,1.574 -6.399,1.398 -4.79,3.478C-4.25,4.274 -4.242,5.39 -5.001,6.057M-7.064,27.823C-8.806,26.802 -10.809,26.106 -12.876,26.33C-13.961,26.313 -15.095,26.985 -16.139,26.573C-17.593,25.409 -15.403,24.106 -14.33,24.042C-12.078,23.548 -9.611,23.774 -7.623,24.999C-6.96,25.465 -6.406,25.778 -5.967,26.405C-5.529,27.128 -6.26,28.063 -7.064,27.823M1.166,37.354C2.135,37.401 2.988,38.001 3.84,38.324C4.933,38.619 6.135,38.452 7.216,38.406C8.828,38.282 10.51,38.152 11.971,37.412C12.434,37.07 13.146,37.22 13.346,37.783C13.532,38.319 13.273,38.886 13.025,39.358C11.862,41.62 9.395,43.32 6.787,42.737C4.439,42.248 2.642,40.238 1.305,38.391C1.027,38.138 0.573,37.504 1.166,37.354M26.111,1.892C30.157,2.803 33.243,6.292 34.381,10.181C34.385,10.194 34.379,10.207 34.38,10.222C34.814,10.801 34.03,11.581 33.456,11.147C33.145,11.128 32.789,10.929 32.573,10.735C30.183,9.236 27.473,8.338 24.779,7.57C23.401,7.135 21.866,6.905 20.783,5.869C18.312,2.785 23.769,1.083 26.111,1.892M30.414,26.414C28.004,25.491 25.354,25.686 23.102,26.887C22.406,27.178 21.606,28.158 20.922,27.316C20.288,26.408 21.461,25.824 22.102,25.402C23.992,24.125 26.26,23.428 28.551,23.582C29.572,23.719 30.662,23.985 31.469,24.66C32.294,25.423 31.469,26.759 30.414,26.414M13.516,78.511C23.51,75.514 32.39,67.435 39.171,59.826C43.438,54.442 43.86,47.341 45.249,40.875C46.475,33.935 47.51,27.222 47.992,20.294C46.969,13.001 43.909,6.114 39.613,0.207C32.787,-10.473 22.175,-19.409 9.431,-21.418C1.277,-22.732 -11.046,-15.196 -17.187,-10.155C-22.173,-5.725 -26.496,-0.216 -29.137,5.806C-30.41,8.812 -31.555,11.872 -32.54,14.986C-32.064,23.841 -30.802,32.632 -29.031,41.317C-28.038,46.203 -27.2,51.184 -24.928,55.602C-19.44,66.165 -6.544,75.706 4.786,78.95C5.682,79.219 6.637,79.31 7.524,79.584C9.536,79.352 11.597,79.083 13.516,78.511" style="fill:rgb(255,222,204);fill-rule:nonzero;"/>
            </g>
            <g transform="matrix(1,0,0,1,652.3203,109.6301)">
                <path d="M0,14.26C-1.141,18.37 -2.86,22.32 -5,26C-6.67,29.06 -8.73,31.85 -11.09,34.38C-12.58,38.05 -15.23,41.17 -18.051,43.89C-21.03,46.84 -24.181,49.64 -27.57,52.12C-33.42,56.53 -40.04,60.18 -47.471,60.19C-47.79,60.31 -48.15,60.34 -48.53,60.23C-60.721,58.4 -76.391,46.75 -82.32,35.43C-87.851,28.77 -92.521,21.27 -95.82,13.33C-95.891,13.24 -95.88,13.1 -95.811,13.01C-95.33,12.69 -94.84,13.73 -94.61,14.06C-92.761,17.17 -90.641,20.1 -88.761,23.19C-87.42,25.38 -86,27.53 -84.58,29.68C-86.561,23.32 -87.37,16.58 -88.61,10.05C-89.33,5.26 -89.891,0.42 -90.21,-4.42C-90.28,-4.63 -90.301,-4.86 -90.271,-5.05C-90.271,-5.07 -90.261,-5.08 -90.261,-5.1C-90.46,-8.39 -90.551,-11.68 -90.49,-14.97C-90.271,-19.67 -89.87,-24.42 -88.87,-29.03C-88.57,-30.5 -88.19,-31.95 -87.75,-33.38C-87.65,-33.57 -87.41,-33.58 -87.261,-33.47C-87.24,-33.45 -87.221,-33.43 -87.21,-33.41C-87.17,-33.37 -87.15,-33.32 -87.141,-33.26C-87.15,-32.84 -87.17,-32.42 -87.19,-32C-87.45,-25.72 -88.15,-19.49 -88.13,-13.22C-84.4,-23.55 -77.07,-32.6 -67.71,-38.32C-63.11,-40.87 -58.21,-43.79 -53.021,-44.99C-53,-44.99 -52.99,-45 -52.98,-45C-51.57,-45.33 -50.141,-45.53 -48.681,-45.55C-47.54,-45.58 -46.391,-45.5 -45.221,-45.29C-34.24,-43.51 -24.181,-36.76 -17.5,-27.99C-13.24,-22.39 -9.11,-16.07 -7.141,-9.22C-7.181,-16.79 -7.78,-24.36 -8.74,-31.86C-8.78,-32.68 -8.86,-33.49 -8.53,-34.2C-8.4,-34.34 -8.21,-34.31 -8.101,-34.19L-8.09,-34.19C-8.07,-34.17 -8.061,-34.15 -8.051,-34.13C-8.061,-34.15 -8.08,-34.17 -8.101,-34.19C-5.49,-28.79 -5.67,-22.4 -5.051,-16.52C-4.29,-8.08 -4.74,0.62 -5.99,8.95C-7.051,16.02 -8.051,23.15 -9.801,30.08C-8.46,27.83 -7.15,25.55 -5.83,23.3C-4.03,19.92 -1.96,16.59 -0.23,13.2C-0.19,13.07 -0.07,12.97 0.069,13C0.55,13.21 0.029,13.91 0,14.26M5.09,-7.13C5.96,-15.61 6.02,-24.48 2.609,-32.44C1.6,-34.66 0.489,-36.82 -0.74,-38.91C-10.851,-56.34 -27.98,-68.8 -48.79,-69.47C-51.051,-69.47 -53.09,-69.25 -55.2,-68.97C-55.87,-68.81 -56.551,-68.63 -57.21,-68.44C-65.53,-66.32 -73.551,-63.09 -79.891,-57.31C-86.84,-51.02 -92.41,-43.05 -96.38,-34.61C-96.53,-34.31 -96.67,-34 -96.811,-33.69C-99.37,-27.74 -100.03,-21.55 -100.471,-15.25C-100.801,-10.69 -100.92,-6.22 -100.521,-1.69C-100.16,4.71 -98.771,10.69 -97.34,16.87C-97.67,20.08 -97.181,23.33 -96.351,26.39C-92.641,40.04 -82.21,50.71 -70.71,58.26C-68.061,59.85 -65.25,61.13 -62.44,62.42C-61.98,62.6 -62.2,63.34 -62.641,63.34C-62.7,63.34 -62.761,63.33 -62.82,63.3C-69.58,60.99 -75.96,57.48 -81.471,52.95C-80.45,55.66 -79,58.16 -77.141,60.31C-66.79,71.48 -49.891,74.89 -35.521,70.8C-32.09,70.03 -29.101,68.18 -25.95,66.73C-24.94,66.3 -24.16,67.8 -25.13,68.36C-33.71,72.62 -43.74,74.14 -53.25,73.18C-59.67,72.29 -66.17,70.99 -71.811,67.72C-75.65,65.4 -79.29,62.1 -81.66,58.16C-83.891,61.64 -81.301,66.16 -79.24,69.17C-70.42,81.76 -52.78,83.73 -38.7,81.35C-31.771,79.95 -25.09,77 -20.061,72.03C-17.221,69.5 -14.59,66.36 -13.801,62.58C-13.38,60.34 -13.311,58.06 -13.96,55.89C-14.57,56.78 -15.221,57.59 -15.7,58.21C-16.73,59.53 -18.021,60.57 -19.21,61.72C-19.54,62.01 -19.811,62.49 -20.21,62.66C-20.4,62.66 -20.57,62.41 -20.4,62.23C-17.931,59.54 -15.811,56.39 -14.73,52.89C-18.261,55.38 -22.051,57.48 -25.95,59.19C-29.561,61.03 -33.36,62.45 -37.23,63.73C-41.91,65.27 -46.561,67.91 -51.46,68.35C-52.71,67.87 -51.82,66.69 -50.82,66.63C-45.351,65.93 -40.46,63.26 -35.29,61.54C-34.61,61.28 -33.92,61.02 -33.23,60.78C-29.66,59.22 -26.141,57.54 -22.75,55.69C-16.73,52.06 -11.351,47.42 -6.53,42.33C-1.511,36.65 2.27,29.44 2.89,21.84C2.88,19.52 1.83,17.31 2.649,14.99C4.14,7.71 4.47,0.27 5.09,-7.13" style="fill:rgb(206,136,216);fill-rule:nonzero;"/>
            </g>
            <g transform="matrix(-0.391253,0.920283,0.920283,0.391253,626.751593,89.40601)">
                <path d="M6.174,-5.251C6.048,-3.481 5.937,-1.727 5.836,0.03C5.754,2.048 5.808,4.08 6.174,6.072C3.337,3.148 1.842,-3.402 5.754,-5.97C6.155,-6.099 6.188,-5.526 6.174,-5.251" style="fill:rgb(216,133,91);fill-rule:nonzero;"/>
            </g>
            <g transform="matrix(-0.227772,0.973714,0.973714,0.227772,587.278135,96.20231)">
                <path d="M-4.168,-2.081C-2.865,-5.086 0.081,-7.066 3.242,-7.596C0.1,-4.783 -1.934,-0.855 -4.168,2.581L-4.17,2.581C-5.589,1.48 -4.714,-0.703 -4.168,-2.081" style="fill:rgb(216,133,91);fill-rule:nonzero;"/>
            </g>
            <g transform="matrix(1,0,0,1,608.0146,129.4987)">
                <path d="M0,-2.151C-2.623,-1.229 -5.353,-1.299 -7.961,-2.206C-6.777,-0.924 -5.062,0.055 -3.281,0.053C-1.899,-0.066 -0.821,-1.116 0,-2.151" style="fill:rgb(252,149,149);fill-rule:nonzero;"/>
            </g>
            <g transform="matrix(1,0,0,1,609.8662,154.1257)">
                <path d="M0,-6.487C-3.817,-7.339 -6.854,-6.279 -8.788,-2.79C-7.597,-0.655 -6.046,0.852 -4.134,0.634C-1.463,0.021 -0.521,-3.591 0,-6.487" style="fill:rgb(255,115,125);fill-rule:nonzero;"/>
            </g>
            <g transform="matrix(1,0,0,1,668.6904,202.3899)">
                <path d="M0,7.03C-6.221,-6.49 -16.07,-17.99 -28.58,-26.01C-28.62,-26.04 -28.66,-26.07 -28.7,-26.11C-28.851,-26.22 -29,-26.34 -29.16,-26.47C-29.66,-25.36 -30.28,-24.31 -31.011,-23.34C-35.74,-16.7 -42.601,-12.45 -50.171,-10.18C-50.771,-7.84 -51.33,-5.46 -51.841,-3.07C-53.66,5.42 -54.881,14.15 -55.36,22.71C-55.551,25.63 -55.65,28.56 -55.62,31.49C-55.641,31.99 -55.551,32.8 -55.601,33.5C-44.12,32.8 -32.71,31.08 -21.671,27.82C-13.19,25.21 -5.04,21.83 2.489,17.25C2.93,17.01 3.35,16.74 3.779,16.48C2.63,13.28 1.449,10.1 0,7.03" style="fill:rgb(160,172,224);fill-rule:nonzero;"/>
            </g>
            <g transform="matrix(1,0,0,1,616.71,236.31)">
                <path d="M0,-43.6C-0.76,-41.82 -1.479,-39.08 -2.12,-36.21C-3.31,-30.79 -4.2,-24.86 -4.34,-23.78C-5.16,-17.19 -5.87,-10.58 -5.8,-3.92C-5.79,-2.71 -5.81,-1.5 -5.69,-0.3C-10.25,-0.07 -14.82,0 -19.37,-0.06C-19.479,-2.89 -19.68,-5.71 -19.87,-8.54C-20.67,-17.75 -21.27,-27.19 -23.37,-36.23C-23.93,-38.68 -24.6,-41.1 -25.42,-43.48C-22.91,-42.87 -20.39,-42.49 -17.94,-42.33C-12.01,-41.73 -5.83,-42.1 0,-43.6" style="fill:rgb(233,245,255);fill-rule:nonzero;"/>
            </g>
            <g transform="matrix(1,0,0,1,594.9404,176.28)">
                <path d="M0,59.93L-0.171,59.93C-16.761,59.52 -32.971,54.71 -47.86,47.54C-51.5,45.73 -55.101,43.71 -58.4,41.32C-58.41,41.31 -58.421,41.3 -58.431,41.3C-58.011,40.55 -57.921,39.34 -57.53,38.68C-56.58,36.09 -55.631,33.74 -54.381,31.21C-51,24.61 -46.301,18.77 -41.381,13.24C-36.921,8.19 -31.87,3.76 -26.181,0.11C-26.12,0.07 -26.07,0.04 -26.011,0C-25.91,0.24 -25.801,0.48 -25.69,0.71C-22.03,8.45 -14.11,13.53 -5.66,16.01C-5.66,16.05 -5.65,16.09 -5.631,16.13C-5.021,18.41 -4.49,20.7 -4.021,23C-1.521,35.14 -0.75,47.5 0,59.93" style="fill:rgb(160,172,224);fill-rule:nonzero;"/>
            </g>
            <g transform="matrix(1,0,0,1,572.0469,89.2383)">
                <path d="M0,54.375C-2.272,49.956 -3.11,44.975 -4.104,40.09C-5.874,31.404 -7.137,22.613 -7.612,13.759C-6.627,10.644 -5.482,7.585 -4.209,4.578C-1.568,-1.444 2.755,-6.952 7.74,-11.383C13.882,-16.424 26.205,-23.96 34.358,-22.645C47.103,-20.637 57.715,-11.7 64.541,-1.02C68.837,4.886 71.896,11.774 72.92,19.067C72.438,25.994 71.402,32.708 70.177,39.648C68.788,46.113 68.365,53.215 64.099,58.598C57.317,66.207 48.438,74.286 38.443,77.283C36.524,77.856 34.464,78.124 32.452,78.357C31.564,78.083 30.609,77.991 29.714,77.722C18.384,74.479 5.487,64.938 0,54.375M32.803,80.584C40.233,80.568 46.851,76.919 52.7,72.516C56.091,70.035 59.243,67.23 62.22,64.277C65.043,61.56 67.693,58.437 69.187,54.769C71.545,52.242 73.6,49.454 75.27,46.396C77.409,42.712 79.135,38.765 80.276,34.655C80.299,34.303 80.825,33.604 80.348,33.396C80.207,33.364 80.082,33.458 80.047,33.591C78.313,36.985 76.243,40.308 74.441,43.693C73.119,45.946 71.81,48.218 70.472,50.475C72.223,43.537 73.225,36.41 74.283,29.34C75.529,21.009 75.982,12.311 75.22,3.871C74.606,-2.008 74.783,-8.395 72.178,-13.794C72.178,-13.795 72.177,-13.795 72.177,-13.796C72.177,-13.796 72.176,-13.796 72.176,-13.797C72.062,-13.917 71.87,-13.944 71.747,-13.805C71.416,-13.102 71.491,-12.289 71.532,-11.469C72.489,-3.969 73.098,3.603 73.135,11.171C71.166,4.325 67.032,-2.003 62.775,-7.602C56.094,-16.37 46.034,-23.115 35.049,-24.903C26.914,-26.352 19.403,-21.723 12.564,-17.93C3.207,-12.206 -4.125,-3.163 -7.854,7.167C-7.876,0.483 -7.073,-6.157 -6.868,-12.868C-6.903,-13.165 -7.337,-13.262 -7.481,-12.989C-9.32,-7.059 -9.922,-0.768 -10.216,5.421C-10.28,8.713 -10.191,12.006 -9.988,15.293C-9.991,15.31 -9.995,15.326 -9.998,15.344C-10.025,15.534 -10.003,15.759 -9.941,15.97C-9.619,20.814 -9.055,25.647 -8.333,30.445C-7.098,36.971 -6.289,43.707 -4.305,50.069C-5.722,47.922 -7.142,45.775 -8.484,43.583C-10.365,40.495 -12.488,37.561 -14.336,34.454C-14.566,34.12 -15.054,33.078 -15.535,33.403C-15.609,33.487 -15.619,33.627 -15.55,33.719C-12.247,41.661 -7.574,49.162 -2.044,55.823C3.88,67.137 19.555,78.79 31.745,80.625C32.119,80.727 32.487,80.697 32.803,80.584" style="fill:rgb(38,7,61);fill-rule:nonzero;"/>
            </g>
            <g transform="matrix(1,0,0,1,644.2246,75.4708)">
                <path d="M0,-0.027C0.017,-0.009 0.036,0.004 0.048,0.026C0.036,0.008 0.022,-0.014 0.007,-0.033C0.002,-0.038 -0.004,-0.046 -0.013,-0.053C-0.009,-0.045 -0.006,-0.037 -0.002,-0.029C-0.001,-0.029 -0.001,-0.029 -0.001,-0.028C0,-0.028 0,-0.027 0,-0.027" style="fill:rgb(38,7,61);fill-rule:nonzero;"/>
            </g>
            <g transform="matrix(0.707107,-0.707107,-0.707107,-0.707107,644.225014,75.4428)">
                <path d="M-0.001,-0C-0.001,-0 -0,0 -0.001,0.001C-0,0.002 -0,0.002 -0.001,0.002L-0.001,-0" style="fill:rgb(38,7,61);fill-rule:nonzero;"/>
            </g>
            <g transform="matrix(1,0,0,1,671.1797,56.7895)">
                <path d="M0,162.855C-7.531,167.435 -15.675,170.815 -24.156,173.418C-35.195,176.68 -46.606,178.405 -58.094,179.103C-58.04,178.404 -58.131,177.592 -58.112,177.087C-58.143,174.164 -58.039,171.234 -57.847,168.314C-57.231,157.328 -55.401,146.084 -52.661,135.424C-45.086,133.149 -38.229,128.899 -33.5,122.256C-32.772,121.291 -32.149,120.24 -31.646,119.134C-31.45,119.291 -31.248,119.44 -31.069,119.593C-18.564,127.613 -8.707,139.107 -2.491,152.628C-1.036,155.697 0.143,158.883 1.287,162.079C0.862,162.345 0.437,162.611 0,162.855M-60.163,179.222C-64.72,179.451 -69.285,179.519 -73.842,179.462C-73.947,176.633 -74.153,173.809 -74.339,170.984C-75.362,159.282 -76.05,147.21 -79.886,136.042C-77.383,136.649 -74.859,137.035 -72.41,137.194C-66.483,137.794 -60.303,137.416 -54.471,135.925C-56.639,141.055 -58.591,154.086 -58.808,155.736C-59.627,162.332 -60.344,168.941 -60.27,175.603C-60.261,176.81 -60.276,178.02 -60.163,179.222M-76.41,179.421C-93,179.01 -109.21,174.202 -124.101,167.026C-127.738,165.223 -131.344,163.204 -134.641,160.808C-134.65,160.801 -134.662,160.793 -134.672,160.787C-134.251,160.042 -134.161,158.832 -133.773,158.169C-132.822,155.583 -131.871,153.233 -130.617,150.697C-127.239,144.097 -122.536,138.258 -117.617,132.732C-113.155,127.676 -108.108,123.246 -102.418,119.599C-102.357,119.563 -102.307,119.527 -102.252,119.49C-98.751,127.631 -90.61,132.945 -81.904,135.499C-81.895,135.541 -81.887,135.583 -81.874,135.625C-78.048,149.95 -77.126,164.644 -76.238,179.424C-76.295,179.422 -76.354,179.422 -76.41,179.421M-115.211,79.229C-116.039,76.167 -116.527,72.924 -116.195,69.713C-117.629,63.534 -119.015,57.553 -119.383,51.151C-119.777,46.62 -119.66,42.155 -119.331,37.592C-118.89,31.292 -118.23,25.104 -115.668,19.155C-111.668,10.37 -105.952,2.053 -98.746,-4.47C-92.41,-10.251 -84.386,-13.482 -76.073,-15.603C-75.405,-15.791 -74.731,-15.966 -74.055,-16.133C-71.949,-16.409 -69.906,-16.63 -67.649,-16.628C-44.345,-15.878 -25.662,-0.337 -16.251,20.399C-12.838,28.361 -12.898,37.229 -13.768,45.715C-14.386,53.109 -14.718,60.548 -16.209,67.835C-17.03,70.151 -15.977,72.36 -15.967,74.685C-16.591,82.285 -20.366,89.489 -25.388,95.171C-30.212,100.259 -35.588,104.899 -41.614,108.528C-45.002,110.38 -48.515,112.059 -52.089,113.62C-52.779,113.865 -53.467,114.116 -54.147,114.377C-59.32,116.101 -64.213,118.768 -69.679,119.475C-70.68,119.528 -71.571,120.711 -70.319,121.19C-65.421,120.747 -60.77,118.115 -56.093,116.569C-52.218,115.289 -48.416,113.869 -44.813,112.032C-40.914,110.325 -37.123,108.216 -33.589,105.731C-34.672,109.232 -36.792,112.384 -39.255,115.075C-39.43,115.251 -39.262,115.501 -39.071,115.501C-38.668,115.327 -38.402,114.852 -38.067,114.559C-36.884,113.409 -35.589,112.373 -34.563,111.047C-34.079,110.426 -33.434,109.62 -32.82,108.729C-32.173,110.901 -32.235,113.18 -32.656,115.42C-33.446,119.199 -36.081,122.336 -38.918,124.874C-43.945,129.843 -50.626,132.793 -57.563,134.187C-71.637,136.568 -89.282,134.602 -98.098,122.014C-100.155,119.004 -102.75,114.481 -100.521,111.001C-98.15,114.945 -94.509,118.236 -90.666,120.563C-85.03,123.826 -78.529,125.13 -72.107,126.02C-62.604,126.984 -52.566,125.459 -43.99,121.2C-43.015,120.64 -43.803,119.138 -44.807,119.571C-47.96,121.018 -50.945,122.871 -54.377,123.64C-68.753,127.728 -85.649,124.324 -96,113.146C-97.86,110.997 -99.313,108.497 -100.328,105.795C-94.819,110.319 -88.438,113.831 -81.68,116.143C-81.618,116.168 -81.56,116.18 -81.504,116.18C-81.063,116.18 -80.842,115.444 -81.301,115.256C-84.105,113.971 -86.918,112.69 -89.57,111.104C-101.073,103.549 -111.5,92.877 -115.211,79.229M-30.994,117.458C-30.115,114.758 -29.968,111.841 -30.84,109.092C-31.044,108.557 -31.319,107.573 -31.799,107.058C-31.219,105.954 -30.834,104.811 -30.94,103.772C-25.068,99.144 -20.096,93.413 -16.841,86.723C-15.607,84.082 -14.675,81.245 -14.283,78.368C-13.781,75.793 -14.604,73.169 -14.205,70.623C-12.282,62.138 -11.926,53.409 -11.213,44.766C-10.681,38.771 -10.433,32.68 -11.725,26.758C-13.317,18.518 -17.988,11.322 -22.889,4.66C-31.157,-6.35 -43.099,-14.603 -56.611,-17.582C-61.781,-18.704 -68.281,-19.875 -73.821,-18.639C-73.823,-18.639 -73.826,-18.638 -73.827,-18.638C-81.645,-16.927 -89.422,-14.373 -96.02,-9.732C-106.148,-2.482 -113.66,8.213 -118.527,19.596C-121.031,26.022 -121.531,32.959 -121.948,39.78C-122.434,47.749 -121.844,55.799 -119.988,63.569C-119.395,66.014 -118.93,68.495 -118.285,70.924C-118.195,75.432 -117.715,79.967 -115.988,84.178C-113.248,91.655 -108.668,98.169 -102.939,103.501C-103.033,103.747 -103.081,104.012 -103.057,104.251C-102.807,105.839 -102.321,107.365 -101.666,108.819C-103.325,109.835 -103.828,112.473 -103.762,114.292C-103.56,115.548 -103.251,116.75 -102.858,117.903C-102.975,117.947 -103.096,117.999 -103.223,118.064C-115.625,124.947 -128.354,140.267 -134.141,153.146C-134.905,154.902 -135.543,156.706 -136.164,158.513C-136.373,159.232 -136.92,160.269 -136.544,160.932C-136.761,162.899 -131.395,165.654 -129.891,166.609C-114.411,175.008 -97.188,180.745 -79.527,181.675C-52.345,182.73 -23.643,179.696 0.117,165.507C0.867,164.936 1.982,164.491 2.745,163.821C3.184,163.804 3.624,163.545 3.778,163.128C4.069,162.232 3.515,161.324 3.279,160.468C-2.793,143.041 -14.372,126.19 -30.994,117.458" style="fill:rgb(38,7,61);fill-rule:nonzero;"/>
            </g>
            <g transform="matrix(1,0,0,1,589.3516,114.6228)">
                <path d="M0,-1.613C-1.988,-2.838 -4.455,-3.064 -6.707,-2.57C-7.78,-2.506 -9.97,-1.203 -8.516,-0.039C-7.472,0.373 -6.338,-0.299 -5.253,-0.282C-3.186,-0.506 -1.183,0.19 0.559,1.211C1.363,1.451 2.094,0.516 1.656,-0.207C1.217,-0.834 0.663,-1.147 0,-1.613" style="fill:rgb(38,7,61);fill-rule:nonzero;"/>
            </g>
            <g transform="matrix(1,0,0,1,625.5254,116.0148)">
                <path d="M0,-4.422C-2.291,-4.576 -4.559,-3.879 -6.449,-2.602C-7.09,-2.18 -8.263,-1.596 -7.629,-0.688C-6.944,0.154 -6.145,-0.826 -5.449,-1.117C-3.196,-2.318 -0.547,-2.513 1.863,-1.59C2.918,-1.245 3.743,-2.581 2.918,-3.344C2.111,-4.019 1.021,-4.285 0,-4.422" style="fill:rgb(38,7,61);fill-rule:nonzero;"/>
            </g>
            <g transform="matrix(1,0,0,1,590.7412,96.3054)">
                <path d="M0,-3.574C-3.855,-2.181 -8.143,-1.095 -11.598,1.323C-10.362,-1.634 -7.763,-4.051 -4.54,-4.636C-3.074,-4.853 -0.749,-5.208 0,-3.576L0,-3.574ZM-5.646,-6.101C-8.972,-5.092 -13.53,-0.727 -13.107,2.942C-12.97,3.218 -12.586,3.322 -12.319,3.179C-10.527,2.636 -8.968,1.276 -7.127,0.68C-4.438,-0.53 -1.377,-0.94 1.232,-2.238C1.991,-2.905 1.983,-4.02 1.443,-4.816C-0.166,-6.896 -3.345,-6.721 -5.646,-6.101" style="fill:rgb(38,7,61);fill-rule:nonzero;"/>
            </g>
            <g transform="matrix(1,0,0,1,619.0059,96.3212)">
                <path d="M0,-3.956C3.895,-6.551 9.337,-2.613 10.918,1.142C9.229,0.026 7.379,-0.819 5.49,-1.533C3.833,-2.127 2.176,-2.711 0.498,-3.288C0.239,-3.383 -0.275,-3.637 0,-3.956M2.748,-0.74C5.441,0.028 8.151,0.926 10.542,2.425C10.758,2.618 11.113,2.818 11.425,2.837C11.999,3.271 12.783,2.491 12.349,1.911C12.348,1.897 12.354,1.884 12.35,1.87C11.212,-2.018 8.126,-5.508 4.08,-6.419C1.737,-7.227 -3.72,-5.526 -1.248,-2.442C-0.165,-1.405 1.37,-1.175 2.748,-0.74" style="fill:rgb(38,7,61);fill-rule:nonzero;"/>
            </g>
            <g transform="matrix(1,0,0,1,608.0146,129.0637)">
                <path d="M0,-1.716C-0.821,-0.681 -1.899,0.369 -3.281,0.488C-5.062,0.49 -6.777,-0.489 -7.961,-1.771C-5.353,-0.864 -2.623,-0.794 0,-1.716M-4.253,1.684C-1.646,2.267 0.822,0.567 1.985,-1.695C2.233,-2.167 2.492,-2.734 2.306,-3.27C2.105,-3.833 1.394,-3.983 0.931,-3.641C-0.53,-2.901 -2.212,-2.771 -3.824,-2.647C-4.905,-2.601 -6.107,-2.434 -7.2,-2.729C-8.052,-3.052 -8.905,-3.652 -9.874,-3.699C-10.467,-3.549 -10.013,-2.915 -9.735,-2.662C-8.398,-0.815 -6.601,1.195 -4.253,1.684" style="fill:rgb(38,7,61);fill-rule:nonzero;"/>
            </g>
            <g transform="matrix(1,0,0,1,601.0781,143.8009)">
                <path d="M0,7.535C1.935,4.046 4.971,2.986 8.788,3.838C8.268,6.733 7.325,10.346 4.654,10.959C2.742,11.177 1.191,9.67 0,7.535M-0.709,6.11C-2.121,2.916 -2.87,-1.02 -2.957,-2.974C-1.687,-2.981 -0.42,-2.56 0.853,-2.52C2.306,-2.594 3.754,-2.895 5.149,-3.297C6.386,-3.512 7.753,-4.796 8.979,-4.207C10.08,-2.473 9.305,-0.244 9.138,1.754C9.069,2.154 8.997,2.612 8.916,3.099C8.494,2.976 8.038,2.916 7.639,2.81C5.721,2.27 3.704,2.632 2.002,3.639C1.094,4.091 -0.114,5.036 -0.709,6.11M10.985,4.234C11.49,1.323 12.405,-2.203 10.333,-4.703C9.819,-5.605 8.78,-5.973 7.79,-5.735C5.104,-5.271 2.487,-4.038 -0.276,-4.203C-1.429,-4.174 -3.09,-4.924 -4.112,-4.063C-4.973,-2.562 -4.305,-0.6 -4.104,1.062C-3.108,5.695 -1.415,12.114 4.005,13.035C8.605,13.508 10.189,7.79 10.985,4.234" style="fill:rgb(38,7,61);fill-rule:nonzero;"/>
            </g>
            <g transform="matrix(0.609443,-0.79283,-0.79283,-0.609443,589.096061,183.426717)">
                <path d="M-6.992,-5.644C-8.428,-7.517 -9.92,-9.334 -11.458,-11.108C-16.561,4.999 -9.246,16.601 -6.992,19.658C-10.898,12.038 -10.098,2.663 -6.915,-5.548C-6.946,-5.572 -6.973,-5.604 -6.992,-5.644" style="fill:rgb(119,131,191);fill-rule:nonzero;"/>
            </g>
            <g transform="matrix(1,0,0,1,616.71,202.31)">
                <path d="M0,-9.6C-0.76,-7.82 -1.479,-5.08 -2.12,-2.21C-7.47,-0.54 -13.42,0 -19.71,-1.31C-20.99,-1.58 -22.2,-1.88 -23.37,-2.23C-23.93,-4.68 -24.6,-7.1 -25.42,-9.48C-22.91,-8.87 -20.39,-8.49 -17.94,-8.33C-12.01,-7.73 -5.83,-8.1 0,-9.6" style="fill:rgb(189,219,239);fill-rule:nonzero;"/>
            </g>
            <g transform="matrix(1,0,0,1,639.9902,198.9598)">
                <path d="M0,-22.68C-0.29,-16.96 -9.53,-4.8 -23.141,0.36C-22.63,-2.03 -22.07,-4.41 -21.471,-6.75C-13.9,-9.02 -7.04,-13.27 -2.311,-19.91C-1.58,-20.88 -0.96,-21.93 -0.46,-23.04C-0.3,-22.91 -0.15,-22.79 0,-22.68" style="fill:rgb(127,136,198);fill-rule:nonzero;"/>
            </g>
            <g transform="matrix(1,0,0,1,654.9697,132.5701)">
                <path d="M0,-7.95C-0.819,-5.63 0.23,-3.42 0.24,-1.1C-0.38,6.5 -4.16,13.71 -9.18,19.39C-14,24.48 -19.38,29.12 -25.399,32.75C-28.79,34.6 -32.31,36.28 -35.88,37.84C-36.569,38.08 -37.26,38.34 -37.939,38.6C-43.109,40.32 -48,42.99 -53.47,43.69C-54.47,43.75 -55.359,44.93 -54.109,45.41C-49.21,44.97 -44.56,42.33 -39.88,40.79C-36.01,39.51 -32.21,38.09 -28.6,36.25C-24.7,34.54 -20.91,32.44 -17.38,29.95C-18.46,33.45 -20.58,36.6 -23.05,39.29C-23.22,39.47 -23.05,39.72 -22.859,39.72C-22.46,39.55 -22.189,39.07 -21.859,38.78C-20.67,37.63 -19.38,36.59 -18.35,35.27C-17.87,34.65 -17.22,33.84 -16.609,32.95C-15.96,35.12 -16.029,37.4 -16.45,39.64C-17.239,43.42 -19.87,46.56 -22.71,49.09C-27.739,54.06 -34.42,57.01 -41.35,58.41C-55.43,60.79 -73.069,58.82 -81.89,46.23C-83.95,43.22 -86.54,38.7 -84.31,35.22C-81.939,39.16 -78.3,42.46 -74.46,44.78C-68.819,48.05 -62.319,49.35 -55.899,50.24C-46.39,51.2 -36.359,49.68 -27.779,45.42C-26.81,44.86 -27.59,43.36 -28.6,43.79C-31.75,45.24 -34.739,47.09 -38.17,47.86C-52.54,51.95 -69.439,48.54 -79.79,37.37C-81.649,35.22 -83.1,32.72 -84.12,30.01C-78.609,34.54 -72.229,38.05 -65.47,40.36C-65.41,40.39 -65.35,40.4 -65.29,40.4C-64.85,40.4 -64.63,39.66 -65.09,39.48C-67.899,38.19 -70.71,36.91 -73.359,35.32C-84.859,27.77 -95.29,17.1 -99,3.45C-99.83,0.39 -100.319,-2.86 -99.989,-6.07C-101.42,-12.25 -102.81,-18.23 -103.17,-24.63C-103.569,-29.16 -103.45,-33.63 -103.12,-38.19C-102.68,-44.49 -102.02,-50.68 -99.46,-56.63C-99.319,-56.94 -99.18,-57.25 -99.029,-57.55C-99.85,-53.09 -100.43,-48.58 -100.76,-44.05C-101.08,-39.72 -101.18,-35.3 -100,-31.13C-99.39,-29 -98.46,-26.96 -97.25,-25.11C-95.279,-27.63 -95.189,-31.09 -94.979,-34.29C-94.569,-40.3 -93.41,-46.25 -91.52,-51.97C-92.52,-47.36 -92.92,-42.61 -93.14,-37.91C-93.2,-34.62 -93.109,-31.33 -92.91,-28.04C-92.91,-28.02 -92.92,-28.01 -92.92,-27.99C-92.95,-27.8 -92.93,-27.57 -92.859,-27.36C-92.54,-22.52 -91.979,-17.68 -91.26,-12.89C-90.02,-6.36 -89.21,0.38 -87.229,6.74C-88.649,4.59 -90.069,2.44 -91.41,0.25C-93.29,-2.84 -95.41,-5.77 -97.26,-8.88C-97.489,-9.21 -97.979,-10.25 -98.46,-9.93C-98.529,-9.84 -98.54,-9.7 -98.47,-9.61C-95.17,-1.67 -90.5,5.83 -84.97,12.49C-79.04,23.81 -63.37,35.46 -51.18,37.29C-50.8,37.4 -50.439,37.37 -50.12,37.25C-42.689,37.24 -36.069,33.59 -30.22,29.18C-26.83,26.7 -23.68,23.9 -20.7,20.95C-17.88,18.23 -15.229,15.11 -13.739,11.44C-11.38,8.91 -9.319,6.12 -7.649,3.06C-5.51,-0.62 -3.79,-4.57 -2.649,-8.68C-2.62,-9.03 -2.1,-9.73 -2.58,-9.94C-2.72,-9.97 -2.84,-9.87 -2.88,-9.74C-4.609,-6.35 -6.68,-3.02 -8.479,0.36C-9.8,2.61 -11.109,4.89 -12.45,7.14C-10.7,0.21 -9.7,-6.92 -8.64,-13.99C-7.39,-22.32 -6.939,-31.02 -7.7,-39.46C-8.319,-45.34 -8.14,-51.73 -10.75,-57.13C-10.859,-57.25 -11.05,-57.28 -11.18,-57.14C-11.51,-56.43 -11.43,-55.62 -11.39,-54.8C-10.43,-47.3 -9.83,-39.73 -9.79,-32.16C-11.76,-39.01 -15.89,-45.33 -20.149,-50.93C-26.83,-59.7 -36.89,-66.45 -47.87,-68.23C-49.04,-68.44 -50.189,-68.52 -51.33,-68.49C-51,-68.53 -50.66,-68.55 -50.33,-68.57C-47.59,-68.74 -44.819,-68.68 -42.149,-68.07C-36.58,-66.79 -32.029,-65.24 -27.479,-61.77C-22.93,-58.31 -19,-54.11 -14.66,-50.38C-14.319,-50.09 -13.859,-49.79 -13.47,-49.99C-13.2,-50.13 -13.09,-50.44 -13.01,-50.73C-12.029,-54.51 -13.45,-58.46 -14.85,-62.1C-15.7,-64.3 -16.54,-66.5 -17.38,-68.69C-15.46,-67.78 -14.17,-65.94 -13.029,-64.13C-9.5,-58.52 -6.56,-52.53 -4.3,-46.3C-3.92,-45.24 -3.12,-43.94 -2.05,-44.26C-1.569,-50.15 -2.04,-56.1 -3.39,-61.85C-2.16,-59.76 -1.05,-57.6 -0.04,-55.38C3.37,-47.42 3.311,-38.55 2.44,-30.07C1.82,-22.67 1.49,-15.23 0,-7.95" style="fill:rgb(176,103,193);fill-rule:nonzero;"/>
            </g>
            <g transform="matrix(1,0,0,1,564.1904,64.6402)">
                <path d="M0,31.77C-0.021,25.5 0.68,19.27 0.939,12.99C0.96,14.67 0.979,16.36 1,18.04C1.01,18.93 1.189,20.06 2.05,20.28C2.85,20.48 3.54,19.73 4.029,19.07C11.479,9.09 22.869,2.18 35.109,0C29.92,1.2 25.02,4.12 20.42,6.67C11.06,12.39 3.729,21.44 0,31.77" style="fill:rgb(176,103,193);fill-rule:nonzero;"/>
            </g>
            <g transform="matrix(1,0,0,1,565.1104,76.0397)">
                <path d="M0,0.18C-0.011,0.16 -0.03,0.14 -0.051,0.12C-0.03,0.08 -0.021,0.04 0,0L0,0.18Z" style="fill:rgb(145,112,193);fill-rule:nonzero;"/>
            </g>
        </g>
    </g>
</svg>
