<?xml version="1.0" encoding="UTF-8" standalone="no"?>
<!DOCTYPE svg PUBLIC "-//W3C//DTD SVG 1.1//EN" "http://www.w3.org/Graphics/SVG/1.1/DTD/svg11.dtd">
<svg width="100%" height="100%" viewBox="0 0 504 822" version="1.1" xmlns="http://www.w3.org/2000/svg" xmlns:xlink="http://www.w3.org/1999/xlink" xml:space="preserve" xmlns:serif="http://www.serif.com/" style="fill-rule:evenodd;clip-rule:evenodd;stroke-linejoin:round;stroke-miterlimit:2;">
    <g transform="matrix(1,0,0,1,-1320.036103,-1121.96692)">
        <g transform="matrix(4.166667,0,0,4.166667,0,0)">
            <g>
                <g transform="matrix(1,0,0,1,374.1885,381.4646)">
                    <path d="M0,-4.99C-0.809,-4.648 -1.641,-4.271 -2.365,-3.783C-0.967,-1.261 0.944,0.695 3.635,0.898C6.21,0.841 7.745,-1.115 8.896,-3.261C7.739,-3.984 6.521,-4.648 5.314,-5.297C3.553,-5.888 1.683,-5.643 0,-4.99" style="fill:rgb(249,125,143);fill-rule:nonzero;"/>
                </g>
                <g transform="matrix(1,0,0,1,435.5937,290.8634)">
                    <path d="M0,94.788C-1.2,93.628 -1.818,91.983 -2.94,90.746C-2.641,88.928 -2.67,87.265 -3.317,86.103C-3.859,85.63 -4.459,86.249 -4.623,86.78C-5.552,93.405 -7.96,100.137 -13.019,104.76C-13.502,105.215 -14.024,105.669 -14.546,106.123C-14.537,106.114 -14.527,106.095 -14.527,106.085C-13.569,103.415 -12.612,100.176 -13.898,97.487C-14.537,97.081 -14.701,98.474 -14.846,98.908C-15.697,104.886 -18.55,110.708 -23.744,114.054C-24.305,114.46 -25.127,115.002 -25.784,115.428C-25.794,115.428 -25.813,115.437 -25.823,115.447C-27.399,114.315 -29.121,113.426 -30.813,112.497C-31.655,112.033 -32.496,111.568 -33.309,111.056C-35.001,109.083 -36.568,106.732 -38.967,105.562C-39.644,105.311 -40.563,105.03 -41.326,105.185C-41.308,103.067 -40.949,100.92 -40.466,98.841C-25.881,91.762 -21.104,77.09 -17.167,59.188C-16.954,57.486 -13.173,41.219 -15.958,42.321C-16.5,42.921 -16.684,43.733 -16.81,44.555C-18.153,42.553 -19.479,40.541 -20.494,38.346C-22.825,33.308 -23.541,27.746 -23.879,22.253C-23.995,21.673 -24.063,19.535 -25.068,20.338C-25.93,21.876 -26.036,23.645 -25.93,25.425C-26.094,25.434 -26.249,25.454 -26.394,25.474C-32.545,25.783 -38.59,25.85 -44.653,24.409C-50.485,22.892 -55.901,20.048 -61.259,17.32C-61.685,17.117 -62.343,16.76 -62.758,17.156C-63.397,19.178 -57.98,21.15 -56.53,22.146C-55.031,22.959 -53.493,23.703 -51.937,24.371C-54.635,25.038 -57.371,25.531 -60.157,25.135C-69.954,24.168 -77.981,18.539 -81.889,9.438C-82.662,8.249 -82.972,6.575 -84.142,5.734C-85.119,5.599 -85.003,6.74 -84.664,7.9C-83.91,15.985 -84.403,23.065 -89.548,29.391C-88.639,24.874 -88.523,20.184 -89.152,15.638C-89.036,15.27 -89.597,15.115 -89.625,15.492C-89.655,15.744 -89.81,15.967 -89.848,16.218C-90.689,19.864 -90.631,23.597 -91.396,27.272C-92.169,31.876 -93.92,36.392 -96.454,40.367C-97.885,42.746 -99.5,44.846 -101.193,47.089C-101.831,47.892 -103.03,49.41 -101.425,49.913C-101.222,49.952 -101.038,49.923 -100.864,49.855C-100.661,51.045 -100.293,52.331 -100.235,52.901C-99.655,55.725 -99.046,58.55 -98.32,61.335C-95.844,69.778 -93.427,78.405 -89.181,86.162C-85.921,91.983 -80.893,96.297 -75.07,99.111C-75.051,99.18 -75.041,99.247 -75.012,99.314C-74.335,100.959 -74.055,102.738 -73.968,104.537C-77.942,104.837 -80.708,108.56 -82.75,111.645C-84.297,112.148 -85.786,112.767 -87.217,113.493C-88.136,113.967 -89.026,114.47 -89.896,115.021C-90.051,114.809 -90.274,114.625 -90.544,114.528C-93.397,112.642 -96.077,110.069 -98.127,107.235C-99.133,106.104 -99.839,103.947 -101.251,103.184C-102.092,102.951 -102.74,103.744 -102.682,104.537C-102.663,105.901 -102.789,107.361 -103.543,108.57C-103.717,108.629 -103.891,108.6 -104.036,108.493C-105.042,107.7 -105.816,106.645 -106.589,105.649C-108.804,102.574 -110.468,99.073 -110.719,95.253C-110.951,92.787 -110.922,90.224 -110.845,87.738C-110.768,86.916 -110.806,84.054 -111.957,85.949C-113.108,89.856 -113.205,94.18 -112.499,98.202C-112.828,97.961 -113.137,97.69 -113.417,97.391C-116.454,94.16 -115.709,89.314 -114.491,85.407C-111.841,78.55 -108.543,71.78 -109.346,64.179C-110.497,47.069 -112.557,29.235 -106.038,12.871C-103.262,6.101 -99.326,-0.91 -92.663,-4.547C-91.27,-5.369 -89.703,-5.65 -88.281,-6.49C-88.088,-6.607 -87.943,-6.781 -87.866,-6.975C-87.198,-7.622 -86.541,-8.618 -86.066,-8.908C-79.567,-14.537 -71.337,-18.193 -62.749,-19.025C-45.649,-20.659 -28.241,-12.535 -17.351,0.599C-7.767,12.165 -5.417,27.978 -5.397,42.601C-5.02,52.35 -7.477,62.38 -4.962,72.013C-2.979,79.556 1.024,86.752 0,94.788" style="fill:rgb(198,106,44);fill-rule:nonzero;"/>
                </g>
                <g transform="matrix(1,0,0,1,368.1689,401.2982)">
                    <path d="M0,17.65C2.469,20.359 6.441,26.036 10.277,26.15C16.99,24.441 22.364,11.188 25.708,4.539C25.673,4.386 25.645,4.234 25.624,4.09C24.768,1.046 23.991,-1.941 24.024,-5.117C24.058,-5.664 24.09,-7.028 24.228,-8.5C19.533,-3.553 13.447,-0.087 6.414,-1.589C2.455,-2.464 -1.628,-4.483 -4.484,-7.483C-4.426,-7.082 -4.38,-6.739 -4.342,-6.51C-3.838,-2.707 -4.981,0.919 -6.281,4.438C-5.672,9.32 -3.084,13.866 0,17.65" style="fill:rgb(255,226,204);fill-rule:nonzero;"/>
                </g>
                <g transform="matrix(1,0,0,1,381.4258,397.5846)">
                    <path d="M0,-3.944C-0.216,-3.93 -0.428,-3.939 -0.635,-3.961C-1.108,-3.924 -1.581,-3.9 -2.055,-3.893C-2.385,-3.715 -2.843,-3.623 -3.449,-3.692C-8.234,-3.689 -13.061,-4.527 -17.55,-6.181C-15.707,-4.554 -14.114,-2.638 -12.147,-1.154C-7.495,2.556 -0.918,2.327 3.807,-1.053C3.807,-1.052 3.799,-1.052 3.799,-1.052C6.284,-2.599 8.355,-4.564 10.49,-6.5C7.403,-5.344 3.931,-4.478 0,-3.944" style="fill:rgb(255,185,161);fill-rule:nonzero;"/>
                </g>
                <g transform="matrix(1,0,0,1,391.4404,350.253)">
                    <path d="M0,-4.794C-0.948,-6.219 1.219,-6.92 2.124,-7.56C4.204,-8.746 6.406,-10.119 8.878,-10.091C10.521,-10.446 17.312,-7.961 15.268,-5.807C14.671,-5.285 13.844,-5.646 13.302,-6.06C12.38,-6.729 11.396,-7.395 10.252,-7.595C7.553,-8.167 5.177,-6.868 2.97,-5.538C2.062,-5.113 0.952,-3.753 0,-4.794M-3.382,21.292C-5.002,26.573 -7.349,34.979 -14.309,34.275C-19.679,33.531 -21.918,27.857 -23.549,23.365C-24.069,21.837 -24.555,20.29 -24.841,18.701C-24.947,18.242 -25.04,17.784 -25.134,17.333C-25.232,16.85 -24.865,16.37 -24.39,16.291C-24.213,16.274 -24.068,16.298 -23.942,16.341C-23.634,16.289 -23.249,16.34 -22.982,16.42C-17.523,17.652 -12,16.831 -6.81,14.952C-3.235,13.988 -2.595,18.801 -3.382,21.292M-27.616,-5.332C-27.82,-4.962 -28.289,-4.735 -28.705,-4.852C-32.934,-7.437 -36.275,-9.275 -40.778,-5.857C-42.19,-5.064 -43.024,-6.802 -41.844,-7.72C-39.408,-10.242 -35.632,-10.089 -32.607,-8.812C-31.424,-8.221 -26.737,-7.065 -27.616,-5.332M-42.398,-23.006C-41.844,-24.346 -41.01,-25.557 -40.09,-26.672C-37.731,-29.453 -33.737,-33.263 -30.089,-30.351C-26.358,-26.739 -33.418,-24.459 -36.04,-23.482C-37.959,-22.871 -39.744,-22.015 -41.637,-21.523C-41.926,-21.288 -42.399,-21.279 -42.572,-21.662C-42.799,-22.084 -42.564,-22.602 -42.398,-23.006M-18.836,3.651C-17.185,4.087 -15.58,5.355 -13.789,5.242C-12.187,5.31 -10.62,4.896 -9.09,4.507C-8.242,4.371 -6.709,3.499 -6.312,4.684C-6.275,4.952 -6.389,5.186 -6.547,5.391C-7.341,6.45 -7.916,7.719 -8.987,8.541C-10.665,9.77 -13.017,9.953 -15.002,9.467C-16.524,9.096 -17.671,7.884 -18.599,6.697C-18.854,6.352 -19.26,5.955 -19.131,5.485C-19.756,4.985 -19.811,3.725 -18.836,3.651M2.96,-31.196C7.398,-33.06 12.522,-28.346 14.246,-24.528C14.246,-24.529 14.245,-24.53 14.245,-24.531C14.592,-23.876 14.956,-23.2 15.109,-22.469C15.145,-22.008 14.749,-21.434 14.276,-21.473C14.032,-21.473 13.77,-21.554 13.554,-21.638C10.529,-23.13 7.316,-24.215 4.203,-25.511C2.187,-26.478 0.717,-29.702 2.96,-31.196M25.215,-2.891C25.81,-5.937 26.376,-8.981 26.865,-12.045C22.383,-16.947 19.646,-23.499 18.637,-30.062C18.573,-30.673 18.491,-31.308 18.413,-31.949C18.182,-31.931 17.951,-31.921 17.752,-31.906C14.331,-31.535 10.901,-31.208 7.461,-31.487C3.492,-31.614 -0.352,-32.389 -4.057,-33.621C-4.87,-33.303 -5.997,-33.232 -6.649,-32.961C-9.601,-32.197 -12.653,-31.566 -15.712,-31.928C-25.07,-32.656 -33.801,-37.822 -38.237,-45.996C-37.85,-39.477 -39.784,-32.775 -44.452,-28.111C-44.983,-27.742 -45.643,-26.811 -46.336,-26.318C-47.479,-22.618 -49.192,-19.103 -51.528,-15.968C-52.648,-14.335 -53.854,-12.766 -55.078,-11.211C-55.038,-11.093 -55.003,-10.973 -54.972,-10.856C-53.59,-5.809 -52.431,-0.431 -50.983,4.543C-48.569,11.878 -46.507,19.538 -42.583,26.199C-36.715,36.068 -25.394,41.025 -14.234,41.198C-14.167,41.197 -14.098,41.198 -14.032,41.193C-13.798,41.202 -13.57,41.199 -13.341,41.198C-13.214,41.19 -13.093,41.189 -12.979,41.197C-11.281,41.155 -9.678,40.885 -8.035,40.64C-2.114,39.351 3.782,37.498 8.463,33.664C19.391,24.77 22.127,10.118 25.215,-2.891" style="fill:rgb(255,226,204);fill-rule:nonzero;"/>
                </g>
                <g transform="matrix(1,0,0,1,435.332,409.6652)">
                    <path d="M0,43.658C0.01,43.938 -0.02,44.296 0,44.635C-0.02,44.644 -0.048,44.635 -0.067,44.635C-4.352,46.124 -8.685,47.536 -13.085,48.725C-15.687,49.422 -18.308,50.051 -20.958,50.554C-21.731,50.698 -22.515,50.853 -23.299,50.989C-46.046,55.137 -69.886,56.134 -92.614,51.395C-93.155,51.289 -93.687,51.173 -94.229,51.056C-94.064,47.768 -96.395,38.638 -96.618,37.836C-96.888,36.984 -97.149,36.124 -97.411,35.262C-97.411,35.253 -97.42,35.244 -97.42,35.234C-98.948,30.262 -100.593,25.137 -103.968,21.181C-104.026,21.113 -104.055,21.036 -104.094,20.959C-104.354,20.592 -104.722,21.008 -104.452,21.336C-104.354,21.607 -104.249,21.878 -104.142,22.138C-102.836,25.505 -101.066,28.725 -100.08,32.226C-98.068,38.252 -97.285,44.567 -95.737,50.698C-98.233,50.128 -100.708,49.48 -103.155,48.745C-104.587,48.339 -105.999,47.893 -107.411,47.42C-110.516,46.356 -113.572,45.051 -116.337,43.28C-116.289,43.116 -116.25,42.952 -116.212,42.797C-114.239,36.627 -112.275,30.262 -109.567,24.334C-105.39,15.698 -99.693,7.728 -92.769,1.074C-89.403,-1.818 -85.534,-4.4 -81.211,-5.618C-79.857,-6.731 -79.189,-8.559 -77.816,-9.699C-76.617,-10.899 -75.167,-11.721 -73.687,-12.476C-73.696,-11.914 -73.715,-11.354 -73.745,-10.802C-73.793,-10.289 -73.89,-9.777 -74.025,-9.265C-75.331,-10.145 -76.056,-7.281 -75.95,-6.198C-75.979,1.084 -71.936,7.602 -67.226,12.884C-64.566,15.717 -61.82,19.334 -57.825,20.166C-51.113,20.359 -45.997,10.001 -43.145,4.866C-41.123,0.543 -37.709,-3.916 -38.966,-8.936C-39.082,-9.255 -39.421,-9.439 -39.749,-9.362C-40.04,-9.293 -40.252,-9.032 -40.271,-8.742L-40.271,-8.703C-40.601,-9.893 -40.92,-10.938 -40.949,-11.441C-40.958,-11.537 -40.968,-11.634 -40.978,-11.731C-40.281,-11.518 -39.565,-11.392 -38.947,-10.899C-37.167,-9.613 -36.258,-7.475 -34.595,-6.082C-30.504,-3.897 -26.606,-1.614 -23.096,1.539C-17.94,6.48 -13.481,12.129 -9.797,18.261C-10.329,19.006 -10.658,19.924 -11.055,20.726L-11.055,20.736L-11.064,20.746C-12.051,23.048 -12.921,25.436 -13.85,27.777C-15.881,33.096 -17.65,38.503 -18.782,44.093C-18.956,44.905 -19.12,45.727 -19.294,46.55C-19.323,46.684 -19.236,46.82 -19.101,46.849C-18.976,46.879 -18.83,46.791 -18.801,46.656C-18.463,45.051 -18.104,43.455 -17.776,41.849C-16.867,37.836 -15.658,33.899 -14.13,30.069C-12.95,27.11 -11.519,24.257 -9.836,21.558L-9.836,21.549C-9.816,21.511 -9.787,21.481 -9.768,21.442C-9.517,20.949 -9.14,20.466 -8.801,19.963C-6.055,24.799 -3.771,29.915 -2.031,35.205C-1.306,37.767 -0.223,40.621 0.01,43.377C0.01,43.474 0.01,43.571 0,43.658" style="fill:rgb(255,141,193);fill-rule:nonzero;"/>
                </g>
                <g transform="matrix(1,0,0,1,385.582,376.8202)">
                    <path d="M0,-9.62C-1.644,-9.234 -3.188,-8.524 -4.837,-8.143C-8.793,-7.221 -13.122,-7.205 -16.983,-8.545C-16.451,-6.333 -15.696,-3.265 -14.467,-0.553C-13.958,-1.201 -13.167,-1.684 -12.469,-2.026C-9.688,-3.293 -6.409,-2.384 -3.704,-1.316C-3.013,-1.006 -2.309,-0.582 -1.805,0C-1.587,-0.461 -1.378,-0.915 -1.176,-1.343C-0.238,-3.448 0.787,-5.762 0.75,-8.076C0.659,-8.617 0.583,-9.402 0,-9.62" style="fill:rgb(221,80,123);fill-rule:nonzero;"/>
                </g>
                <g transform="matrix(1,0,0,1,435.335,278.7467)">
                    <path d="M0,175.556C-0.024,175.558 -0.047,175.55 -0.073,175.554C-6.886,177.922 -13.843,180.111 -20.963,181.467C-44.956,186.087 -70.247,187.269 -94.235,181.97C-94.065,178.689 -96.403,169.553 -96.62,168.752C-98.434,163.019 -100.004,156.753 -103.975,152.095C-104.031,152.031 -104.06,151.954 -104.097,151.877C-104.354,151.513 -104.728,151.924 -104.453,152.252C-103.129,155.909 -101.146,159.359 -100.084,163.146C-98.072,169.166 -97.292,175.489 -95.742,181.621C-99.675,180.706 -103.572,179.621 -107.418,178.339C-110.515,177.273 -113.57,175.967 -116.337,174.197C-116.291,174.032 -116.25,173.868 -116.213,173.718C-114.239,167.544 -112.275,161.183 -109.573,155.255C-105.389,146.619 -99.692,138.648 -92.774,131.993C-89.407,129.104 -85.537,126.515 -81.219,125.304C-79.864,124.19 -79.194,122.361 -77.815,121.216C-76.617,120.022 -75.167,119.193 -73.69,118.44C-73.7,119.001 -73.719,119.563 -73.75,120.116C-73.792,120.629 -73.894,121.141 -74.025,121.652C-75.33,120.776 -76.057,123.632 -75.954,124.715C-75.981,132.001 -71.937,138.52 -67.231,143.801C-64.572,146.637 -61.818,150.255 -57.831,151.088C-51.113,151.281 -46.004,140.918 -43.145,135.781C-41.13,131.456 -37.715,127.004 -38.968,121.981C-39.089,121.666 -39.422,121.482 -39.75,121.557C-40.044,121.624 -40.252,121.882 -40.271,122.181C-40.271,122.191 -40.272,122.202 -40.272,122.211C-40.604,121.023 -40.924,119.98 -40.953,119.476C-40.964,119.381 -40.968,119.285 -40.978,119.19C-40.283,119.405 -39.566,119.529 -38.947,120.02C-37.17,121.308 -36.258,123.447 -34.602,124.831C-30.506,127.022 -26.606,129.308 -23.098,132.453C-17.942,137.396 -13.482,143.05 -9.803,149.181C-10.332,149.923 -10.656,150.843 -11.059,151.642C-12.052,153.953 -12.925,156.35 -13.851,158.699C-15.887,164.011 -17.655,169.425 -18.788,175.009C-18.959,175.827 -19.128,176.648 -19.298,177.467C-19.328,177.603 -19.242,177.741 -19.105,177.769C-18.974,177.8 -18.834,177.713 -18.807,177.577C-18.463,175.973 -18.11,174.373 -17.783,172.767C-16.868,168.753 -15.663,164.819 -14.13,160.989C-12.935,157.994 -11.48,155.097 -9.767,152.364C-9.517,151.869 -9.146,151.382 -8.806,150.884C-6.057,155.719 -3.779,160.83 -2.034,166.119C-1.309,168.685 -0.227,171.538 0.003,174.295C0.003,174.394 0.002,174.493 -0.007,174.58C0.004,174.856 -0.021,175.213 0,175.556M-51.93,112.146C-53.572,112.391 -55.176,112.661 -56.874,112.703C-56.987,112.696 -57.108,112.697 -57.235,112.704C-57.465,112.705 -57.692,112.708 -57.927,112.7C-57.992,112.704 -58.062,112.703 -58.129,112.704C-69.289,112.532 -80.609,107.575 -86.478,97.705C-90.401,91.044 -92.463,83.384 -94.877,76.049C-96.325,71.076 -97.485,65.698 -98.866,60.65C-98.898,60.534 -98.933,60.413 -98.972,60.295C-97.748,58.741 -96.543,57.171 -95.423,55.538C-93.086,52.404 -91.374,48.888 -90.23,45.188C-89.537,44.696 -88.877,43.764 -88.346,43.395C-83.679,38.731 -81.745,32.03 -82.131,25.51C-77.695,33.684 -68.965,38.85 -59.607,39.578C-56.548,39.94 -53.495,39.309 -50.544,38.545C-49.892,38.274 -48.765,38.203 -47.951,37.885C-44.246,39.118 -40.402,39.892 -36.434,40.019C-32.993,40.298 -29.563,39.971 -26.143,39.6C-25.943,39.585 -25.713,39.576 -25.481,39.557C-25.403,40.199 -25.321,40.833 -25.258,41.445C-24.248,48.007 -21.512,54.559 -17.029,59.461C-17.519,62.526 -18.085,65.57 -18.68,68.616C-21.768,81.624 -24.504,96.277 -35.432,105.17C-40.112,109.004 -46.009,110.857 -51.93,112.146M-50.103,117.785C-54.827,121.165 -61.404,121.394 -66.057,117.684C-68.023,116.2 -69.616,114.284 -71.459,112.657C-66.97,114.311 -62.144,115.149 -57.358,115.146C-56.752,115.215 -56.294,115.123 -55.964,114.945C-55.49,114.938 -55.018,114.913 -54.544,114.877C-54.337,114.899 -54.125,114.908 -53.909,114.894C-49.979,114.36 -46.506,113.493 -43.419,112.338C-45.554,114.274 -47.625,116.239 -50.11,117.785L-50.103,117.785M-71.508,116.041C-71.546,115.813 -71.592,115.469 -71.65,115.069C-68.794,118.069 -64.711,120.087 -60.752,120.962C-53.719,122.464 -47.633,118.998 -42.938,114.051C-43.076,115.524 -43.108,116.887 -43.142,117.435C-43.175,120.611 -42.398,123.598 -41.542,126.642C-41.521,126.785 -41.493,126.938 -41.458,127.09C-44.802,133.74 -50.176,146.993 -56.889,148.702C-60.725,148.587 -64.697,142.91 -67.166,140.202C-70.25,136.417 -72.838,131.871 -73.447,126.99C-72.147,123.47 -71.004,119.844 -71.508,116.041M-97.871,119.351C-98.87,118.223 -99.576,116.06 -100.996,115.303C-101.834,115.073 -102.486,115.859 -102.419,116.65C-102.409,118.015 -102.534,119.483 -103.289,120.687C-103.46,120.741 -103.632,120.714 -103.774,120.606C-104.779,119.819 -105.553,118.764 -106.333,117.763C-108.543,114.692 -110.208,111.19 -110.465,107.369C-110.695,104.904 -110.663,102.343 -110.588,99.857C-110.508,99.036 -110.551,96.166 -111.694,98.069C-112.854,101.976 -112.949,106.297 -112.245,110.32C-112.57,110.073 -112.882,109.809 -113.161,109.505C-116.199,106.276 -115.452,101.431 -114.234,97.524C-111.581,90.67 -108.286,83.897 -109.09,76.295C-110.237,59.191 -112.303,41.355 -105.783,24.988C-103.007,18.216 -99.065,11.204 -92.403,7.574C-91.013,6.746 -89.442,6.467 -88.02,5.622C-87.827,5.506 -87.685,5.331 -87.605,5.142C-86.942,4.498 -86.279,3.497 -85.805,3.21C-79.313,-2.423 -71.074,-6.078 -62.493,-6.91C-45.387,-8.54 -27.986,-0.419 -17.09,12.719C-7.511,24.279 -5.153,40.099 -5.14,54.718C-4.76,64.466 -7.219,74.495 -4.699,84.125C-2.726,91.668 1.281,98.868 0.26,106.91C-0.942,105.746 -1.563,104.099 -2.687,102.865C-2.378,101.047 -2.411,99.383 -3.059,98.218C-3.599,97.743 -4.202,98.366 -4.362,98.894C-5.293,105.524 -7.698,112.251 -12.756,116.881C-13.245,117.327 -13.761,117.785 -14.285,118.244C-14.279,118.229 -14.271,118.213 -14.266,118.197C-13.311,115.533 -12.355,112.288 -13.643,109.599C-14.281,109.198 -14.447,110.589 -14.591,111.027C-15.441,116.997 -18.291,122.824 -23.484,126.172C-24.05,126.577 -24.869,127.114 -25.524,127.54C-25.536,127.547 -25.551,127.555 -25.564,127.563C-27.921,125.868 -30.607,124.714 -33.049,123.174C-34.747,121.199 -36.306,118.854 -38.707,117.68C-39.389,117.426 -40.302,117.145 -41.066,117.297C-41.05,115.187 -40.693,113.035 -40.205,110.957C-25.621,103.877 -20.846,89.203 -16.904,71.301C-16.697,69.598 -12.914,53.333 -15.702,54.433C-16.244,55.04 -16.429,55.848 -16.556,56.676C-17.892,54.671 -19.22,52.659 -20.233,50.465C-22.571,45.421 -23.286,39.862 -23.622,34.369C-23.737,33.785 -23.809,31.656 -24.808,32.456C-25.668,33.989 -25.78,35.759 -25.671,37.54C-25.834,37.554 -25.995,37.571 -26.139,37.586C-32.286,37.903 -38.327,37.967 -44.394,36.524C-50.223,35.007 -55.644,32.165 -60.998,29.442C-61.425,29.236 -62.08,28.873 -62.498,29.275C-63.142,31.29 -57.722,33.265 -56.27,34.265C-54.769,35.078 -53.235,35.822 -51.675,36.488C-54.374,37.155 -57.115,37.646 -59.899,37.252C-69.698,36.285 -77.724,30.656 -81.631,21.551C-82.4,20.361 -82.709,18.691 -83.887,17.853C-84.865,17.715 -84.743,18.86 -84.409,20.015C-83.65,28.104 -84.149,35.178 -89.292,41.502C-88.381,36.989 -88.26,32.301 -88.89,27.752C-88.774,27.39 -89.334,27.235 -89.367,27.613C-89.394,27.86 -89.554,28.085 -89.59,28.338C-90.436,31.98 -90.376,35.716 -91.139,39.392C-91.906,43.995 -93.666,48.51 -96.198,52.483C-97.626,54.868 -99.24,56.966 -100.935,59.203C-101.571,60.01 -102.769,61.531 -101.169,62.03C-100.964,62.064 -100.775,62.036 -100.602,61.971C-100.406,63.165 -100.033,64.445 -99.981,65.022C-99.393,67.843 -98.792,70.663 -98.063,73.454C-95.589,81.899 -93.164,90.526 -88.923,98.283C-85.665,104.098 -80.636,108.411 -74.811,111.226C-74.793,111.295 -74.782,111.367 -74.75,111.432C-74.075,113.075 -73.795,114.86 -73.712,116.655C-77.684,116.954 -80.453,120.673 -82.487,123.76C-85.039,124.583 -87.419,125.738 -89.643,127.138C-89.796,126.923 -90.012,126.739 -90.289,126.64C-93.14,124.758 -95.82,122.191 -97.871,119.351M-9.288,145.66C-13.375,139.431 -18.019,133.397 -23.941,128.806C-20.229,126.755 -16.916,123.904 -15.053,120.095C-14.943,120.104 -14.832,120.086 -14.732,120.028C-11.525,118.35 -8.7,116.003 -6.716,112.949C-5.586,111.183 -4.003,107.959 -3.131,104.83C-2.956,105.076 -2.797,105.293 -2.696,105.453C-1.823,106.544 -1.161,108.064 0.182,108.621C2.907,108.919 1.939,103.438 2.158,101.523C2.185,97.848 0.927,94.326 -0.244,90.888C-3.102,83.552 -4.055,75.867 -3.176,67.986C-2.092,49.527 -2.376,29.302 -13.384,13.584C-25.691,-3.046 -47.88,-13.012 -68.42,-8.308C-74.494,-6.921 -80.142,-4.046 -85.107,-0.319C-86.458,0.838 -88.45,2.213 -89.024,3.997C-89.495,4.029 -89.972,4.156 -90.422,4.271C-98.339,6.774 -103.368,14.198 -106.731,21.388C-113.263,35.449 -113.251,51.442 -112.149,66.613C-111.773,72.141 -110.997,77.572 -111.736,83.12C-112.772,89.54 -116.866,95.048 -117.502,101.562C-118.112,105.826 -116.513,111.571 -111.7,112.4C-109.71,117.764 -102.54,128.289 -100.986,118.633C-98.708,122.417 -95.295,126.272 -91.229,128.196C-94.829,130.74 -97.984,133.933 -100.716,137.427C-107.219,145.281 -112.384,154.255 -115.419,164.012C-116.221,166.513 -117.004,169.016 -117.773,171.523C-117.927,172.678 -119.317,174.715 -117.884,175.415C-116.273,177.524 -110.793,179.556 -108.865,180.288C-97.063,184.35 -84.645,186.656 -72.193,187.41C-50.014,188.568 -27.473,186.566 -6.163,180.13C-3.851,179.306 -1.39,178.737 0.791,177.621C1.121,177.386 1.243,177.045 1.229,176.707C1.688,176.553 1.989,175.967 2.131,175.242C3.262,172.531 -0.673,163.283 -1.208,161.405C-3.237,155.848 -6.021,150.582 -9.288,145.66" style="fill:rgb(68,8,41);fill-rule:nonzero;"/>
                </g>
                <g transform="matrix(1,0,0,1,384.4062,373.9965)">
                    <path d="M0,1.481C-0.202,1.909 -0.411,2.363 -0.629,2.824C-1.133,2.242 -1.837,1.818 -2.528,1.507C-5.233,0.44 -8.513,-0.469 -11.293,0.797C-11.991,1.139 -12.783,1.623 -13.292,2.271C-14.521,-0.441 -15.275,-3.509 -15.807,-5.721C-11.946,-4.381 -7.617,-4.397 -3.661,-5.32C-2.012,-5.701 -0.468,-6.411 1.176,-6.796C1.759,-6.579 1.835,-5.793 1.926,-5.252C1.963,-2.938 0.937,-0.624 0,1.481M-6.583,8.366C-9.274,8.163 -11.185,6.207 -12.583,3.685C-11.858,3.197 -11.026,2.82 -10.218,2.478C-8.535,1.825 -6.665,1.58 -4.903,2.171C-3.696,2.82 -2.479,3.484 -1.321,4.207C-2.473,6.353 -4.008,8.309 -6.583,8.366M0.225,-8.791C-4.966,-6.913 -10.489,-6.091 -15.948,-7.324C-16.214,-7.404 -16.6,-7.455 -16.908,-7.403C-17.034,-7.446 -17.179,-7.469 -17.355,-7.453C-17.831,-7.373 -18.198,-6.894 -18.1,-6.411C-18.005,-5.959 -17.913,-5.501 -17.807,-5.042C-17.521,-3.454 -17.035,-1.907 -16.515,-0.378C-14.884,4.114 -12.645,9.788 -7.274,10.532C-0.314,11.236 2.032,2.83 3.652,-2.452C4.439,-4.943 3.799,-9.755 0.225,-8.791" style="fill:rgb(68,8,41);fill-rule:nonzero;"/>
                </g>
                <g transform="matrix(1,0,0,1,423.3975,294.7411)">
                    <path d="M0,91.713C-0.929,88.484 -2.118,85.33 -3.568,82.293C-3.665,92.632 -9.023,103 -17.94,108.233C-18.163,108.367 -18.395,108.493 -18.617,108.619C-19.459,108.155 -20.3,107.691 -21.112,107.178C-22.805,105.205 -24.372,102.855 -26.771,101.685C-27.447,101.434 -28.366,101.152 -29.13,101.308C-29.111,99.19 -28.753,97.042 -28.27,94.963C-13.685,87.884 -8.907,73.212 -4.971,55.311C-4.758,53.609 -0.977,37.341 -3.762,38.443C-4.304,39.043 -4.487,39.856 -4.613,40.677C-5.957,38.675 -7.282,36.663 -8.298,34.468C-10.629,29.43 -11.345,23.868 -11.683,18.375C-11.799,17.795 -11.867,15.657 -12.872,16.46C-13.733,17.998 -13.84,19.768 -13.733,21.547C-13.897,21.557 -14.053,21.576 -14.197,21.596C-20.349,21.905 -26.394,21.973 -32.457,20.531C-38.289,19.014 -43.705,16.17 -49.063,13.442C-49.489,13.239 -50.146,12.882 -50.562,13.278C-51.201,15.3 -45.784,17.273 -44.334,18.269C-42.835,19.081 -41.297,19.825 -39.74,20.493C-42.438,21.16 -45.175,21.653 -47.96,21.257C-57.758,20.29 -65.785,14.661 -69.692,5.561C-70.466,4.371 -70.775,2.697 -71.946,1.857C-72.922,1.721 -72.807,2.862 -72.468,4.023C-71.713,12.108 -72.207,19.188 -77.352,25.513C-76.443,20.996 -76.327,16.306 -76.956,11.76C-76.839,11.393 -77.4,11.237 -77.429,11.614C-77.458,11.866 -77.613,12.089 -77.652,12.34C-78.493,15.986 -78.435,19.719 -79.199,23.395C-79.973,27.998 -81.724,32.515 -84.257,36.489C-85.689,38.868 -87.304,40.968 -88.997,43.211C-89.635,44.014 -90.834,45.532 -89.229,46.035C-89.025,46.074 -88.842,46.045 -88.667,45.978C-88.464,47.167 -88.097,48.453 -88.039,49.024C-87.458,51.848 -86.85,54.672 -86.124,57.457C-83.648,65.901 -81.23,74.527 -76.984,82.284C-73.725,88.106 -68.696,92.419 -62.874,95.234C-62.854,95.302 -62.845,95.369 -62.816,95.437C-62.139,97.081 -61.858,98.86 -61.771,100.659C-65.746,100.959 -68.512,104.683 -70.553,107.768C-72.101,108.271 -73.59,108.89 -75.021,109.615C-81.114,102.971 -85.544,94.809 -87.749,86.066C-89.383,89.663 -91.269,93.087 -92.894,96.685C-95.186,92.439 -96.173,87.487 -95.679,82.681C-95.331,79.344 -94.306,76.113 -93.62,72.835C-92.13,65.707 -92.275,58.25 -94.045,51.191C-96.25,42.389 -95.109,32.795 -93.377,23.898C-91.637,14.99 -88.126,6.382 -82.739,-0.92C-82.255,-1.587 -81.694,-2.273 -80.911,-2.525C-80.128,-2.776 -79.074,-2.342 -79.006,-1.51C-78.696,2.291 -78.832,6.141 -79.402,9.922C-77.536,5.957 -76.781,1.479 -77.246,-2.873C-77.265,-3.018 -77.197,-3.192 -77.052,-3.212C-76.907,-3.241 -76.801,-2.999 -76.936,-2.95C-69.248,-2.342 -62.052,-0.417 -55.998,4.361C-60.659,-0.165 -66.395,-3.569 -72.604,-5.494C-73.232,-5.687 -74.006,-6.074 -73.909,-6.723C-73.851,-7.139 -73.455,-7.399 -73.097,-7.593C-68.667,-9.991 -63.474,-10.959 -58.474,-10.31C-62.033,-11.084 -65.708,-11.287 -69.325,-10.891C-67.216,-12.961 -64.402,-14.17 -61.578,-15.088C-55.456,-17.071 -48.947,-17.902 -42.516,-17.506C-38.869,-17.293 -35.233,-16.675 -31.761,-15.533C-22.95,-12.622 -15.668,-6.452 -8.617,-0.417C-1.799,5.415 -0.367,15.212 0.716,24.12C1.809,33.027 1.325,42.041 0.852,50.997C0.513,57.274 2.882,62.825 3.966,69.015C5.319,76.733 3.888,84.914 0,91.713" style="fill:rgb(165,73,33);fill-rule:nonzero;"/>
                </g>
                <g transform="matrix(1,0,0,1,425.4961,459.8426)">
                    <path d="M0,-28.619C-1.876,-19.682 -2.959,-10.582 -3.249,-1.452C-5.851,-0.756 -8.472,-0.127 -11.122,0.376C-11.896,0.521 -12.679,0.676 -13.463,0.812C-12.757,-4.576 -11.219,-9.847 -9.458,-15.002C-7.65,-20.302 -5.377,-25.805 -1.229,-29.431C-2.215,-27.13 -3.085,-24.741 -4.014,-22.4C-6.045,-17.081 -7.814,-11.675 -8.946,-6.085C-9.12,-5.272 -9.284,-4.45 -9.458,-3.628C-9.487,-3.493 -9.4,-3.357 -9.265,-3.328C-9.14,-3.299 -8.994,-3.387 -8.965,-3.521C-8.627,-5.127 -8.269,-6.723 -7.94,-8.328C-7.031,-12.342 -5.822,-16.278 -4.294,-20.108C-3.114,-23.067 -1.683,-25.921 0,-28.619" style="fill:rgb(234,94,184);fill-rule:nonzero;"/>
                </g>
            </g>
            <g transform="matrix(1,0,0,1,378.5391,356.228)">
                <path d="M0,2.815C1.993,2.846 3.787,1.526 4.904,-0.031C1.942,1.038 -1.303,1.437 -4.376,0.621C-3.308,1.967 -1.729,2.812 0,2.815" style="fill:rgb(255,185,161);fill-rule:nonzero;"/>
            </g>
            <g transform="matrix(1,0,0,1,359.6836,325.7573)">
                <path d="M0,-4.977C-2.6,-5.41 -6.16,-1.385 -7.706,0.433C-5.109,-0.756 -2.161,-1.572 0.162,-3.204C0.872,-3.764 0.982,-4.665 0,-4.977" style="fill:rgb(198,106,44);fill-rule:nonzero;"/>
            </g>
            <g transform="matrix(0.984356,-0.176192,-0.176192,-0.984356,399.540633,324.189893)">
                <path d="M-0.125,-0.021C1.568,-1.071 3.125,-2.326 4.705,-3.537C3.627,-1.001 2.29,1.857 -0.125,3.345C-1.86,4.354 -5.114,4.648 -2.999,1.853C-2.142,1.098 -1.084,0.608 -0.125,-0.021" style="fill:rgb(198,106,44);fill-rule:nonzero;"/>
            </g>
            <g transform="matrix(1,0,0,1,358.8335,344.0864)">
                <path d="M0,-2.645C-3.025,-3.922 -6.801,-4.076 -9.237,-1.553C-10.417,-0.635 -9.583,1.103 -8.171,0.309C-3.668,-3.109 -0.327,-1.27 3.902,1.315C4.318,1.431 4.787,1.205 4.991,0.834C5.87,-0.899 1.183,-2.054 0,-2.645" style="fill:rgb(68,8,41);fill-rule:nonzero;"/>
            </g>
            <g transform="matrix(1,0,0,1,401.6924,343.6482)">
                <path d="M0,-0.99C1.144,-0.79 2.128,-0.124 3.05,0.545C3.592,0.959 4.419,1.32 5.016,0.798C7.06,-1.356 0.27,-3.842 -1.374,-3.486C-3.846,-3.514 -6.048,-2.141 -8.128,-0.955C-9.033,-0.315 -11.2,0.386 -10.252,1.811C-9.3,2.852 -8.19,1.491 -7.282,1.067C-5.075,-0.263 -2.699,-1.562 0,-0.99" style="fill:rgb(68,8,41);fill-rule:nonzero;"/>
            </g>
            <g transform="matrix(1,0,0,1,359.6836,325.1833)">
                <path d="M0,-4.403C0.982,-4.091 0.872,-3.19 0.162,-2.63C-2.161,-0.998 -5.109,-0.182 -7.706,1.007C-6.16,-0.811 -2.6,-4.836 0,-4.403M-9.88,3.547C-7.987,3.055 -6.202,2.199 -4.283,1.587C-1.662,0.611 5.398,-1.67 1.667,-5.281C-1.98,-8.193 -5.974,-4.383 -8.333,-1.602C-9.253,-0.487 -10.087,0.724 -10.642,2.064C-10.808,2.468 -11.042,2.986 -10.815,3.408C-10.643,3.79 -10.169,3.782 -9.88,3.547" style="fill:rgb(68,8,41);fill-rule:nonzero;"/>
            </g>
            <g transform="matrix(1,0,0,1,398.8281,325.0919)">
                <path d="M0,-4.172C2.64,-3.134 4.459,-0.556 5.967,1.751C4.199,0.837 2.444,-0.124 0.593,-0.859C-0.461,-1.31 -1.589,-1.606 -2.566,-2.197C-5.141,-4.576 -1.885,-4.86 0,-4.172M-3.185,-0.35C-0.071,0.946 3.142,2.031 6.166,3.523C6.382,3.607 6.645,3.688 6.889,3.688C7.361,3.727 7.757,3.153 7.722,2.692C7.568,1.961 7.204,1.285 6.857,0.63C6.857,0.631 6.858,0.632 6.858,0.633C5.135,-3.185 0.011,-7.899 -4.428,-6.035C-6.671,-4.541 -5.201,-1.317 -3.185,-0.35" style="fill:rgb(68,8,41);fill-rule:nonzero;"/>
            </g>
            <g transform="matrix(1,0,0,1,383.4434,357.7613)">
                <path d="M0,-1.564C-1.117,-0.007 -2.911,1.313 -4.904,1.282C-4.892,1.282 -4.879,1.284 -4.866,1.284L-4.908,1.282L-4.904,1.282C-6.633,1.279 -8.212,0.434 -9.28,-0.913C-6.207,-0.096 -2.962,-0.496 0,-1.564M-10.602,-0.811C-9.674,0.375 -8.527,1.587 -7.005,1.958C-5.02,2.445 -2.668,2.262 -0.99,1.033C0.081,0.21 0.656,-1.058 1.45,-2.118C1.608,-2.322 1.722,-2.556 1.685,-2.825C1.288,-4.009 -0.245,-3.137 -1.093,-3.001C-2.623,-2.612 -4.189,-2.199 -5.792,-2.266C-7.583,-2.153 -9.188,-3.421 -10.839,-3.857C-11.814,-3.784 -11.759,-2.523 -11.134,-2.023C-11.263,-1.553 -10.857,-1.156 -10.602,-0.811" style="fill:rgb(68,8,41);fill-rule:nonzero;"/>
            </g>
            <g transform="matrix(1,0,0,1,378.5771,359.0429)">
                <path d="M0,0.002C-0.013,0.002 -0.025,0 -0.038,0L-0.042,0L0,0.002Z" style="fill:rgb(68,8,41);fill-rule:nonzero;"/>
            </g>
            <g transform="matrix(1,0,0,1,335.252,450.1596)">
                <path d="M0,-8.268C2.012,-2.243 2.795,4.073 4.343,10.204C1.847,9.633 -0.628,8.986 -3.075,8.251C-3.046,7.361 -3.017,6.471 -2.998,5.582C-2.95,3.685 -3.656,-18.472 -4.362,-18.404C-4.265,-18.414 -4.159,-18.394 -4.062,-18.356C-2.756,-14.99 -0.986,-11.769 0,-8.268" style="fill:rgb(234,94,184);fill-rule:nonzero;"/>
            </g>
        </g>
    </g>
</svg>
