<?xml version="1.0" encoding="UTF-8" standalone="no"?>
<!DOCTYPE svg PUBLIC "-//W3C//DTD SVG 1.1//EN" "http://www.w3.org/Graphics/SVG/1.1/DTD/svg11.dtd">
<svg width="100%" height="100%" viewBox="0 0 647 919" version="1.1" xmlns="http://www.w3.org/2000/svg" xmlns:xlink="http://www.w3.org/1999/xlink" xml:space="preserve" xmlns:serif="http://www.serif.com/" style="fill-rule:evenodd;clip-rule:evenodd;stroke-linejoin:round;stroke-miterlimit:2;">
    <g transform="matrix(1,0,0,1,-1275.256029,-75.902441)">
        <g transform="matrix(4.166667,0,0,4.166667,0,0)">
            <g>
                <g transform="matrix(-0.982719,0.185104,0.185104,0.982719,333.556069,120.941311)">
                    <path d="M-2.934,-3.445C-1.884,-5.051 -1.369,-6.951 -0.361,-8.589C1.205,-4.026 0.7,1.581 -2.934,4.999C-2.218,3.419 -1.878,1.651 -2.165,-0.069C-2.257,-1.221 -3.018,-2.298 -2.934,-3.445" style="fill:rgb(252,149,149);fill-rule:nonzero;"/>
                </g>
                <g transform="matrix(1,0,0,1,403.1768,82.7536)">
                    <path d="M0,1.411C2.352,1.953 4.733,2.507 6.941,3.496C5.103,1.386 2.553,0.009 0.09,-1.12C-1.144,-1.581 -2.497,-2.085 -3.83,-1.873C-4.559,-1.657 -4.509,-0.568 -4.187,-0.025C-3.196,1.167 -1.381,1.003 0,1.411" style="fill:rgb(183,95,65);fill-rule:nonzero;"/>
                </g>
                <g transform="matrix(-0.432797,-0.901491,-0.901491,0.432797,359.883417,79.002539)">
                    <path d="M-5.912,-6.283C-3.357,-6.405 -4.481,-0.385 -4.749,1.13C-5.054,2.47 -5.459,3.78 -5.912,5.082C-6.083,1.564 -7.529,-1.874 -7.249,-5.394C-7.195,-6.09 -6.492,-6.288 -5.912,-6.283" style="fill:rgb(183,95,65);fill-rule:nonzero;"/>
                </g>
                <g transform="matrix(1,0,0,1,388.8984,123.1681)">
                    <path d="M0,-2.881C-3.279,-1.774 -6.848,-1.78 -10.199,-2.559C-8.756,-1.306 -7.055,-0.024 -5.07,0C-3.071,-0.036 -1.066,-1.215 0,-2.881" style="fill:rgb(252,149,149);fill-rule:nonzero;"/>
                </g>
                <g transform="matrix(1,0,0,1,428.0635,121.4193)">
                    <path d="M0,-7.305C-0.725,-2.908 -1.499,1.483 -2.402,5.846C0.127,3.807 3.17,0.459 1.632,-2.613C0.484,-3.593 0.92,-4.598 1.718,-5.636C3.649,-8.466 5.734,-11.099 8.831,-12.652C9.048,-12.761 9.291,-12.865 9.531,-12.906C10.035,-13.026 10.296,-12.277 9.831,-12.054C9.205,-11.566 8.584,-11.089 8.067,-10.501C9.487,-3.208 5.096,4.941 -1.7,7.946C-2.046,8.272 -2.524,8.578 -2.996,8.522C-3.225,9.561 -3.439,10.604 -3.688,11.639C-3.697,11.679 -3.706,11.717 -3.715,11.757C-1.85,11.624 0.135,11.286 1.789,10.57C8.955,8.128 14.315,-10.224 9.69,-16.047C5.588,-19.062 2.1,-10.049 0,-7.305" style="fill:rgb(255,222,204);fill-rule:nonzero;"/>
                </g>
                <g transform="matrix(1,0,0,1,342.7075,105.7446)">
                    <path d="M0,23.168C-0.938,22.977 -1.773,22.436 -2.586,21.951C-3.643,21.419 -4.784,21.039 -5.778,20.373C-10.532,17.465 -12.08,11.174 -11.013,5.981C-11.654,5.255 -12.386,4.662 -13.012,3.963C-13.2,3.693 -13.352,3.244 -12.969,3.048C-11.179,2.926 -9.5,4.775 -8.309,5.966C-7.334,7.09 -6.335,8.22 -5.532,9.47C-5.399,9.756 -5.293,10.076 -5.321,10.396C-5.681,12.402 -6.176,14.515 -5.319,16.456C-4.301,18.515 -2.416,20.097 -0.419,21.171C-1.332,16.784 -2.265,12.421 -3.244,8.052C-3.613,6.916 -4.186,5.777 -4.764,4.819C-6.762,1.215 -13.06,-4.842 -14.972,2.103C-16.618,10.211 -12.394,22.98 -4.432,26.453C-2.681,26.979 -0.845,28.01 1.003,27.809C0.682,26.398 0.386,24.992 0.093,23.615C0.062,23.465 0.03,23.318 0,23.168" style="fill:rgb(255,222,204);fill-rule:nonzero;"/>
                </g>
                <g transform="matrix(1,0,0,1,360.0762,93.0461)">
                    <path d="M0,16.326C-0.584,16.229 -0.79,15.87 -0.762,15.482C-1.26,15.12 -1.334,14.314 -0.931,13.836C1.525,11.738 5.455,12.03 8.36,12.987C9.335,13.328 9.383,14.388 8.899,15.005C9.005,15.196 9.056,15.405 8.996,15.65C8.877,16.27 8.265,16.632 7.672,16.533C5.132,16.111 2.549,16.192 0,16.326M-4.456,-4.202C-4.737,-3.972 -5.139,-3.852 -5.423,-4.144C-6.29,-5.692 -3.403,-8.087 -2.411,-9.145C0.28,-11.474 4.733,-15.367 8.472,-13.613C9.829,-12.706 10.277,-10.694 9.569,-9.25C8.654,-7.533 6.468,-7.315 4.776,-6.82C2.479,-6.251 0.233,-5.767 -1.966,-4.945C-2.8,-4.754 -3.585,-4.069 -4.456,-4.202M12.343,44.31C12.525,43.726 13.282,43.527 13.765,43.877C14.399,44.61 15.481,44.563 16.358,44.732C20.47,45.268 24.546,44.793 28.507,43.869C30.138,43.396 31.787,42.978 33.366,42.346C33.965,42.069 34.847,41.734 35.226,42.506C35.729,43.644 34.23,43.967 33.448,44.264C29.969,45.657 26.167,46.207 22.429,46.087C19.342,46.098 16.254,45.745 13.206,45.537C12.61,45.514 12.13,44.884 12.343,44.31M17.342,26.738C17.404,26.056 18.292,26.272 18.757,26.349C20.124,26.633 21.586,26.751 22.955,26.743C25.428,26.828 27.643,25.813 29.976,25.369C31.088,25.67 30.426,26.897 30.065,27.567C28.686,30.903 24.594,31.877 21.448,30.556C20.576,30.312 16.492,27.704 17.342,26.738M37.292,-13.072C41.011,-16.992 50.82,-9.909 52.617,-6.069C52.788,-5.49 53.337,-4.715 53.03,-4.147C52.862,-3.893 52.536,-3.788 52.253,-3.881C49.959,-4.932 47.719,-6.148 45.25,-6.739C42.957,-7.474 40.345,-7.233 38.222,-8.436C36.713,-9.404 36.307,-11.594 37.292,-13.072M47.548,16.133C46.414,15.934 45.251,15.903 44.1,15.868C42.192,15.696 40.172,16.589 38.345,16.028C37.975,15.477 38.049,15.055 38.377,14.724C38.255,14.693 38.135,14.65 38.016,14.586C35.703,11.52 46.616,11.604 47.786,12.952C48.144,13.259 48.186,13.759 47.995,14.138C48.462,14.346 48.776,14.701 48.743,15.336C48.634,15.879 48.091,16.239 47.548,16.133M14.941,64.426C18.09,65.145 21.246,65.815 24.479,65.696C25.1,65.635 25.735,65.582 26.376,65.535C35.806,64.342 53.747,58.934 58.047,51.413C61.06,45.374 62.023,38.544 63.55,32.024C65.183,23.816 66.396,15.534 67.749,7.274C68.437,3.102 69.144,-1.07 69.745,-5.254C69.918,-5.992 69.951,-6.808 70.076,-7.585C70.066,-7.591 70.057,-7.593 70.046,-7.6C66.156,-10.408 60.305,-14.746 60.582,-20.046C60.493,-24.042 62.663,-27.942 62.518,-31.832C59.377,-36.553 53.501,-38.855 48.157,-39.496C46.262,-39.863 44.278,-39.525 42.391,-39.687C42.246,-39.299 41.906,-39.024 41.37,-39.112C40.455,-39.338 39.854,-40.399 39.124,-40.894C27.889,-49.489 10.215,-44.743 -1.419,-39.201C-4.215,-37.762 -6.843,-36.132 -9.419,-34.351C-10.599,-33.527 -11.75,-32.665 -12.9,-31.799C-13.26,-31.515 -13.696,-31.143 -14.146,-30.939C-13.756,-29.391 -13.97,-27.507 -13.729,-26.006C-13.806,-23.053 -12.505,-19.628 -14.612,-17.134C-16.422,-14.588 -18.675,-12.411 -20.799,-10.139C-21.606,-9.236 -22.412,-8.341 -23.215,-7.44C-22.931,-6.736 -22.945,-5.848 -22.764,-5.144C-21.86,0.83 -21.071,6.892 -19.845,12.793C-17.187,23.984 -15.404,35.565 -12.095,46.557C-9.884,54.364 -2.67,59.015 4.65,61.347C8.036,62.498 11.466,63.566 14.941,64.426" style="fill:rgb(255,222,204);fill-rule:nonzero;"/>
                </g>
                <g transform="matrix(-0.899379,-0.43717,-0.43717,0.899379,427.456262,123.775655)">
                    <path d="M-1.908,-14.389C-1.166,-11.766 -1.172,-9.139 -0.729,-6.484C-1.072,-5.939 -1.53,-5.586 -1.908,-5.084C-3.212,-3.542 -3.29,-1.377 -3.099,0.543C-5.375,-4.177 -4.335,-9.939 -1.908,-14.389" style="fill:rgb(252,149,149);fill-rule:nonzero;"/>
                </g>
                <g transform="matrix(1,0,0,1,436.2695,69.4402)">
                    <path d="M0,-11.28C1.141,-10.69 2.101,-9.77 2.881,-8.74C5.07,-5.8 6.83,-2.44 7.311,1.24C7.54,3.24 7.811,5.3 7.33,7.28C7.28,7.43 7.15,7.83 6.971,7.95C6.301,8.31 5.511,7.73 4.9,7.45C4.53,7.26 4.211,7.02 3.9,6.76C3.301,6.34 2.431,6.92 2.601,7.64C3.631,11.06 2.53,14.72 1.75,18.09C0.73,21.76 -0.659,25.64 -1.949,29.28C-2.119,30.04 -3.399,32.67 -3.42,34.05C-4.88,35.08 -6.17,36.69 -7.199,38.41C-6.97,36.88 -6.729,35.36 -6.489,33.83C-5.779,29.36 -5.079,24.89 -4.52,20.39C-4.539,19.42 -3.359,13.79 -5.069,14.04C-7.85,11.93 -10.51,9.53 -12.43,6.55C-13.75,4.5 -13.029,2.05 -13.05,-0.28C-12.899,-2.92 -12.93,-5.74 -11.649,-8.13C-11.22,-9.67 -12.979,-10.84 -13.859,-11.92C-18.409,-16.8 -25.489,-18.63 -32.01,-18.23C-32.489,-18.2 -33.56,-18.02 -34.289,-17.66C-45.89,-29.46 -68.939,-23.35 -81.66,-16.12C-84.76,-14.38 -87.64,-12.29 -90.489,-10.18C-90.989,-9.84 -91.649,-9.37 -91.93,-8.83C-92.129,-8.75 -92.31,-8.64 -92.43,-8.46C-92.819,-7.89 -92.68,-7.17 -92.64,-6.52C-92.5,-2.83 -91.81,1.01 -92.33,4.66C-93.68,7.29 -95.899,9.44 -97.879,11.62C-99.08,12.88 -100.29,14.11 -101.43,15.42C-101.779,15.83 -101.739,16.48 -101.33,16.83C-101.319,16.84 -101.31,16.84 -101.31,16.85C-101.359,18.17 -100.979,19.96 -100.979,20.71C-100.339,26.48 -99.379,32.21 -98.209,37.89C-99,36.62 -99.93,35.45 -101.029,34.57C-101.459,34.21 -101.919,33.9 -102.41,33.64C-102.91,31.85 -103.589,30.09 -104.12,28.3C-105.709,23.44 -107.1,18.61 -107.87,13.49C-108.419,9.8 -108.35,6.01 -107.76,2.33C-107.649,1.56 -107.45,0.54 -108.189,0.02C-109.129,-0.62 -109.899,0.36 -110.64,0.82C-111.859,1.38 -114.609,3.31 -115.77,2.1C-116.169,-0.43 -114.45,-2.96 -113.33,-5.17C-111.129,-8.93 -108.109,-12.08 -104.779,-14.88C-104.459,-15.18 -104.689,-15.71 -105.129,-15.69C-107.129,-15.42 -108.72,-13.95 -110.16,-12.62C-110.64,-12.13 -111.109,-11.62 -111.569,-11.1C-111.91,-10.94 -112.25,-10.77 -112.51,-10.71C-114.01,-10.19 -116.12,-9.07 -117.649,-9.86C-117.68,-10.02 -117.64,-10.18 -117.58,-10.33C-116.569,-12.2 -115.209,-13.85 -113.939,-15.54C-104.26,-27.91 -90.649,-37.5 -75.589,-42.16C-74.479,-42.78 -66.979,-43.44 -68.12,-45.03C-68.8,-45.64 -70.14,-45.71 -71.75,-45.49C-72.779,-46.22 -74.739,-47.47 -72.64,-47.95C-65.189,-49.69 -57.369,-48.3 -49.84,-47.51C-43.89,-46.55 -37.92,-45.6 -32.3,-43.28C-30.18,-42.58 -28.479,-40.86 -26.359,-40.25C-25.34,-40.4 -26.109,-41.63 -26.55,-42.06C-27.319,-42.97 -28.22,-43.7 -29.189,-44.32C-29.18,-47.98 -25.21,-45.19 -23.52,-43.98C-21.01,-42.04 -18.949,-39.64 -17.029,-37.14C-13.77,-32.85 -10.899,-27.86 -8.819,-22.8C-8.449,-22.05 -8.14,-20.84 -7.38,-20.32C-6.96,-20.18 -6.659,-20.17 -6.43,-20.26C-6.34,-20.25 -6.26,-20.22 -6.159,-20.22C2.79,-19.9 10.841,-12.13 8.49,-2.86C7.12,-6.59 4.431,-9.83 0.78,-11.51C0.561,-11.61 0.33,-11.74 0.091,-11.77C-0.189,-11.82 -0.3,-11.34 0,-11.28" style="fill:rgb(216,133,91);fill-rule:nonzero;"/>
                </g>
                <g transform="matrix(1,0,0,1,362.5898,164.2)">
                    <path d="M0,70.8C-1.59,70.61 -3.18,70.4 -4.77,70.16C-23.01,67.42 -40.6,61.31 -53.69,50.12C-53.94,49.93 -54.2,49.7 -54.46,49.49C-54.38,49.34 -54.33,49.18 -54.3,49.01C-52.5,44.28 -50.49,39.52 -47.71,35.27C-38.28,21.21 -25.76,9.29 -11.6,0C-20.09,12.23 -19.09,23.78 -13.04,37.35C-12.04,39.59 -10.9,41.89 -9.64,44.26C-6.56,50.33 -2.57,55.98 -0.32,62.45C-0.29,62.55 -0.23,62.64 -0.16,62.71C-0.14,65.33 -0.11,67.96 -0.05,70.58C-0.05,70.66 -0.02,70.73 0,70.8" style="fill:rgb(237,105,139);fill-rule:nonzero;"/>
                </g>
                <g transform="matrix(1,0,0,1,386.8613,158.6815)">
                    <path d="M0,28.069C6.491,27.531 12.077,23.52 16.204,18.697C16.356,18.507 16.506,18.313 16.662,18.125C17.104,14.691 17.75,11.292 18.714,7.951C18.706,7.884 18.698,7.815 18.687,7.751C18.444,4.989 18.43,2.195 18.616,-0.576C17.731,0.889 16.497,2.615 16.338,2.776C11.125,9.25 3.953,15.538 -4.938,14.459C-9.232,14.141 -13.273,12.124 -16.549,9.393C-18.961,7.366 -20.963,4.883 -22.893,2.401C-23.262,1.833 -23.677,1.267 -24.07,0.687C-24.059,0.895 -24.048,1.08 -24.035,1.213C-23.965,1.957 -24.315,7.179 -24.965,9.94C-24.911,10.268 -24.853,10.591 -24.778,10.897C-24.499,12.82 -24.258,14.749 -24.037,16.681C-23.85,16.901 -23.639,17.195 -23.405,17.58C-18.51,25.292 -8.794,28.645 0,28.069" style="fill:rgb(255,222,204);fill-rule:nonzero;"/>
                </g>
                <g transform="matrix(1,0,0,1,408.5527,221.4764)">
                    <path d="M0,-62.888C-0.218,-63.154 -0.492,-63.396 -0.778,-63.634C-0.804,-62.687 -0.803,-61.158 -0.839,-59.528C-0.276,-59.567 0.02,-58.538 -0.201,-57.576C-1.077,-51.903 -2.771,-46.358 -3.104,-40.603C-4.031,-26.795 -3.919,-13.047 -3.269,0.746C-1.714,-3.734 1.341,-9.522 2.188,-11.29C12.597,-31.143 18.953,-45.719 0,-62.888" style="fill:rgb(237,105,139);fill-rule:nonzero;"/>
                </g>
                <g transform="matrix(1,0,0,1,402.46,217.5495)">
                    <path d="M0,-19.633C0.091,-25.381 0.146,-31.155 0.645,-36.856C-4.468,-30.856 -12.555,-27.434 -20.445,-28.468C-31.294,-29.604 -36.932,-34.925 -39.26,-38.722C-39.143,-37.573 -39.029,-36.424 -38.919,-35.276C-37.642,-22.425 -37.599,-9.511 -37.721,3.388C-37.734,7.983 -37.667,12.577 -37.6,17.169C-37.598,17.371 -37.644,17.543 -37.714,17.694C-24.312,19.089 -10.818,18.792 1.284,17.447C-0.038,5.192 -0.014,-7.288 0,-19.633" style="fill:rgb(252,190,245);fill-rule:nonzero;"/>
                </g>
                <g transform="matrix(1,0,0,1,382.2734,167.2767)">
                    <path d="M0,-5.869C-0.047,-5.865 -0.09,-5.844 -0.137,-5.847C-0.198,-5.856 -0.259,-5.867 -0.32,-5.876C-3.652,-6.023 -6.911,-6.848 -10.043,-7.965C-12.696,-8.692 -15.321,-9.517 -17.902,-10.386C-18.494,-10.589 -19.084,-10.803 -19.673,-11.024C-17.82,-8.496 -16.596,-5.528 -14.573,-3.124C-10.69,1.594 -4.984,5.538 1.375,4.732C12.234,4.074 16.846,-3.473 23.341,-10.741C23.362,-10.963 23.385,-11.186 23.409,-11.407C19.789,-9.931 16.065,-8.704 12.29,-7.683C11.496,-7.492 10.694,-7.297 9.888,-7.11C6.707,-6.106 3.28,-5.752 0,-5.869" style="fill:rgb(252,149,149);fill-rule:nonzero;"/>
                </g>
                <g transform="matrix(1,0,0,1,459.0596,186.4099)">
                    <path d="M0,27.76C-0.079,27.8 -0.17,27.84 -0.239,27.9C-4.85,31.18 -9.819,34.06 -14.859,36.67C-25.29,41.75 -36.659,45.39 -48.189,47.48C-49.859,47.78 -51.529,48.05 -53.21,48.29C-53.109,45.66 -53.42,42.99 -53.569,40.33C-52.899,38.79 -52.47,37.16 -51.89,35.59C-50.449,31.98 -48.76,28.5 -46.859,25.11C-44.079,20.34 -41.649,15.71 -39.819,11.21C-35.199,-0.09 -34.319,-10.61 -41.05,-20.53C-24.479,-8.1 -8.09,8.06 -0.229,27.24C-0.21,27.44 -0.119,27.61 0,27.76" style="fill:rgb(237,105,139);fill-rule:nonzero;"/>
                </g>
                <g transform="matrix(1,0,0,1,362.4033,156.5467)">
                    <path d="M0,66.59C-0.085,47.953 0.174,29.266 -3.133,10.856C-3.312,9.663 -4.442,6.399 -2.231,6.934C-2.079,7.079 -1.956,7.242 -1.835,7.405C-1.774,4.936 -1.755,2.46 -1.948,0C-3.315,1.467 -4.728,2.895 -6,4.439C-25.967,27.027 -9.107,44.48 0,66.59" style="fill:rgb(237,105,139);fill-rule:nonzero;"/>
                </g>
                <g transform="matrix(1,0,0,1,369.0723,105.7663)">
                    <path d="M0,2.93C0.06,2.685 0.009,2.476 -0.097,2.285C0.387,1.668 0.339,0.608 -0.636,0.267C-3.541,-0.69 -7.471,-0.982 -9.927,1.116C-10.33,1.594 -10.256,2.4 -9.758,2.762C-9.786,3.15 -9.58,3.509 -8.996,3.606C-6.447,3.472 -3.864,3.391 -1.324,3.813C-0.731,3.912 -0.119,3.55 0,2.93" style="fill:rgb(38,7,61);fill-rule:nonzero;"/>
                </g>
                <g transform="matrix(1,0,0,1,408.0713,107.0166)">
                    <path d="M0,0.168C0.19,-0.212 0.148,-0.712 -0.209,-1.018C-1.379,-2.366 -12.292,-2.45 -9.979,0.615C-9.86,0.679 -9.74,0.722 -9.618,0.754C-9.946,1.085 -10.021,1.507 -9.65,2.057C-7.823,2.618 -5.803,1.725 -3.896,1.897C-2.744,1.932 -1.581,1.964 -0.447,2.162C0.096,2.268 0.639,1.908 0.748,1.365C0.781,0.73 0.467,0.375 0,0.168" style="fill:rgb(38,7,61);fill-rule:nonzero;"/>
                </g>
                <g transform="matrix(1,0,0,1,357.8604,80.3423)">
                    <path d="M0,6.189C0.978,5.218 1.984,4.285 3.06,3.43C4.309,2.533 9.25,-1.085 10.246,1.27C10.501,1.791 10.627,2.511 10.023,2.861C6.971,4.636 3.246,4.821 0,6.189M11.785,3.454C12.493,2.01 12.045,-0.002 10.688,-0.909C6.949,-2.663 2.496,1.23 -0.195,3.559C-1.187,4.617 -4.074,7.012 -3.207,8.56C-2.923,8.852 -2.521,8.732 -2.24,8.502C-1.369,8.635 -0.584,7.95 0.25,7.759C2.449,6.937 4.695,6.453 6.992,5.884C8.684,5.389 10.87,5.171 11.785,3.454" style="fill:rgb(38,7,61);fill-rule:nonzero;"/>
                </g>
                <g transform="matrix(1,0,0,1,399.3467,84.4324)">
                    <path d="M0,-3.552C1.333,-3.764 2.687,-3.26 3.92,-2.799C6.383,-1.67 8.933,-0.293 10.771,1.817C8.563,0.828 6.182,0.274 3.83,-0.268C2.449,-0.676 0.634,-0.512 -0.357,-1.704C-0.679,-2.247 -0.729,-3.336 0,-3.552M-1.049,0.178C1.074,1.381 3.687,1.14 5.979,1.874C8.448,2.466 10.688,3.682 12.982,4.733C13.266,4.826 13.592,4.721 13.76,4.467C14.066,3.899 13.518,3.123 13.347,2.545C11.55,-1.295 1.74,-8.378 -1.979,-4.459C-2.964,-2.98 -2.558,-0.791 -1.049,0.178" style="fill:rgb(38,7,61);fill-rule:nonzero;"/>
                </g>
                <g transform="matrix(1,0,0,1,388.8984,123.0511)">
                    <path d="M0,-2.764C-1.066,-1.098 -3.071,0.081 -5.07,0.117C-7.055,0.093 -8.756,-1.189 -10.199,-2.442C-6.848,-1.663 -3.279,-1.657 0,-2.764M-7.374,0.551C-4.229,1.872 -0.137,0.898 1.243,-2.438C1.604,-3.108 2.266,-4.335 1.153,-4.636C-1.18,-4.192 -3.395,-3.177 -5.867,-3.262C-7.236,-3.254 -8.698,-3.372 -10.065,-3.656C-10.53,-3.733 -11.418,-3.949 -11.48,-3.267C-12.33,-2.301 -8.246,0.307 -7.374,0.551" style="fill:rgb(38,7,61);fill-rule:nonzero;"/>
                </g>
                <g transform="matrix(1,0,0,1,373.2822,135.45)">
                    <path d="M0,3.133C3.048,3.341 6.136,3.694 9.223,3.683C12.961,3.803 16.763,3.253 20.242,1.86C21.024,1.563 22.522,1.24 22.02,0.102C21.641,-0.67 20.759,-0.335 20.16,-0.058C18.581,0.574 16.932,0.992 15.301,1.465C11.34,2.389 7.264,2.864 3.152,2.328C2.275,2.159 1.193,2.206 0.559,1.473C0.076,1.123 -0.681,1.322 -0.863,1.906C-1.076,2.48 -0.596,3.11 0,3.133" style="fill:rgb(38,7,61);fill-rule:nonzero;"/>
                </g>
                <g transform="matrix(1,0,0,1,459.0576,38.9944)">
                    <path d="M0,175.177C-0.082,175.213 -0.163,175.256 -0.24,175.319C-4.85,178.598 -9.822,181.478 -14.861,184.082C-26.802,189.901 -39.982,193.83 -53.21,195.707C-53.111,193.077 -53.417,190.402 -53.572,187.746C-52.902,186.204 -52.463,184.579 -51.883,183.001C-50.451,179.398 -48.761,175.913 -46.859,172.528C-37.094,155.792 -31.641,140.756 -41.051,126.881C-24.48,139.315 -8.085,155.471 -0.231,174.66C-0.208,174.858 -0.116,175.027 0,175.177M-53.609,141.879C-53.276,136.124 -51.582,130.579 -50.706,124.906C-50.485,123.944 -50.781,122.915 -51.344,122.954C-51.308,121.324 -51.309,119.795 -51.283,118.848C-50.997,119.086 -50.723,119.328 -50.505,119.594C-31.552,136.763 -37.908,151.339 -48.317,171.192C-49.164,172.96 -52.219,178.748 -53.773,183.228C-54.424,169.435 -54.536,155.687 -53.609,141.879M-94.312,196.249C-94.241,196.098 -94.195,195.926 -94.197,195.724C-94.264,191.132 -94.332,186.538 -94.318,181.943C-94.196,169.044 -94.239,156.13 -95.517,143.279C-95.627,142.131 -95.74,140.982 -95.857,139.833C-93.529,143.63 -87.892,148.951 -77.043,150.087C-69.152,151.121 -61.065,147.699 -55.953,141.699C-56.452,147.4 -56.507,153.174 -56.598,158.922C-56.611,171.267 -56.636,183.747 -55.313,196.002C-67.416,197.347 -80.91,197.644 -94.312,196.249M-96.974,130.584C-97.049,130.278 -97.107,129.955 -97.161,129.627C-96.511,126.866 -96.161,121.644 -96.231,120.9C-96.244,120.767 -96.255,120.582 -96.266,120.374C-95.873,120.954 -95.458,121.52 -95.089,122.088C-93.159,124.57 -91.157,127.053 -88.745,129.08C-85.469,131.811 -81.429,133.828 -77.135,134.146C-68.243,135.225 -61.071,128.937 -55.858,122.463C-55.699,122.302 -54.465,120.576 -53.58,119.111C-53.767,121.882 -53.752,124.676 -53.509,127.438C-53.498,127.502 -53.49,127.571 -53.482,127.638C-54.446,130.979 -55.092,134.378 -55.534,137.812C-55.69,138 -55.84,138.194 -55.992,138.384C-60.119,143.207 -65.705,147.218 -72.196,147.756C-80.99,148.332 -90.706,144.979 -95.601,137.267C-95.835,136.882 -96.046,136.588 -96.233,136.368C-96.454,134.436 -96.695,132.507 -96.974,130.584M-150.154,175.324C-150.412,175.136 -150.663,174.91 -150.923,174.696C-150.847,174.546 -150.794,174.382 -150.767,174.217C-148.968,169.486 -146.962,164.729 -144.177,160.471C-134.748,146.413 -122.232,134.491 -108.069,125.207C-117.956,139.451 -114.969,152.796 -106.108,169.461C-103.03,175.538 -99.039,181.186 -96.792,187.66C-96.759,187.76 -96.7,187.842 -96.631,187.915C-96.609,190.539 -96.578,193.163 -96.521,195.783C-96.517,195.87 -96.484,195.932 -96.467,196.009C-116.388,193.66 -135.923,187.486 -150.154,175.324M-102.654,121.991C-101.382,120.447 -99.969,119.019 -98.602,117.552C-98.409,120.012 -98.428,122.488 -98.489,124.957C-98.61,124.794 -98.733,124.631 -98.885,124.486C-101.096,123.951 -99.966,127.215 -99.787,128.408C-96.48,146.818 -96.739,165.505 -96.654,184.142C-105.761,162.032 -122.621,144.579 -102.654,121.991M-53.375,116.875C-53.399,117.096 -53.422,117.319 -53.443,117.541C-59.938,124.809 -64.55,132.356 -75.409,133.014C-81.769,133.82 -87.474,129.876 -91.357,125.158C-93.38,122.754 -94.604,119.786 -96.457,117.258C-95.868,117.479 -95.278,117.693 -94.686,117.896C-92.105,118.765 -89.48,119.59 -86.827,120.317C-83.695,121.434 -80.437,122.259 -77.104,122.406C-77.043,122.415 -76.982,122.426 -76.921,122.435C-76.874,122.438 -76.831,122.417 -76.784,122.413C-73.504,122.53 -70.077,122.176 -66.896,121.172C-66.09,120.985 -65.288,120.79 -64.494,120.599C-60.719,119.578 -56.995,118.351 -53.375,116.875M-111.076,100.609C-114.385,89.617 -116.168,78.036 -118.826,66.845C-120.052,60.944 -120.841,54.882 -121.745,48.908C-121.926,48.204 -121.912,47.316 -122.196,46.612C-121.393,45.711 -120.587,44.815 -119.78,43.913C-117.656,41.64 -115.403,39.464 -113.593,36.917C-111.486,34.424 -112.787,30.998 -112.71,28.046C-112.951,26.545 -112.737,24.661 -113.128,23.113C-112.677,22.909 -112.241,22.537 -111.881,22.252C-110.731,21.387 -109.58,20.525 -108.4,19.701C-105.824,17.919 -103.196,16.289 -100.4,14.85C-88.766,9.308 -71.093,4.562 -59.857,13.158C-59.128,13.653 -58.526,14.714 -57.611,14.94C-57.075,15.028 -56.735,14.752 -56.591,14.365C-54.703,14.527 -52.72,14.188 -50.824,14.556C-45.48,15.197 -39.604,17.498 -36.464,22.22C-36.318,26.11 -38.488,30.01 -38.399,34.006C-38.677,39.306 -32.825,43.643 -28.936,46.452C-28.925,46.458 -28.915,46.461 -28.905,46.467C-29.03,47.244 -29.063,48.059 -29.236,48.798C-29.838,52.982 -30.545,57.154 -31.232,61.326C-32.586,69.585 -33.799,77.868 -35.432,86.076C-36.958,92.596 -37.922,99.426 -40.935,105.465C-45.234,112.986 -63.176,118.393 -72.605,119.587C-73.246,119.634 -73.882,119.686 -74.502,119.747C-77.735,119.867 -80.892,119.197 -84.04,118.477C-87.515,117.618 -90.945,116.55 -94.331,115.398C-101.651,113.067 -108.865,108.415 -111.076,100.609M-123.386,81.478C-123.35,83.221 -122.689,84.896 -121.693,86.316C-125.896,83.63 -127.431,78.213 -126.736,73.439C-125.443,74.862 -124.585,76.634 -123.256,78.018C-122.961,79.13 -123.509,80.329 -123.386,81.478M-120.782,93.203C-128.744,89.73 -132.968,76.961 -131.322,68.853C-129.41,61.908 -123.112,67.965 -121.114,71.569C-120.536,72.527 -119.963,73.666 -119.594,74.802C-118.615,79.171 -117.682,83.534 -116.769,87.921C-118.766,86.847 -120.651,85.265 -121.669,83.206C-122.526,81.265 -122.031,79.152 -121.671,77.146C-121.643,76.826 -121.749,76.506 -121.882,76.22C-122.685,74.97 -123.684,73.84 -124.659,72.716C-125.85,71.525 -127.529,69.676 -129.319,69.798C-129.702,69.994 -129.55,70.443 -129.362,70.713C-128.736,71.412 -128.004,72.005 -127.363,72.731C-128.43,77.924 -126.882,84.215 -122.128,87.123C-121.134,87.789 -119.993,88.169 -118.936,88.701C-118.123,89.186 -117.288,89.727 -116.35,89.918C-116.32,90.068 -116.288,90.215 -116.257,90.365C-115.964,91.742 -115.668,93.148 -115.347,94.559C-117.195,94.76 -119.031,93.729 -120.782,93.203M-130.66,43.937C-131.207,40.248 -131.141,36.46 -130.548,32.772C-130.441,32.002 -130.237,30.986 -130.977,30.463C-131.919,29.823 -132.683,30.805 -133.427,31.264C-134.65,31.822 -137.395,33.755 -138.558,32.546C-138.959,30.013 -137.235,27.488 -136.119,25.272C-133.921,21.519 -130.9,18.37 -127.567,15.569C-127.243,15.264 -127.473,14.74 -127.915,14.752C-129.918,15.027 -131.512,16.491 -132.946,17.822C-133.425,18.314 -133.895,18.822 -134.357,19.342C-134.701,19.507 -135.033,19.68 -135.298,19.74C-136.796,20.256 -138.903,21.371 -140.435,20.586C-140.467,20.424 -140.432,20.261 -140.369,20.111C-139.361,18.249 -137.996,16.597 -136.73,14.906C-127.044,2.531 -113.438,-7.05 -98.374,-11.719C-97.267,-12.333 -89.77,-12.993 -90.911,-14.588C-91.592,-15.196 -92.926,-15.266 -94.541,-15.045C-95.564,-15.778 -97.531,-17.023 -95.428,-17.504C-87.982,-19.244 -80.153,-17.856 -72.627,-17.069C-66.681,-16.101 -60.708,-15.157 -55.091,-12.835C-52.973,-12.136 -51.268,-10.411 -49.147,-9.806C-48.126,-9.958 -48.894,-11.184 -49.338,-11.616C-50.104,-12.52 -51.004,-13.252 -51.975,-13.879C-51.967,-17.534 -47.997,-14.745 -46.304,-13.53C-43.798,-11.597 -41.741,-9.196 -39.814,-6.699C-36.554,-2.409 -33.69,2.589 -31.611,7.645C-31.242,8.391 -30.932,9.61 -30.166,10.13C-29.749,10.268 -29.443,10.274 -29.217,10.19C-29.128,10.2 -29.052,10.221 -28.952,10.223C-19.998,10.542 -11.949,18.318 -14.302,27.59C-15.663,23.857 -18.357,20.618 -22.008,18.934C-22.227,18.838 -22.462,18.707 -22.695,18.679C-22.981,18.621 -23.083,19.104 -22.789,19.168C-21.652,19.753 -20.687,20.676 -19.912,21.701C-17.718,24.641 -15.955,28.006 -15.476,31.686C-15.252,33.681 -14.976,35.749 -15.453,37.727C-15.509,37.88 -15.638,38.276 -15.821,38.399C-16.489,38.756 -17.275,38.174 -17.892,37.897C-18.253,37.709 -18.574,37.468 -18.883,37.207C-19.492,36.788 -20.362,37.363 -20.187,38.082C-19.159,41.51 -20.255,45.162 -21.035,48.539C-22.062,52.208 -23.447,56.081 -24.742,59.727C-24.908,60.488 -26.189,63.117 -26.205,64.492C-27.666,65.526 -28.962,67.14 -29.983,68.86C-29.067,62.855 -28.062,56.863 -27.307,50.834C-27.33,49.864 -26.146,44.239 -27.854,44.488C-30.641,42.376 -33.302,39.972 -35.216,36.995C-36.542,34.944 -35.817,32.496 -35.842,30.166C-35.685,27.522 -35.718,24.71 -34.438,22.315C-34.004,20.777 -35.766,19.603 -36.648,18.526C-41.195,13.647 -48.279,11.82 -54.794,12.213C-55.279,12.241 -56.349,12.429 -57.074,12.789C-68.682,0.987 -91.725,7.093 -104.443,14.33C-107.549,16.068 -110.426,18.155 -113.279,20.268C-113.776,20.606 -114.435,21.071 -114.714,21.62C-114.914,21.692 -115.099,21.803 -115.218,21.987C-115.609,22.554 -115.463,23.276 -115.432,23.921C-115.29,27.614 -114.594,31.459 -115.116,35.107C-116.47,37.736 -118.69,39.882 -120.667,42.066C-121.867,43.321 -123.08,44.554 -124.214,45.87C-124.569,46.28 -124.53,46.921 -124.12,47.28C-124.112,47.287 -124.101,47.289 -124.094,47.296C-124.145,48.611 -123.763,50.406 -123.764,51.154C-123.129,56.926 -122.172,62.651 -120.997,68.335C-122.099,66.554 -123.486,64.994 -125.193,64.087C-125.698,62.292 -126.373,60.537 -126.907,58.748C-128.499,53.883 -129.888,49.055 -130.66,43.937M-27.663,81.043C-27.784,80.426 -28.041,79.908 -28.11,79.268C-26.552,77.074 -25.409,74.709 -23.595,72.674C-23.357,77.737 -24.94,83.374 -29.052,86.624C-28.041,84.981 -27.164,83 -27.663,81.043M-21.304,66.378C-16.679,72.201 -22.039,90.553 -29.205,92.995C-30.859,93.711 -32.844,94.049 -34.709,94.182C-34.7,94.142 -34.691,94.104 -34.682,94.064C-34.434,93.029 -34.219,91.986 -33.99,90.947C-33.519,91.003 -33.04,90.697 -32.694,90.371C-25.898,87.366 -21.507,79.217 -22.927,71.924C-22.41,71.336 -21.789,70.859 -21.163,70.371C-20.698,70.148 -20.959,69.399 -21.463,69.519C-21.703,69.56 -21.946,69.664 -22.163,69.773C-25.26,71.326 -27.345,73.959 -29.276,76.789C-30.074,77.827 -30.51,78.832 -29.362,79.812C-27.824,82.884 -30.867,86.232 -33.396,88.271C-32.493,83.908 -31.719,79.517 -30.994,75.12C-28.895,72.376 -25.406,63.363 -21.304,66.378M-42.747,123.164C-43.461,122.808 -44.191,122.202 -44.993,122.048C-46.763,120.202 -48.811,118.375 -51.2,116.567C-51.207,116.562 -51.218,116.556 -51.226,116.551C-51.222,116.354 -51.216,116.157 -51.224,115.962C-49.834,115.348 -48.46,114.697 -47.107,114.002C-39.103,110.144 -37.031,104.048 -35.217,96.371C-25.344,96.976 -20.222,89.175 -18.35,80.44C-17.399,75.336 -15.978,69.176 -19.537,64.764C-21.155,63.368 -22.763,63.093 -24.265,63.525C-23.922,62.711 -23.584,61.893 -23.285,61.062C-20.552,54.284 -17.7,47.114 -18.162,39.681C-12.544,42.707 -12.905,34.052 -13.488,30.735C-13.543,30.38 -13.612,30.028 -13.689,29.678C-12.71,27.425 -12.098,25 -12.288,22.527C-12.625,14.358 -20.873,7.961 -28.816,8.558C-29.552,4.573 -35.635,-5.141 -36.396,-6.105C-38.585,-9.687 -50.149,-23.428 -53.627,-16.035C-53.694,-15.759 -53.75,-15.327 -53.761,-14.87C-55.771,-15.83 -57.975,-16.459 -60.088,-17.022C-65.274,-18.426 -98.993,-24.897 -98.46,-16.714C-98.469,-16.196 -97.911,-15.288 -97.178,-14.507C-100.818,-13.559 -104.902,-11.852 -106.618,-11.159C-114.539,-7.712 -121.837,-2.936 -128.387,2.678C-131.001,4.878 -148.052,20.84 -139.973,22.408C-139.45,22.473 -137.818,22.143 -136.226,21.63C-138.441,24.549 -140.209,27.826 -140.842,31.42C-141.005,36.805 -135.617,35.272 -132.755,33.06C-134.311,40.069 -132.447,47.217 -130.516,53.963C-129.536,57.165 -128.595,60.505 -126.935,63.436C-127.403,63.33 -127.884,63.255 -128.391,63.251C-132.772,63.635 -134.024,68.756 -134.036,72.443C-133.978,79.565 -131.447,86.889 -126.58,92.158C-123.955,94.835 -120.294,96.421 -116.587,96.838C-116.101,96.941 -115.422,96.875 -114.844,96.662C-113.328,102.677 -111.059,108.543 -105.87,112.287C-103.986,113.742 -101.907,114.909 -99.743,115.899C-100.945,116.825 -102.219,118.26 -102.725,118.715C-103.595,119.629 -104.401,120.535 -105.165,121.437C-105.763,121.494 -106.508,121.839 -106.903,122.104C-123.236,131.528 -140.612,148.239 -149.213,165.099C-150.594,168.021 -151.952,170.978 -152.963,174.049C-153.011,174.211 -153.002,174.373 -152.967,174.529C-152.999,174.993 -152.655,175.609 -152.33,175.905C-132.735,194.574 -104.046,198.722 -77.998,199.629C-55.92,200.074 -33.611,195.992 -13.701,186.257C-8.55,183.626 -3.559,180.502 1.03,176.965C1.551,176.554 1.525,176.006 1.255,175.61C3.949,174.943 -1.071,167.522 -1.677,165.824C-11.662,148.626 -26.324,134.235 -42.747,123.164" style="fill:rgb(38,7,61);fill-rule:nonzero;"/>
                </g>
                <g transform="matrix(1,0,0,1,441.6504,60.1001)">
                    <path d="M0,11.54C-0.23,11.83 -0.69,11.67 -1.011,11.48C-3,10.29 -5,9.1 -7,7.91C-5.181,10.35 -4.57,13.5 -4.521,16.55C-4.341,25.82 -8.7,34.44 -11.87,43.17C-11.16,38.7 -10.46,34.23 -9.9,29.73C-9.92,28.76 -8.74,23.13 -10.45,23.38C-13.23,21.27 -15.891,18.87 -17.811,15.89C-19.131,13.84 -18.41,11.39 -18.431,9.06C-18.28,6.42 -18.311,3.6 -17.03,1.21C-16.601,-0.33 -18.36,-1.5 -19.24,-2.58C-23.79,-7.46 -30.87,-9.29 -37.391,-8.89C-37.87,-8.86 -38.94,-8.68 -39.67,-8.32C-51.271,-20.12 -74.32,-14.01 -87.041,-6.78C-90.141,-5.04 -93.021,-2.95 -95.87,-0.84C-96.37,-0.5 -97.03,-0.03 -97.311,0.51C-97.51,0.59 -97.69,0.7 -97.811,0.88C-98.2,1.45 -98.061,2.17 -98.021,2.82C-97.88,6.51 -97.19,10.35 -97.71,14C-99.061,16.63 -101.28,18.78 -103.26,20.96C-104.46,22.22 -105.67,23.45 -106.811,24.76C-107.16,25.17 -107.12,25.82 -106.71,26.17C-106.7,26.18 -106.69,26.18 -106.69,26.19C-106.74,27.51 -106.36,29.3 -106.36,30.05C-105.72,35.82 -104.76,41.55 -103.59,47.23C-104.38,45.96 -105.311,44.79 -106.41,43.91C-109.44,30.53 -112.03,16.52 -107.891,3.52C-109.061,4.59 -110.541,5.31 -112.09,5.6C-112.51,5.67 -112.96,5.72 -113.34,5.54C-114.641,4.96 -113.97,2.99 -113.081,1.89C-109.641,-2.38 -105.41,-6 -100.67,-8.74C-102.44,-8.39 -104.21,-8.03 -105.98,-7.68C-106.66,-7.54 -107.391,-7.41 -108.021,-7.71C-108.92,-8.14 -109.24,-9.32 -108.98,-10.28C-108.72,-11.24 -108.03,-12.02 -107.34,-12.73C-96.01,-24.53 -79.45,-29.97 -63.19,-31.76C-65.57,-32.06 -67.84,-33.19 -69.521,-34.91C-69.26,-35.58 -68.36,-35.69 -67.641,-35.68C-52.311,-35.44 -37.181,-28.95 -26.431,-18.03C-27.061,-19.51 -28.021,-20.45 -28.65,-21.93C-29.101,-22.98 -29.45,-24.43 -28.511,-25.08C-27.57,-25.73 -26.33,-24.89 -25.53,-24.06C-21.16,-19.52 -17.771,-14.04 -15.67,-8.09C-12.32,-9.73 -8.011,-8.48 -5.46,-5.76C-7.41,-4.87 -9.53,-4.36 -11.67,-4.25C-9.011,-2.28 -6.33,-0.28 -4.141,2.19C-1.95,4.67 -0.25,7.71 0.08,11C0.1,11.19 0.109,11.39 0,11.54" style="fill:rgb(183,95,65);fill-rule:nonzero;"/>
                </g>
                <g transform="matrix(1,0,0,1,419.2402,234.7001)">
                    <path d="M0,-37.08L-8.37,-0.81C-10.04,-0.51 -11.71,-0.24 -13.391,0C-13.29,-2.63 -13.601,-5.3 -13.75,-7.96C-13.08,-9.5 -12.65,-11.13 -12.07,-12.7C-10.63,-16.31 -8.94,-19.79 -7.04,-23.18C-4.26,-27.95 -1.83,-32.58 0,-37.08" style="fill:rgb(206,73,127);fill-rule:nonzero;"/>
                </g>
            </g>
            <g transform="matrix(1,0,0,1,362.54,201.7698)">
                <path d="M0,33.01C0,33.09 0.03,33.16 0.05,33.23C-1.54,33.04 -3.13,32.83 -4.72,32.59L-12.99,-0.22C-11.99,2.02 -10.85,4.32 -9.59,6.69C-6.51,12.76 -2.52,18.41 -0.27,24.88C-0.24,24.98 -0.18,25.07 -0.11,25.14C-0.09,27.76 -0.06,30.39 0,33.01" style="fill:rgb(206,73,127);fill-rule:nonzero;"/>
            </g>
        </g>
    </g>
</svg>
