<?xml version="1.0" encoding="UTF-8" standalone="no"?>
<!DOCTYPE svg PUBLIC "-//W3C//DTD SVG 1.1//EN" "http://www.w3.org/Graphics/SVG/1.1/DTD/svg11.dtd">
<svg width="100%" height="100%" viewBox="0 0 594 831" version="1.1" xmlns="http://www.w3.org/2000/svg" xmlns:xlink="http://www.w3.org/1999/xlink" xml:space="preserve" xmlns:serif="http://www.serif.com/" style="fill-rule:evenodd;clip-rule:evenodd;stroke-linejoin:round;stroke-miterlimit:2;">
    <g transform="matrix(1,0,0,1,-2155.117919,-1113.518416)">
        <g transform="matrix(4.166667,0,0,4.166667,0,0)">
            <g>
                <g transform="matrix(-0.540055,-0.841629,-0.841629,0.540055,564.203311,324.188047)">
                    <path d="M-3.82,-6.114C-3.489,-8.059 -1.314,-5.399 -1.232,-4.521C-0.408,-1.492 -1.501,2.062 -3.82,4.109C-3.882,4.152 -3.942,4.198 -4.004,4.245C-3.001,0.86 -3.05,-2.699 -3.82,-6.114" style="fill:rgb(242,171,78);fill-rule:nonzero;"/>
                </g>
                <g transform="matrix(0.633436,0.773795,0.773795,-0.633436,587.4322,355.443141)">
                    <path d="M1.196,0.397C1.74,1.177 2.065,2.141 1.997,3.083C1.768,3.886 1.52,4.591 1.196,5.342C0.867,2.746 -0.522,0.627 -2.421,-1.124C-1.009,-1.185 0.425,-0.877 1.196,0.397" style="fill:rgb(255,185,161);fill-rule:nonzero;"/>
                </g>
                <g transform="matrix(1,0,0,1,562.8604,378.5672)">
                    <path d="M0,-52.66C1.573,-54.998 3.85,-57.089 6.695,-57.629C8.09,-57.836 9.944,-57.544 10.57,-56.109C11.067,-55.111 10.883,-53.737 9.934,-53.082C7.302,-51.626 4.307,-50.364 1.991,-48.446C1.258,-48.009 0.646,-46.878 -0.286,-47.039C-2.901,-47.666 -0.953,-51.263 0,-52.66M12.261,-37.003C12.013,-35.806 10.852,-34.816 9.654,-34.702C6.033,-35.031 6.94,-42.828 10.625,-42.231C12.739,-41.657 12.593,-38.729 12.261,-37.003M17.296,-9.751C18.062,-10.33 18.686,-9.514 19.24,-9.072C21.585,-7.999 24.25,-7.37 26.816,-7.654C29.291,-7.974 32.076,-7.931 33.911,-9.822C34.294,-10.136 34.883,-10.038 35.178,-9.66C36.455,-7.458 29.307,-6.147 27.859,-6.392C26.354,-6.387 14.856,-6.906 17.296,-9.751M21.266,-25.999C22.809,-25.173 24.566,-25.149 26.226,-25.553C27.006,-25.763 27.819,-25.786 28.516,-26.165C29.155,-26.392 30.098,-27.455 30.598,-26.52C30.772,-23.834 28.055,-21.411 25.388,-21.794C23.501,-21.841 21.654,-23.106 20.738,-24.703C19.409,-25.327 19.827,-26.823 21.266,-25.999M40.039,-42.231C43.724,-42.828 44.63,-35.031 41.01,-34.702C39.813,-34.816 38.652,-35.806 38.403,-37.003C38.071,-38.729 37.924,-41.657 40.039,-42.231M40.093,-56.109C40.72,-57.544 42.572,-57.836 43.969,-57.628C46.813,-57.089 49.091,-54.998 50.664,-52.66C51.616,-51.262 53.566,-47.665 50.95,-47.04C50.02,-46.878 49.406,-48.009 48.672,-48.447C46.357,-50.364 43.362,-51.625 40.73,-53.082C39.782,-53.738 39.596,-55.111 40.093,-56.109M21.421,14.209C21.967,14.342 22.531,14.419 23.1,14.483C24.561,14.523 26.025,14.514 27.488,14.447C28.244,14.457 29.001,14.418 29.756,14.362C31.749,14.032 33.794,13.896 35.74,13.376C47.271,10.823 56.726,1.916 60.041,-9.351C63.387,-20.567 65.597,-32.114 67.254,-43.688C67.963,-48.847 68.702,-54.045 68.495,-59.263C67.601,-56.729 66.263,-54.82 64.77,-55.771C63.208,-58.079 63.284,-61.165 62.478,-63.791C61.937,-61.025 60.207,-57.976 57.061,-57.909C53.104,-57.844 49,-58.629 45.421,-60.339C43.765,-61.136 42.771,-62.591 42.398,-64.29C42.104,-62.976 41.366,-62.237 39.445,-62.379C36.063,-62.321 32.744,-62.29 29.384,-62.07C24.271,-61.792 16.376,-60.737 14.786,-67.183C14.36,-65.026 13.006,-60.327 10.038,-62.077C8.93,-63.426 8.625,-65.342 8.274,-67.019C5.859,-59.544 2.407,-59.201 -4.563,-58.092C-6.667,-57.932 -9.024,-56.92 -11.039,-57.792C-12.189,-58.814 -12.355,-60.553 -12.838,-61.946C-13.425,-60.234 -14.899,-52.61 -17.594,-56.051C-17.768,-56.44 -17.937,-56.84 -18.103,-57.243C-17.972,-54.225 -17.679,-51.226 -17.299,-48.231C-16.06,-37.735 -13.846,-27.354 -11.33,-17.097C-7.603,0.651 3.141,11.983 21.421,14.209" style="fill:rgb(255,226,204);fill-rule:nonzero;"/>
                </g>
                <g transform="matrix(0.768604,-0.639724,-0.639724,-0.768604,614.816012,325.7621)">
                    <path d="M-3.556,-2.359C-3.512,-2.296 -3.469,-2.233 -3.422,-2.172C-1.828,0.477 -1.856,4.195 -3.556,6.835C-3.899,7.649 -6.775,9.529 -6.503,7.574C-4.74,4.548 -3.621,1.171 -3.556,-2.359" style="fill:rgb(242,171,78);fill-rule:nonzero;"/>
                </g>
                <g transform="matrix(1,0,0,1,589.6348,400.4709)">
                    <path d="M0,-5.05C-0.423,-4.976 -0.874,-5.004 -1.301,-4.996C-1.509,-5 -1.719,-5.02 -1.929,-5.027C-2.493,-5.032 -3.058,-5.042 -3.62,-5.069C-3.991,-5.059 -4.963,-5.166 -6.157,-5.363C-9.219,-5.76 -12.238,-6.486 -15.143,-7.509C-15.122,-6.736 -15.214,-5.876 -15.234,-5.202C-14.794,-4.872 -14.416,-4.412 -14.021,-4.176C-5.606,2.459 4.036,1.892 11.365,-5.705C11.371,-6.017 11.377,-6.329 11.391,-6.64C8.509,-5.783 5.533,-5.28 2.549,-5.198C1.702,-5.122 0.852,-5.078 0,-5.05" style="fill:rgb(255,185,161);fill-rule:nonzero;"/>
                </g>
                <g transform="matrix(1,0,0,1,630.8564,340.735)">
                    <path d="M0,16.181C-0.694,16.762 -1.328,17.682 -2.331,17.628C-2.445,17.646 -2.562,17.642 -2.674,17.623C-2.716,17.805 -2.752,17.986 -2.794,18.167C-3.084,19.407 -3.374,20.65 -3.673,21.892C-0.459,22.257 2.339,19.327 3.823,16.717C6.066,12.949 10.935,-5.414 4.111,-5.929C3.348,-6.076 2.333,-5.175 1.488,-4.709C0.53,2.23 -0.755,9.03 -2.274,15.822C-1.539,14.928 -0.999,13.892 -0.494,12.837C0.143,11.405 0.908,10.14 1.175,8.659C1.164,4.943 1.016,0.929 4.047,-1.756C4.639,-2.34 6.135,-3.617 6.683,-2.428C6.797,-1.995 6.482,-1.552 6.265,-1.201C6.142,-1.024 6.018,-0.843 5.894,-0.666C6.105,3.715 4.992,8.349 2.277,11.869C2.182,11.949 2.09,12.073 2,12.21C1.601,13.644 0.961,15.042 0,16.181" style="fill:rgb(255,226,204);fill-rule:nonzero;"/>
                </g>
                <g transform="matrix(1,0,0,1,557.4326,415.3178)">
                    <path d="M0,0.817C-1.049,1.305 -2.112,2.202 -3.27,2.447C-0.918,6.338 0.233,10.856 1.727,15.129C7.611,15.187 13.479,15.664 19.27,16.759C23.118,17.441 27.018,18.362 30.561,20.022C31.43,18.987 34.097,18.527 35.028,18.044C42.954,15.437 51.562,15.613 59.765,16.21C60.438,14.825 62.235,9.002 64.131,4.662C62.565,3.777 61.203,2.275 59.774,1.225C55.967,-1.981 51.736,-5.076 48.252,-8.514C46.751,-10.249 44.443,-11.761 43.915,-14.076C43.721,-15.777 43.596,-17.491 43.566,-19.205C39.74,-15.13 33.892,-12.83 28.337,-13.381L28.408,-13.37C24.404,-13.922 20.146,-14.727 17.135,-17.642C17.083,-17.697 17.019,-17.76 16.95,-17.83C16.942,-16.034 17.038,-14.201 16.552,-12.505C15.636,-11.078 14.248,-10.017 13.034,-8.855C9.02,-5.124 4.717,-1.907 0,0.817" style="fill:rgb(255,226,204);fill-rule:nonzero;"/>
                </g>
                <g transform="matrix(1,0,0,1,638.6934,299.9623)">
                    <path d="M0,94.442C0.242,104.694 1.896,114.897 2.534,125.129C2.012,124.898 1.489,124.656 0.967,124.423C0.232,123.611 -0.416,122.751 -1.122,121.899C-1.247,121.735 -1.373,121.561 -1.499,121.396C-6.47,114.897 -14.081,108.514 -22.786,110.497C-23.24,110.574 -23.985,110.826 -24.526,111.183C-28.173,108.272 -31.723,105.371 -34.739,101.715C-35.514,100.893 -35.407,99.723 -35.504,98.649C-35.581,97.15 -35.62,95.651 -35.697,94.162C-35.707,93.911 -35.727,93.582 -35.774,93.243C-28.037,90.467 -21.171,85.081 -17.07,78.01C-14.623,73.861 -13.182,69.287 -12.002,64.634C-11.973,64.644 -11.954,64.654 -11.935,64.654C-11.954,64.809 -11.964,64.963 -11.982,65.119C-12.176,73.997 -11.905,82.894 -11.722,91.773C-11.615,96.328 -10.87,100.835 -10.803,105.4C-9.846,106.928 -10.687,100.603 -10.57,99.974C-10.483,89.791 -10.426,79.596 -9.826,69.422C-9.923,67.884 -9.662,66.259 -9.777,64.713C-7.069,64.403 -5,62.962 -3.404,60.912C-0.348,56.995 0.938,50.863 1.528,46.384C2.002,42.323 2.775,35.485 -1.335,33.319C-1.856,33.029 -2.466,32.826 -3.162,32.719C-3.955,32.651 -5.067,32.932 -5.996,33.445C-5.213,27.506 -4.091,17.215 -6.189,13.221C-6.189,12.38 -6.306,11.722 -6.538,11.393C-7.844,10.523 -7.959,12.999 -8.047,13.801C-8.521,15.92 -9.043,18.154 -9.923,20.185C-10.609,16.568 -11.432,12.98 -12.264,9.401C-12.264,9.391 -12.264,9.363 -12.272,9.314C-12.205,8.086 -14.149,7.874 -14.353,9.111C-14.769,13.811 -15.349,19.586 -21.625,18.241C-25.31,17.554 -31.432,17.294 -31.606,12.361C-31.983,9.894 -32.09,7.371 -32.66,4.943C-32.786,4.507 -32.94,4.024 -33.356,3.792C-33.985,3.366 -34.808,3.801 -34.924,4.517C-34.991,5.02 -34.885,5.523 -34.769,6.016C-34.769,6.132 -34.778,6.239 -34.778,6.345C-34.914,8.87 -34.73,11.452 -35.427,13.898C-38.695,13.86 -41.964,14.053 -45.233,14.247C-49.285,14.237 -55.736,15.746 -58.493,11.984C-59.711,9.507 -59.673,6.596 -59.904,3.898C-59.943,2.969 -61.191,2.583 -61.771,3.279C-62.787,6.084 -62.574,9.314 -63.454,12.215C-63.793,13.125 -63.938,14.411 -64.837,14.943C-65.302,14.624 -65.466,14.044 -65.553,13.521C-65.998,10.446 -65.911,7.361 -65.949,4.256C-65.939,3.482 -66.907,2.969 -67.535,3.444C-67.825,3.647 -67.99,3.965 -68.097,4.295C-68.483,5.813 -68.754,7.351 -69.15,8.87C-69.943,11.703 -70.901,15.069 -73.657,16.626C-77.507,17.748 -81.443,18.55 -85.467,18.811C-86.85,15.959 -87.323,12.902 -87.682,9.769C-88.039,8.734 -89.596,9.014 -89.692,10.079C-89.896,12.206 -90.312,14.401 -90.457,16.568C-90.583,18.251 -90.708,20.02 -91.666,21.481C-92.797,18.541 -93.291,15.426 -93.755,12.322C-93.899,11.732 -93.861,10.987 -94.354,10.572C-94.828,10.3 -95.215,10.872 -95.351,11.268C-95.621,12.351 -95.689,13.463 -95.631,14.576C-96.686,17.631 -95.699,25.881 -95.728,27.796C-95.593,29.702 -95.38,31.597 -95.138,33.493C-96.434,32.642 -98.011,32.429 -99.432,32.922C-100.641,33.329 -101.733,34.238 -102.469,35.678C-105.612,40.698 -102.749,53.416 -97.479,60.234C-96.666,61.279 -95.805,62.178 -94.905,62.894C-94.896,63.378 -94.818,63.88 -94.838,64.344C-94.712,67.662 -94.528,71.192 -94.509,74.587C-94.297,85.525 -95.331,96.966 -94.2,107.653C-94.064,107.663 -93.938,107.556 -93.948,107.421C-93.968,105.767 -94.025,104.104 -93.948,102.45C-93.609,92.72 -93.31,83.001 -92.769,73.291C-92.807,72.314 -92.343,67.43 -92.691,64.21C-92.004,64.49 -91.308,64.673 -90.602,64.703C-90.07,64.713 -89.412,64.693 -88.842,64.519C-87.71,68.716 -86.308,72.837 -84.18,76.647C-80.254,83.852 -73.851,89.026 -66.472,92.121C-66.501,92.373 -66.501,92.633 -66.472,92.876C-66.501,95.796 -66.423,98.833 -66.868,101.725C-69.856,104.974 -73.3,107.972 -76.917,110.642C-77.633,110.071 -79.083,109.917 -79.848,109.868C-83.329,109.578 -86.791,110.671 -89.877,112.209C-93.02,113.747 -95.563,116.058 -97.913,118.591C-99.722,120.555 -101.415,122.644 -103.185,124.617C-103.223,124.636 -103.262,124.656 -103.311,124.675C-103.194,122.76 -103.107,120.845 -103.011,118.94C-102.662,112.779 -102.469,106.619 -102.323,100.458C-101.908,87.469 -101.521,74.461 -102.749,61.502C-103.842,49.79 -104.268,38.039 -104.064,26.278C-104.123,20.572 -103.832,15.04 -102.401,9.45C-98.311,-7.369 -85.757,-22.92 -68.647,-27.582C-64.093,-28.975 -59.411,-29.817 -54.673,-30.348C-53.492,-30.503 -52.303,-30.541 -51.123,-30.687C-50.156,-30.174 -48.938,-30.416 -47.864,-30.281C-43.038,-30.087 -38.163,-29.342 -33.396,-28.24C-18.994,-24.991 -6.722,-14.41 -0.329,-1.208C6.964,14.866 2.408,39.063 1.229,56.53C0.116,69.132 -0.454,81.792 0,94.442" style="fill:rgb(255,218,136);fill-rule:nonzero;"/>
                </g>
                <g transform="matrix(1,0,0,1,656.4209,433.6031)">
                    <path d="M0,10.725C-1.141,11.277 -2.418,11.431 -3.588,11.847C-3.849,12.002 -4.042,12.253 -4.101,12.553C-3.945,13.704 -3.811,14.942 -4.42,16.016C-6.15,18.869 -9.951,18.995 -12.95,19.081C-13.578,18.936 -14.274,19.381 -14.033,19.981C-16.761,21.151 -19.497,22.253 -22.273,23.241C-24.266,23.947 -26.277,24.594 -28.327,25.164C-28.008,23.618 -27.94,21.432 -27.824,20.929C-27.012,14.168 -24.652,7.727 -22.118,1.421C-21.741,0.474 -21.354,-0.464 -20.977,-1.403C-20.842,-1.693 -21.296,-1.877 -21.422,-1.606C-21.489,-1.441 -21.548,-1.287 -21.625,-1.122C-24.382,5.725 -27.524,12.447 -28.927,19.74C-29.323,21.635 -29.913,23.637 -29.903,25.59C-30.648,25.784 -31.403,25.967 -32.157,26.142C-32.814,26.287 -33.473,26.432 -34.13,26.567C-54.847,30.958 -77.139,32.496 -97.952,27.844C-100.901,27.186 -103.832,26.403 -106.714,25.484C-107.102,21.403 -107.914,17.36 -109.064,13.423C-110.709,8.327 -112.565,3.249 -114.538,-1.721C-114.703,-2.137 -114.867,-2.553 -115.032,-2.96C-115.399,-3.54 -116.26,-3.453 -116.192,-2.689C-115.96,-2.312 -115.747,-1.944 -115.535,-1.557C-111.928,4.855 -110.544,12.244 -109.248,19.478C-108.891,21.296 -108.601,23.115 -108.349,24.952C-110.457,24.237 -112.546,23.453 -114.616,22.582C-116.928,21.616 -119.21,20.551 -121.463,19.381C-122.005,19.207 -123.098,18.269 -123.968,17.892C-124.026,17.418 -124.433,17.031 -124.916,17.022C-127.479,16.809 -132.18,16.857 -133.253,14.042C-133.572,13.095 -133.243,12.04 -133.61,11.112C-134.539,9.991 -136.483,9.991 -137.247,8.617C-137.624,5.745 -135.119,3.317 -133.397,1.277C-130.458,-1.809 -126.898,-4.072 -122.991,-5.88C-121.628,-6.587 -119.713,-6.973 -118.591,-8.125C-114.751,-13.366 -109.645,-19.014 -103.349,-20.92C-101.289,-21.548 -99.103,-21.771 -96.801,-21.452C-97.391,-21.046 -97.99,-20.649 -98.581,-20.253C-99.857,-19.421 -101.153,-18.637 -102.449,-17.835C-102.7,-17.728 -102.991,-17.525 -103.223,-17.283C-103.339,-17.448 -103.436,-17.612 -103.562,-17.767C-103.716,-17.969 -103.987,-18.241 -104.277,-18.385C-104.615,-18.56 -104.964,-18.579 -105.157,-18.172C-105.303,-17.573 -104.983,-16.955 -104.771,-16.403C-104.142,-14.971 -103.388,-13.347 -102.739,-11.829C-101.646,-9.314 -100.786,-6.557 -99.935,-3.936C-99.499,-2.263 -99.064,-0.754 -97.014,-0.813C-87.381,-0.764 -77.777,0.648 -68.696,3.916C-68.318,3.946 -68,3.782 -67.797,3.52C-67.564,3.559 -67.322,3.539 -67.101,3.423C-65.592,2.66 -63.957,2.176 -62.352,1.692C-54.885,-0.397 -46.964,-0.407 -39.285,0.271C-38.212,0.561 -37.331,0.009 -37.128,-1.084C-36.384,-3.24 -35.581,-5.387 -34.759,-7.515C-33.55,-10.774 -32.187,-13.985 -31.074,-17.283C-30.978,-17.679 -30.832,-18.172 -31.104,-18.521C-31.277,-18.588 -31.471,-18.588 -31.664,-18.511C-32.351,-18.27 -33.114,-17.176 -33.898,-15.668C-36.064,-17.554 -38.347,-19.304 -40.581,-21.123C-40.349,-21.2 -40.117,-21.258 -39.885,-21.268C-37.786,-21.539 -35.707,-21.413 -33.607,-20.949C-33.124,-20.813 -32.66,-20.659 -32.206,-20.484C-26.577,-18.318 -22.718,-12.941 -18.956,-8.395C-18.24,-7.263 -16.799,-7.34 -15.667,-6.857C-12.05,-5.754 -8.907,-3.849 -5.793,-1.654C-2.901,0.425 -0.318,2.989 1.074,6.344C1.761,7.833 1.857,10.125 0,10.725" style="fill:rgb(190,196,237);fill-rule:nonzero;"/>
                </g>
                <g transform="matrix(1,0,0,1,635.9111,351.3316)">
                    <path d="M0,-9.9C0.001,-9.935 -0.006,-9.973 -0.008,-10.008C-1.318,-8.011 -2.473,-5.888 -2.757,-3.494C-2.988,-2.258 -2.785,-1.087 -2.818,0.108C-2.439,-0.449 -2.068,-1.007 -1.742,-1.573C-0.171,-4.058 0.297,-7.002 0,-9.9" style="fill:rgb(255,185,161);fill-rule:nonzero;"/>
                </g>
                <g transform="matrix(1,0,0,1,656.417,288.7381)">
                    <path d="M0,155.59C-1.137,156.139 -2.41,156.295 -3.58,156.711C-3.845,156.866 -4.041,157.115 -4.094,157.422C-3.943,158.573 -3.802,159.807 -4.42,160.882C-6.149,163.736 -9.944,163.864 -12.95,163.943C-13.57,163.802 -14.27,164.248 -14.027,164.842C-18.71,166.854 -23.4,168.66 -28.323,170.03C-28.002,168.482 -27.939,166.297 -27.821,165.793C-26.881,158.028 -23.911,150.677 -20.977,143.466C-20.837,143.171 -21.288,142.988 -21.415,143.258C-24.232,150.269 -27.491,157.136 -28.921,164.605C-29.315,166.498 -29.912,168.502 -29.902,170.458C-30.647,170.649 -31.398,170.834 -32.156,171.004C-56.364,176.361 -82.843,177.944 -106.711,170.347C-107.101,166.271 -107.911,162.221 -109.059,158.29C-110.837,152.766 -112.868,147.272 -115.028,141.902C-115.398,141.329 -116.252,141.413 -116.184,142.178C-112.086,148.849 -110.622,156.687 -109.243,164.343C-108.887,166.16 -108.595,167.978 -108.34,169.821C-112.822,168.309 -117.207,166.463 -121.463,164.248C-121.996,164.071 -123.091,163.137 -123.961,162.753C-124.025,162.288 -124.432,161.895 -124.91,161.891C-127.471,161.678 -132.171,161.718 -133.252,158.912C-133.569,157.961 -133.234,156.902 -133.604,155.981C-134.537,154.861 -136.475,154.855 -137.247,153.482C-137.616,150.607 -135.119,148.18 -133.396,146.141C-130.453,143.058 -126.895,140.791 -122.983,138.988C-121.621,138.282 -119.711,137.889 -118.582,136.736C-113.487,129.789 -106.156,122.11 -96.796,123.41C-97.388,123.819 -97.982,124.22 -98.58,124.611C-99.854,125.442 -101.153,126.227 -102.448,127.029C-102.696,127.138 -102.983,127.341 -103.222,127.578C-103.337,127.421 -103.434,127.256 -103.553,127.101C-103.883,126.652 -104.79,125.942 -105.151,126.697C-105.294,127.297 -104.983,127.907 -104.762,128.457C-104.139,129.89 -103.383,131.519 -102.732,133.035C-101.643,135.55 -100.784,138.305 -99.934,140.933C-99.497,142.598 -99.062,144.107 -97.01,144.052C-87.378,144.099 -77.777,145.51 -68.688,148.778C-68.311,148.811 -68,148.642 -67.795,148.385C-67.56,148.426 -67.313,148.403 -67.092,148.292C-65.585,147.524 -63.957,147.045 -62.343,146.558C-54.885,144.472 -46.963,144.46 -39.28,145.133C-38.204,145.43 -37.325,144.878 -37.122,143.785C-36.377,141.624 -35.577,139.48 -34.757,137.348C-33.548,134.088 -32.18,130.876 -31.069,127.582C-30.976,127.185 -30.825,126.693 -31.1,126.339C-31.908,126.019 -32.889,127.264 -33.891,129.2C-36.062,127.312 -38.347,125.56 -40.58,123.742C-40.348,123.668 -40.115,123.608 -39.879,123.594C-37.78,123.327 -35.698,123.456 -33.608,123.918C-27.197,125.669 -23.018,131.561 -18.953,136.466C-18.236,137.601 -16.79,137.528 -15.666,138.007C-12.051,139.114 -8.905,141.014 -5.79,143.213C-2.899,145.291 -0.313,147.85 1.078,151.213C1.765,152.697 1.861,154.989 0,155.59M-82.433,114.074C-81.946,112.379 -82.042,110.546 -82.034,108.749C-81.966,108.819 -81.901,108.883 -81.85,108.938C-78.839,111.853 -74.58,112.657 -70.576,113.21L-70.647,113.198C-65.093,113.749 -59.244,111.449 -55.418,107.374C-55.389,109.089 -55.264,110.803 -55.069,112.504C-54.541,114.819 -52.233,116.33 -50.732,118.066C-47.248,121.504 -43.018,124.599 -39.21,127.805C-37.781,128.855 -36.419,130.357 -34.854,131.241C-36.749,135.581 -38.547,141.404 -39.22,142.789C-47.423,142.193 -56.03,142.017 -63.956,144.623C-64.888,145.107 -67.555,145.567 -68.424,146.602C-71.967,144.942 -75.866,144.021 -79.715,143.339C-85.505,142.243 -91.373,141.767 -97.258,141.708C-98.751,137.436 -99.902,132.917 -102.254,129.027C-101.097,128.781 -100.033,127.885 -98.984,127.397C-94.268,124.673 -89.965,121.455 -85.95,117.725C-84.736,116.563 -83.349,115.502 -82.433,114.074M-55.392,105.093C-55.405,105.403 -55.411,105.716 -55.417,106.027C-62.746,113.625 -72.389,114.192 -80.803,107.557C-81.198,107.32 -81.576,106.861 -82.017,106.53C-81.996,105.857 -81.904,104.997 -81.925,104.224C-79.021,105.247 -76.001,105.973 -72.939,106.369C-71.745,106.567 -70.773,106.674 -70.402,106.664C-69.84,106.691 -69.275,106.7 -68.711,106.706C-68.501,106.713 -68.291,106.733 -68.083,106.736C-67.656,106.729 -67.205,106.757 -66.782,106.683C-65.931,106.654 -65.08,106.611 -64.233,106.534C-61.249,106.452 -58.273,105.949 -55.392,105.093M-23.263,59.1C-22.979,56.705 -21.824,54.582 -20.514,52.585C-20.512,52.62 -20.505,52.658 -20.506,52.694C-20.209,55.592 -20.677,58.535 -22.248,61.021C-22.574,61.586 -22.945,62.145 -23.324,62.701C-23.291,61.507 -23.494,60.335 -23.263,59.1M-23.283,63.865C-20.568,60.346 -19.455,55.712 -19.667,51.331C-19.543,51.153 -19.419,50.973 -19.296,50.796C-19.078,50.444 -18.764,50.002 -18.878,49.569C-19.426,48.38 -20.922,49.656 -21.514,50.24C-24.545,52.926 -24.396,56.94 -24.386,60.655C-24.652,62.137 -25.418,63.402 -26.055,64.834C-26.56,65.889 -27.1,66.925 -27.835,67.819C-26.315,61.027 -25.03,54.227 -24.072,47.288C-23.228,46.821 -22.213,45.921 -21.449,46.068C-14.626,46.583 -19.494,64.945 -21.737,68.714C-23.222,71.323 -26.02,74.254 -29.233,73.889C-28.935,72.647 -28.645,71.403 -28.354,70.164C-28.312,69.983 -28.276,69.802 -28.234,69.62C-28.122,69.639 -28.006,69.643 -27.892,69.625C-26.889,69.679 -26.255,68.759 -25.561,68.178C-24.6,67.039 -23.96,65.641 -23.561,64.207C-23.471,64.069 -23.379,63.945 -23.283,63.865M-110.855,41.598C-111.235,38.603 -111.528,35.604 -111.659,32.586C-111.494,32.989 -111.324,33.389 -111.15,33.778C-108.456,37.219 -106.981,29.595 -106.395,27.883C-105.912,29.277 -105.746,31.015 -104.596,32.037C-102.581,32.909 -100.224,31.897 -98.12,31.737C-91.149,30.628 -87.697,30.285 -85.282,22.81C-84.932,24.487 -84.627,26.403 -83.519,27.752C-80.551,29.502 -79.196,24.803 -78.771,22.646C-77.181,29.092 -69.286,28.037 -64.173,27.759C-60.813,27.539 -57.493,27.508 -54.111,27.45C-52.19,27.592 -51.452,26.853 -51.158,25.539C-50.786,27.238 -49.792,28.694 -48.136,29.49C-44.557,31.2 -40.452,31.986 -36.496,31.92C-33.35,31.853 -31.62,28.804 -31.079,26.038C-30.272,28.664 -30.349,31.75 -28.787,34.058C-27.294,35.009 -25.956,33.1 -25.062,30.567C-24.854,35.784 -25.594,40.982 -26.303,46.141C-27.96,57.715 -30.17,69.262 -33.516,80.478C-36.831,91.745 -46.285,100.652 -57.816,103.205C-59.763,103.725 -61.808,103.861 -63.801,104.192C-64.556,104.247 -65.313,104.286 -66.068,104.277C-67.531,104.343 -68.996,104.352 -70.457,104.312C-71.025,104.248 -71.59,104.171 -72.136,104.038C-90.416,101.812 -101.159,90.48 -104.887,72.732C-107.402,62.475 -109.616,52.094 -110.855,41.598M-111.609,65.332C-115.084,62.527 -116.448,57.172 -115.608,52.866C-114.9,54.269 -114.612,55.939 -114.248,57.435C-113.39,59.958 -112.877,62.913 -111.609,65.332M-112.178,57.522C-112.342,55.328 -113.077,53.039 -114.494,51.329C-115.153,50.642 -117.101,48.986 -118.012,49.781C-118.258,50.297 -117.553,50.616 -117.224,50.885C-116.766,51.219 -116.403,51.622 -116.094,52.062C-117.403,57.644 -114.977,64.01 -110.274,67.293C-109.728,67.907 -109.082,68.446 -108.306,68.882C-108.298,68.886 -108.289,68.884 -108.279,68.887C-107.889,70.526 -107.495,72.169 -107.078,73.809C-107.617,73.868 -108.159,73.925 -108.722,73.735C-111.146,72.637 -113.278,70.73 -114.667,68.375C-117.407,62.929 -120.618,55.117 -118.75,49.043C-118.122,46.933 -115.616,45.011 -113.697,46.867C-113.226,47.109 -112.828,47.618 -112.395,48.053C-111.431,54.355 -110.067,60.604 -108.729,66.834C-108.732,66.831 -108.736,66.828 -108.74,66.823C-109.711,65.814 -110.538,64.518 -111.334,63.35C-112.607,61.623 -112.536,59.53 -112.178,57.522M-121.787,37.503C-121.846,31.8 -121.553,26.268 -120.122,20.673C-116.031,3.858 -103.484,-11.692 -86.369,-16.363C-81.814,-17.747 -77.132,-18.589 -72.399,-19.123C-71.22,-19.277 -70.027,-19.317 -68.851,-19.461C-67.879,-18.953 -66.657,-19.192 -65.591,-19.06C-60.76,-18.867 -55.887,-18.123 -51.123,-17.016C-36.723,-13.768 -24.44,-3.185 -18.049,10.013C-10.756,26.095 -15.317,50.287 -16.496,67.756C-17.605,80.357 -18.175,93.017 -17.727,105.665C-17.48,115.919 -15.831,126.118 -15.19,136.356C-15.711,136.119 -16.233,135.884 -16.754,135.647C-17.487,134.838 -18.142,133.972 -18.843,133.122C-23.808,126.452 -31.579,119.691 -40.511,121.724C-40.96,121.801 -41.704,122.052 -42.252,122.405C-45.892,119.499 -49.441,116.594 -52.461,112.944C-53.238,112.117 -53.129,110.949 -53.226,109.871C-53.303,108.375 -53.346,106.879 -53.422,105.383C-53.43,105.138 -53.445,104.802 -53.493,104.464C-45.758,101.691 -38.896,96.3 -34.793,89.232C-32.343,85.084 -30.901,80.507 -29.721,75.861C-29.701,75.866 -29.68,75.874 -29.658,75.88C-29.677,76.035 -29.69,76.19 -29.705,76.342C-29.904,85.224 -29.628,94.114 -29.445,102.997C-29.342,107.556 -28.596,112.059 -28.529,116.621C-27.573,118.154 -28.412,111.823 -28.295,111.203C-28.205,101.017 -28.145,90.821 -27.55,80.649C-27.646,79.106 -27.385,77.482 -27.503,75.934C-19.597,75.054 -17.093,64.418 -16.196,57.607C-15.662,53.021 -14.745,44.913 -20.888,43.943C-21.681,43.877 -22.788,44.153 -23.716,44.668C-22.938,38.731 -21.813,28.439 -23.916,24.444C-23.917,23.605 -24.024,22.946 -24.26,22.618C-25.563,21.751 -25.685,24.219 -25.771,25.025C-26.242,27.141 -26.762,29.377 -27.643,31.409C-28.337,27.792 -29.15,24.206 -29.987,20.623C-29.984,20.617 -29.992,20.545 -29.995,20.473C-29.995,20.51 -29.993,20.551 -29.992,20.59C-29.994,20.591 -29.996,20.593 -29.999,20.594C-29.875,19.319 -31.871,19.078 -32.072,20.332C-32.494,25.031 -33.07,30.811 -39.348,29.464C-43.038,28.78 -49.157,28.519 -49.334,23.582C-49.705,21.121 -49.81,18.597 -50.384,16.166C-50.509,15.732 -50.668,15.252 -51.082,15.013C-51.709,14.594 -52.533,15.023 -52.65,15.742C-52.718,16.248 -52.607,16.745 -52.487,17.24C-52.492,17.352 -52.497,17.463 -52.506,17.568C-52.633,20.09 -52.458,22.674 -53.151,25.126C-56.422,25.087 -59.687,25.276 -62.952,25.466C-67.006,25.461 -73.461,26.966 -76.221,23.207C-77.437,20.731 -77.399,17.822 -77.626,15.119C-77.666,14.194 -78.919,13.804 -79.499,14.507C-80.515,17.313 -80.295,20.543 -81.175,23.437C-81.516,24.354 -81.665,25.638 -82.559,26.171C-82.556,26.167 -82.559,26.168 -82.563,26.169C-83.022,25.844 -83.19,25.272 -83.28,24.742C-83.721,21.67 -83.634,18.589 -83.673,15.485C-83.663,14.709 -84.633,14.194 -85.257,14.666C-85.551,14.869 -85.718,15.186 -85.815,15.524C-86.202,17.041 -86.476,18.578 -86.87,20.094C-87.671,22.929 -88.628,26.296 -91.378,27.853C-95.226,28.975 -99.163,29.777 -103.188,30.033C-104.573,27.183 -105.048,24.13 -105.4,20.997C-105.767,19.954 -107.316,20.236 -107.414,21.304C-107.617,23.428 -108.038,25.63 -108.185,27.794C-108.307,29.476 -108.433,31.245 -109.388,32.708C-110.524,29.765 -111.01,26.647 -111.479,23.543C-111.626,22.961 -111.584,22.212 -112.076,21.794C-112.556,21.525 -112.938,22.095 -113.069,22.494C-113.344,23.576 -113.413,24.687 -113.357,25.802C-114.41,28.852 -113.423,37.11 -113.455,39.022C-113.313,40.925 -113.103,42.821 -112.86,44.713C-115.239,43.152 -118.587,43.742 -120.19,46.899C-123.805,52.685 -119.455,68.704 -112.633,74.115C-112.616,74.602 -112.538,75.1 -112.56,75.565C-112.437,78.882 -112.25,82.414 -112.237,85.813C-112.019,96.752 -113.053,108.188 -111.921,118.88C-111.791,118.884 -111.666,118.778 -111.67,118.647C-111.692,116.987 -111.744,115.329 -111.674,113.67C-111.33,103.948 -111.03,94.227 -110.491,84.513C-110.532,83.542 -110.069,78.652 -110.411,75.439C-109.729,75.716 -109.031,75.894 -108.321,75.929C-107.793,75.935 -107.137,75.916 -106.568,75.745C-105.429,79.943 -104.035,84.064 -101.906,87.873C-97.981,95.075 -91.571,100.252 -84.196,103.346C-84.228,103.596 -84.223,103.857 -84.19,104.098C-84.224,107.021 -84.146,110.054 -84.589,112.954C-87.581,116.198 -91.021,119.193 -94.641,121.868C-95.354,121.295 -96.802,121.141 -97.574,121.096C-101.055,120.805 -104.518,121.893 -107.604,123.431C-113.184,126.166 -116.875,131.339 -120.904,135.842C-120.946,135.861 -120.988,135.881 -121.03,135.902C-120.916,133.989 -120.832,132.074 -120.73,130.16C-120.383,124.004 -120.195,117.844 -120.047,111.679C-119.633,98.69 -119.248,85.69 -120.473,72.729C-121.566,61.015 -121.989,49.266 -121.787,37.503M-3.44,142.42C-5.864,140.533 -8.614,139.071 -11.468,137.946C-12.026,137.733 -12.57,137.492 -13.118,137.258C-13.139,137.105 -13.153,136.95 -13.171,136.795C-13.125,136.661 -13.104,136.516 -13.116,136.366C-13.423,131.996 -13.853,127.633 -14.163,123.265C-15.685,106.992 -15.911,90.598 -14.649,74.288C-13.78,61.864 -12.026,49.416 -11.752,36.917C-11.214,24.604 -12.541,11.558 -20.275,1.469C-27.7,-8.86 -38.568,-16.882 -51.145,-19.483C-52.466,-19.783 -65.236,-22.396 -68.55,-21.167C-70.933,-22.173 -79.03,-20.49 -80.502,-20.261C-101.123,-16.846 -116.362,-1.546 -121.969,18.297C-124.298,26.021 -124.252,34.124 -124.134,42.112C-123.946,51.736 -123.355,61.341 -122.756,70.945C-122.11,80.051 -121.369,89.177 -121.618,98.313C-121.938,105.643 -122.332,112.974 -122.362,120.315C-122.464,125.785 -122.645,131.246 -122.985,136.708C-122.987,136.748 -122.969,136.783 -122.967,136.823C-126.764,138.634 -130.568,140.574 -133.589,143.567C-137.483,147.25 -143.118,154.6 -135.165,157.229C-135.855,161.358 -131.914,163.427 -128.364,163.71C-127.553,163.682 -125.867,164.127 -124.83,163.86C-122.594,166.182 -119.479,167.45 -116.648,168.896C-103.509,174.806 -89.039,177.298 -74.699,177.679C-62.746,177.986 -50.793,176.877 -39.051,174.652C-30.727,173.236 -22.483,171.005 -14.835,167.327C-14.155,166.807 -12.168,166.408 -11.538,165.578C-7.039,165.851 -1.047,163.919 -2.376,158.372C-0.437,157.761 2.149,157.344 3.069,155.294C4.417,150.264 0.255,145.374 -3.44,142.42" style="fill:rgb(68,8,41);fill-rule:nonzero;"/>
                </g>
                <g transform="matrix(1,0,0,1,562.8086,322.7991)">
                    <path d="M0,6.822C0.47,3.765 2.87,0.926 5.865,-0.016C6.648,-0.421 10.062,-0.027 8.604,1.301C5.313,2.499 2.291,4.38 -0.016,7.051C-0.01,6.973 -0.004,6.898 0,6.822M-0.234,8.729C0.697,8.89 1.31,7.759 2.043,7.322C4.358,5.404 7.354,4.142 9.985,2.686C10.935,2.031 11.119,0.657 10.622,-0.341C9.996,-1.776 8.142,-2.068 6.747,-1.861C3.901,-1.321 1.625,0.77 0.052,3.108C-0.901,4.506 -2.85,8.102 -0.234,8.729" style="fill:rgb(68,8,41);fill-rule:nonzero;"/>
                </g>
                <g transform="matrix(1,0,0,1,572.5146,335.7392)">
                    <path d="M0,8.126C1.197,8.012 2.358,7.022 2.606,5.825C2.938,4.099 3.085,1.171 0.971,0.597C-2.714,0 -3.621,7.797 0,8.126" style="fill:rgb(68,8,41);fill-rule:nonzero;"/>
                </g>
                <g transform="matrix(1,0,0,1,607.71,329.6372)">
                    <path d="M0,-6.854C2.996,-5.912 5.396,-3.073 5.866,-0.017C5.869,0.06 5.876,0.136 5.882,0.213C3.574,-2.458 0.553,-4.338 -2.737,-5.537C-4.197,-6.865 -0.784,-7.259 0,-6.854M-4.119,-4.152C-1.487,-2.695 1.508,-1.434 3.822,0.483C4.557,0.921 5.17,2.052 6.101,1.89C8.717,1.265 6.767,-2.332 5.814,-3.73C4.241,-6.068 1.964,-8.159 -0.881,-8.698C-2.277,-8.906 -4.13,-8.614 -4.757,-7.179C-5.254,-6.181 -5.067,-4.808 -4.119,-4.152" style="fill:rgb(68,8,41);fill-rule:nonzero;"/>
                </g>
                <g transform="matrix(1,0,0,1,603.8701,335.7392)">
                    <path d="M0,8.126C3.62,7.797 2.714,0 -0.971,0.597C-3.086,1.171 -2.938,4.099 -2.606,5.825C-2.357,7.022 -1.197,8.012 0,8.126" style="fill:rgb(68,8,41);fill-rule:nonzero;"/>
                </g>
                <g transform="matrix(1,0,0,1,592.3232,355.2834)">
                    <path d="M0,-2.298C-0.375,-1.572 -0.765,-0.934 -1.24,-0.248C-1.926,0.402 -2.878,0.761 -3.826,0.834L-3.825,0.834L-3.846,0.837C-3.839,0.836 -3.833,0.834 -3.826,0.834C-5.3,1.044 -6.447,0.13 -7.294,-1.001C-4.736,-0.641 -2.217,-0.908 0,-2.298M-8.725,-1.419C-7.809,0.178 -5.962,1.443 -4.075,1.49C-1.408,1.873 1.31,-0.55 1.135,-3.236C0.635,-4.171 -0.308,-3.109 -0.947,-2.881C-1.644,-2.502 -2.457,-2.479 -3.237,-2.269C-4.896,-1.865 -6.654,-1.889 -8.197,-2.715C-9.636,-3.539 -10.054,-2.043 -8.725,-1.419" style="fill:rgb(68,8,41);fill-rule:nonzero;"/>
                </g>
                <g transform="matrix(1,0,0,1,588.498,356.1202)">
                    <path d="M0,-0.003L-0.001,-0.003C-0.008,-0.003 -0.014,-0.001 -0.021,0L0,-0.003Z" style="fill:rgb(68,8,41);fill-rule:nonzero;"/>
                </g>
                <g transform="matrix(1,0,0,1,590.7197,368.4818)">
                    <path d="M0,3.693C1.447,3.938 8.596,2.628 7.318,0.425C7.023,0.047 6.435,-0.05 6.052,0.263C4.217,2.154 1.432,2.111 -1.043,2.431C-3.609,2.715 -6.274,2.087 -8.619,1.013C-9.174,0.571 -9.798,-0.245 -10.563,0.335C-13.003,3.179 -1.506,3.699 0,3.693" style="fill:rgb(68,8,41);fill-rule:nonzero;"/>
                </g>
                <g transform="matrix(1,0,0,1,572.2217,386.667)">
                    <path d="M0,5.416C-0.029,5.668 -0.029,5.929 0,6.171C-0.029,9.092 0.049,12.128 -0.396,15.02C-3.385,18.27 -6.828,21.268 -10.445,23.937C-11.161,23.366 -12.611,23.212 -13.376,23.163C-16.857,22.873 -20.319,23.966 -23.405,25.504C-26.548,27.042 -29.092,29.353 -31.441,31.887C-30.735,12.437 -30.098,-7.06 -31.007,-26.471C-30.194,-25.426 -29.333,-24.526 -28.434,-23.811C-28.425,-23.327 -28.347,-22.824 -28.366,-22.36C-28.24,-19.043 -28.057,-15.513 -28.037,-12.118C-27.825,-1.18 -28.859,10.262 -27.729,20.948C-27.593,20.958 -27.467,20.852 -27.477,20.717C-27.496,19.062 -27.554,17.399 -27.477,15.745C-27.138,6.016 -26.838,-3.704 -26.297,-13.414C-26.335,-14.391 -25.871,-19.274 -26.22,-22.495C-25.532,-22.215 -24.836,-22.031 -24.13,-22.002C-23.599,-21.992 -22.94,-22.012 -22.37,-22.186C-21.238,-17.988 -19.836,-13.868 -17.708,-10.058C-13.782,-2.853 -7.379,2.321 0,5.416" style="fill:rgb(242,171,78);fill-rule:nonzero;"/>
                </g>
                <g transform="matrix(1,0,0,1,637.1943,360.8744)">
                    <path d="M0,60.484C-4.971,53.985 -12.582,47.602 -21.287,49.585C-21.741,49.662 -22.486,49.914 -23.027,50.271C-26.674,47.36 -30.224,44.459 -33.24,40.803C-34.015,39.981 -33.908,38.811 -34.005,37.737C-34.082,36.238 -34.121,34.739 -34.198,33.25C-34.208,32.999 -34.228,32.67 -34.275,32.331C-26.538,29.555 -19.672,24.169 -15.571,17.098C-13.124,12.949 -11.683,8.375 -10.503,3.722C-10.474,3.732 -10.455,3.742 -10.436,3.742C-10.455,3.897 -10.465,4.051 -10.483,4.207C-10.677,13.085 -10.406,21.982 -10.223,30.861C-10.116,35.416 -9.371,39.922 -9.304,44.488C-8.347,46.016 -9.188,39.691 -9.071,39.062C-8.984,28.879 -8.927,18.684 -8.327,8.51C-8.424,6.972 -8.163,5.347 -8.278,3.8C-5.57,3.491 -3.501,2.049 -1.905,0C-2.959,20.319 -2.398,40.281 0,60.484" style="fill:rgb(242,171,78);fill-rule:nonzero;"/>
                </g>
                <g transform="matrix(1,0,0,1,637.3584,274.9233)">
                    <path d="M0,58.358C-0.521,58.068 -1.131,57.865 -1.827,57.758C-2.62,57.69 -3.732,57.971 -4.661,58.484C-3.878,52.546 -2.756,42.254 -4.854,38.26C-4.854,37.42 -4.971,36.761 -5.203,36.432C-6.509,35.562 -6.624,38.038 -6.712,38.84C-7.186,40.959 -7.708,43.193 -8.588,45.224C-9.274,41.607 -10.097,38.019 -10.929,34.44C-10.929,34.43 -10.929,34.402 -10.938,34.353C-10.87,33.125 -12.814,32.913 -13.018,34.15C-13.434,38.85 -14.014,44.625 -20.29,43.28C-23.975,42.593 -30.097,42.333 -30.271,37.4C-30.648,34.933 -30.755,32.41 -31.325,29.982C-31.451,29.546 -31.605,29.063 -32.021,28.831C-32.65,28.405 -33.473,28.84 -33.589,29.556C-33.656,30.059 -33.55,30.562 -33.434,31.055C-33.434,31.171 -33.443,31.278 -33.443,31.384C-33.579,33.909 -33.396,36.491 -34.092,38.937C-37.36,38.899 -40.629,39.092 -43.898,39.286C-47.95,39.276 -54.401,40.785 -57.158,37.023C-58.376,34.546 -58.338,31.635 -58.569,28.937C-58.608,28.008 -59.856,27.622 -60.437,28.318C-61.452,31.123 -61.239,34.353 -62.119,37.254C-62.458,38.164 -62.603,39.45 -63.502,39.982C-63.967,39.663 -64.131,39.083 -64.218,38.56C-64.663,35.485 -64.576,32.4 -64.614,29.296C-64.604,28.521 -65.572,28.008 -66.2,28.483C-66.49,28.686 -66.655,29.004 -66.762,29.334C-67.148,30.852 -67.419,32.39 -67.815,33.909C-68.608,36.742 -69.566,40.108 -72.322,41.665C-76.172,42.787 -80.108,43.589 -84.132,43.85C-85.515,40.998 -85.988,37.941 -86.347,34.808C-86.704,33.773 -88.261,34.053 -88.357,35.118C-88.561,37.245 -88.977,39.44 -89.122,41.607C-89.248,43.29 -89.373,45.059 -90.331,46.52C-91.462,43.58 -91.956,40.465 -92.42,37.361C-92.564,36.771 -92.526,36.026 -93.02,35.611C-93.493,35.339 -93.88,35.911 -94.016,36.307C-94.286,37.39 -94.354,38.503 -94.296,39.615C-95.351,42.67 -94.364,50.921 -94.393,52.836C-94.258,54.741 -94.045,56.636 -93.803,58.532C-95.099,57.681 -96.676,57.468 -98.097,57.962C-98.252,53.173 -98.087,48.416 -97.372,43.56C-94.538,24.276 -80.389,7.089 -62.013,0.6C-65.862,7.545 -66.916,15.291 -67.139,23.231C-64.547,19.769 -62.448,15.92 -60.939,11.857C-59.866,8.937 -59.034,5.813 -57.003,3.453C-54.962,1.103 -51.229,-0.174 -48.695,1.634C-46.936,7.428 -45.185,13.221 -43.425,19.004C-41.887,13.675 -41.906,7.912 -43.482,2.592C-34.479,6.76 -27.157,14.42 -23.404,23.598C-22.892,16.471 -27.467,10.097 -31.818,4.43C-17.369,9.42 -5.957,20.823 -1.866,35.552C0.185,42.951 0.396,50.65 0,58.358" style="fill:rgb(242,171,78);fill-rule:nonzero;"/>
                </g>
                <g transform="matrix(1,0,0,1,624.7568,414.9088)">
                    <path d="M0,0.183C-0.687,0.424 -1.45,1.518 -2.234,3.027C-4.4,1.14 -6.683,-0.61 -8.917,-2.428C-8.685,-2.505 -8.453,-2.564 -8.221,-2.574C-6.122,-2.844 -4.043,-2.718 -1.943,-2.255C-1.46,-2.119 -0.996,-1.964 -0.542,-1.79C-0.251,-1.229 -0.067,-0.629 -0.01,0.019C-0.01,0.077 0,0.124 0,0.183" style="fill:rgb(149,156,219);fill-rule:nonzero;"/>
                </g>
            </g>
            <g transform="matrix(1,0,0,1,547.6768,340.8515)">
                <path d="M0,14.71C0.004,14.715 0.008,14.718 0.011,14.721C-1.327,8.49 -2.69,2.241 -3.654,-4.061C-4.088,-4.495 -4.485,-5.005 -4.957,-5.246C-6.876,-7.102 -9.382,-5.181 -10.01,-3.07C-11.878,3.004 -8.667,10.815 -5.927,16.262C-4.538,18.616 -2.405,20.523 0.019,21.621C0.581,21.812 1.123,21.755 1.662,21.695C1.245,20.056 0.852,18.412 0.461,16.773C0.451,16.771 0.442,16.773 0.435,16.769C-0.342,16.333 -0.987,15.794 -1.534,15.18C-6.236,11.897 -8.663,5.53 -7.354,-0.052C-7.663,-0.491 -8.025,-0.894 -8.483,-1.228C-8.813,-1.497 -9.518,-1.816 -9.271,-2.332C-8.36,-3.128 -6.413,-1.472 -5.754,-0.784C-4.337,0.926 -3.602,3.215 -3.438,5.408C-3.796,7.417 -3.867,9.51 -2.594,11.236C-1.798,12.404 -0.971,13.7 0,14.71" style="fill:rgb(255,226,204);fill-rule:nonzero;"/>
            </g>
            <g transform="matrix(1,0,0,1,540.8086,354.0705)">
                <path d="M0,-12.466C-0.84,-8.16 0.524,-2.805 3.999,0C2.731,-2.419 2.219,-5.374 1.36,-7.898C0.996,-9.394 0.708,-11.064 0,-12.466" style="fill:rgb(255,185,161);fill-rule:nonzero;"/>
            </g>
            <g transform="matrix(1,0,0,1,547.1729,437.5201)">
                <path d="M0,15.561C0.357,17.379 0.647,19.198 0.899,21.035C-1.209,20.32 -3.298,19.536 -5.368,18.665C-5.281,18.133 -5.193,17.612 -5.106,17.08C-4.053,10.3 -4.053,3.279 -5.803,-3.385C-6.006,-4.13 -6.277,-4.971 -6.287,-5.474C-2.68,0.938 -1.296,8.327 0,15.561" style="fill:rgb(149,156,219);fill-rule:nonzero;"/>
            </g>
            <g transform="matrix(1,0,0,1,628.5967,439.2592)">
                <path d="M0,15.273C0.812,8.512 3.172,2.071 5.706,-4.235C5.667,-4.07 5.639,-3.906 5.609,-3.742C4.333,3.29 4.545,10.504 5.551,17.585C3.559,18.291 1.547,18.938 -0.503,19.508C-0.184,17.961 -0.116,15.776 0,15.273" style="fill:rgb(149,156,219);fill-rule:nonzero;"/>
            </g>
            <g transform="matrix(1,0,0,1,559.6201,416.0014)">
                <path d="M0,-3.85C-0.59,-3.444 -1.189,-3.047 -1.78,-2.651C-3.057,-1.819 -4.353,-1.036 -5.648,-0.233C-5.899,-0.126 -6.19,0.077 -6.422,0.319C-6.538,0.154 -6.635,-0.01 -6.761,-0.165C-6.915,-0.368 -7.187,-0.639 -7.477,-0.784C-7.477,-1.055 -7.437,-1.335 -7.38,-1.596C-7.234,-2.225 -6.925,-2.795 -6.548,-3.318C-4.488,-3.947 -2.302,-4.169 0,-3.85" style="fill:rgb(149,156,219);fill-rule:nonzero;"/>
            </g>
        </g>
    </g>
</svg>
