<?xml version="1.0" encoding="UTF-8" standalone="no"?>
<!DOCTYPE svg PUBLIC "-//W3C//DTD SVG 1.1//EN" "http://www.w3.org/Graphics/SVG/1.1/DTD/svg11.dtd">
<svg width="100%" height="100%" viewBox="0 0 574 857" version="1.1" xmlns="http://www.w3.org/2000/svg" xmlns:xlink="http://www.w3.org/1999/xlink" xml:space="preserve" xmlns:serif="http://www.serif.com/" style="fill-rule:evenodd;clip-rule:evenodd;stroke-linejoin:round;stroke-miterlimit:2;">
    <g transform="matrix(1,0,0,1,-381.989613,-177.906329)">
        <g transform="matrix(4.166667,0,0,4.166667,0,0)">
            <g>
                <g transform="matrix(1,0,0,1,109.7144,140.2078)">
                    <path d="M0,-6.93C-0.068,-6.995 -0.133,-7.063 -0.201,-7.127C-0.428,-4.536 0.42,-1.87 1.99,0.197C2.202,-2.107 2.757,-4.737 0,-6.93" style="fill:rgb(247,140,116);fill-rule:nonzero;"/>
                </g>
                <g transform="matrix(1,0,0,1,146.1538,140.4212)">
                    <path d="M0,-17.407C-0.152,-16.373 0.052,-15.23 -0.498,-14.293C-1.252,-13.079 -2.725,-12.044 -4.197,-12.608C-6.711,-13.544 -7.263,-17.551 -6.29,-19.779C-5.349,-22.151 -1.951,-23.385 -0.15,-21.245C0.65,-20.149 0.109,-18.644 0,-17.407M-11.656,-32.704C-13.915,-33.635 -8.774,-38.533 -7.636,-39.172C-5.931,-40.403 -3.672,-41.697 -1.554,-40.773C-0.039,-40.015 0.786,-37.911 -0.171,-36.425C-1.041,-35.195 -2.57,-34.712 -3.934,-34.238C-6.113,-33.444 -8.52,-33.342 -10.688,-32.602C-11.01,-32.469 -11.391,-32.451 -11.656,-32.704M7.841,13.669C11.166,14.127 14.401,13.938 17.696,13.661C20.778,13.067 23.68,12.31 26.43,10.834C27.329,10.391 28.205,9.892 29.049,9.349C28.114,8.757 27.545,8.095 28.425,7.403C30.003,6.913 31.469,8.55 32.385,9.62C32.548,9.849 32.798,9.992 32.891,10.266C33.048,10.744 32.577,11.213 32.12,11.044C31.95,10.879 31.609,10.688 31.197,10.479C31.117,10.627 31.012,10.76 30.862,10.853C29.514,11.597 27.868,12.245 26.529,12.866C21.593,14.741 16.212,15.846 10.922,15.613C9.431,15.518 7.855,15.502 6.449,14.993C5.292,13.937 6.654,12.772 7.841,13.669M7.588,-1.153C8.177,-1.375 8.788,-1.032 9.378,-0.945C11.707,-0.487 14.136,-0.328 16.492,-0.605C18.205,-0.798 19.609,-1.587 21.237,-1.799C21.781,-1.711 22.066,-1.003 21.736,-0.566C21.739,-0.567 21.741,-0.568 21.743,-0.57C21.659,-0.455 21.565,-0.363 21.454,-0.292C20.262,2.429 17.658,4.449 14.63,4.417C11.756,4.489 9.322,2.184 7.7,0.053C7.265,-0.193 7.075,-0.892 7.588,-1.153M29.705,-21.244C31.504,-23.384 34.903,-22.151 35.843,-19.779C36.817,-17.552 36.265,-13.544 33.751,-12.608C32.279,-12.044 30.807,-13.079 30.052,-14.293C29.502,-15.23 29.706,-16.372 29.555,-17.407C29.445,-18.644 28.904,-20.149 29.705,-21.244M31.107,-40.773C33.225,-41.697 35.484,-40.403 37.189,-39.172C38.328,-38.533 43.468,-33.635 41.209,-32.704C40.944,-32.451 40.563,-32.469 40.242,-32.602C38.074,-33.342 35.667,-33.444 33.487,-34.238C32.124,-34.712 30.595,-35.195 29.724,-36.425C28.768,-37.911 29.593,-40.015 31.107,-40.773M14.748,37.305C14.844,37.318 14.931,37.34 15.012,37.368C15.663,37.322 16.363,37.279 16.878,37.295C17.618,37.287 18.357,37.236 19.096,37.176C19.284,37.135 19.472,37.096 19.658,37.051C30.809,35.075 40.842,28.227 47.464,19.237C52.037,12.422 54.137,4.437 56.545,-3.304C57.18,-4.923 57.445,-6.93 58.661,-8.205C59.819,-8.357 59.172,-6.26 59.118,-5.621C58.366,-2.459 57.581,0.773 56.652,3.973C57.607,2.941 58.786,2.081 60.103,1.615C60.813,0.48 60.829,-1.034 60.99,-2.351C61.319,-4.174 62.024,-5.899 63.098,-7.41C63.789,-8.252 65.034,-11.319 66.362,-10.364C66.6,-10.122 66.646,-9.745 66.479,-9.453C66.405,-9.365 66.327,-9.278 66.251,-9.191C66.916,-5.895 65.274,-3.013 63.123,-0.638C63.118,-0.613 63.119,-0.589 63.113,-0.565C62.853,1.19 61.915,2.947 60.201,3.636C60.03,3.709 59.841,3.771 59.652,3.797C58.552,4.584 57.412,5.303 56.313,6.081C56.218,6.14 56.105,6.162 55.996,6.149C55.604,7.395 55.183,8.63 54.73,9.851C60.364,10.35 64.308,7.135 66.728,2.093C71.08,-5.614 72.136,-23.8 60.135,-10.487C58.878,-8.999 57.843,-9.99 58.74,-11.553C58.776,-11.622 58.82,-11.687 58.858,-11.756C58.813,-11.831 58.762,-11.9 58.732,-11.998C56.375,-19.088 55.188,-26.625 56.1,-34.083C54.857,-36.97 53.32,-40.207 53.635,-43.418C53.066,-43.263 52.491,-43.136 52.123,-42.937C49.27,-41.871 46.253,-41.344 43.207,-41.384C41.228,-41.577 34.903,-41.221 35.213,-44.18C35.704,-45.277 37.106,-45.567 38.024,-46.231C40.553,-47.757 43.035,-49.47 45.173,-51.476C41.958,-49.948 38.58,-48.799 35.058,-48.252C33.709,-48.135 32.13,-47.436 30.876,-48.146C30.366,-48.558 30.37,-49.31 30.804,-49.775C32.221,-50.881 33.77,-51.712 35.145,-52.843C35.989,-53.411 36.765,-54.077 37.514,-54.775C34.741,-53.713 31.737,-53.148 28.842,-52.845C26.709,-51.761 25.059,-49.879 22.776,-49.022C18.804,-47.325 14.389,-47.097 10.124,-47.187C9.165,-47.162 8.069,-47.748 8.148,-48.838C8.335,-50.416 10.008,-51.271 11.045,-52.302C11.731,-52.891 12.383,-53.517 13.021,-54.157C10.194,-53.36 7.207,-52.968 4.405,-52.559C0.549,-48.32 -3.409,-43.973 -8.681,-41.453C-11.834,-39.89 -15.28,-39.069 -18.621,-38.016C-19.687,-37.587 -21.269,-38.121 -20.975,-39.481C-20.646,-40.757 -19.955,-41.923 -19.525,-43.171C-21.723,-40.741 -24.294,-38.707 -26.959,-36.818C-27.148,-36.693 -27.358,-36.521 -27.578,-36.351C-27.554,-36.221 -27.533,-36.092 -27.513,-35.968C-27.011,-32.475 -26.856,-28.919 -27.102,-25.397C-27.314,-21.326 -28.202,-17.346 -28.896,-13.342C-29.198,-12.453 -28.943,-10.645 -29.767,-10.088C-29.498,-9.249 -29.627,-8.604 -30.403,-8.374C-31.264,-8.313 -31.726,-9.284 -32.132,-9.885C-39.332,-20.36 -42.963,-12.821 -40.142,-3.881C-38.381,3.044 -33.671,12.552 -25.28,10.952C-25.842,9.52 -26.375,8.076 -26.897,6.63C-28.167,6.424 -29.182,5.601 -30.294,5.013C-30.32,4.996 -30.346,4.979 -30.372,4.962C-30.779,4.99 -31.21,4.929 -31.55,4.843C-34.102,4.004 -34.547,2.578 -34.508,0.9C-36.404,-1.575 -37.379,-4.72 -37.136,-7.827C-37.234,-7.925 -37.339,-8.015 -37.433,-8.118C-38.039,-8.75 -37.179,-9.785 -36.447,-9.289C-33.646,-7.403 -30.731,-3.816 -32.928,-0.44C-33.81,1.635 -31.703,3.114 -29.854,3.306C-29.833,3.312 -29.812,3.324 -29.79,3.331C-29.112,3.378 -28.339,3.789 -27.743,4.219C-28.95,0.711 -30.398,-2.841 -30.598,-6.544C-30.541,-7.048 -30.042,-7.496 -29.537,-7.279C-28.171,-6.27 -28.092,-3.984 -27.444,-2.477C-24.1,7.472 -21.154,18.554 -13.003,25.687C-8.378,29.579 -2.944,32.81 2.715,34.857C6.648,36.28 10.628,36.94 14.748,37.305" style="fill:rgb(255,195,161);fill-rule:nonzero;"/>
                </g>
                <g transform="matrix(-0.881629,-0.471943,-0.471943,0.881629,207.736899,137.694868)">
                    <path d="M-0.887,-7.122C-0.584,-5.815 -0.288,-4.501 -0.304,-3.148C-0.343,-2.299 -0.468,-1.564 -0.887,-0.842C-1.14,-0.45 -1.486,-0.129 -1.79,0.22C-2.148,-2.321 -2.374,-5.019 -0.887,-7.122" style="fill:rgb(247,140,116);fill-rule:nonzero;"/>
                </g>
                <g transform="matrix(1,0,0,1,142.4429,186.091)">
                    <path d="M0,13.681C1.728,14.743 3.138,16.411 5.069,17.127C15.464,21.863 28.212,19.954 37.239,13.194C36.976,10.083 36.68,6.977 36.351,3.824C36.23,2.446 36.147,1.07 36.174,-0.313C36.178,-0.527 36.184,-0.776 36.228,-1.011C35.211,-1.688 35.954,-3.652 35.968,-4.694C36.171,-5.856 36.414,-7.027 36.717,-8.182C30.556,-2.317 22.928,2.565 14.134,1.91C9.998,1.71 6.408,-0.605 3.564,-3.474C2.468,-4.422 1.39,-5.393 0.454,-6.484C0.515,-6.014 0.57,-5.545 0.62,-5.082C0.571,-4.158 1.122,-1.915 0.451,-1.067C0.622,2.603 0.284,6.297 0.163,9.972C0.108,11.208 0.054,12.444 0,13.681" style="fill:rgb(255,195,161);fill-rule:nonzero;"/>
                </g>
                <g transform="matrix(1,0,0,1,160.6104,140.6516)">
                    <path d="M0,3.323C2.363,3.373 4.418,1.751 5.734,-0.05C2.422,1.097 -1.162,1.413 -4.588,0.604C-3.455,2.025 -1.87,3.262 0,3.323" style="fill:rgb(247,140,116);fill-rule:nonzero;"/>
                </g>
                <g transform="matrix(1,0,0,1,143.6685,105.5922)">
                    <path d="M0,-4.246C-2.974,-4.817 -6.185,-1.593 -7.85,0.571C-6.264,0.053 3.801,-1.564 0,-4.246" style="fill:rgb(119,95,95);fill-rule:nonzero;"/>
                </g>
                <g transform="matrix(1,0,0,1,186.043,100.7756)">
                    <path d="M0,5.388C-1.666,3.223 -4.876,0 -7.851,0.571C-11.65,3.252 -1.586,4.869 0,5.388" style="fill:rgb(119,95,95);fill-rule:nonzero;"/>
                </g>
                <g transform="matrix(1,0,0,1,215.9258,69.1076)">
                    <path d="M0,35.262C-0.59,38.009 -1.161,40.765 -1.789,43.512C-2.476,46.568 -3.23,49.615 -4.12,52.622C-4.265,53.116 -4.517,53.744 -4.478,54.257C-4.816,54.334 -5.174,54.431 -5.542,54.547C-7.041,55.282 -8.424,56.336 -9.536,57.603C-10.174,55.302 -10.822,52.999 -11.296,50.659C-12.253,46.075 -12.398,41.162 -11.586,36.529C-12.573,33.473 -14.478,30.562 -14.198,27.216C-14.188,26.732 -14.149,26.055 -14.633,25.794C-15.532,24.981 -17.534,26.432 -18.695,26.606C-22.95,27.999 -27.68,28.366 -32.119,27.37C-28.153,25.349 -23.985,23.095 -21.345,19.401C-20.716,18.463 -21.567,17.099 -22.67,17.679C-23.879,19.12 -25.745,19.653 -27.457,20.358C-30.165,21.258 -33.038,21.896 -35.929,21.877C-33.966,20.61 -32.003,19.314 -30.378,17.602C-29.972,17.177 -27.931,15.049 -27.206,13.588C-26.026,12.544 -25.146,11.335 -26.287,10.803C-26.49,10.793 -26.664,10.861 -26.838,10.958C-28.202,11.973 -29.479,13.056 -31.036,13.811C-34.043,15.339 -37.573,15.619 -40.784,16.499C-45.775,20.387 -52.235,21.935 -58.561,21.809C-56.617,20.078 -54.74,18.26 -53.058,16.267C-52.99,16.18 -52.941,16.074 -52.912,15.968C-52.757,15.813 -52.603,15.648 -52.467,15.484C-51.404,14.923 -50.388,14.256 -49.469,13.443C-48.792,12.863 -48.173,12.196 -47.729,11.422C-47.651,11.296 -47.651,11.113 -47.777,10.987C-47.893,10.871 -48.067,10.851 -48.202,10.938C-49.962,11.77 -51.616,12.853 -53.435,13.598C-57.071,15.049 -60.959,15.61 -64.77,16.442C-65.592,16.461 -66.182,16.983 -66.53,17.689C-71.811,24.846 -80.34,28.782 -88.726,31.171C-87.807,28.579 -86.646,26.074 -85.737,23.482C-85.534,22.941 -85.167,22.293 -85.583,21.751C-86.124,21.064 -87.023,21.519 -87.381,22.158C-88.31,23.502 -89.238,24.817 -90.351,26.035C-92.285,28.173 -94.548,30.436 -96.917,32.244C-97.314,32.69 -98.194,33.096 -98.803,33.598C-99.248,33.792 -99.567,34.353 -99.49,34.875C-98.465,41.404 -98.658,48.019 -99.925,54.528C-100.138,56.056 -100.457,57.555 -100.747,59.073C-101.801,57.622 -103.31,56.123 -104.539,55.214C-104.916,54.934 -105.254,54.711 -105.563,54.556C-105.767,54.054 -106.105,53.541 -106.183,53.106C-106.927,50.659 -107.565,48.009 -108.098,45.485C-108.668,42.873 -108.949,40.214 -109.326,37.574C-109.558,35.736 -110.931,35.078 -112.401,36.258C-111.947,33.27 -111.676,30.242 -111.105,27.264C-109.432,21.751 -106.879,16.393 -104.084,11.345C-96.173,-2.07 -84.354,-14.797 -68.435,-17.805C-63.203,-18.946 -57.806,-19.043 -52.506,-18.346C-52.264,-18.231 -52.013,-18.192 -51.752,-18.259C-50.765,-18.114 -49.74,-17.728 -48.821,-18.163C-47.545,-19.604 -49.547,-20.301 -52.109,-20.658C-53.251,-21.693 -54.44,-22.67 -55.495,-23.811C-43.589,-21.838 -30.939,-17.708 -22.418,-8.704C-19.681,-5.503 -17.341,-2.031 -15.609,1.896C-15.368,2.486 -15.02,3.25 -14.304,3.308C-14.198,3.308 -14.11,3.288 -14.014,3.279C-13.646,3.463 -13.23,3.588 -12.863,3.772C0.02,8.762 2.873,22.979 0,35.262" style="fill:rgb(119,95,95);fill-rule:nonzero;"/>
                </g>
                <g transform="matrix(1,0,0,1,180.2104,191.4258)">
                    <path d="M0,-16.689C-3.988,-14.331 -8.277,-12.562 -12.583,-11.884C-14.485,-11.405 -17.237,-11.291 -18.915,-11.39C-19.115,-11.286 -19.357,-11.234 -19.642,-11.27C-26.056,-11.828 -32.54,-13.644 -38.412,-16.604C-38.347,-16.431 -38.292,-16.253 -38.234,-16.076C-38.056,-15.858 -37.899,-15.618 -37.793,-15.423C-35.755,-12.69 -34.542,-9.268 -31.658,-7.271C-21.976,0 -10.179,-6.573 -2.589,-13.738C-1.788,-14.456 -1.029,-15.218 -0.274,-15.984C-0.187,-16.221 -0.097,-16.456 0,-16.689" style="fill:rgb(247,140,116);fill-rule:nonzero;"/>
                </g>
                <g transform="matrix(1,0,0,1,198.1338,192.9914)">
                    <path d="M0,37.803C1.006,35.757 1.991,33.459 1.554,31.138C-0.876,23.664 -5.601,17.052 -10.181,10.79C-11.789,8.705 -13.188,6.46 -14.736,4.379C-15.368,2.239 -8.405,9.233 -8.236,9.755C-6.18,12.408 -4.201,15.16 -2.384,18.01C-2.198,17.841 -2.016,17.679 -1.873,17.528C-0.04,15.563 1.722,13.465 2.963,11.125C4.518,8.613 2.513,5.898 1.12,3.908C-1.749,-0.232 -5.122,-3.946 -8.643,-7.489C-11.15,-10.095 -14.044,-12.277 -16.703,-14.715C-17.021,-13.609 -17.296,-12.497 -17.505,-11.421C-17.794,-10.66 -17.683,-9.16 -18.141,-8.332C-17.322,-7.2 -17.219,-3.728 -17.028,-2.959C-16.005,6.199 -15.606,15.339 -15.143,24.521C-14.876,31.57 -14.779,38.622 -14.848,45.676C-15.021,46.537 -14.736,50.283 -15.128,52.518C-13.001,52.395 -10.87,52.239 -8.742,52.035C-8.628,51.832 -8.498,51.64 -8.379,51.478C-7.613,50.348 -6.966,49.278 -6.229,48.15C-4.056,44.763 -1.859,41.375 0,37.803" style="fill:rgb(141,184,219);fill-rule:nonzero;"/>
                </g>
                <g transform="matrix(1,0,0,1,227.1255,208.0375)">
                    <path d="M0,23.086C-0.648,23.56 -1.257,24.353 -1.867,24.682C-9.807,30.93 -19.179,34.131 -28.947,35.823C-31.055,36.191 -33.173,36.491 -35.301,36.732C-35.175,36.52 -35.04,36.326 -34.895,36.171C-32.748,33.028 -30.562,29.885 -28.531,26.655C-27.138,24.315 -25.629,21.684 -25.146,18.947C-24.914,17.66 -24.914,16.336 -25.262,15.01C-26.209,12.428 -27.37,9.942 -28.686,7.525C-29.188,6.596 -29.711,5.668 -30.262,4.759C-28.637,3.172 -26.954,1.635 -25.591,-0.184C-23.018,-3.491 -22.051,-7.118 -24.75,-10.686C-25.397,-11.702 -26.084,-12.679 -26.79,-13.646C-22.834,-10.338 -18.879,-7.012 -15.387,-3.201C-15.117,-2.92 -14.855,-2.63 -14.604,-2.34C-10.571,2.234 -7.157,7.583 -4.188,12.931C-2.621,16.171 -1.093,19.353 -0.087,22.835C-0.068,22.922 -0.029,23.009 0,23.086" style="fill:rgb(141,184,219);fill-rule:nonzero;"/>
                </g>
                <g transform="matrix(1,0,0,1,131.1362,192.2444)">
                    <path d="M0,51.8C-0.193,51.781 -0.387,51.761 -0.58,51.742C-2.592,51.481 -4.613,51.181 -6.634,50.823C-13.462,49.653 -20.291,47.893 -26.625,44.972C-30.62,43.222 -34.053,40.562 -37.37,37.767L-37.37,37.758C-37.332,37.138 -37.273,36.519 -37.158,35.881C-35.581,27.109 -29.111,18.502 -21.596,11.074C-17.447,6.964 -12.979,3.211 -8.849,0C-9.923,1.363 -10.967,2.757 -11.944,4.188C-16.528,9.865 -10.513,16.084 -5.793,19.323C-6.334,20.097 -6.857,20.881 -7.35,21.683C-8.666,23.83 -9.768,26.084 -10.455,28.453C-10.464,28.463 -10.464,28.473 -10.464,28.483C-10.987,30.242 -11.277,32.071 -11.267,33.956C-10.155,40.91 -4.807,46.645 0,51.8" style="fill:rgb(141,184,219);fill-rule:nonzero;"/>
                </g>
                <g transform="matrix(1,0,0,1,140.9893,230.9564)">
                    <path d="M0,-39.933C0.244,-41.86 0.249,-43.898 0.733,-45.789C0.547,-45.93 0.413,-46.14 0.372,-46.385C0.065,-48.859 -0.254,-51.34 -0.861,-53.718C-2.006,-52.811 -3.17,-51.833 -4.211,-50.902C-9.867,-45.614 -15.492,-39.972 -19.81,-33.543C-23.531,-29.535 -19.188,-25.159 -16.128,-22.395C-15.739,-21.943 -14.955,-21.535 -14.457,-21.04C-13.22,-22.684 -11.921,-24.264 -10.659,-25.781C-8.46,-28.354 -6.219,-30.898 -3.764,-33.235C-3.509,-33.445 -3.275,-33.779 -2.922,-33.775C-2.583,-33.698 -2.682,-33.332 -2.839,-33.121C-4.994,-29.998 -7.28,-26.958 -9.57,-23.933C-23.671,-5.494 -20.68,-3.493 -7.491,13.297C-5.517,13.473 -3.542,13.635 -1.565,13.785C-1.729,11.945 -1.652,10.072 -1.556,8.367C-1.521,7.952 -1.494,7.537 -1.468,7.121C-1.602,2.666 -1.612,-1.797 -1.56,-6.253C-1.419,-17.49 -0.862,-28.731 0,-39.933" style="fill:rgb(141,184,219);fill-rule:nonzero;"/>
                </g>
                <g transform="matrix(1,0,0,1,225.2554,57.9367)">
                    <path d="M0,174.786C-9.639,182.379 -21.399,185.468 -33.433,186.838C-33.301,186.621 -33.167,186.426 -33.026,186.277C-30.876,183.125 -28.691,179.989 -26.664,176.756C-24.597,173.317 -22.306,169.237 -23.392,165.108C-24.703,161.532 -26.425,158.124 -28.391,154.855C-26.771,153.27 -25.082,151.735 -23.72,149.915C-21.152,146.608 -20.18,142.983 -22.882,139.413C-23.528,138.401 -24.214,137.417 -24.921,136.451C-20.662,140.008 -16.422,143.586 -12.73,147.759C-8.698,152.333 -5.288,157.687 -2.313,163.029C-0.752,166.275 0.774,169.451 1.779,172.938C1.799,173.027 1.837,173.105 1.871,173.186C1.222,173.661 0.61,174.455 0,174.786M-35.864,187.09C-37.991,187.293 -40.123,187.45 -42.25,187.573C-41.858,185.338 -42.143,181.592 -41.969,180.73C-41.9,173.677 -41.998,166.624 -42.264,159.576C-42.728,150.394 -43.127,141.253 -44.149,132.096C-44.341,131.327 -44.443,127.854 -45.262,126.723C-44.805,125.895 -44.916,124.395 -44.627,123.634C-44.418,122.557 -44.143,121.446 -43.824,120.34C-41.166,122.778 -38.272,124.96 -35.764,127.565C-32.244,131.109 -28.87,134.823 -26.001,138.963C-24.609,140.953 -22.604,143.667 -24.158,146.18C-25.4,148.519 -27.161,150.618 -28.994,152.582C-29.137,152.734 -29.32,152.896 -29.506,153.065C-31.323,150.215 -33.302,147.463 -35.358,144.809C-35.527,144.288 -42.49,137.294 -41.858,139.434C-40.31,141.515 -38.91,143.76 -37.303,145.845C-32.722,152.106 -27.998,158.719 -25.567,166.193C-25.13,168.514 -26.116,170.812 -27.122,172.858C-28.98,176.43 -31.178,179.818 -33.351,183.205C-34.088,184.333 -34.735,185.403 -35.501,186.533C-35.619,186.695 -35.75,186.887 -35.864,187.09M-44.198,177.03C-44.219,179.996 -44.251,182.96 -44.387,185.924C-44.383,186.491 -44.445,187.101 -44.399,187.686C-47.117,187.817 -49.823,187.904 -52.492,187.979C-62.879,188.066 -73.307,187.699 -83.692,186.965C-83.656,186.769 -83.641,186.571 -83.672,186.381C-83.649,185.934 -83.638,185.49 -83.628,185.044C-83.549,184.619 -83.551,184.141 -83.586,183.771C-83.658,180.837 -83.654,177.902 -83.658,174.968C-83.744,164.64 -83.356,154.321 -82.908,144.006C-82.609,144.328 -82.318,144.595 -82.128,144.742C-77.309,148.773 -70.813,150.129 -64.662,150.217C-59.506,150.21 -54.499,148.622 -49.846,146.502C-49.173,146.161 -46.962,145.052 -45.373,143.856C-45.149,146.717 -44.95,149.588 -44.795,152.519C-44.276,160.678 -44.129,168.857 -44.198,177.03M-85.734,180.141C-85.76,180.557 -85.787,180.972 -85.822,181.387C-85.918,183.092 -85.995,184.965 -85.831,186.805C-87.808,186.655 -89.783,186.493 -91.757,186.317C-104.946,169.527 -107.937,167.526 -93.836,149.086C-91.546,146.062 -89.26,143.021 -87.105,139.898C-86.948,139.687 -86.85,139.322 -87.188,139.244C-87.541,139.241 -87.775,139.575 -88.03,139.785C-90.485,142.122 -92.726,144.665 -94.925,147.239C-96.188,148.756 -97.486,150.336 -98.723,151.98C-99.221,151.485 -100.005,151.077 -100.395,150.625C-103.455,147.861 -107.797,143.485 -104.076,139.476C-99.758,133.048 -94.133,127.406 -88.477,122.118C-87.437,121.187 -86.272,120.208 -85.127,119.302C-84.521,121.68 -84.201,124.161 -83.894,126.635C-83.854,126.88 -83.719,127.09 -83.533,127.231C-84.018,129.121 -84.022,131.16 -84.266,133.087C-85.128,144.289 -85.685,155.53 -85.826,166.766C-85.878,171.223 -85.868,175.685 -85.734,180.141M-94.704,186.054C-103.491,184.903 -112.537,183.066 -120.741,179.283C-124.737,177.531 -128.177,174.871 -131.494,172.073C-131.493,172.071 -131.492,172.069 -131.492,172.067C-131.449,171.446 -131.392,170.827 -131.277,170.184C-128.829,156.568 -114.578,143.336 -102.966,134.309C-104.044,135.673 -105.087,137.062 -106.067,138.498C-110.648,144.177 -104.628,150.394 -99.917,153.629C-102.997,158.024 -105.422,162.874 -105.389,168.267C-104.27,175.22 -98.929,180.955 -94.122,186.106C-94.316,186.088 -94.51,186.073 -94.704,186.054M-47.634,119.751C-55.224,126.916 -67.021,133.489 -76.703,126.218C-79.586,124.221 -80.8,120.799 -82.838,118.066C-82.944,117.871 -83.101,117.631 -83.279,117.413C-83.337,117.236 -83.392,117.058 -83.457,116.885C-77.584,119.846 -71.101,121.661 -64.687,122.219C-64.402,122.255 -64.16,122.203 -63.96,122.099C-62.282,122.199 -59.53,122.084 -57.627,121.605C-53.322,120.928 -49.033,119.158 -45.045,116.8C-45.142,117.033 -45.231,117.268 -45.319,117.505C-46.074,118.271 -46.833,119.033 -47.634,119.751M-82.362,127.087C-81.691,126.239 -82.241,123.996 -82.193,123.072C-82.242,122.61 -82.297,122.14 -82.359,121.67C-81.423,122.762 -80.345,123.732 -79.249,124.68C-76.404,127.55 -72.814,129.864 -68.679,130.064C-59.885,130.719 -52.257,125.838 -46.095,119.972C-46.399,121.128 -46.642,122.298 -46.845,123.461C-46.859,124.502 -47.601,126.467 -46.584,127.143C-46.629,127.379 -46.635,127.627 -46.639,127.842C-46.666,129.224 -46.583,130.6 -46.461,131.978C-46.133,135.131 -45.837,138.238 -45.574,141.348C-54.6,148.108 -67.348,150.017 -77.744,145.282C-79.674,144.566 -81.084,142.897 -82.813,141.835C-82.758,140.598 -82.705,139.363 -82.649,138.126C-82.528,134.452 -82.191,130.758 -82.362,127.087M-16.34,79.434C-16.367,78.6 -16.132,77.893 -15.765,77.127C-15.141,75.927 -14.26,74.907 -13.375,73.897C-13.057,76.453 -14.529,78.725 -16.045,80.797C-16.147,80.347 -16.301,79.9 -16.34,79.434M-113.551,82.468C-115.121,80.401 -115.969,77.735 -115.742,75.144C-115.674,75.208 -115.609,75.276 -115.541,75.341C-112.784,77.534 -113.339,80.164 -113.551,82.468M-92.105,108.171C-100.256,101.038 -103.201,89.957 -106.545,80.008C-107.193,78.5 -107.273,76.215 -108.638,75.206C-109.144,74.989 -109.642,75.436 -109.699,75.94C-109.5,79.643 -108.051,83.196 -106.844,86.703C-107.441,86.273 -108.214,85.862 -108.892,85.816C-108.914,85.809 -108.934,85.796 -108.956,85.79C-110.805,85.599 -112.911,84.12 -112.029,82.045C-109.833,78.668 -112.748,75.081 -115.548,73.195C-116.281,72.699 -117.141,73.734 -116.534,74.367C-116.44,74.469 -116.336,74.56 -116.237,74.658C-116.481,77.764 -115.506,80.909 -113.609,83.384C-113.649,85.062 -113.203,86.489 -110.652,87.328C-110.312,87.413 -109.88,87.474 -109.473,87.446C-109.448,87.464 -109.422,87.481 -109.396,87.497C-108.283,88.085 -107.268,88.909 -105.999,89.115C-105.477,90.56 -104.944,92.004 -104.382,93.437C-112.773,95.036 -117.483,85.528 -119.243,78.603C-122.065,69.663 -118.434,62.124 -111.234,72.599C-110.827,73.2 -110.366,74.171 -109.505,74.11C-108.729,73.88 -108.6,73.235 -108.869,72.396C-108.044,71.839 -108.3,70.032 -107.997,69.143C-107.304,65.138 -106.416,61.158 -106.203,57.088C-105.958,53.565 -106.112,50.009 -106.614,46.516C-106.634,46.393 -106.656,46.263 -106.68,46.134C-106.459,45.963 -106.25,45.791 -106.061,45.666C-103.396,43.778 -100.825,41.743 -98.626,39.313C-99.057,40.562 -99.748,41.727 -100.076,43.003C-100.37,44.364 -98.789,44.898 -97.722,44.468C-94.382,43.416 -90.936,42.594 -87.783,41.031C-82.511,38.512 -78.552,34.164 -74.696,29.925C-71.895,29.516 -68.907,29.124 -66.081,28.328C-66.718,28.968 -67.37,29.594 -68.056,30.182C-69.094,31.214 -70.766,32.069 -70.954,33.647C-71.033,34.737 -69.937,35.322 -68.978,35.298C-64.712,35.388 -60.297,35.16 -56.326,33.462C-54.043,32.605 -52.392,30.723 -50.26,29.639C-47.365,29.336 -44.361,28.771 -41.587,27.709C-42.337,28.407 -43.112,29.073 -43.957,29.642C-45.332,30.772 -46.88,31.603 -48.297,32.71C-48.731,33.175 -48.735,33.927 -48.226,34.338C-46.971,35.048 -45.392,34.35 -44.044,34.233C-40.521,33.685 -37.144,32.536 -33.928,31.009C-36.067,33.015 -38.548,34.727 -41.078,36.253C-41.996,36.918 -43.397,37.208 -43.888,38.305C-44.198,41.263 -37.874,40.907 -35.895,41.1C-32.848,41.14 -29.832,40.613 -26.979,39.547C-26.611,39.348 -26.036,39.222 -25.467,39.067C-25.781,42.278 -24.245,45.515 -23.001,48.402C-23.914,55.859 -22.726,63.396 -20.369,70.486C-20.34,70.585 -20.289,70.654 -20.243,70.729C-20.281,70.798 -20.326,70.863 -20.361,70.932C-21.259,72.494 -20.223,73.486 -18.967,71.998C-6.965,58.684 -8.021,76.87 -12.374,84.578C-14.793,89.619 -18.737,92.834 -24.371,92.335C-23.918,91.115 -23.498,89.88 -23.106,88.634C-22.997,88.646 -22.884,88.624 -22.788,88.565C-21.69,87.787 -20.55,87.068 -19.449,86.282C-19.261,86.256 -19.071,86.194 -18.901,86.121C-17.187,85.432 -16.249,83.674 -15.989,81.92C-15.983,81.896 -15.984,81.871 -15.979,81.847C-13.827,79.471 -12.186,76.589 -12.851,73.294C-12.775,73.207 -12.697,73.12 -12.622,73.031C-12.456,72.74 -12.501,72.363 -12.739,72.121C-14.068,71.165 -15.313,74.232 -16.003,75.075C-17.078,76.585 -17.783,78.31 -18.112,80.134C-18.272,81.45 -18.289,82.964 -18.999,84.1C-20.316,84.565 -21.495,85.426 -22.449,86.458C-21.521,83.258 -20.735,80.025 -19.983,76.864C-19.929,76.224 -19.283,74.128 -20.44,74.28C-21.656,75.554 -21.921,77.562 -22.557,79.18C-24.965,86.921 -27.064,94.907 -31.637,101.721C-38.259,110.712 -48.292,117.559 -59.443,119.535C-59.629,119.58 -59.818,119.619 -60.005,119.66C-60.745,119.721 -61.483,119.772 -62.223,119.78C-62.739,119.764 -63.439,119.807 -64.09,119.852C-64.171,119.824 -64.258,119.802 -64.354,119.789C-68.474,119.425 -72.454,118.764 -76.386,117.342C-82.046,115.294 -87.48,112.064 -92.105,108.171M-117.43,56.651C-118.002,54.044 -118.274,51.381 -118.654,48.747C-118.885,46.909 -120.257,46.248 -121.732,47.433C-121.274,44.44 -121.005,41.41 -120.439,38.432C-118.761,32.919 -116.213,27.564 -113.418,22.516C-105.507,9.097 -93.688,-3.623 -77.765,-6.636C-72.534,-7.777 -67.137,-7.871 -61.837,-7.175C-61.596,-7.057 -61.344,-7.018 -61.081,-7.091C-60.098,-6.941 -59.071,-6.553 -58.147,-6.988C-56.879,-8.433 -58.873,-9.134 -61.436,-9.484C-62.582,-10.518 -63.767,-11.503 -64.82,-12.639C-52.918,-10.663 -40.265,-6.536 -31.751,2.464C-29.006,5.671 -26.674,9.139 -24.935,13.071C-24.693,13.656 -24.354,14.416 -23.632,14.48C-23.526,14.479 -23.436,14.462 -23.347,14.445C-22.977,14.636 -22.56,14.762 -22.191,14.943C-9.312,19.931 -6.453,34.152 -9.332,46.432C-10.575,52.25 -11.757,58.088 -13.449,63.795C-13.596,64.288 -13.849,64.911 -13.811,65.43C-14.148,65.507 -14.5,65.602 -14.869,65.721C-16.368,66.453 -17.754,67.505 -18.868,68.778C-19.504,66.474 -20.148,64.17 -20.623,61.828C-21.582,57.247 -21.732,52.336 -20.917,47.699C-21.904,44.64 -23.803,41.735 -23.523,38.386C-23.513,37.905 -23.477,37.227 -23.964,36.969C-24.863,36.152 -26.862,37.599 -28.025,37.776C-32.275,39.169 -37.012,39.533 -41.445,38.543C-37.481,36.522 -33.318,34.262 -30.673,30.571C-30.045,29.638 -30.896,28.273 -31.999,28.853C-33.205,30.289 -35.073,30.827 -36.783,31.526C-39.495,32.433 -42.37,33.071 -45.263,33.052C-43.299,31.783 -41.328,30.481 -39.706,28.773C-39.303,28.347 -37.265,26.216 -36.535,24.763C-35.354,23.71 -34.478,22.508 -35.615,21.977C-35.815,21.962 -35.989,22.031 -36.164,22.128C-37.528,23.141 -38.81,24.231 -40.365,24.977C-43.37,26.507 -46.899,26.79 -50.114,27.671C-55.103,31.562 -61.563,33.108 -67.886,32.978C-65.948,31.246 -64.067,29.427 -62.39,27.44C-62.316,27.351 -62.274,27.246 -62.239,27.141C-62.083,26.982 -61.934,26.821 -61.798,26.659C-60.729,26.096 -59.716,25.428 -58.794,24.612C-58.125,24.034 -57.503,23.367 -57.062,22.594C-56.978,22.469 -56.977,22.283 -57.102,22.156C-57.218,22.044 -57.395,22.027 -57.528,22.108C-59.292,22.946 -60.946,24.023 -62.762,24.766C-66.399,26.217 -70.291,26.777 -74.104,27.608C-74.923,27.635 -75.51,28.152 -75.858,28.863C-81.136,36.02 -89.674,39.952 -98.056,42.339C-97.135,39.751 -95.979,37.248 -95.063,34.658C-94.859,34.113 -94.5,33.46 -94.916,32.923C-95.458,32.232 -96.354,32.69 -96.71,33.328C-97.638,34.669 -98.568,35.984 -99.676,37.208C-101.612,39.345 -103.873,41.606 -106.246,43.418C-106.648,43.859 -107.525,44.271 -108.134,44.771C-108.578,44.963 -108.898,45.522 -108.821,46.049C-107.79,52.571 -107.992,59.187 -109.251,65.697C-109.468,67.223 -109.783,68.729 -110.073,70.242C-111.453,68.361 -113.583,66.383 -114.891,65.726C-115.097,65.228 -115.435,64.712 -115.515,64.277C-116.259,61.828 -116.892,59.176 -117.43,56.651M0.594,163.577C-6.198,149.433 -17.308,139.192 -29.606,129.856C-30.223,129.424 -30.857,128.794 -31.602,128.591C-32.558,127.601 -33.533,126.628 -34.525,125.677C-37.101,123.215 -39.814,120.876 -42.738,118.831C-42.875,118.707 -43.046,118.583 -43.229,118.476C-42.916,117.578 -42.578,116.693 -42.19,115.855C-42.026,115.416 -41.759,114.979 -41.538,114.53C-38.106,112.105 -34.992,109.322 -32.423,106.54C-29.239,102.912 -26.918,98.698 -25.105,94.229C-24.049,94.384 -22.824,94.348 -22.232,94.457C-17.246,94.675 -13.202,91.11 -11.076,86.863C-8.028,82.064 -3.83,65.773 -11.645,65.239C-11.464,64.705 -11.362,64.093 -11.194,63.663C-10.326,60.579 -9.521,57.484 -8.787,54.365C-7.672,49.397 -6.316,44.417 -6.135,39.303C-5.702,28.071 -10.517,16.265 -22.006,12.7C-22.198,12.618 -22.427,12.574 -22.662,12.564C-23.614,8.685 -30.33,0.177 -31.546,-0.771C-33.007,-2.209 -34.653,-3.453 -36.356,-4.587C-41.504,-7.955 -47.147,-10.543 -53.001,-12.415C-55.923,-13.341 -58.935,-13.966 -61.94,-14.553C-63.718,-14.782 -65.717,-15.696 -67.452,-14.954C-69.432,-13.585 -65.488,-11.154 -64.295,-9.745C-66.097,-9.846 -67.711,-9.849 -68.264,-9.88C-81.009,-10.018 -93.307,-4.631 -102.331,4.281C-110.098,12.25 -116.828,21.72 -120.555,32.267C-121.403,36.048 -122.582,39.746 -123.297,43.556C-123.718,45.812 -124.811,50.119 -120.944,48.864C-120.323,54.393 -119.487,60.162 -116.918,65.151C-119.313,64.88 -121.568,66.668 -122.028,69.139C-123.297,75.058 -120.908,81.143 -118.693,86.562C-116.73,90.848 -113.073,94.848 -108.28,95.754C-107.413,95.913 -106.533,95.912 -105.685,95.679C-105.709,95.681 -105.733,95.684 -105.757,95.686C-105.076,95.522 -104.371,95.351 -103.713,95.086C-102.491,98.023 -101.104,100.884 -99.333,103.54C-95.997,108.274 -91.587,112.161 -86.599,115.159C-86.24,115.897 -85.944,116.658 -85.681,117.432C-85.787,117.497 -85.888,117.563 -85.984,117.625C-87.213,118.453 -88.353,119.404 -89.486,120.357C-92.804,123.288 -96.018,126.376 -99.01,129.66C-99.037,129.676 -99.066,129.69 -99.09,129.707C-111.587,136.796 -126.042,150.612 -131.798,163.87C-132.484,165.63 -133,167.459 -133.362,169.311C-133.596,170.378 -133.795,171.582 -133.083,172.522C-133.02,172.611 -132.942,172.676 -132.857,172.729C-132.668,173.371 -132.189,173.885 -131.731,174.362C-114.688,190.482 -81.237,189.205 -58.935,190.214C-38.433,190.142 -11.858,189.756 3.602,174.479C3.815,174.196 3.881,173.84 3.788,173.518C4.742,171.809 1.069,164.77 0.594,163.577" style="fill:rgb(68,8,41);fill-rule:nonzero;"/>
                </g>
                <g transform="matrix(1,0,0,1,139.8643,124.7706)">
                    <path d="M0,-4.128C-0.973,-1.9 -0.422,2.106 2.093,3.042C3.565,3.606 5.037,2.571 5.792,1.358C6.342,0.42 6.138,-0.723 6.29,-1.756C6.398,-2.993 6.939,-4.499 6.14,-5.594C4.339,-7.734 0.941,-6.5 0,-4.128" style="fill:rgb(68,8,41);fill-rule:nonzero;"/>
                </g>
                <g transform="matrix(1,0,0,1,143.6685,105.3482)">
                    <path d="M0,-4.002C3.801,-1.32 -6.264,0.297 -7.85,0.815C-6.185,-1.349 -2.974,-4.573 0,-4.002M2.314,-1.352C3.271,-2.838 2.446,-4.942 0.932,-5.7C-1.187,-6.624 -3.446,-5.33 -5.151,-4.099C-6.289,-3.46 -11.43,1.438 -9.17,2.369C-8.905,2.622 -8.524,2.604 -8.203,2.471C-6.035,1.731 -3.627,1.629 -1.449,0.835C-0.085,0.361 1.444,-0.122 2.314,-1.352" style="fill:rgb(68,8,41);fill-rule:nonzero;"/>
                </g>
                <g transform="matrix(1,0,0,1,176.2056,119.2859)">
                    <path d="M0,6.842C0.755,8.056 2.227,9.091 3.699,8.527C6.213,7.591 6.765,3.584 5.791,1.357C4.851,-1.016 1.453,-2.249 -0.347,-0.109C-1.148,0.986 -0.606,2.491 -0.497,3.728C-0.346,4.763 -0.549,5.905 0,6.842" style="fill:rgb(68,8,41);fill-rule:nonzero;"/>
                </g>
                <g transform="matrix(1,0,0,1,178.1924,105.3482)">
                    <path d="M0,-4.002C2.974,-4.573 6.185,-1.349 7.851,0.815C6.264,0.297 -3.8,-1.32 0,-4.002M1.449,0.835C3.628,1.629 6.035,1.731 8.204,2.471C8.524,2.604 8.906,2.622 9.17,2.369C11.43,1.438 6.29,-3.46 5.151,-4.099C3.446,-5.33 1.187,-6.624 -0.931,-5.7C-2.446,-4.942 -3.271,-2.838 -2.314,-1.352C-1.444,-0.122 0.085,0.361 1.449,0.835" style="fill:rgb(68,8,41);fill-rule:nonzero;"/>
                </g>
                <g transform="matrix(1,0,0,1,166.3447,142.9316)">
                    <path d="M0,-2.33C-1.316,-0.529 -3.372,1.093 -5.734,1.043C-7.604,0.983 -9.189,-0.255 -10.322,-1.676C-6.896,-0.867 -3.313,-1.183 0,-2.33M-12.491,-2.457C-10.869,-0.326 -8.435,1.979 -5.561,1.907C-2.533,1.939 0.071,-0.081 1.263,-2.802C1.374,-2.873 1.468,-2.966 1.552,-3.08C1.55,-3.079 1.548,-3.078 1.545,-3.077C1.875,-3.513 1.59,-4.221 1.046,-4.309C-0.582,-4.097 -1.986,-3.308 -3.699,-3.116C-6.055,-2.839 -8.484,-2.997 -10.813,-3.455C-11.403,-3.543 -12.014,-3.885 -12.603,-3.663C-13.116,-3.403 -12.926,-2.704 -12.491,-2.457" style="fill:rgb(68,8,41);fill-rule:nonzero;"/>
                </g>
                <g transform="matrix(1,0,0,1,157.0762,147.5672)">
                    <path d="M0,8.467C5.29,8.7 10.67,7.595 15.606,5.72C16.945,5.099 18.591,4.451 19.939,3.707C20.089,3.614 20.195,3.481 20.275,3.333C20.687,3.542 21.027,3.733 21.198,3.898C21.654,4.067 22.126,3.598 21.968,3.12C21.875,2.846 21.626,2.703 21.462,2.474C20.547,1.404 19.081,-0.233 17.503,0.257C16.623,0.949 17.192,1.611 18.127,2.203C17.283,2.746 16.406,3.245 15.508,3.688C12.757,5.164 9.856,5.921 6.773,6.515C3.479,6.792 0.244,6.981 -3.082,6.523C-4.268,5.626 -5.631,6.791 -4.473,7.847C-3.067,8.356 -1.492,8.372 0,8.467" style="fill:rgb(68,8,41);fill-rule:nonzero;"/>
                </g>
                <g transform="matrix(1,0,0,1,123.7861,192.2447)">
                    <path d="M0,21.683C-1.644,19.971 -4.865,16.557 -7.602,13.134C-9.198,11.141 -11.77,10.793 -14.246,11.074C-10.097,6.963 -5.629,3.211 -1.499,0C-2.573,1.363 -3.617,2.756 -4.594,4.187C-9.178,9.865 -3.163,16.083 1.557,19.323C1.016,20.097 0.493,20.88 0,21.683" style="fill:rgb(98,151,204);fill-rule:nonzero;"/>
                </g>
                <g transform="matrix(1,0,0,1,211.7383,205.1174)">
                    <path d="M0,-0.281C-1.983,0.096 -4.236,0.822 -5.609,2.195C-7.215,3.801 -10.6,7.486 -13.298,10.445C-13.801,9.516 -14.324,8.588 -14.875,7.679C-13.25,6.093 -11.567,4.555 -10.204,2.737C-7.631,-0.571 -6.664,-4.198 -9.362,-7.766C-10.01,-8.782 -10.697,-9.759 -11.403,-10.726C-7.447,-7.418 -3.492,-4.092 0,-0.281" style="fill:rgb(98,151,204);fill-rule:nonzero;"/>
                </g>
                <g transform="matrix(1,0,0,1,214.2817,75.2781)">
                    <path d="M0,30.32C-0.02,32.66 -0.068,35.001 -0.145,37.341C-0.832,40.398 -1.586,43.444 -2.476,46.452C-2.621,46.945 -2.873,47.574 -2.833,48.086C-3.172,48.164 -3.53,48.26 -3.897,48.377C-5.396,49.112 -6.78,50.166 -7.892,51.433C-8.53,49.131 -9.178,46.829 -9.652,44.488C-10.609,39.904 -10.754,34.991 -9.942,30.359C-10.929,27.302 -12.834,24.391 -12.554,21.045C-12.544,20.561 -12.505,19.884 -12.989,19.623C-13.888,18.811 -15.89,20.261 -17.051,20.436C-21.306,21.828 -26.036,22.196 -30.475,21.2C-26.509,19.178 -22.341,16.925 -19.701,13.231C-19.072,12.292 -19.923,10.928 -21.026,11.509C-22.235,12.95 -24.101,13.482 -25.813,14.188C-28.521,15.088 -31.394,15.726 -34.285,15.706C-32.322,14.439 -30.359,13.143 -28.734,11.431C-28.328,11.006 -26.287,8.878 -25.562,7.418C-24.382,6.373 -23.501,5.165 -24.643,4.633C-24.846,4.623 -25.02,4.691 -25.194,4.787C-26.558,5.803 -27.834,6.886 -29.392,7.64C-32.399,9.169 -35.929,9.449 -39.14,10.329C-44.131,14.217 -50.591,15.764 -56.917,15.639C-54.973,13.907 -53.096,12.089 -51.414,10.097C-51.346,10.01 -51.297,9.903 -51.268,9.797C-51.113,9.642 -50.959,9.478 -50.823,9.314C-49.76,8.753 -48.744,8.085 -47.825,7.273C-47.148,6.693 -46.529,6.025 -46.084,5.252C-46.007,5.126 -46.007,4.942 -46.133,4.816C-46.249,4.7 -46.423,4.681 -46.558,4.768C-48.318,5.6 -49.972,6.683 -51.791,7.427C-55.427,8.878 -59.315,9.439 -63.125,10.271C-63.948,10.29 -64.538,10.813 -64.886,11.519C-70.167,18.675 -78.696,22.612 -87.082,25.001C-86.163,22.408 -85.002,19.904 -84.093,17.312C-83.89,16.77 -83.522,16.122 -83.938,15.581C-84.48,14.894 -85.379,15.348 -85.737,15.987C-86.666,17.331 -87.594,18.647 -88.707,19.865C-90.641,22.003 -92.904,24.266 -95.273,26.074C-95.67,26.519 -96.55,26.925 -97.159,27.428C-97.604,27.622 -97.923,28.182 -97.846,28.705C-96.821,35.233 -97.014,41.848 -98.281,48.357C-98.494,49.885 -98.813,51.384 -99.103,52.903C-100.157,51.452 -101.666,49.953 -102.895,49.044C-103.571,45.243 -104.064,41.423 -104.045,37.573C-104.007,31.393 -102.517,25.039 -98.755,20.136C-101.221,21.993 -103.397,24.246 -105.148,26.78C-105.428,22.689 -103.804,18.724 -102.034,15.029C-95.457,1.315 -85.331,-11.954 -70.775,-16.384C-61.046,-19.333 -50.601,-17.979 -40.533,-16.596C-42.177,-18.589 -43.831,-20.591 -45.475,-22.583C-39.75,-20.736 -33.957,-18.859 -28.898,-15.61C-23.85,-12.36 -19.527,-7.524 -18.211,-1.654C-18.85,-1.654 -18.163,-1.373 -18.801,-1.373C-13.279,1.431 -8.482,5.638 -4.99,10.755C-3.317,13.201 -1.925,15.871 -1.112,18.724C-0.039,22.466 0.029,26.422 0,30.32" style="fill:rgb(86,77,78);fill-rule:nonzero;"/>
                </g>
            </g>
            <g transform="matrix(1,0,0,1,179.8828,246.0025)">
                <path d="M0,-44.21C-1.59,-43.014 -3.801,-41.904 -4.473,-41.564C-9.126,-39.444 -14.134,-37.856 -19.29,-37.849C-25.44,-37.937 -31.936,-39.293 -36.755,-43.324C-36.946,-43.471 -37.237,-43.738 -37.536,-44.06C-37.984,-33.745 -38.372,-23.425 -38.285,-13.098C-38.282,-10.164 -38.285,-7.229 -38.214,-4.295C-38.178,-3.924 -38.176,-3.447 -38.255,-3.022C-38.265,-2.576 -38.277,-2.131 -38.3,-1.685C-38.268,-1.495 -38.284,-1.297 -38.319,-1.101C-27.934,-0.367 -17.506,0 -7.119,-0.087C-4.451,-0.162 -1.745,-0.249 0.974,-0.38C0.927,-0.965 0.989,-1.575 0.985,-2.142C1.121,-5.106 1.154,-8.07 1.174,-11.036C1.244,-19.209 1.097,-27.388 0.577,-35.546C0.422,-38.478 0.223,-41.349 0,-44.21" style="fill:white;fill-rule:nonzero;"/>
            </g>
            <g transform="matrix(1,0,0,1,131.1362,220.7274)">
                <path d="M0,23.317C-0.193,23.298 -0.387,23.278 -0.58,23.259C-2.592,22.998 -4.613,22.698 -6.634,22.34C-8.404,18.52 -10.087,14.41 -11.083,10.764C-12.302,6.296 -11.644,2.688 -10.464,0C-10.987,1.759 -11.277,3.588 -11.267,5.473C-10.155,12.427 -4.807,18.162 0,23.317" style="fill:rgb(98,151,204);fill-rule:nonzero;"/>
            </g>
            <g transform="matrix(1,0,0,1,201.9795,244.7704)">
                <path d="M0,-17.786C0.281,-15.707 0.329,-12.911 -0.687,-10.378C-1.373,-8.647 -2.563,-4.952 -3.801,-0.91C-5.909,-0.542 -8.027,-0.242 -10.155,0C-10.029,-0.213 -9.894,-0.407 -9.749,-0.561C-7.602,-3.704 -5.416,-6.848 -3.385,-10.078C-1.992,-12.418 -0.483,-15.049 0,-17.786" style="fill:rgb(98,151,204);fill-rule:nonzero;"/>
            </g>
        </g>
    </g>
</svg>
