<?xml version="1.0" encoding="UTF-8" standalone="no"?>
<!DOCTYPE svg PUBLIC "-//W3C//DTD SVG 1.1//EN" "http://www.w3.org/Graphics/SVG/1.1/DTD/svg11.dtd">
<svg width="100%" height="100%" viewBox="0 0 589 793" version="1.1" xmlns="http://www.w3.org/2000/svg" xmlns:xlink="http://www.w3.org/1999/xlink" xml:space="preserve" xmlns:serif="http://www.serif.com/" style="fill-rule:evenodd;clip-rule:evenodd;stroke-linejoin:round;stroke-miterlimit:2;">
    <g transform="matrix(1,0,0,1,-1281.468608,-241.337761)">
        <g transform="matrix(4.166667,0,0,4.166667,0,0)">
            <g>
                <g transform="matrix(1,0,0,1,394.0234,123.7792)">
                    <path d="M0,7.338C-2.452,9.18 -4.242,4.875 -3.656,2.884C-3.34,1.342 -1.548,1.099 -0.593,2.235C0.464,3.557 0.992,5.859 0,7.338M-5.423,-6.546C-8.246,-4.538 -9.593,-1.299 -10.33,2.017C-10.507,9.699 -5.724,17.421 2.908,16.667C11.979,15.953 16.952,8.253 15.552,-0.19C14.889,-1.54 14.056,-2.818 13.058,-3.935C8.58,-8.966 0.29,-10.083 -5.423,-6.546" style="fill:rgb(255,244,238);fill-rule:nonzero;"/>
                </g>
                <g transform="matrix(1,0,0,1,353.2817,104.3773)">
                    <path d="M0,2.049C0.327,-0.206 1.684,-2.268 3.525,-3.591C5.699,-5.541 10.883,-5.748 11.273,-2.107C11.152,0.141 8.337,0.019 6.834,0.84C5.173,1.499 3.605,2.354 2.014,3.156C1.769,3.271 1.476,3.381 1.2,3.315C1.013,3.545 0.682,3.595 0.416,3.478C-0.092,3.216 -0.022,2.531 0,2.049M44.946,-3.591C46.787,-2.268 48.143,-0.206 48.471,2.049C48.493,2.531 48.562,3.216 48.055,3.478C47.789,3.595 47.458,3.545 47.27,3.315C46.995,3.381 46.701,3.271 46.458,3.156C44.865,2.354 43.296,1.499 41.636,0.84C40.133,0.019 37.318,0.141 37.198,-2.107C37.587,-5.748 42.772,-5.541 44.946,-3.591M-10.425,20.56C-10.167,19.186 -9.383,17.614 -9.012,16.771C-2.956,5.317 17.151,5.315 19.692,19.408C19.719,19.809 19.868,20.588 19.965,21.405C20.08,21.349 20.193,21.289 20.307,21.241C22.626,20.332 26.238,19.938 28.506,21.387C28.605,20.576 28.75,19.806 28.778,19.408C31.319,5.315 51.426,5.317 57.482,16.771C57.891,17.699 58.806,19.515 58.96,20.973C59.081,21.008 59.2,21.044 59.315,21.07C60.231,21.308 61.18,21.461 62.079,21.764C61.988,15.177 60.578,8.678 57.689,2.753C53.458,-5.195 47.73,-12.564 39.529,-16.543C33.853,-19.113 27.632,-19.926 21.475,-19.662C17.528,-19.385 13.664,-17.734 10.247,-16.068C-2.583,-9.53 -12.107,3.515 -13.463,17.873C-13.609,19.238 -13.788,20.609 -13.786,21.975C-12.825,21.464 -11.771,20.998 -10.956,20.624C-10.779,20.564 -10.6,20.552 -10.425,20.56" style="fill:rgb(255,226,204);fill-rule:nonzero;"/>
                </g>
                <g transform="matrix(1,0,0,1,381.4199,145.8202)">
                    <path d="M0,-2.681C-2.044,-1.583 -4.4,-1.419 -6.617,-2.061C-5.64,-1.185 -4.602,0 -3.189,-0.139C-1.745,-0.304 -0.709,-1.51 0,-2.681" style="fill:rgb(255,185,161);fill-rule:nonzero;"/>
                </g>
                <g transform="matrix(1,0,0,1,359.6978,105.9865)">
                    <path d="M0,-4.571C-2.521,-4.39 -4.62,-2.342 -5.006,0.117C-2.67,-1.662 0.097,-2.701 2.862,-3.589C2.575,-4.688 0.94,-4.662 0,-4.571" style="fill:rgb(198,106,44);fill-rule:nonzero;"/>
                </g>
                <g transform="matrix(1,0,0,1,368.9722,149.0977)">
                    <path d="M0,7.102C0.694,6.915 0.979,7.639 0.687,8.144C0.998,8.455 1.263,8.843 1.559,9.105C2.88,10.635 4.679,11.759 6.681,12.049C10.883,12.564 15.055,10.137 17.055,6.498C17.081,6.425 17.124,6.36 17.166,6.297C16.758,5.906 16.583,5.484 17.158,5.103C18.228,4.845 18.911,6.001 19.425,6.735C19.736,7.177 19.147,7.741 18.718,7.423C18.625,7.343 18.484,7.247 18.324,7.142C18.207,7.409 18.038,7.669 17.906,7.869C15.521,11.789 10.929,14.422 6.296,13.453C3.836,13.064 1.427,11.772 0.029,9.672C-0.051,9.567 -0.155,9.425 -0.256,9.27C-0.527,9.558 -0.833,9.744 -1.225,9.565C-2.009,8.891 -0.709,7.366 0,7.102M4.109,-7.026C4.793,-7.07 5.455,-6.532 6.101,-6.407C7.443,-6.015 8.766,-6.171 10.088,-6.504C11.336,-6.703 12.405,-7.587 13.632,-7.724C14.808,-7.253 13.986,-5.636 13.511,-4.894C12.53,-3.097 10.503,-2.102 8.49,-2.585C6.93,-2.957 5.709,-4.151 4.72,-5.35C4.592,-5.538 4.436,-5.744 4.459,-5.983C4.184,-6.191 3.65,-6.767 4.109,-7.026M4.019,29.117C6.536,29.565 9.15,29.668 11.877,29.316C12.591,29.123 13.304,28.942 14.021,28.81C21.157,26.926 27.9,23.328 32.768,17.735C38.238,11.369 39.734,3.024 42.225,-4.699C43.506,-9.149 44.91,-13.6 46.159,-18.084C46.216,-18.731 46.383,-19.406 46.343,-20.014C46.348,-20.115 46.344,-20.219 46.349,-20.32C46.066,-20.364 45.788,-20.43 45.52,-20.532C44.795,-20.795 43.777,-21.277 43.071,-21.606C43.125,-13.879 36.233,-6.731 28.338,-6.35C20.169,-5.295 12.673,-12.613 12.791,-20.533C12.773,-20.539 12.756,-20.533 12.741,-20.54C12.7,-20.544 12.654,-20.552 12.587,-20.564C12.201,-20.684 11.846,-20.875 11.521,-21.114C9.438,-22.522 5.907,-22.566 4.292,-21.171C4.839,-13.012 -2.861,-5.268 -11.249,-6.35C-19.105,-6.729 -25.96,-13.809 -25.977,-21.491C-26.057,-21.449 -26.136,-21.407 -26.215,-21.369C-27.161,-20.898 -28.09,-20.393 -29.021,-19.895C-27.646,-14.606 -26.025,-9.372 -24.529,-4.121C-22.481,2.268 -20.717,8.785 -16.969,14.331C-12.116,21.518 -4.552,27.447 4.019,29.117" style="fill:rgb(255,226,204);fill-rule:nonzero;"/>
                </g>
                <g transform="matrix(1,0,0,1,395.3359,105.9865)">
                    <path d="M0,-4.571C-0.94,-4.662 -2.575,-4.688 -2.862,-3.589C-0.097,-2.701 2.67,-1.662 5.006,0.117C4.62,-2.342 2.521,-4.39 0,-4.571" style="fill:rgb(198,106,44);fill-rule:nonzero;"/>
                </g>
                <g transform="matrix(1,0,0,1,361.0098,123.7777)">
                    <path d="M0,7.34C-0.992,5.861 -0.463,3.558 0.593,2.237C1.548,1.101 3.34,1.343 3.657,2.886C4.242,4.877 2.454,9.181 0,7.34M5.423,-6.545C-0.29,-10.082 -8.58,-8.965 -13.057,-3.934C-14.055,-2.817 -14.889,-1.539 -15.551,-0.189C-16.951,8.254 -11.98,15.955 -2.907,16.669C5.726,17.422 10.507,9.7 10.331,2.018C9.593,-1.297 8.247,-4.537 5.423,-6.545" style="fill:rgb(255,244,238);fill-rule:nonzero;"/>
                </g>
                <g transform="matrix(1,0,0,1,388.5322,76.2455)">
                    <path d="M0,128.214C-14.855,126.725 -28.918,119.529 -37.583,107.179C-37.874,106.888 -37.487,106.443 -37.196,106.879C-33.947,109.771 -30.504,112.479 -27.061,115.157C-26.829,115.341 -26.587,115.506 -26.355,115.68C-21.258,117.904 -15.552,118.813 -10.029,118.465C-4.372,118.049 1.18,116.376 6.267,113.949C8.018,113.107 9.797,112.304 11.586,111.55C11.935,111.376 12.379,111.55 12.563,111.869C12.785,112.246 12.641,112.711 12.282,112.933C11.925,113.165 11.576,113.417 11.229,113.658C7.234,119.848 -0.223,123.862 -7.573,123.891C-8.482,123.842 -9.392,123.814 -10.3,123.784C-2.351,126.183 6.18,126.802 14.381,125.709C18.714,124.655 22.921,123.185 26.954,121.309C27.273,121.173 27.544,121.628 27.254,121.831C19.323,127.247 9.517,129.539 0,128.214M-49.45,80.002C-49.847,79.431 -51.21,77.004 -50.166,77.371C-48.822,78.512 -47.661,79.905 -46.365,81.114C-43.812,83.512 -41.171,86.095 -38.405,88.61C-40.804,85.05 -42.68,81.143 -43.879,77.13C-47.874,64.663 -51.975,52.042 -53.735,39.034C-54.295,33.946 -53.744,28.84 -52.854,23.82C-52.738,23.066 -52.158,19.933 -51.423,17.602C-50.843,15.774 -50.166,14.449 -49.547,15.165C-49.537,15.203 -49.528,15.252 -49.528,15.29C-49.208,17.031 -49.982,18.839 -50.166,20.581C-51.084,26.006 -51.83,31.606 -51.51,37.051C-51.297,39.527 -50.949,41.964 -50.514,44.392C-50.234,42.129 -49.75,39.885 -49.286,37.747C-45.601,24.285 -34.769,13.047 -21.819,8.066C-21.442,7.901 -21.055,7.747 -20.668,7.611C-17.428,6.412 -14.004,5.957 -10.571,6.025C-6.519,6.083 -2.428,6.847 1.44,7.94C12.95,11.634 21.064,21.925 25.822,32.641C27.331,36.664 28.473,40.949 28.898,45.281C29.479,42.322 29.914,39.343 30.126,36.326C30.601,30.107 29.575,23.946 28.317,17.863C28.299,17.776 28.279,17.679 28.26,17.592C28.212,16.683 27.447,14.284 28.55,14.439C29.585,15.484 30.098,16.915 30.484,18.376C30.726,19.285 30.919,20.203 31.151,21.054C32.37,25.909 32.815,30.91 32.516,35.9C31.741,48.125 27.477,59.779 24.13,71.482C22.428,77.246 20.832,83.319 17.698,88.484C21.519,84.779 25.098,80.805 28.705,76.955C28.908,76.772 29.023,76.404 29.353,76.472C29.546,76.52 29.652,76.762 29.565,76.936C29.392,77.429 29.111,77.874 28.879,78.329C25.001,84.992 19.033,90.282 13.114,95.128C7.921,99.093 2.205,103.039 -4.294,104.113C-7.283,104.935 -10.455,105.07 -13.54,104.848C-14.082,104.906 -16.113,104.49 -18.057,103.861C-21.567,102.914 -24.865,101.347 -27.873,99.297C-31.123,97.41 -34.169,95.157 -36.936,92.672C-41.346,88.716 -45.998,84.867 -49.45,80.002M27.631,107.169C26.857,106.579 27.351,105.776 27.36,105.003C27.283,103.039 26.751,101.114 25.804,99.432C25.726,99.267 25.639,99.122 25.542,98.967C24.691,100.196 23.84,101.424 23.008,102.652C22.157,103.61 21.49,105.902 19.913,105.08C19.372,104.732 19.207,103.977 19.565,103.445C21.287,100.863 23.104,98.329 24.836,95.747C26.084,93.9 27.283,92.033 28.386,90.099C29.382,88.261 30.301,86.404 30.958,84.48C31.645,82.507 32.051,80.466 31.983,78.309C32.003,77.1 31.935,75.94 31.983,74.779C32.216,74.015 32.631,73.299 32.922,72.555C37.496,61.152 42.264,49.353 42.196,36.906C41.78,29.13 41.007,21.441 38.105,14.226C36.403,10.619 34.324,7.156 31.906,3.975C26.645,-2.97 19.729,-8.598 11.441,-11.529C5.136,-14.12 -1.489,-15.678 -8.288,-15.842C-8.414,-15.871 -8.579,-15.89 -8.753,-15.9C-9.004,-15.91 -9.246,-15.919 -9.488,-15.919C-9.923,-15.91 -10.388,-15.9 -10.852,-15.9C-11.181,-15.89 -11.499,-15.9 -11.818,-15.881C-16.364,-15.813 -20.803,-14.827 -25.136,-13.54C-34.711,-10.619 -44.218,-6.093 -50.862,1.576C-52.69,3.81 -54.286,6.18 -55.669,8.665C-63.058,21.973 -64.161,38.415 -61.075,53.154C-59.779,59.083 -57.526,64.721 -55.301,70.331C-54.702,71.984 -54.131,73.648 -53.542,75.301C-52.903,75.35 -52.651,76.51 -52.806,77.275C-54.479,86.337 -48.241,94.045 -42.313,100.118C-41.868,100.583 -41.404,101.047 -41.007,101.56C-40.195,102.604 -41.684,104.055 -42.7,103.174C-43.909,101.927 -45.214,100.544 -46.52,99.055C-46.82,99.383 -47.09,99.712 -47.197,100.051C-48.203,101.84 -48.764,103.794 -48.928,105.815C-48.986,106.289 -49.112,106.743 -49.382,107.14C-49.818,107.846 -50.775,107.962 -51.481,108.165C-52.69,108.494 -53.88,108.803 -55.021,109.219C-55.94,109.538 -56.83,109.925 -57.69,110.438C-61.626,112.72 -63.832,118.001 -62.004,122.266C-61.752,122.547 -61.501,122.808 -61.24,123.021C-58.435,125.699 -55.476,128.03 -52.265,130.119C-49.692,131.686 -46.984,133.185 -44.179,134.558C-34.237,139.501 -23.096,143.079 -12.341,143.776C-0.986,144.133 10.3,141.319 20.658,136.851C25.252,134.742 29.526,132.044 33.608,129.055C35.562,127.643 37.467,126.164 39.353,124.655C39.508,124.326 39.769,124.017 39.943,123.697C41.133,121.492 40.727,118.842 39.769,116.628C37.68,111.424 32.109,109.684 27.631,107.169" style="fill:rgb(234,99,161);fill-rule:nonzero;"/>
                </g>
                <g transform="matrix(1,0,0,1,389.6631,193.5026)">
                    <path d="M0,3.953C3.024,2.477 5.763,0.359 7.958,-2.209C-0.045,2.251 -9.513,4.541 -18.647,3.262C-19.163,3.167 -19.704,3.065 -20.256,2.958C-17.96,4.136 -15.579,5.141 -13.134,5.969C-12.103,6.009 -11.072,6.047 -10.04,6.081C-6.581,6.162 -3.144,5.371 0,3.953" style="fill:rgb(201,75,147);fill-rule:nonzero;"/>
                </g>
                <g transform="matrix(1,0,0,1,344.4434,117.4841)">
                    <path d="M0,27.493C-1.496,22.242 -3.118,17.007 -4.492,11.719C-3.561,11.221 -2.632,10.716 -1.687,10.245C-1.607,10.206 -1.528,10.165 -1.448,10.122C-1.431,17.805 5.424,24.885 13.28,25.264C21.668,26.346 29.368,18.602 28.821,10.442C30.436,9.048 33.967,9.092 36.05,10.499C36.375,10.739 36.729,10.93 37.116,11.05C37.183,11.061 37.229,11.069 37.27,11.074C37.285,11.081 37.302,11.075 37.319,11.081C37.202,19.001 44.698,26.318 52.867,25.264C60.762,24.883 67.653,17.735 67.6,10.007C68.306,10.337 69.324,10.819 70.049,11.081C70.316,11.183 70.595,11.25 70.878,11.293C70.873,11.395 70.877,11.498 70.872,11.6C70.912,12.207 70.745,12.883 70.688,13.53C69.438,18.014 68.035,22.464 66.754,26.915C64.263,34.638 62.767,42.983 57.297,49.348C52.429,54.942 45.686,58.539 38.55,60.424C37.833,60.556 37.12,60.737 36.406,60.93C33.679,61.282 31.065,61.179 28.547,60.731C19.977,59.061 12.413,53.131 7.56,45.944C3.812,40.399 2.047,33.881 0,27.493M26.897,8.312C27.073,15.994 22.292,23.716 13.659,22.962C4.586,22.248 -0.385,14.548 1.016,6.105C1.677,4.755 2.512,3.477 3.51,2.36C7.987,-2.671 16.276,-3.788 21.989,-0.251C24.813,1.757 26.16,4.996 26.897,8.312M52.488,22.962C43.856,23.716 39.073,15.994 39.25,8.312C39.987,4.996 41.334,1.757 44.157,-0.251C49.87,-3.788 58.16,-2.671 62.638,2.36C63.636,3.477 64.469,4.755 65.132,6.105C66.532,14.548 61.56,22.248 52.488,22.962M-4.625,4.766C-3.269,-9.592 6.256,-22.637 19.085,-29.175C22.502,-30.841 26.366,-32.492 30.313,-32.769C36.471,-33.033 42.691,-32.219 48.367,-29.65C56.568,-25.671 62.297,-18.302 66.527,-10.354C69.416,-4.428 70.826,2.071 70.917,8.657C70.019,8.354 69.069,8.201 68.153,7.963C68.038,7.937 67.919,7.902 67.799,7.866C67.645,6.409 66.729,4.592 66.32,3.664C60.265,-7.79 40.157,-7.792 37.616,6.301C37.589,6.7 37.443,7.47 37.345,8.281C35.076,6.831 31.464,7.225 29.145,8.135C29.032,8.182 28.918,8.242 28.804,8.298C28.706,7.481 28.557,6.702 28.531,6.301C25.989,-7.792 5.882,-7.79 -0.174,3.664C-0.544,4.507 -1.329,6.079 -1.587,7.453C-1.762,7.445 -1.941,7.457 -2.118,7.517C-2.932,7.891 -3.986,8.357 -4.948,8.868C-4.95,7.502 -4.771,6.132 -4.625,4.766M16.216,58.055C19.226,60.104 22.526,61.68 26.037,62.627C27.973,63.251 30.007,63.665 30.545,63.61C33.63,63.828 36.802,63.692 39.795,62.874C46.298,61.801 52.006,57.855 57.2,53.89C63.119,49.048 69.088,43.752 72.969,37.094C73.196,36.635 73.483,36.189 73.652,35.702C73.743,35.526 73.637,35.286 73.438,35.235C73.11,35.166 73.001,35.536 72.797,35.716C69.19,39.565 65.608,43.543 61.79,47.242C64.926,42.083 66.513,36.008 68.223,30.24C71.569,18.543 75.827,6.888 76.605,-5.34C76.9,-10.327 76.463,-15.329 75.238,-20.18C74.626,-22.416 74.316,-25.107 72.639,-26.803C71.532,-26.954 72.303,-24.559 72.345,-23.645C73.633,-17.479 74.697,-11.231 74.214,-4.91C74.005,-1.893 73.565,1.088 72.983,4.044C72.563,-0.286 71.417,-4.574 69.913,-8.6C65.151,-19.311 57.034,-29.599 45.526,-33.296C38.004,-35.412 29.625,-36.335 22.266,-33.175C9.318,-28.191 -1.51,-16.956 -5.195,-3.492C-5.661,-1.355 -6.148,0.892 -6.423,3.15C-6.864,0.727 -7.211,-1.715 -7.42,-4.185C-7.737,-9.636 -6.992,-15.236 -6.074,-20.657C-5.894,-22.44 -5.085,-24.291 -5.462,-26.074C-6.872,-27.707 -8.549,-18.764 -8.765,-17.419C-9.652,-12.402 -10.208,-7.29 -9.641,-2.201C-7.888,10.806 -3.785,23.424 0.212,35.892C1.411,39.909 3.281,43.814 5.686,47.369C2.922,44.858 0.278,42.274 -2.276,39.872C-3.571,38.667 -4.728,37.277 -6.073,36.137C-7.123,35.762 -5.755,38.192 -5.359,38.765C-1.91,43.628 2.741,47.481 7.153,51.437C9.921,53.918 12.965,56.171 16.216,58.055" style="fill:rgb(68,8,41);fill-rule:nonzero;"/>
                </g>
                <g transform="matrix(1,0,0,1,381.4199,145.2312)">
                    <path d="M0,-2.092C-0.709,-0.921 -1.745,0.285 -3.189,0.45C-4.602,0.589 -5.64,-0.596 -6.617,-1.472C-4.4,-0.83 -2.044,-0.994 0,-2.092M-7.989,-2.117C-8.012,-1.877 -7.855,-1.671 -7.728,-1.484C-6.738,-0.284 -5.518,0.91 -3.958,1.282C-1.944,1.765 0.082,0.77 1.063,-1.027C1.538,-1.77 2.36,-3.387 1.185,-3.857C-0.043,-3.72 -1.111,-2.837 -2.359,-2.637C-3.682,-2.305 -5.005,-2.148 -6.347,-2.541C-6.993,-2.665 -7.654,-3.203 -8.339,-3.16C-8.797,-2.901 -8.264,-2.325 -7.989,-2.117" style="fill:rgb(68,8,41);fill-rule:nonzero;"/>
                </g>
                <g transform="matrix(1,0,0,1,368.7158,159.0947)">
                    <path d="M0,-0.727C0.102,-0.572 0.205,-0.43 0.285,-0.325C1.684,1.775 4.093,3.067 6.552,3.456C11.186,4.425 15.777,1.792 18.162,-2.128C18.294,-2.328 18.463,-2.588 18.58,-2.855C18.74,-2.75 18.881,-2.654 18.975,-2.574C19.403,-2.256 19.992,-2.82 19.682,-3.262C19.167,-3.996 18.484,-5.152 17.414,-4.894C16.839,-4.513 17.015,-4.091 17.422,-3.7C17.38,-3.637 17.337,-3.572 17.312,-3.498C15.312,0.14 11.14,2.567 6.937,2.052C4.935,1.762 3.136,0.638 1.815,-0.892C1.519,-1.154 1.254,-1.542 0.943,-1.852C1.235,-2.358 0.951,-3.082 0.256,-2.895C-0.453,-2.631 -1.752,-1.106 -0.968,-0.432C-0.577,-0.253 -0.271,-0.439 0,-0.727" style="fill:rgb(68,8,41);fill-rule:nonzero;"/>
                </g>
                <g transform="matrix(1,0,0,1,359.6978,105.1865)">
                    <path d="M0,-3.771C0.94,-3.862 2.575,-3.888 2.862,-2.789C0.097,-1.901 -2.67,-0.862 -5.006,0.917C-4.62,-1.542 -2.521,-3.59 0,-3.771M-6,2.668C-5.734,2.786 -5.403,2.736 -5.216,2.506C-4.94,2.572 -4.647,2.461 -4.402,2.347C-2.811,1.544 -1.243,0.689 0.418,0.031C1.921,-0.79 4.736,-0.668 4.857,-2.916C4.467,-6.557 -0.717,-6.351 -2.891,-4.4C-4.732,-3.078 -6.089,-1.016 -6.416,1.24C-6.438,1.722 -6.508,2.407 -6,2.668" style="fill:rgb(68,8,41);fill-rule:nonzero;"/>
                </g>
                <g transform="matrix(1,0,0,1,361.603,131.8226)">
                    <path d="M0,-5.808C-1.056,-4.487 -1.585,-2.184 -0.593,-0.705C1.86,1.136 3.649,-3.168 3.063,-5.159C2.747,-6.702 0.955,-6.944 0,-5.808" style="fill:rgb(68,8,41);fill-rule:nonzero;"/>
                </g>
                <g transform="matrix(1,0,0,1,395.3359,105.1865)">
                    <path d="M0,-3.771C2.521,-3.59 4.62,-1.542 5.006,0.917C2.67,-0.862 -0.097,-1.901 -2.862,-2.789C-2.575,-3.888 -0.94,-3.862 0,-3.771M-0.418,0.031C1.242,0.689 2.811,1.544 4.403,2.347C4.646,2.461 4.94,2.572 5.216,2.506C5.403,2.736 5.734,2.786 6.001,2.668C6.508,2.407 6.438,1.722 6.417,1.24C6.089,-1.016 4.732,-3.078 2.892,-4.4C0.718,-6.351 -4.467,-6.557 -4.856,-2.916C-4.736,-0.668 -1.921,-0.79 -0.418,0.031" style="fill:rgb(68,8,41);fill-rule:nonzero;"/>
                </g>
                <g transform="matrix(1,0,0,1,390.3672,131.1736)">
                    <path d="M0,-4.51C-0.586,-2.519 1.204,1.785 3.656,-0.056C4.648,-1.535 4.12,-3.838 3.063,-5.159C2.108,-6.295 0.316,-6.052 0,-4.51" style="fill:rgb(68,8,41);fill-rule:nonzero;"/>
                </g>
                <g transform="matrix(1,0,0,1,369.4067,192.0124)">
                    <path d="M0,4.448C0.552,4.555 1.093,4.657 1.609,4.752C10.744,6.031 20.211,3.741 28.214,-0.719C26.019,1.849 23.281,3.968 20.256,5.443C17.113,6.861 13.675,7.652 10.216,7.571C9.184,7.537 8.154,7.499 7.123,7.459C4.677,6.631 2.296,5.626 0,4.448M46.077,5.543C42.049,7.415 37.835,8.89 33.511,9.943C25.301,11.036 16.778,10.417 8.825,8.013C9.733,8.047 10.641,8.079 11.549,8.123C18.898,8.09 26.358,4.083 30.355,-2.105C30.703,-2.354 31.05,-2.6 31.41,-2.83C31.769,-3.061 31.912,-3.517 31.69,-3.895C31.5,-4.217 31.062,-4.387 30.714,-4.22C28.92,-3.458 27.145,-2.664 25.388,-1.814C20.305,0.614 14.756,2.278 9.094,2.695C3.569,3.045 -2.135,2.137 -7.23,-0.087C-7.464,-0.265 -7.706,-0.429 -7.936,-0.611C-11.376,-3.291 -14.824,-5.995 -18.073,-8.886C-18.365,-9.327 -18.753,-8.877 -18.458,-8.587C-9.793,3.762 4.266,10.962 19.122,12.446C28.641,13.775 38.444,11.478 46.382,6.068C46.669,5.864 46.394,5.406 46.077,5.543" style="fill:rgb(68,8,41);fill-rule:nonzero;"/>
                </g>
                <g transform="matrix(1,0,0,1,440.083,73.7025)">
                    <path d="M0,158.902C-8.386,163.164 -17.268,166.483 -26.417,168.685C-26.386,168.287 -26.355,167.902 -26.277,167.592C-25.451,161.95 -25.317,156.252 -25.473,150.558C-25.505,147.02 -25.649,143.479 -25.661,139.943C-25.669,139.747 -25.689,139.546 -25.724,139.349C-21.562,137.107 -17.609,134.489 -13.963,131.493C-13.385,130.826 -10.979,129.345 -9.954,128.043C-9.453,128.691 -8.734,129.231 -8.263,129.874C-6.479,131.93 -4.729,134.303 -3.188,136.603C0.713,142.457 3.161,149.238 5.998,155.662C4.064,156.82 2.01,157.866 0,158.902M-27.887,162.251C-27.957,164.565 -28.311,166.867 -28.538,169.17C-33.328,170.228 -38.183,170.984 -43.075,171.403C-49.227,171.974 -55.398,172.156 -61.569,172.05C-61.526,171.478 -61.537,170.893 -61.508,170.504C-61.364,166.65 -61.295,162.79 -61.242,158.932C-61.197,155.933 -61.143,152.933 -61.1,149.934C-61.081,149.627 -61.073,149.147 -61.111,148.652C-55.707,148.544 -50.305,147.857 -45.021,146.625C-45.363,148.283 -45.314,150.772 -45.436,151.415C-45.635,155.773 -45.787,160.171 -44.956,164.475C-44.828,165.334 -44.791,166.41 -44.105,167.022C-42.611,167.539 -42.084,165.217 -41.874,162.927C-41.245,160.96 -40.798,158.934 -40.667,156.868C-40.395,153.029 -40.139,149.18 -40.122,145.329C-35.873,144.047 -31.732,142.406 -27.767,140.422C-27.912,147.689 -27.502,154.978 -27.887,162.251M-43.282,146.211C-42.429,145.991 -41.578,145.758 -40.733,145.509C-40.914,150.023 -41.448,154.503 -42.041,158.987C-42.106,159.022 -42.16,159.077 -42.164,159.174C-42.193,159.649 -42.222,160.13 -42.256,160.61C-42.36,161.386 -42.464,162.163 -42.568,162.941C-42.745,163.631 -42.951,164.316 -43.171,164.995C-43.329,159.96 -43.283,154.908 -43.241,149.869C-43.312,148.699 -43.042,147.381 -43.282,146.211M-63.892,146.318C-77.669,145.431 -92.094,139.804 -103.82,132.661C-107.03,130.572 -109.99,128.24 -112.788,125.566C-113.052,125.355 -113.301,125.087 -113.553,124.813C-115.379,120.54 -113.177,115.266 -109.244,112.977C-107.305,111.827 -105.204,111.308 -103.028,110.71C-102.331,110.503 -101.371,110.384 -100.932,109.687C-100.66,109.283 -100.536,108.833 -100.476,108.354C-100.319,106.335 -99.749,104.381 -98.745,102.597C-98.638,102.254 -98.368,101.925 -98.073,101.598C-96.77,103.087 -95.46,104.47 -94.253,105.72C-93.23,106.593 -91.744,105.148 -92.561,104.099C-92.953,103.586 -93.415,103.128 -93.86,102.664C-99.79,96.586 -106.027,88.879 -104.355,79.818C-104.198,79.051 -104.458,77.892 -105.093,77.845C-105.68,76.187 -106.252,74.524 -106.854,72.87C-109.079,67.263 -111.331,61.623 -112.627,55.695C-116.295,38.212 -114.043,18.313 -102.412,4.12C-95.767,-3.554 -86.264,-8.075 -76.691,-11C-72.358,-12.284 -67.912,-13.274 -63.374,-13.342C-63.052,-13.357 -62.728,-13.351 -62.405,-13.357C-61.939,-13.356 -61.47,-13.37 -61.041,-13.375C-60.797,-13.372 -60.551,-13.366 -60.307,-13.361C-60.127,-13.349 -59.963,-13.331 -59.835,-13.299C-53.037,-13.136 -46.417,-11.577 -40.106,-8.987C-28.013,-4.714 -18.849,5.322 -13.443,16.768C-10.549,23.986 -9.771,31.669 -9.358,39.45C-9.283,51.897 -14.055,63.699 -18.633,75.097C-18.923,75.843 -19.331,76.557 -19.563,77.324C-19.615,78.487 -19.548,79.642 -19.566,80.85C-19.428,85.103 -21.152,88.932 -23.166,92.644C-25.811,97.276 -29.025,101.557 -31.983,105.988C-32.342,106.525 -32.177,107.276 -31.64,107.627C-30.057,108.448 -29.392,106.153 -28.546,105.2C-27.712,103.964 -26.857,102.738 -26.008,101.507C-24.907,103.302 -24.279,105.395 -24.191,107.549C-24.199,108.323 -24.695,109.12 -23.922,109.715C-19.446,112.228 -13.876,113.964 -11.782,119.173C-10.826,121.388 -10.414,124.04 -11.607,126.245C-11.784,126.563 -12.042,126.866 -12.2,127.194C-18.007,131.86 -24.104,136.276 -30.895,139.397C-41.255,143.864 -52.54,146.674 -63.892,146.318M-63.408,151.698C-63.51,155.672 -63.506,159.647 -63.577,163.617C-63.611,166.411 -63.65,169.203 -63.711,171.997C-72.042,171.76 -80.368,171.003 -88.634,169.85C-103.318,167.709 -118.424,164.212 -130.407,154.987C-130.389,154.931 -130.36,154.879 -130.352,154.821C-129.564,152.152 -128.507,149.574 -127.458,147.003C-124.723,140.627 -121.218,134.57 -116.664,129.32C-109.12,135.873 -99.687,140.006 -90.355,143.355C-85.58,144.965 -80.739,146.367 -75.814,147.423C-73.824,147.649 -71.819,147.838 -69.812,148.038C-68.226,148.277 -66.678,148.439 -65.156,148.555C-64.89,148.588 -64.622,148.616 -64.355,148.651C-64.285,148.662 -64.228,148.649 -64.178,148.626C-63.94,148.641 -63.695,148.669 -63.46,148.679C-63.401,148.68 -63.342,148.677 -63.283,148.677C-63.4,149.673 -63.313,150.73 -63.408,151.698M-114.696,127.171C-114.612,127.104 -114.522,127.023 -114.432,126.933C-113.633,127.763 -112.788,128.503 -112.437,128.849C-106.508,134.194 -98.397,138.917 -89.769,142.42C-99.264,139.412 -108.357,135.099 -115.554,128.11C-115.268,127.798 -114.991,127.477 -114.696,127.171M8.015,155.053C7.293,152.086 5.799,149.275 4.641,146.448C2.955,142.734 1.153,139.052 -1.065,135.625C-1.752,134.699 -6.4,127.449 -8.941,126.066C-8.695,125.277 -8.579,124.43 -8.513,123.659C-8.29,115.307 -15.829,110.625 -22.662,107.785C-22.403,105.073 -22.872,101.776 -24.764,99.693C-22.688,96.629 -20.716,93.498 -19.229,90.106C-17.683,86.628 -17.4,82.838 -17.683,79.089C-17.052,77.365 -16.154,75.705 -15.519,73.962C-11.375,63.06 -6.965,51.771 -6.974,39.944C-7.238,32.492 -8.139,24.947 -10.446,17.835C-15.441,5.754 -24.498,-5.111 -36.797,-10.189C-43.529,-13.205 -50.756,-15.272 -58.153,-15.535C-58.199,-15.537 -58.244,-15.538 -58.29,-15.54C-64.168,-16.276 -70.313,-15.237 -75.955,-13.671C-87.489,-10.372 -99.147,-4.766 -106.272,5.241C-115.732,18.593 -118.055,35.767 -115.815,51.702C-114.72,59.3 -112.03,66.512 -109.17,73.591C-108.325,75.921 -107.508,78.292 -106.669,80.641C-108.235,87.379 -104.162,94.264 -99.504,99.916C-99.597,100.024 -99.683,100.129 -99.757,100.228C-101.865,102.347 -101.834,105.305 -102.226,108.03C-106.13,108.992 -110.439,110.065 -113.245,113.182C-115.708,116.027 -117.416,120.584 -116.16,124.279C-116.144,124.591 -115.988,124.956 -115.736,125.347C-117.279,126.492 -118.55,127.974 -119.766,129.454C-124.503,135.427 -128.098,142.256 -130.757,149.412C-130.926,150.334 -132.251,152.871 -132.31,154.44C-132.402,154.53 -132.473,154.651 -132.506,154.803C-132.657,155.589 -132.083,156.299 -131.551,156.813C-130.501,157.809 -129.335,158.667 -128.125,159.453C-109.851,171.001 -86.861,172.942 -65.754,174.279C-45.24,175.178 -24.384,172.592 -5.523,164.142C-0.78,162.124 3.813,159.729 8.187,157.002C9.038,156.423 8.688,155.412 8.015,155.053" style="fill:rgb(68,8,41);fill-rule:nonzero;"/>
                </g>
                <g transform="matrix(1,0,0,1,338.3662,107.6672)">
                    <path d="M0,-10.841C0.184,-12.582 0.958,-14.391 0.638,-16.132C0.667,-16.16 0.696,-16.199 0.726,-16.228C0.967,-14.545 0.377,-12.862 0.329,-11.16C0.29,-9.458 1.122,-7.466 2.795,-7.215C4.565,-6.944 5.9,-8.704 6.935,-10.164C9.971,-14.458 14.091,-17.979 18.811,-20.309C22.177,-21.973 25.803,-23.027 29.498,-23.811C29.111,-23.675 28.724,-23.52 28.347,-23.356C15.397,-18.375 4.565,-7.137 0.88,6.326C0.416,8.463 -0.068,10.707 -0.348,12.97C-0.783,10.542 -1.131,8.105 -1.344,5.629C-1.664,0.184 -0.918,-5.415 0,-10.841" style="fill:rgb(201,75,147);fill-rule:nonzero;"/>
                </g>
                <g transform="matrix(1,0,0,1,389.9727,119.4085)">
                    <path d="M0,-35.223C-3.868,-36.316 -7.959,-37.08 -12.012,-37.138C-9.265,-37.341 -6.527,-37.254 -3.878,-36.529C6.887,-33.569 17.293,-28.994 23.338,-19.614C23.792,-18.908 24.401,-18.095 25.233,-18.182C26.268,-18.288 26.587,-19.623 26.636,-20.667C26.713,-22.215 26.8,-23.753 26.877,-25.3C28.135,-19.217 29.16,-13.056 28.686,-6.837C28.474,-3.82 28.038,-0.841 27.458,2.118C27.032,-2.214 25.891,-6.499 24.382,-10.522C19.624,-21.238 11.51,-31.529 0,-35.223" style="fill:rgb(201,75,147);fill-rule:nonzero;"/>
                </g>
                <g transform="matrix(1,0,0,1,388.5322,96.1395)">
                    <path d="M0,108.32C-14.855,106.831 -28.918,99.635 -37.583,87.285C-37.874,86.994 -37.487,86.549 -37.196,86.985C-33.947,89.877 -30.504,92.585 -27.061,95.263C-26.829,95.447 -26.587,95.612 -26.355,95.786C-21.258,98.01 -15.552,98.919 -10.029,98.571C-4.372,98.155 1.18,96.482 6.267,94.055C8.018,93.213 9.797,92.41 11.586,91.656C11.935,91.482 12.379,91.656 12.563,91.975C12.785,92.352 12.641,92.817 12.282,93.039C11.925,93.271 11.576,93.523 11.229,93.764C7.234,99.954 -0.223,103.968 -7.573,103.997C-8.482,103.948 -9.392,103.92 -10.3,103.89C-2.351,106.289 6.18,106.908 14.381,105.815C18.714,104.761 22.921,103.291 26.954,101.415C27.273,101.279 27.544,101.734 27.254,101.937C19.323,107.353 9.517,109.645 0,108.32M31.5,102.179C32.293,101.337 33.144,100.361 33.115,99.2C33.096,98.281 32.516,97.478 31.964,96.743C30.745,95.118 29.439,93.436 27.563,92.672C25.658,91.898 23.424,92.198 21.577,91.299C21.199,91.114 20.832,90.863 20.658,90.476C20.465,90.041 20.571,89.528 20.706,89.064C21.712,85.592 23.897,82.623 25.804,79.538C25.726,79.373 25.639,79.228 25.542,79.073C24.691,80.302 23.84,81.53 23.008,82.758C22.157,83.716 21.49,86.008 19.913,85.186C19.372,84.838 19.207,84.083 19.565,83.551C21.287,80.969 23.104,78.435 24.836,75.853C21.103,78.948 16.964,81.549 12.544,83.551C11.045,84.238 9.149,84.809 7.862,83.783C16.006,77.923 24.246,71.965 30.958,64.586C31.645,62.613 32.051,60.572 31.983,58.415C32.003,57.206 31.935,56.046 31.983,54.885C32.216,54.121 32.631,53.405 32.922,52.661C37.496,41.258 42.264,29.459 42.196,17.012C41.78,9.236 41.007,1.547 38.105,-5.668C36.403,-9.275 34.324,-12.738 31.906,-15.919C34.556,-10.397 36.287,-4.565 35.707,1.46C35.648,2.041 35.523,2.698 35.021,2.998C34.188,3.491 33.23,2.611 32.689,1.818C31.925,0.725 31.19,-0.387 30.484,-1.518C30.726,-0.609 30.919,0.309 31.151,1.16C32.37,6.015 32.815,11.016 32.516,16.006C31.741,28.231 27.477,39.885 24.13,51.588C22.428,57.352 20.832,63.425 17.698,68.59C21.519,64.885 25.098,60.911 28.705,57.061C28.908,56.878 29.023,56.51 29.353,56.578C29.546,56.626 29.652,56.868 29.565,57.042C29.392,57.535 29.111,57.98 28.879,58.435C25.001,65.098 19.033,70.388 13.114,75.234C7.921,79.199 2.205,83.145 -4.294,84.219C-7.283,85.041 -10.455,85.176 -13.54,84.954C-14.082,85.012 -16.113,84.596 -18.057,83.967C-21.567,83.02 -24.865,81.453 -27.873,79.403C-31.123,77.516 -34.169,75.263 -36.936,72.778C-41.346,68.822 -45.998,64.973 -49.45,60.108C-49.847,59.537 -51.21,57.11 -50.166,57.477C-48.822,58.618 -47.661,60.011 -46.365,61.22C-43.812,63.618 -41.171,66.201 -38.405,68.716C-40.804,65.156 -42.68,61.249 -43.879,57.236C-47.874,44.769 -51.975,32.148 -53.735,19.14C-54.295,14.052 -53.744,8.946 -52.854,3.926C-52.738,3.172 -52.158,0.039 -51.423,-2.292C-53.493,0.609 -54.963,3.975 -56.713,7.118C-56.83,7.312 -56.955,7.534 -57.178,7.592C-57.468,7.679 -57.749,7.466 -57.932,7.234C-58.57,6.422 -58.638,5.3 -58.638,4.265C-58.6,-1.025 -57.342,-6.18 -55.669,-11.229C-63.058,2.079 -64.161,18.521 -61.075,33.26C-59.779,39.189 -57.526,44.827 -55.301,50.437C-54.702,52.09 -54.131,53.754 -53.542,55.407C-52.903,55.456 -52.651,56.616 -52.806,57.381C-54.479,66.443 -48.241,74.151 -42.313,80.224C-41.868,80.689 -41.404,81.153 -41.007,81.666C-40.195,82.71 -41.684,84.161 -42.7,83.28C-43.909,82.033 -45.214,80.65 -46.52,79.161C-46.82,79.489 -47.09,79.818 -47.197,80.157C-48.203,81.946 -48.764,83.9 -48.928,85.921C-48.986,86.395 -49.112,86.849 -49.382,87.246C-49.818,87.952 -50.775,88.068 -51.481,88.271C-52.69,88.6 -53.88,88.909 -55.021,89.325C-53.203,89.77 -51.191,89.47 -49.663,88.387C-48.889,87.836 -48.193,87.091 -47.265,86.879C-45.282,86.414 -43.725,88.484 -42.603,90.195C-38.667,96.211 -32.97,100.931 -26.722,104.5C-20.484,108.078 -13.676,110.554 -6.828,112.74C-18.869,116.424 -31.81,117.015 -44.179,114.664C-34.237,119.607 -23.096,123.185 -12.341,123.882C-0.986,124.239 10.3,121.425 20.658,116.957C25.252,114.848 29.526,112.15 33.608,109.161C30.522,109.587 27.418,109.79 24.313,109.79C26.712,107.256 29.102,104.713 31.5,102.179" style="fill:rgb(201,75,147);fill-rule:nonzero;"/>
                </g>
            </g>
            <g transform="matrix(1,0,0,1,375.9053,226.3936)">
                <path d="M0,-4.065C-0.05,-4.043 -0.107,-4.029 -0.178,-4.041C-0.444,-4.075 -0.712,-4.104 -0.979,-4.136C-2.5,-4.252 -4.048,-4.414 -5.634,-4.653C-7.641,-4.853 -9.646,-5.043 -11.637,-5.268C-16.562,-6.324 -21.402,-7.726 -26.178,-9.336C-35.509,-12.685 -44.942,-16.818 -52.486,-23.371C-57.04,-18.121 -60.545,-12.064 -63.28,-5.689C-64.33,-3.117 -65.387,-0.539 -66.174,2.13C-66.183,2.188 -66.211,2.24 -66.229,2.296C-54.246,11.521 -39.14,15.018 -24.456,17.159C-16.19,18.312 -7.864,19.069 0.467,19.306C0.527,16.512 0.566,13.72 0.601,10.926C0.672,6.956 0.668,2.981 0.77,-0.993C0.865,-1.961 0.777,-3.018 0.895,-4.014C0.836,-4.014 0.776,-4.011 0.718,-4.012C0.482,-4.022 0.237,-4.05 0,-4.065" style="fill:rgb(255,184,100);fill-rule:nonzero;"/>
            </g>
            <g transform="matrix(1,0,0,1,327.646,214.2068)">
                <path d="M0,-11.655C-0.351,-12.001 -1.196,-12.741 -1.995,-13.571C-2.085,-13.481 -2.175,-13.401 -2.259,-13.333C-2.554,-13.028 -2.831,-12.706 -3.117,-12.395C4.08,-5.405 13.173,-1.092 22.668,1.916C14.04,-1.587 5.929,-6.311 0,-11.655" style="fill:rgb(247,136,52);fill-rule:nonzero;"/>
            </g>
            <g transform="matrix(1,0,0,1,412.3164,245.8585)">
                <path d="M0,-31.734C-3.966,-29.75 -8.106,-28.109 -12.355,-26.827C-12.372,-22.976 -12.628,-19.127 -12.9,-15.288C-13.031,-13.222 -13.479,-11.196 -14.107,-9.229C-14.317,-6.939 -14.845,-4.617 -16.339,-5.134C-17.024,-5.746 -17.062,-6.822 -17.189,-7.681C-18.021,-11.985 -17.868,-16.383 -17.669,-20.741C-17.548,-21.384 -17.597,-23.873 -17.254,-25.531C-22.538,-24.299 -27.94,-23.612 -33.345,-23.504C-33.307,-23.009 -33.314,-22.529 -33.333,-22.222C-33.376,-19.223 -33.431,-16.223 -33.476,-13.224C-33.528,-9.366 -33.598,-5.506 -33.741,-1.652C-33.771,-1.263 -33.76,-0.678 -33.803,-0.106C-27.632,0 -21.46,-0.182 -15.309,-0.753C-10.416,-1.172 -5.562,-1.928 -0.771,-2.986C-0.544,-5.289 -0.19,-7.591 -0.12,-9.905C0.265,-17.178 -0.146,-24.467 0,-31.734" style="fill:rgb(234,99,161);fill-rule:nonzero;"/>
            </g>
            <g transform="matrix(1,0,0,1,396.9121,219.2118)">
                <path d="M0,19.486C0.22,18.807 0.426,18.122 0.603,17.432C0.707,16.654 0.811,15.877 0.915,15.101C0.949,14.62 0.978,14.14 1.007,13.665C1.011,13.568 1.064,13.513 1.13,13.478C1.723,8.993 2.257,4.514 2.438,0C1.593,0.249 0.742,0.482 -0.111,0.701C0.129,1.871 -0.141,3.19 -0.07,4.36C-0.112,9.399 -0.158,14.451 0,19.486" style="fill:rgb(201,75,147);fill-rule:nonzero;"/>
            </g>
            <g transform="matrix(1,0,0,1,431.8203,240.5557)">
                <path d="M0,-36.979C-0.472,-37.622 -1.19,-38.163 -1.691,-38.811C-2.716,-37.508 -5.122,-36.027 -5.7,-35.36C-9.347,-32.364 -13.3,-29.747 -17.461,-27.504C-17.427,-27.307 -17.406,-27.106 -17.398,-26.911C-17.387,-23.374 -17.242,-19.833 -17.21,-16.295C-17.055,-10.601 -17.188,-4.903 -18.015,0.739C-18.093,1.049 -18.123,1.434 -18.154,1.832C-9.005,-0.371 -0.123,-3.689 8.263,-7.951C10.272,-8.987 12.327,-10.033 14.261,-11.191C11.424,-17.615 8.976,-24.396 5.074,-30.25C3.533,-32.55 1.784,-34.923 0,-36.979" style="fill:rgb(255,184,100);fill-rule:nonzero;"/>
            </g>
        </g>
    </g>
</svg>
