<?xml version="1.0" encoding="UTF-8" standalone="no"?>
<!DOCTYPE svg PUBLIC "-//W3C//DTD SVG 1.1//EN" "http://www.w3.org/Graphics/SVG/1.1/DTD/svg11.dtd">
<svg width="100%" height="100%" viewBox="0 0 595 873" version="1.1" xmlns="http://www.w3.org/2000/svg" xmlns:xlink="http://www.w3.org/1999/xlink" xml:space="preserve" xmlns:serif="http://www.serif.com/" style="fill-rule:evenodd;clip-rule:evenodd;stroke-linejoin:round;stroke-miterlimit:2;">
    <g transform="matrix(1,0,0,1,-1300.044622,-1078.571367)">
        <g transform="matrix(4.166667,0,0,4.166667,0,0)">
            <g>
                <g transform="matrix(1,0,0,1,369.5996,340.464)">
                    <path d="M0,1.077C-0.641,1.676 -1.794,2.165 -2.629,1.71C-4.871,0.013 -2.273,-7.519 0.681,-4.837C1.812,-3.101 1.132,-0.509 0,1.077M6.397,-10.916C5.854,-11.542 4.843,-11.438 4.083,-11.532C2.521,-11.635 1.271,-11.684 -0.229,-11.622C-6.435,-11.195 -12.924,-10.276 -18.339,-7.068C-18.32,-7.093 -18.301,-7.115 -18.282,-7.141C-20.246,-5.365 -19.461,-2.46 -19.074,-0.208C-17.638,6.683 -11.53,12.761 -4.226,12.228C1.755,11.793 6.765,6.925 7.526,1.015C8.077,-3.024 8.301,-7.275 6.397,-10.916" style="fill:rgb(255,244,238);fill-rule:nonzero;"/>
                </g>
                <g transform="matrix(-0.597936,0.801544,0.801544,0.597936,386.890039,355.330249)">
                    <path d="M4.794,-4.885C4.867,-4.782 4.894,-4.758 4.942,-4.627C5.312,-3.207 5.584,-1.543 4.794,-0.229C3.779,1.234 1.693,1.344 0.17,0.704C2.697,0.056 4.644,-2.275 4.794,-4.885" style="fill:rgb(252,149,149);fill-rule:nonzero;"/>
                </g>
                <g transform="matrix(1,0,0,1,382.6719,314.1711)">
                    <path d="M0,60.031C-0.9,60.092 -6.433,58.98 -8.382,57.628C-8.949,58.434 -9.62,59.064 -10.105,58.294C-10.808,57.476 -7.338,54.275 -7.402,56.024C-7.46,56.114 -7.54,56.251 -7.631,56.412C-7.391,56.618 -7.17,56.868 -6.972,57.043C-2.871,59.928 3.828,59.105 7.749,56.299C8.136,56.06 8.401,55.584 8.891,55.566C9.667,55.52 10.059,56.572 9.445,57.051C6.737,59.075 3.419,60.357 0,60.031M5.172,43.194C4.529,45.062 2.561,46.31 0.598,45.788C-1.481,45.262 -3.596,43.404 -3.516,41.147C-3.641,40.948 -3.606,40.639 -3.34,40.594C-2.25,41.009 -1.274,41.903 0,41.843C1.66,41.904 3.25,41.323 4.518,40.275C4.806,39.9 5.403,39.723 5.739,40.139C6.151,41.052 5.465,42.277 5.172,43.194M-20.739,40.558C-25.642,39.694 -29.91,36.29 -32.135,31.873C-33.183,29.686 -34.166,27.191 -34.526,24.681C-36.274,25.535 -39.27,26.981 -39.764,25.645C-40.071,24.67 -36.558,22.622 -34.651,22.063C-34.604,21.282 -34.476,20.51 -34.248,19.755C-30.388,13.559 -16.374,12.135 -9.575,12.254C-8.335,12.314 -7.027,12.315 -5.88,12.858C-4.675,13.984 -3.923,15.603 -3.491,17.442C-2.919,17.239 -2.327,17.107 -1.928,17.053C-1.168,17.01 0.143,16.681 1.141,16.792C2.139,16.681 3.45,17.01 4.21,17.053C4.609,17.107 5.2,17.239 5.772,17.442C6.205,15.603 6.957,13.984 8.162,12.858C9.309,12.315 10.617,12.314 11.857,12.254C18.656,12.135 32.669,13.559 36.529,19.755C36.758,20.51 36.886,21.282 36.932,22.063C38.84,22.622 42.354,24.67 42.045,25.645C41.552,26.981 38.555,25.535 36.806,24.681C36.448,27.191 35.465,29.686 34.417,31.873C32.192,36.29 27.924,39.694 23.021,40.558C15.792,41.944 7.955,37.183 6.174,29.975C5.569,27.301 5.055,23.411 5.389,19.865C4.453,19.65 3.48,19.216 2.531,19.251C2.129,19.192 1.616,19.23 1.141,19.2C0.666,19.23 0.153,19.192 -0.249,19.251C-1.198,19.216 -2.171,19.65 -3.106,19.865C-2.772,23.411 -3.287,27.301 -3.892,29.975C-5.673,37.183 -13.51,41.944 -20.739,40.558M-27.178,8.486C-25.926,6.296 -24.283,4.047 -22.017,2.827C-19.35,1.358 -15.847,0.096 -12.974,1.699C-11.9,2.339 -10.353,4.122 -11.478,5.293C-15.435,6.694 -19.475,7.92 -23.326,9.648C-24.616,10.123 -25.847,10.829 -27.194,11.109C-27.303,11.109 -27.408,11.085 -27.496,11.02L-27.489,11.02C-28.064,10.287 -27.504,9.25 -27.178,8.486M-27.435,8.422C-27.443,8.443 -27.455,8.466 -27.462,8.486C-27.463,8.488 -27.465,8.49 -27.466,8.491C-27.454,8.467 -27.442,8.443 -27.435,8.422M15.256,1.699C18.129,0.096 21.632,1.358 24.299,2.827C26.564,4.047 28.207,6.296 29.46,8.487C29.787,9.25 30.347,10.287 29.771,11.02C29.772,11.019 29.774,11.019 29.777,11.019C29.688,11.085 29.585,11.109 29.477,11.109C28.128,10.829 26.897,10.123 25.607,9.648C21.756,7.92 17.717,6.694 13.76,5.293C12.635,4.122 14.183,2.339 15.256,1.699M3.895,80.147C3.898,80.149 3.9,80.152 3.905,80.154C4.115,80.138 4.326,80.124 4.535,80.108C14.785,79.003 23.947,71.98 30.354,64.34C36.378,56.988 38.506,47.566 40.078,38.443C40.784,34.248 41.504,30.054 42.676,25.959C42.727,25.834 42.774,25.696 42.822,25.555C42.611,20.565 42.488,15.306 41.419,10.372C37.208,6.364 33.756,1.451 32.958,-4.437C30.396,-1.217 27.352,-5.693 26.226,-8.014C24.824,-10.796 24.34,-13.959 23.999,-17.03C23.995,-17.246 23.982,-17.471 23.967,-17.698C23.745,-17.384 23.524,-17.073 23.303,-16.754C22.234,-15.321 21.4,-16.684 20.925,-17.755C20.237,-19.082 19.005,-20.123 17.442,-19.734C13.987,-18.934 11.301,-16.383 8.361,-14.542C3.719,-11.587 -1.704,-8.562 -7.365,-8.907C-8.72,-9.152 -9.758,-10.313 -9.914,-11.644C-10.704,-11.023 -11.532,-10.454 -12.386,-9.948C-15.325,-8.34 -25.607,-2.9 -24.549,-10.079C-27.682,-7.171 -31.451,-4.976 -35.507,-3.636C-35.622,-3.616 -35.748,-3.579 -35.879,-3.535C-35.856,-3.434 -35.836,-3.331 -35.834,-3.229C-35.402,0.264 -35.201,4.118 -36.662,7.396C-37.849,9.668 -39.362,11.61 -40.198,14.006C-40.973,17.684 -40.792,21.441 -40.489,25.13C-39.535,28.53 -39.056,32.035 -38.324,35.488C-35.742,47.216 -33.226,59.641 -24.637,68.461C-17.445,75.522 -7.387,79.855 2.648,80.066C3.063,80.08 3.503,80.001 3.895,80.147" style="fill:rgb(255,222,204);fill-rule:nonzero;"/>
                </g>
                <g transform="matrix(1,0,0,1,427.0273,362.4811)">
                    <path d="M0,-20.153C-0.441,-17.057 -1.347,-13.283 -1.391,-12.269C-1.874,-9.088 -2.439,-5.862 -3.171,-2.675C-2.353,-3.794 -1.609,-4.962 -1.111,-6.204C-0.11,-8.462 -0.745,-10.96 -0.154,-13.29C-0.07,-14.197 4.467,-21.455 5.065,-19.262C4.593,-18.129 3.68,-17.179 3.196,-16.025C3.518,-15.919 3.561,-15.504 3.674,-15.223C4.172,-13.113 3.758,-10.927 3.248,-8.86C2.393,-4.852 -0.314,-0.841 -4.059,0.831C-4.543,2.578 -5.081,4.305 -5.706,5.993C-5.625,5.993 -5.545,5.99 -5.465,5.969C2.12,2.949 5.582,-5.989 6.736,-13.52C7.649,-18.875 5.369,-26.146 0,-20.153" style="fill:rgb(255,222,204);fill-rule:nonzero;"/>
                </g>
                <g transform="matrix(1,0,0,1,429.7705,361.3515)">
                    <path d="M0,-13.955C-0.797,-12.08 -1.653,-10.162 -1.917,-8.141C-2.252,-5.156 -3.67,-2.536 -5.186,0C-0.551,-2.86 0.492,-8.926 0,-13.955" style="fill:rgb(252,149,149);fill-rule:nonzero;"/>
                </g>
                <g transform="matrix(1,0,0,1,436.6396,290.6684)">
                    <path d="M0,18.192C-0.38,27.091 -4.659,35.362 -6.659,43.971C-6.72,44.622 -7.52,46.312 -7.81,47.601C-8.38,47.872 -8.909,48.242 -9.38,48.681C-9.399,48.362 -9.43,48.091 -9.489,47.872C-9.319,46.221 -9.409,43.952 -9.479,42.502C-9.51,41.862 -9.529,41.391 -9.529,41.192C-9.689,38.601 -10.37,36.112 -10.8,33.562C-10.409,32.822 -11.04,32.171 -11.569,31.721C-13.859,29.362 -16.1,26.862 -17.37,23.712C-18.37,21.421 -18.93,18.832 -19.27,16.312C-19.33,15.971 -19.43,15.622 -19.71,15.391C-20.189,14.971 -20.97,15.141 -21.229,15.732C-21.479,16.312 -21.33,16.992 -21.26,17.601C-22.06,18.702 -22.67,18.872 -23.62,17.812C-25.13,16.351 -25.92,14.362 -26.47,12.351C-27.159,9.912 -27.609,7.301 -28.06,4.782C-28.27,4.042 -28.39,1.601 -29.63,2.442C-29.779,2.692 -29.88,2.962 -29.949,3.242C-30.54,3.782 -31.13,4.631 -31.46,4.952C-33.79,-1.029 -40.42,2.721 -44.01,5.312C-47.569,7.782 -51.159,9.992 -55.319,11.452C-57.26,11.921 -62.01,14.612 -62.16,10.971C-62.16,10.792 -62.18,10.601 -62.24,10.421C-60.89,9.072 -59.75,7.532 -59,5.772C-58.88,5.421 -58.399,4.662 -58.979,4.522C-59.52,4.622 -59.84,5.202 -60.27,5.502C-62.939,8.062 -65.59,10.712 -68.979,12.332C-71.24,13.462 -73.7,14.372 -76.2,14.891C-76.82,14.971 -76.54,13.962 -76.55,13.572C-76.53,12.391 -75.89,11.171 -75.99,9.992C-76.2,9.341 -77.16,9.171 -77.57,9.712C-80.64,13.721 -85.28,16.221 -90,17.962C-90.939,18.551 -93.57,18.681 -93.189,20.181C-92.859,20.782 -92.33,20.832 -91.729,20.681C-91.88,25.612 -91.72,30.712 -95.05,34.841C-96.47,37.522 -95.92,40.891 -96.09,43.851C-96.08,45.141 -95.99,46.442 -95.83,47.732C-95.899,47.872 -95.95,48.051 -96,48.272C-96.57,47.782 -97.24,47.442 -97.95,47.252C-98.37,47.131 -98.8,47.072 -99.24,47.072C-99.43,46.492 -99.72,45.872 -99.74,45.402C-101.22,39.782 -102.399,34.101 -103.58,28.412C-104.93,22.322 -105.62,16.141 -104.77,9.891C-102.17,-7.159 -76.31,-30.489 -58.38,-27.449C-51.779,-26.579 -45.34,-24.508 -39.35,-21.399C-38.409,-20.859 -37.26,-19.998 -36.21,-19.449C-35.81,-19.248 -35.33,-19.079 -34.899,-19.279C-34.06,-19.819 -34.87,-20.838 -35.409,-21.279C-36.43,-22.228 -37.55,-23.038 -38.739,-23.728C-39.14,-25.569 -40.38,-27.628 -39.31,-29.418C-32.859,-26.388 -28.199,-20.508 -24.63,-14.458C-23.279,-12.128 -22,-9.699 -20.899,-7.228C-20.71,-6.819 -20.46,-6.359 -19.989,-6.228C-19.47,-6.168 -19.149,-6.329 -18.989,-6.638C-17.659,-6.619 -16.359,-6.659 -15.01,-6.208C-6.819,-3.808 -0.529,10.221 0,18.192" style="fill:rgb(255,248,159);fill-rule:nonzero;"/>
                </g>
                <g transform="matrix(-0.958588,0.284797,0.284797,0.958588,342.825926,358.866645)">
                    <path d="M1.249,-12.712C2.95,-8.544 4.018,-3.349 1.423,0.308C1.666,-1.296 1.613,-2.945 1.249,-4.544C0.81,-6.541 0.142,-8.672 0.75,-10.681C0.876,-11.363 1.057,-12.038 1.249,-12.712" style="fill:rgb(252,149,149);fill-rule:nonzero;"/>
                </g>
                <g transform="matrix(1,0,0,1,398.2617,320.2939)">
                    <path d="M0,-2.205C4.557,-0.789 8.912,1.195 13.077,3.511C11.88,-0.532 3.571,-5.716 0,-2.205" style="fill:rgb(244,215,96);fill-rule:nonzero;"/>
                </g>
                <g transform="matrix(1,0,0,1,397.3457,346.378)">
                    <path d="M0,-10.751C2.952,-13.433 5.551,-5.901 3.309,-4.204C2.475,-3.749 1.321,-4.238 0.68,-4.837C-0.452,-6.423 -1.132,-9.015 0,-10.751M4.906,6.314C12.21,6.847 18.318,0.77 19.754,-6.122C20.143,-8.374 20.926,-11.279 18.962,-13.055C18.981,-13.029 19,-13.007 19.02,-12.981C13.604,-16.189 7.114,-17.109 0.91,-17.536C-0.59,-17.598 -1.842,-17.549 -3.402,-17.446C-4.163,-17.352 -5.174,-17.456 -5.718,-16.83C-7.62,-13.189 -7.396,-8.938 -6.846,-4.899C-6.085,1.011 -1.076,5.879 4.906,6.314" style="fill:rgb(255,244,238);fill-rule:nonzero;"/>
                </g>
                <g transform="matrix(1,0,0,1,344.1519,343.9869)">
                    <path d="M0,19.266C-0.707,18.576 -1.312,17.799 -1.833,16.973C-6.779,14.033 -7.591,7.172 -6.966,1.77C-7.524,0.914 -8.069,0.057 -8.497,-0.84C-8.306,-1.965 -6.898,-1.032 -6.45,-0.549C-1.438,3.578 -4.354,8.999 -1.793,13.992C-1.103,15.082 -0.408,16.253 0.397,17.285C-0.501,13.881 -1.254,10.44 -2.015,7.066C-2.174,6.087 -3.084,1.984 -3.454,-1.364C-3.462,-1.378 -3.473,-1.392 -3.481,-1.407C-4.262,-3.473 -7.024,-4.843 -8.705,-2.941C-9.733,-1.417 -9.659,0.436 -9.734,2.184C-9.341,9.395 -7.763,18.109 -1.229,22.274C0.043,23.025 1.214,23.617 2.478,24.109C1.921,22.533 1.415,20.934 0.955,19.319C0.684,19.513 0.317,19.561 0,19.266" style="fill:rgb(255,222,204);fill-rule:nonzero;"/>
                </g>
                <g transform="matrix(1,0,0,1,356.2871,314.5777)">
                    <path d="M0,9.227C4.165,6.912 8.52,4.927 13.076,3.511C9.506,0 1.197,5.184 0,9.227" style="fill:rgb(244,215,96);fill-rule:nonzero;"/>
                </g>
                <g transform="matrix(1,0,0,1,437.8301,443.1501)">
                    <path d="M0,-18.03C-1.2,-15.01 -1.94,-11.82 -2.78,-8.68C-4.8,-0.92 -6.41,6.98 -6.97,15C-10.021,15.86 -13.09,16.659 -16.16,17.39C-21.05,18.57 -26,19.6 -30.98,20.43C-33.24,20.8 -35.51,21.14 -37.78,21.43C-37.561,21.03 -37.43,20.56 -37.21,20.19C-35.96,17.13 -34.34,14.26 -32.48,11.54C-27.32,4.03 -23.9,0.49 -24.2,-4.57C-24.34,-6.97 -25.32,-9.73 -27.35,-13.42C-27.79,-14.22 -28.29,-15.06 -28.83,-15.96C-17.89,-26.1 -18.38,-30.381 -23.82,-39.46C-17.08,-34.48 -10.6,-29.1 -4.73,-23.131C-3.1,-21.48 -1.521,-19.78 0,-18.03" style="fill:rgb(126,163,145);fill-rule:nonzero;"/>
                </g>
                <g transform="matrix(1,0,0,1,404.5322,423.7925)">
                    <path d="M0,-20.312C1.103,-20.67 0.563,-17.699 0.468,-17.125C-1.155,-8.288 -2.664,0.591 -3.874,9.505C-3.86,9.488 -3.846,9.469 -3.833,9.452C0.497,2.901 8.293,-1.429 10.772,-9.073C11.253,-11.287 10.149,-13.321 9.217,-15.24C7.398,-18.87 5.396,-22.416 3.174,-25.818C2.235,-27.277 1.42,-28.504 0.407,-29.817C0.252,-26.65 0.104,-23.48 0,-20.312" style="fill:rgb(126,163,145);fill-rule:nonzero;"/>
                </g>
                <g transform="matrix(1,0,0,1,402.6699,409.9202)">
                    <path d="M0,-14.72C-0.05,-12.17 0,-9.611 0.18,-7.06C-0.18,-7.01 -0.51,-6.73 -0.7,-6.39C-3.97,-2.63 -7.99,0.79 -12.81,2.36C-20.229,4.34 -28.64,2.099 -34.41,-2.94C-34.85,-3.2 -36.21,-4.88 -37.14,-5.651C-36.74,-8.58 -36.78,-11.55 -37.16,-14.47C-37.16,-14.531 -37.17,-14.6 -37.18,-14.66C-37.35,-15.34 -37.43,-17.29 -37.71,-18.991C-31.38,-15.34 -24.09,-13.27 -16.89,-13.16C-16.55,-13.1 -16.26,-13.17 -16.01,-13.3C-10.96,-12.901 -4.95,-15.651 0.21,-19.06C0.11,-17.62 0.04,-16.17 0,-14.72" style="fill:rgb(255,222,204);fill-rule:nonzero;"/>
                </g>
                <g transform="matrix(1,0,0,1,401.8291,436.3639)">
                    <path d="M0,20.889C2.952,15.311 7.573,10.412 9.332,4.283C9.979,-0.048 7.08,-3.78 5.419,-7.568C2.881,-5.103 0.46,-2.734 -1.587,0.086C-2.432,6.729 -3.099,13.39 -3.489,20.074C-3.629,22.867 -3.732,25.66 -3.784,28.457C-3.567,28.432 -3.351,28.404 -3.134,28.378C-3.248,28.006 -3.057,27.608 -2.922,27.25C-2.142,25.064 -1.164,22.908 0,20.889" style="fill:rgb(126,163,145);fill-rule:nonzero;"/>
                </g>
                <g transform="matrix(1,0,0,1,328.7021,458.4267)">
                    <path d="M0,-34.956C-1.674,-32.996 -3.259,-30.963 -4.729,-28.845C-8.563,-23.272 -11.331,-17.143 -13.849,-10.903C-13.957,-10.62 -14.076,-10.288 -14.219,-9.972C-14.153,-9.93 -14.088,-9.887 -14.021,-9.849C-11.557,-8.23 -8.908,-6.732 -6.302,-5.435C-1.916,-3.329 2.603,-1.536 7.209,0C6.073,-5.198 5.394,-10.523 4.328,-15.747C2.963,-22.164 1.398,-28.549 0,-34.956" style="fill:rgb(126,163,145);fill-rule:nonzero;"/>
                </g>
                <g transform="matrix(1,0,0,1,362.4648,401.122)">
                    <path d="M0,27.463C1.897,29.795 3.757,32.154 5.437,34.65C4.923,31.499 4.38,28.353 3.826,25.209C2.774,18.266 0.654,11.441 0.272,4.416C0.288,3.341 0.675,2.745 1.111,2.986C1.126,2.65 1.141,2.316 1.149,1.979C1.273,-1.092 1.023,-4.149 0.658,-7.187C0.514,-7.023 0.376,-6.858 0.259,-6.686C-2.006,-3.526 -3.793,-0.131 -5.609,3.283C-7.201,6.663 -9.342,9.897 -10.3,13.525C-10.601,18.441 -2.757,23.493 0,27.463" style="fill:rgb(126,163,145);fill-rule:nonzero;"/>
                </g>
                <g transform="matrix(1,0,0,1,369.9302,401.3398)">
                    <path d="M0,64C-1.82,63.83 -3.64,63.63 -5.46,63.4C-14.6,62.26 -23.68,60.4 -32.45,57.61C-34.91,45.53 -37.67,33.41 -40.64,21.45C-38.42,18.91 -36.04,16.49 -33.53,14.22C-27.6,8.79 -20.97,4.09 -14.1,0C-14.82,1.33 -15.52,2.68 -16.22,3.99C-17.5,6.8 -19.48,9.43 -20.02,12.51C-20.37,18.141 -15.39,22.561 -11.05,26.521C-11.64,27.19 -12.16,27.96 -12.66,28.73C-13.11,29.45 -13.56,30.17 -14.04,30.83C-14.99,32.32 -15.94,33.98 -16.39,35.7C-16.8,37.24 -16.81,38.83 -16.08,40.4C-11.56,48.811 -3.97,55.25 0,64" style="fill:rgb(126,163,145);fill-rule:nonzero;"/>
                </g>
                <g transform="matrix(1,0,0,1,402.7969,463.4005)">
                    <path d="M0,-55.422C0.152,-55.876 0.274,-56.353 0.396,-56.831C0.389,-57.002 0.377,-57.166 0.341,-57.304C0.312,-57.564 0.291,-57.824 0.265,-58.084C-0.531,-57.141 -1.662,-56.197 -2.02,-55.67C-6.35,-51.018 -12.239,-47.672 -18.758,-48.114C-25.748,-48.324 -33.783,-51.27 -37.538,-57.471C-37.66,-56.846 -37.805,-56.226 -37.972,-55.61C-34.308,-39.082 -31.27,-22.308 -29.833,-5.437C-29.691,-3.028 -29.533,-0.629 -29.442,1.782C-29.437,1.939 -29.47,2.089 -29.523,2.228C-22,2.662 -14.463,2.417 -6.971,1.657C-7.012,-11.756 -5.348,-25.125 -3.249,-38.336C-2.36,-44.067 -1.483,-49.807 0,-55.422" style="fill:rgb(236,255,210);fill-rule:nonzero;"/>
                </g>
                <g transform="matrix(1,0,0,1,362.4131,462.8237)">
                    <path d="M0,-31.563C-0.658,-32.278 -1.408,-33.002 -2.198,-33.74C-8.323,-23.252 -8.772,-23.849 -0.989,-13.511C-0.402,-12.859 6.668,-2.623 8.805,2.177C8.424,-6.352 7.391,-14.816 6.089,-23.243C4.266,-26.165 2.537,-29.165 0,-31.563" style="fill:rgb(126,163,145);fill-rule:nonzero;"/>
                </g>
                <g transform="matrix(1,0,0,1,383.8408,355.3391)">
                    <path d="M0,3.697C-1.526,3.545 -2.697,2.331 -3.614,1.186C-3.691,1.069 -3.694,1.033 -3.732,0.913C-1.552,2.353 1.481,2.187 3.512,0.548C3.113,2.152 1.778,3.758 0,3.697M3.349,-0.893C2.081,0.155 0.491,0.736 -1.169,0.675C-2.443,0.735 -3.419,-0.159 -4.509,-0.574C-4.775,-0.529 -4.81,-0.22 -4.685,-0.021C-4.765,2.236 -2.65,4.094 -0.571,4.62C1.392,5.142 3.36,3.894 4.003,2.026C4.296,1.109 4.982,-0.116 4.57,-1.029C4.234,-1.445 3.637,-1.268 3.349,-0.893" style="fill:rgb(38,7,61);fill-rule:nonzero;"/>
                </g>
                <g transform="matrix(1,0,0,1,391.5625,373.2373)">
                    <path d="M0,-3.5C-0.489,-3.482 -0.755,-3.006 -1.142,-2.768C-5.062,0.039 -11.762,0.862 -15.863,-2.023C-16.061,-2.198 -16.281,-2.448 -16.522,-2.654C-16.43,-2.815 -16.351,-2.952 -16.293,-3.042C-16.229,-4.791 -19.698,-1.59 -18.996,-0.772C-18.511,-0.002 -17.84,-0.632 -17.273,-1.438C-15.323,-0.086 -9.791,1.025 -8.891,0.965C-5.472,1.291 -2.153,0.009 0.555,-2.016C1.168,-2.494 0.776,-3.546 0,-3.5" style="fill:rgb(38,7,61);fill-rule:nonzero;"/>
                </g>
                <g transform="matrix(1,0,0,1,366.9707,333.3998)">
                    <path d="M0,8.774C0.835,9.229 1.988,8.74 2.629,8.141C3.761,6.555 4.441,3.963 3.31,2.227C0.356,-0.455 -2.242,7.077 0,8.774" style="fill:rgb(38,7,61);fill-rule:nonzero;"/>
                </g>
                <g transform="matrix(1,0,0,1,369.3633,321.4589)">
                    <path d="M0,-3.37C-4.556,-1.954 -8.911,0.03 -13.076,2.346C-11.879,-1.697 -3.57,-6.881 0,-3.37M-14.187,3.733C-14.099,3.797 -13.994,3.821 -13.886,3.821C-12.538,3.541 -11.307,2.835 -10.017,2.36C-6.166,0.632 -2.126,-0.594 1.831,-1.995C2.956,-3.166 1.408,-4.949 0.335,-5.589C-2.538,-7.191 -6.041,-5.93 -8.708,-4.461C-10.974,-3.241 -12.617,-0.992 -13.869,1.198C-14.196,1.962 -14.756,2.999 -14.18,3.733L-14.187,3.733Z" style="fill:rgb(38,7,61);fill-rule:nonzero;"/>
                </g>
                <g transform="matrix(1,0,0,1,365.374,329.7294)">
                    <path d="M0,22.963C-7.304,23.495 -13.412,17.418 -14.848,10.526C-15.236,8.275 -16.02,5.369 -14.056,3.594C-14.075,3.619 -14.094,3.642 -14.113,3.667C-8.698,0.459 -2.209,-0.461 3.996,-0.888C5.496,-0.949 6.747,-0.9 8.309,-0.798C9.069,-0.703 10.08,-0.808 10.623,-0.182C12.526,3.46 12.303,7.711 11.752,11.749C10.99,17.659 5.981,22.527 0,22.963M26.254,-0.182C26.798,-0.808 27.809,-0.703 28.569,-0.798C30.13,-0.9 31.382,-0.949 32.882,-0.888C39.086,-0.461 45.575,0.459 50.991,3.667C50.972,3.642 50.953,3.619 50.934,3.594C52.897,5.369 52.114,8.275 51.726,10.526C50.29,17.418 44.182,23.495 36.878,22.963C30.896,22.527 25.887,17.659 25.126,11.749C24.575,7.711 24.352,3.46 26.254,-0.182M13.406,14.417C14.011,11.742 14.525,7.853 14.191,4.307C15.127,4.092 16.1,3.657 17.049,3.692C17.451,3.634 17.964,3.672 18.438,3.642C18.914,3.672 19.427,3.634 19.829,3.692C20.778,3.657 21.751,4.092 22.687,4.307C22.353,7.853 22.867,11.742 23.472,14.417C25.253,21.625 33.09,26.386 40.319,25C45.222,24.136 49.49,20.732 51.715,16.315C52.763,14.128 53.746,11.633 54.104,9.123C55.853,9.977 58.85,11.423 59.343,10.087C59.651,9.111 56.138,7.064 54.229,6.505C54.184,5.724 54.056,4.951 53.827,4.196C49.967,-1.999 35.954,-3.423 29.155,-3.305C27.915,-3.244 26.606,-3.243 25.46,-2.7C24.255,-1.574 23.503,0.045 23.07,1.884C22.498,1.681 21.907,1.549 21.508,1.495C20.748,1.451 19.437,1.123 18.438,1.234C17.44,1.123 16.13,1.451 15.37,1.495C14.971,1.549 14.379,1.681 13.807,1.884C13.375,0.045 12.623,-1.574 11.418,-2.7C10.271,-3.243 8.963,-3.244 7.723,-3.305C0.924,-3.423 -13.09,-1.999 -16.95,4.196C-17.178,4.951 -17.306,5.724 -17.353,6.505C-19.26,7.064 -22.773,9.111 -22.466,10.087C-21.972,11.423 -18.976,9.977 -17.228,9.123C-16.868,11.633 -15.885,14.128 -14.837,16.315C-12.612,20.732 -8.344,24.136 -3.441,25C3.788,26.386 11.625,21.625 13.406,14.417" style="fill:rgb(38,7,61);fill-rule:nonzero;"/>
                </g>
                <g transform="matrix(1,0,0,1,400.6543,333.3998)">
                    <path d="M0,8.774C2.242,7.077 -0.356,-0.455 -3.309,2.227C-4.44,3.963 -3.761,6.555 -2.629,8.141C-1.987,8.74 -0.834,9.229 0,8.774" style="fill:rgb(38,7,61);fill-rule:nonzero;"/>
                </g>
                <g transform="matrix(1,0,0,1,411.3389,315.7437)">
                    <path d="M0,8.061C-4.165,5.746 -8.521,3.761 -13.077,2.345C-9.506,-1.166 -1.197,4.018 0,8.061M-3.06,8.076C-1.77,8.55 -0.539,9.256 0.81,9.537C0.918,9.537 1.021,9.512 1.11,9.447C1.107,9.447 1.105,9.447 1.104,9.448C1.68,8.714 1.12,7.677 0.793,6.915C-0.46,4.723 -2.103,2.474 -4.368,1.254C-7.035,-0.214 -10.538,-1.476 -13.411,0.126C-14.484,0.766 -16.032,2.549 -14.907,3.72C-10.95,5.122 -6.911,6.347 -3.06,8.076" style="fill:rgb(38,7,61);fill-rule:nonzero;"/>
                </g>
                <g transform="matrix(1,0,0,1,355.2373,322.6618)">
                    <path d="M0,-0.069C-0.008,-0.048 -0.019,-0.024 -0.031,0C-0.03,-0.001 -0.029,-0.003 -0.028,-0.005C-0.02,-0.025 -0.009,-0.048 0,-0.069" style="fill:rgb(38,7,61);fill-rule:nonzero;"/>
                </g>
                <g transform="matrix(1,0,0,1,371.1572,467.9075)">
                    <path d="M0,-0.013C0,-0.013 0.165,-0.001 0.164,0C0.148,-0.002 0.132,-0.004 0.116,-0.006C0.077,-0.008 0.039,-0.01 0,-0.013" style="fill:rgb(38,7,61);fill-rule:nonzero;"/>
                </g>
                <g transform="matrix(1,0,0,1,449.8809,276.271)">
                    <path d="M0,174.979C-5.689,177.644 -11.653,179.74 -17.723,181.509C-17.615,180.188 -17.513,178.867 -17.388,177.546C-17.033,172.954 -16.176,168.477 -15.134,163.984C-13.976,159.205 -13.166,154.285 -11.314,149.713C-10.697,150.437 -10.068,151.151 -9.47,151.892C-4.344,158.475 -0.566,166.015 2.682,173.669C1.812,173.721 0.835,174.713 0,174.979M-28.208,184.272C-35.322,185.991 -42.548,187.379 -49.827,188.305C-49.613,187.91 -49.484,187.437 -49.256,187.068C-48.01,184.01 -46.395,181.137 -44.526,178.42C-36.384,166.558 -32.581,164.617 -40.878,150.917C-29.937,140.78 -30.433,136.495 -35.867,127.419C-27.269,133.779 -19.083,140.781 -12.049,148.848C-13.254,151.867 -13.994,155.058 -14.833,158.195C-16.852,165.961 -18.464,173.861 -19.021,181.875C-22.068,182.741 -25.136,183.535 -28.208,184.272M-51.186,188.471C-51.402,188.497 -51.619,188.525 -51.836,188.55C-51.784,185.753 -51.681,182.959 -51.541,180.166C-51.15,173.483 -50.483,166.822 -49.639,160.179C-47.592,157.359 -45.171,154.99 -42.633,152.525C-40.972,156.313 -38.073,160.045 -38.72,164.375C-40.479,170.505 -45.1,175.404 -48.052,180.982C-49.216,183 -50.193,185.157 -50.974,187.343C-51.108,187.701 -51.3,188.099 -51.186,188.471M-76.607,189.358C-76.554,189.218 -76.521,189.069 -76.526,188.912C-76.617,186.5 -76.775,184.101 -76.917,181.693C-78.354,164.822 -81.392,148.047 -85.056,131.519C-84.889,130.904 -84.744,130.284 -84.622,129.659C-80.867,135.86 -72.832,138.805 -65.842,139.015C-59.323,139.458 -53.434,136.112 -49.104,131.459C-48.746,130.932 -47.615,129.989 -46.819,129.045C-46.793,129.305 -46.771,129.566 -46.743,129.826C-46.707,129.963 -46.695,130.127 -46.688,130.298C-46.81,130.777 -46.932,131.253 -47.084,131.708C-48.567,137.323 -49.444,143.063 -50.333,148.793C-52.432,162.004 -54.096,175.374 -54.055,188.787C-61.547,189.546 -69.084,189.792 -76.607,189.358M-88.457,173.042C-96.24,162.704 -95.791,163.3 -89.666,152.813C-88.876,153.55 -88.126,154.275 -87.468,154.99C-84.931,157.388 -83.202,160.388 -81.379,163.31C-80.077,171.737 -79.044,180.201 -78.663,188.73C-80.8,183.93 -87.87,173.694 -88.457,173.042M-112.403,182.675C-114.858,170.6 -117.622,158.482 -120.595,146.52C-113.104,137.942 -103.807,130.875 -94.052,125.071C-94.774,126.403 -95.473,127.745 -96.17,129.064C-97.455,131.872 -99.431,134.5 -99.967,137.58C-100.318,143.211 -95.343,147.632 -90.999,151.586C-92.143,152.883 -92.986,154.517 -93.988,155.9C-95.805,158.716 -97.581,162.135 -96.031,165.466C-91.509,173.882 -83.919,180.322 -79.951,189.071C-90.922,188.025 -101.887,186.029 -112.403,182.675M-127.481,176.72C-130.087,175.423 -132.736,173.925 -135.2,172.307C-135.267,172.269 -135.332,172.226 -135.398,172.184C-135.255,171.868 -135.136,171.536 -135.028,171.252C-132.51,165.013 -129.741,158.883 -125.907,153.311C-124.438,151.193 -122.853,149.16 -121.179,147.2C-119.781,153.607 -118.216,159.992 -116.851,166.409C-115.785,171.632 -115.106,176.958 -113.97,182.156C-118.576,180.62 -123.095,178.827 -127.481,176.72M-93.025,128.134C-91.209,124.72 -89.422,121.325 -87.157,118.165C-87.04,117.993 -86.902,117.828 -86.758,117.664C-86.393,120.702 -86.143,123.759 -86.267,126.83C-86.275,127.166 -86.29,127.5 -86.305,127.837C-86.741,127.596 -87.128,128.192 -87.144,129.267C-86.762,136.291 -84.642,143.117 -83.59,150.06C-83.036,153.204 -82.493,156.35 -81.979,159.5C-83.659,157.005 -85.519,154.646 -87.416,152.314C-90.173,148.344 -98.017,143.292 -97.716,138.375C-96.758,134.748 -94.617,131.514 -93.025,128.134M-47.028,126.587C-47.392,126.642 -47.724,126.916 -47.913,127.261C-51.181,131.015 -55.2,134.44 -60.024,136.009C-67.439,137.99 -75.855,135.752 -81.623,130.71C-82.061,130.448 -83.421,128.768 -84.347,127.997C-83.943,125.014 -83.989,121.968 -84.388,118.99C-84.564,118.31 -84.637,116.359 -84.923,114.657C-78.595,118.306 -71.298,120.384 -64.1,120.486C-63.76,120.545 -63.47,120.476 -63.225,120.346C-58.167,120.746 -52.161,118 -47.005,114.585C-47.282,118.581 -47.306,122.592 -47.028,126.587M-91.846,106.361C-100.435,97.541 -102.951,85.116 -105.533,73.388C-106.265,69.935 -106.744,66.43 -107.698,63.03C-108.001,59.341 -108.182,55.584 -107.407,51.906C-106.571,49.51 -105.058,47.568 -103.871,45.296C-102.41,42.018 -102.611,38.165 -103.043,34.671C-103.045,34.569 -103.065,34.466 -103.088,34.365C-102.957,34.321 -102.831,34.284 -102.716,34.264C-98.66,32.924 -94.891,30.729 -91.758,27.821C-92.816,35 -82.534,29.56 -79.595,27.952C-78.741,27.446 -77.913,26.877 -77.123,26.256C-76.967,27.587 -75.929,28.749 -74.574,28.994C-68.913,29.338 -63.49,26.313 -58.848,23.358C-55.908,21.517 -53.222,18.966 -49.767,18.167C-48.204,17.777 -46.972,18.818 -46.284,20.145C-45.809,21.216 -44.975,22.58 -43.906,21.146C-43.685,20.828 -43.464,20.516 -43.242,20.203C-43.227,20.429 -43.214,20.654 -43.21,20.871C-42.869,23.941 -42.385,27.104 -40.983,29.886C-39.857,32.208 -36.813,36.683 -34.251,33.463C-33.453,39.351 -30.001,44.264 -25.79,48.272C-24.721,53.207 -24.598,58.465 -24.387,63.456C-24.435,63.596 -24.482,63.734 -24.533,63.859C-25.705,67.955 -26.425,72.148 -27.131,76.343C-28.703,85.466 -30.831,94.888 -36.855,102.24C-43.262,109.88 -52.424,116.903 -62.674,118.008C-62.883,118.024 -63.094,118.039 -63.304,118.054C-63.309,118.052 -63.311,118.049 -63.314,118.047C-63.706,117.901 -64.146,117.98 -64.561,117.966C-74.596,117.755 -84.654,113.422 -91.846,106.361M-108.331,83.296C-111.86,80.529 -112.316,75.245 -111.872,70.766C-111.496,71.357 -111.131,71.954 -110.816,72.571C-109.661,74.323 -109.694,76.556 -109.546,78.595C-109.44,80.232 -109.021,81.828 -108.331,83.296M-106.958,89.99C-113.492,85.825 -115.07,77.111 -115.463,69.9C-115.388,68.152 -115.462,66.299 -114.434,64.775C-112.753,62.873 -109.991,64.243 -109.21,66.309C-109.202,66.324 -109.191,66.338 -109.183,66.352C-108.813,69.7 -107.903,73.803 -107.744,74.782C-106.983,78.156 -106.23,81.597 -105.332,85C-106.137,83.969 -106.832,82.798 -107.522,81.708C-110.083,76.715 -107.167,71.294 -112.179,67.166C-112.627,66.684 -114.035,65.75 -114.226,66.875C-113.798,67.773 -113.253,68.63 -112.695,69.486C-113.32,74.888 -112.508,81.749 -107.562,84.689C-107.041,85.515 -106.436,86.291 -105.729,86.982C-105.412,87.277 -105.045,87.229 -104.774,87.035C-104.314,88.65 -103.808,90.249 -103.251,91.825C-104.515,91.333 -105.686,90.741 -106.958,89.99M-116.82,42.809C-118.175,36.722 -118.856,30.537 -118.009,24.293C-115.415,7.237 -89.547,-16.094 -71.618,-13.046C-65.021,-12.176 -58.581,-10.108 -52.594,-7C-51.651,-6.461 -50.501,-5.605 -49.453,-5.05C-49.055,-4.855 -48.57,-4.679 -48.145,-4.886C-47.304,-5.416 -48.115,-6.437 -48.652,-6.882C-49.67,-7.835 -50.793,-8.638 -51.982,-9.333C-52.384,-11.173 -53.622,-13.232 -52.555,-15.024C-46.104,-11.986 -41.437,-6.108 -37.873,-0.062C-36.521,2.267 -35.24,4.703 -34.136,7.172C-33.952,7.583 -33.698,8.043 -33.229,8.168C-32.708,8.229 -32.391,8.074 -32.228,7.761C-30.9,7.782 -29.604,7.738 -28.25,8.194C-20.062,10.591 -13.775,24.623 -13.236,32.588C-13.618,41.493 -17.899,49.758 -19.904,58.367C-19.962,59.024 -20.761,60.711 -21.051,62.002C-21.619,62.272 -22.152,62.638 -22.625,63.077C-22.638,62.758 -22.673,62.485 -22.734,62.266C-22.476,59.901 -22.782,56.247 -22.771,55.593C-22.926,52.998 -23.615,50.51 -24.045,47.958C-23.652,47.224 -24.276,46.564 -24.814,46.121C-27.102,43.76 -29.339,41.262 -30.61,38.113C-31.607,35.82 -32.171,33.226 -32.511,30.714C-32.569,30.371 -32.667,30.023 -32.948,29.789C-33.428,29.373 -34.209,29.54 -34.466,30.125C-34.721,30.708 -34.566,31.389 -34.5,32.002C-35.304,33.099 -35.908,33.271 -36.855,32.208C-38.368,30.75 -39.164,28.763 -39.706,26.75C-40.396,24.307 -40.85,21.704 -41.304,19.179C-41.512,18.439 -41.633,16 -42.874,16.839C-43.023,17.09 -43.117,17.36 -43.186,17.637C-43.783,18.18 -44.371,19.033 -44.705,19.346C-47.026,13.373 -53.665,17.123 -57.254,19.713C-60.807,22.182 -64.402,24.385 -68.563,25.845C-70.502,26.316 -75.253,29.008 -75.396,25.37C-75.396,25.19 -75.425,24.995 -75.484,24.815C-74.128,23.474 -72.988,21.93 -72.243,20.17C-72.122,19.815 -71.64,19.063 -72.224,18.92C-72.763,19.018 -73.076,19.595 -73.513,19.897C-76.183,22.459 -78.829,25.112 -82.216,26.729C-84.484,27.861 -86.938,28.771 -89.442,29.285C-90.058,29.372 -89.776,28.363 -89.791,27.974C-89.77,26.792 -89.129,25.571 -89.235,24.393C-89.438,23.737 -90.398,23.568 -90.807,24.109L-90.81,24.1C-93.868,28.12 -98.517,30.621 -103.243,32.362C-104.178,32.948 -106.806,33.08 -106.427,34.577C-106.105,35.179 -105.566,35.232 -104.97,35.084C-105.12,40.01 -104.962,45.107 -108.289,49.238C-109.715,51.918 -109.162,55.289 -109.328,58.246C-109.322,59.541 -109.229,60.837 -109.066,62.127C-109.139,62.272 -109.195,62.454 -109.237,62.666C-110.141,61.901 -111.303,61.48 -112.485,61.474C-112.668,60.886 -112.957,60.265 -112.984,59.801C-114.458,54.178 -115.643,48.498 -116.82,42.809M-25.296,85.081C-23.78,82.544 -22.362,79.924 -22.027,76.94C-21.764,74.918 -20.907,73 -20.11,71.125C-19.618,76.155 -20.661,82.22 -25.296,85.081M-16.117,72.69C-17.271,80.221 -20.733,89.159 -28.318,92.179C-28.398,92.2 -28.479,92.204 -28.56,92.203C-27.935,90.515 -27.396,88.789 -26.912,87.041C-23.168,85.37 -20.461,81.358 -19.605,77.35C-19.096,75.283 -18.682,73.097 -19.18,70.987C-19.293,70.707 -19.336,70.291 -19.657,70.185C-19.174,69.031 -18.261,68.082 -17.788,66.948C-18.387,64.755 -22.924,72.013 -23.008,72.92C-23.599,75.25 -22.964,77.749 -23.965,80.006C-24.463,81.249 -25.206,82.416 -26.024,83.535C-25.293,80.348 -24.728,77.123 -24.244,73.941C-24.2,72.927 -23.295,69.153 -22.854,66.057C-17.484,60.064 -15.204,67.335 -16.117,72.69M-42.175,121.704C-39.952,125.105 -37.95,128.652 -36.132,132.282C-35.199,134.201 -34.096,136.235 -34.576,138.449C-37.056,146.092 -44.852,150.422 -49.182,156.973C-49.194,156.991 -49.209,157.009 -49.223,157.027C-48.013,148.113 -46.504,139.234 -44.881,130.396C-44.785,129.823 -44.246,126.851 -45.349,127.209C-45.244,124.041 -45.097,120.872 -44.941,117.705C-43.929,119.017 -43.113,120.245 -42.175,121.704M1.27,164.737C-2.71,156.405 -8.195,148.83 -14.778,142.327C-21.85,135.396 -29.38,128.704 -37.712,123.345C-38.03,123.208 -38.312,123.123 -38.557,123.08C-39.323,121.862 -40.139,120.567 -40.999,119.168C-41.566,118.448 -43.431,115.458 -44.809,114.961C-44.777,114.304 -44.744,113.647 -44.714,112.99C-42.322,111.236 -40.202,109.413 -38.572,107.817C-34.296,103.875 -31.347,99.071 -29.217,93.865C-28.864,94.041 -28.472,94.148 -28.172,94.151C-23.841,93.528 -19.998,89.432 -17.949,85.737C-14.98,79.89 -10.521,67.051 -16.695,62.178C-17.461,61.679 -18.281,61.479 -19.093,61.504C-18.605,60.039 -18.152,58.557 -17.592,57.116C-14.621,48.588 -11.887,39.831 -11.143,30.772C-11.166,26.612 -13.105,22.728 -14.896,19.065C-18.174,12.879 -23.109,5.628 -30.889,5.667C-31.213,5.66 -31.762,5.762 -32.285,5.948C-33.38,1.925 -38.91,-6.22 -39.757,-7.246C-42.888,-11.284 -46.696,-14.94 -51.347,-17.16C-52.743,-17.871 -54.379,-17.005 -54.901,-15.6C-55.5,-13.997 -55.232,-12.27 -54.636,-10.669C-57.475,-11.932 -60.523,-12.828 -63.414,-13.8C-71.4,-16.289 -80.273,-16.68 -87.855,-12.726C-101.14,-6.857 -112.314,4.18 -118.535,17.289C-123.552,29.11 -117.89,49.395 -114.021,61.719C-114.452,61.858 -114.871,62.036 -115.253,62.301C-119.575,65.568 -117.586,74.408 -116.613,79.016C-114.793,86.671 -110.329,92.756 -102.362,94.583C-102.308,94.598 -102.25,94.606 -102.193,94.618C-100.581,98.558 -98.535,102.291 -95.768,105.615C-93.37,108.508 -90.515,111.039 -87.357,113.154C-87.247,113.941 -87.139,114.73 -87.032,115.521C-87.438,115.749 -87.804,116.093 -88.127,116.388C-89.729,118.075 -91.078,120 -92.306,122.018C-92.835,122.188 -93.37,122.44 -93.688,122.569C-100.068,125.381 -105.58,129.783 -110.962,134.143C-120.631,141.932 -128.978,151.535 -134.056,162.948C-135.365,165.807 -136.527,168.731 -137.774,171.616C-138.04,172.217 -137.731,172.94 -137.134,173.194C-136.926,173.277 -136.746,173.292 -136.579,173.282C-135.614,174.12 -134.312,174.963 -133.751,175.366C-118.284,185.214 -96.769,189.874 -78.607,191.63C-61.728,192.85 -44.755,190.597 -28.321,186.772C-18.573,184.436 -8.773,181.865 0.253,177.417C1.163,176.733 3.94,176.007 3.802,174.625C4.271,174.609 4.735,174.32 4.847,173.819C4.983,173.212 4.689,172.632 4.499,172.069C3.502,169.589 2.429,167.142 1.27,164.737" style="fill:rgb(38,7,61);fill-rule:nonzero;"/>
                </g>
                <g transform="matrix(1,0,0,1,433.8604,296.5608)">
                    <path d="M0,16.489C-0.54,18.499 -1.221,20.479 -2.021,22.409C-2.83,19.599 -4.38,16.999 -6.49,14.959C-3.721,19.269 -4.25,24.849 -5.21,29.88C-5.641,32.139 -6.13,34.38 -6.7,36.609C-6.73,35.969 -6.75,35.499 -6.75,35.3C-6.91,32.709 -7.591,30.219 -8.021,27.67C-7.63,26.929 -8.261,26.279 -8.79,25.829C-11.08,23.469 -13.32,20.969 -14.591,17.819C-15.591,15.529 -16.15,12.939 -16.49,10.42C-16.551,10.079 -16.65,9.729 -16.931,9.499C-17.41,9.079 -18.19,9.249 -18.45,9.84C-18.7,10.42 -18.551,11.099 -18.48,11.709C-19.28,12.809 -19.891,12.979 -20.841,11.92C-22.351,10.459 -23.141,8.469 -23.69,6.459C-24.38,4.019 -24.83,1.409 -25.28,-1.111C-25.49,-1.851 -25.61,-4.291 -26.851,-3.45C-27,-3.2 -27.101,-2.931 -27.17,-2.651C-27.761,-2.111 -28.351,-1.261 -28.681,-0.941C-31.011,-6.921 -37.641,-3.171 -41.23,-0.58C-44.79,1.889 -48.38,4.099 -52.54,5.559C-54.48,6.029 -59.23,8.719 -59.38,5.079C-59.38,4.899 -59.4,4.709 -59.46,4.529C-58.11,3.179 -56.971,1.639 -56.221,-0.12C-56.101,-0.471 -55.62,-1.231 -56.2,-1.37C-56.74,-1.271 -57.061,-0.691 -57.49,-0.391C-60.16,2.17 -62.811,4.819 -66.2,6.439C-68.46,7.569 -70.92,8.479 -73.42,8.999C-74.041,9.079 -73.76,8.069 -73.771,7.679C-73.75,6.499 -73.11,5.279 -73.21,4.099C-73.42,3.449 -74.38,3.279 -74.791,3.819C-77.86,7.829 -82.5,10.329 -87.22,12.069C-88.16,12.659 -90.791,12.789 -90.41,14.289C-90.08,14.889 -89.55,14.939 -88.95,14.789C-89.101,19.719 -88.94,24.819 -92.271,28.949C-93.69,31.63 -93.141,34.999 -93.311,37.959C-93.3,39.249 -93.21,40.55 -93.05,41.84C-93.12,41.979 -93.17,42.159 -93.22,42.38C-93.791,41.889 -94.46,41.55 -95.17,41.359C-96.561,32.8 -97.791,24.209 -97.95,15.55C-98,12.939 -97.94,10.279 -97.16,7.789C-95.66,3.019 -91.74,-0.521 -87.99,-3.821C-89.5,-2.891 -91.16,-2.211 -92.891,-1.801C-93.23,-1.721 -93.62,-1.66 -93.9,-1.87C-94.09,-2.011 -94.19,-2.251 -94.25,-2.471C-94.88,-4.74 -93.291,-6.981 -91.68,-8.7C-83.84,-17.12 -73.18,-23.091 -61.76,-24.49C-50.33,-25.891 -38.23,-22.49 -29.761,-14.691C-30.351,-16.961 -30.7,-19.291 -30.811,-21.631C-30.86,-22.711 -30.431,-24.2 -29.36,-24.061C-28.88,-23.99 -28.53,-23.58 -28.23,-23.2C-24.9,-18.941 -21.95,-14.381 -19.41,-9.611C-16.49,-10.421 -13.63,-9.101 -11.181,-7.311C-8.73,-5.521 -6.92,-3.001 -5.28,-0.45C-3.79,1.849 -2.41,4.229 -1.13,6.649C-0.38,8.079 0.34,9.55 0.58,11.139C0.84,12.929 0.47,14.739 0,16.489" style="fill:rgb(244,215,96);fill-rule:nonzero;"/>
                </g>
                <g transform="matrix(1,0,0,1,402.8799,402.0004)">
                    <path d="M0,-11.14C-0.1,-9.701 -0.17,-8.25 -0.21,-6.8C-4.33,-3.55 -10.72,0 -18.88,0C-26.06,0 -32.55,-3.21 -37.37,-6.55C-37.37,-6.611 -37.38,-6.68 -37.39,-6.741C-37.56,-7.42 -37.64,-9.37 -37.92,-11.071C-31.59,-7.42 -24.3,-5.35 -17.1,-5.241C-16.76,-5.18 -16.47,-5.25 -16.22,-5.38C-11.17,-4.981 -5.16,-7.731 0,-11.14" style="fill:rgb(252,149,149);fill-rule:nonzero;"/>
                </g>
                <g transform="matrix(1,0,0,1,357.27,401.3403)">
                    <path d="M0,28.73C-3.71,24.07 -8.52,17.99 -10.27,15.66C-11.83,13.58 -16.62,13.66 -20.87,14.219C-14.94,8.79 -8.31,4.089 -1.44,0C-2.16,1.33 -2.86,2.679 -3.56,3.99C-4.84,6.799 -6.82,9.429 -7.36,12.509C-7.71,18.14 -2.73,22.56 1.61,26.52C1.02,27.19 0.5,27.959 0,28.73" style="fill:rgb(97,145,125);fill-rule:nonzero;"/>
                </g>
                <g transform="matrix(1,0,0,1,369.9302,437.0398)">
                    <path d="M0,28.3C-1.82,28.13 -3.64,27.93 -5.46,27.7C-9.38,21.17 -14.24,13.21 -15.93,10.96C-18.4,7.67 -16.97,1.92 -16.39,0C-16.8,1.54 -16.81,3.13 -16.08,4.7C-11.56,13.111 -3.97,19.55 0,28.3" style="fill:rgb(97,145,125);fill-rule:nonzero;"/>
                </g>
                <g transform="matrix(1,0,0,1,413.6299,464.5801)">
                    <path d="M0,-26C0.97,-22.95 1.92,-19.22 1.37,-17.58C0.76,-15.76 -3.5,-7.35 -6.78,-1C-9.04,-0.63 -11.31,-0.29 -13.58,0C-13.36,-0.4 -13.229,-0.87 -13.01,-1.24C-11.76,-4.3 -10.14,-7.17 -8.28,-9.89C-3.12,-17.4 0.3,-20.94 0,-26" style="fill:rgb(97,145,125);fill-rule:nonzero;"/>
                </g>
                <g transform="matrix(1,0,0,1,433.0996,413.4015)">
                    <path d="M0,6.618C-3.239,5.009 -9.619,2.118 -11.1,3.598C-12.239,4.738 -17.939,11.089 -22.619,16.329C-23.06,15.528 -23.56,14.688 -24.1,13.789C-13.159,3.648 -13.649,-0.632 -19.09,-9.711C-12.35,-4.732 -5.869,0.648 0,6.618" style="fill:rgb(97,145,125);fill-rule:nonzero;"/>
                </g>
            </g>
            <g transform="matrix(1,0,0,1,438.5664,457.7804)">
                <path d="M0,-31.796C-1.852,-27.225 -2.661,-22.305 -3.819,-17.525C-4.861,-13.032 -5.719,-8.556 -6.073,-3.963C-6.198,-2.643 -6.301,-1.321 -6.408,0C-0.339,-1.77 5.625,-3.865 11.314,-6.53C12.149,-6.796 13.127,-7.788 13.996,-7.84C10.748,-15.494 6.971,-23.034 1.845,-29.617C1.246,-30.359 0.617,-31.072 0,-31.796" style="fill:rgb(126,163,145);fill-rule:nonzero;"/>
            </g>
        </g>
    </g>
</svg>
