<?xml version="1.0" encoding="UTF-8" standalone="no"?>
<!DOCTYPE svg PUBLIC "-//W3C//DTD SVG 1.1//EN" "http://www.w3.org/Graphics/SVG/1.1/DTD/svg11.dtd">
<svg width="100%" height="100%" viewBox="0 0 607 803" version="1.1" xmlns="http://www.w3.org/2000/svg" xmlns:xlink="http://www.w3.org/1999/xlink" xml:space="preserve" xmlns:serif="http://www.serif.com/" style="fill-rule:evenodd;clip-rule:evenodd;stroke-linejoin:round;stroke-miterlimit:2;">
    <g transform="matrix(1,0,0,1,-2147.301667,-231.495286)">
        <g transform="matrix(4.166667,0,0,4.166667,0,0)">
            <g transform="matrix(1,0,0,1,588.79,137.9089)">
                <path d="M0,2.68C1.684,2.485 3.096,1.282 3.952,-0.13C1.591,0.955 -1.021,1.627 -3.593,0.891C-2.647,1.994 -1.499,2.81 0,2.68" style="fill:rgb(247,140,116);fill-rule:nonzero;"/>
            </g>
            <g transform="matrix(-0.087361,0.996177,0.996177,0.087361,567.146896,101.451244)">
                <path d="M2.281,-2.621C3.108,-3.94 4.063,-5.24 5.401,-6.078C4.013,-3.314 3.138,-0.323 2.281,2.633C1.888,3.733 1.843,4.882 1.007,5.699C-0.558,3.71 1.216,-0.637 2.281,-2.621" style="fill:rgb(86,77,78);fill-rule:nonzero;"/>
            </g>
            <g transform="matrix(1,0,0,1,571.6533,122.4652)">
                <path d="M0,2.047C-1.066,1.848 -1.506,0.657 -1.613,-0.303C-1.917,-2.232 -1.409,-4.556 0.699,-5.003C4.63,-5.536 3.113,2.249 0,2.047M10.178,-8.418C8.64,-11.509 3.696,-10.447 0.934,-10.475C-4.12,-10.076 -9.305,-9.58 -14.279,-8.714C-17.196,-7.987 -22.108,-7.554 -21.471,-3.459C-19.621,5.32 -16.973,13.556 -6.252,12.363L-6.406,12.37C-1.524,11.861 3.718,10.126 7.092,6.435C10.375,2.42 11.238,-3.432 10.178,-8.418" style="fill:rgb(255,226,204);fill-rule:nonzero;"/>
            </g>
            <g transform="matrix(0.266253,-0.963903,-0.963903,-0.266253,613.003906,98.596274)">
                <path d="M-6.894,-3.976C-5.934,-2.722 -5.494,-1.171 -5.179,0.354C-4.875,2.584 -4.732,7.277 -6.894,8.595C-7.391,7.536 -7.032,6.444 -7.016,5.276C-6.785,2.207 -6.56,-0.901 -6.894,-3.976" style="fill:rgb(86,77,78);fill-rule:nonzero;"/>
            </g>
            <g transform="matrix(1,0,0,1,605.5811,124.8151)">
                <path d="M0,-2.653C-0.107,-1.693 -0.547,-0.502 -1.613,-0.303C-4.727,-0.101 -6.244,-7.885 -2.313,-7.353C-0.204,-6.905 0.305,-4.582 0,-2.653M19.857,-5.809C20.495,-9.903 15.583,-10.337 12.667,-11.064C7.692,-11.93 2.507,-12.425 -2.546,-12.825C-5.309,-12.797 -10.253,-13.859 -11.79,-10.768C-12.852,-5.781 -11.988,0.07 -8.706,4.085C-5.331,7.776 -0.088,9.511 4.794,10.02L4.639,10.013C15.359,11.206 18.009,2.97 19.857,-5.809" style="fill:rgb(255,226,204);fill-rule:nonzero;"/>
            </g>
            <g transform="matrix(1,0,0,1,617.0391,96.1125)">
                <path d="M0,9.99C0.557,10.704 0.909,12.025 -0.238,12.336C-1.307,12.353 -2.275,11.623 -3.306,11.363C-4.863,10.82 -6.454,10.403 -8.063,10.059C-10.296,9.216 -16.225,10.085 -16.214,6.712C-14.651,0.969 -1.752,6.009 0,9.99M-50.395,10.058C-52.003,10.402 -53.595,10.82 -55.151,11.363C-56.182,11.623 -57.15,12.353 -58.219,12.337C-59.365,12.025 -59.014,10.703 -58.457,9.99C-56.705,6.009 -43.805,0.969 -42.243,6.712C-42.232,10.085 -48.161,9.216 -50.395,10.058M-29.27,-2.667C-40.343,2.429 -55.061,4.719 -65.389,4.043C-65.876,3.925 -66.752,3.938 -67.635,3.897C-67.976,5.125 -68.892,6.737 -68.965,7.303C-70.28,11.254 -71.193,15.323 -71.005,19.419C-70.917,20.361 -70.813,21.301 -70.697,22.24C-70.546,22.15 -70.399,22.056 -70.263,21.949C-69.917,21.761 -69.525,21.513 -69.125,21.45C-69.099,20.984 -69.04,20.517 -68.939,20.053C-67.271,14.202 -49.065,14.231 -43.499,13.49C-39.882,13.318 -34.576,13.071 -33.004,17.053C-32.843,16.988 -32.684,16.925 -32.537,16.86C-30.272,16.074 -27.575,15.775 -25.303,16.678C-23.555,13.076 -18.461,13.323 -14.958,13.49C-9.392,14.231 8.813,14.202 10.483,20.053C10.571,20.461 10.622,20.871 10.652,21.28C10.673,21.279 10.69,21.274 10.711,21.273C11.431,21.391 12.519,21.43 13.236,21.798C13.468,20.563 13.689,19.326 13.894,18.085C13.951,17.619 14.058,16.898 14.279,16.303C7.378,12.249 3.059,4.911 1.099,-2.723C0.341,-5.82 -0.406,-9.055 -0.207,-12.25C-5.439,-5.018 -20.129,2.813 -28.034,2.756C-29.609,2.514 -30.545,0.908 -30.192,-0.606C-30.029,-1.368 -29.695,-2.044 -29.27,-2.667" style="fill:rgb(255,195,161);fill-rule:nonzero;"/>
            </g>
            <g transform="matrix(1,0,0,1,587.6064,157.0668)">
                <path d="M0,0.358C-0.647,0.774 -1.187,1.301 -1.735,1.828C-0.051,2.594 1.905,2.869 3.704,2.712C6.538,2.593 9.062,1.081 10.931,-0.975C11.104,-1.165 11.269,-1.364 11.428,-1.567C7.579,-2.511 3.314,-1.773 0,0.358" style="fill:rgb(249,125,143);fill-rule:nonzero;"/>
            </g>
            <g transform="matrix(1,0,0,1,590.0312,214.8037)">
                <path d="M0,4.459C-15.799,1.136 -29.255,-10.418 -36.43,-24.702C-36.741,-25.475 -37.19,-26.336 -37.452,-27.212C-48.265,-20.334 -57.395,-10.859 -63.163,0.65C-64.561,3.393 -65.82,6.198 -66.861,9.095C-67.186,9.717 -67.529,11.384 -68.094,12.367C-67.432,12.864 -66.891,13.564 -66.242,14.064C-64.985,15.198 -63.655,16.195 -62.267,17.16C-51.55,24.202 -38.855,27.092 -26.391,29.104C-4.941,32.324 17.169,31.561 38.162,26.036C44.884,24.288 51.523,22.07 57.316,18.374C59.58,16.899 61.65,15.094 63.777,13.457C63.573,13.304 63.403,13.101 63.327,12.84C58.429,-3.637 47.834,-17.942 33.642,-27.506C33.463,-27.628 33.28,-27.745 33.102,-27.865C32.96,-26.75 31.856,-25.357 31.489,-24.506C28.487,-19.307 24.783,-14.519 20.556,-10.252C17.32,-6.932 4.26,5.098 0,4.459" style="fill:rgb(201,136,229);fill-rule:nonzero;"/>
            </g>
            <g transform="matrix(1,0,0,1,647.8721,93.0257)">
                <path d="M0,51.403C-0.455,52.796 1.218,53.338 1.914,54.343C4.758,57.37 4.207,62.245 1.586,65.233C1.431,65.611 0.57,66.055 -0.262,66.51C0.541,63.705 0.513,60.649 -0.494,57.893C-0.619,57.458 -1.181,56.984 -1.509,57.506C-1.809,58.115 -1.674,58.831 -1.741,59.488C-1.674,65.707 -3.492,70.707 -9.305,73.686C-10.262,72.013 -10.978,70.108 -11.684,68.29C-12.216,67.351 -13.618,67.757 -13.812,68.735C-13.995,69.469 -14.063,70.021 -14.333,70.823C-16.277,76.288 -20.765,80.388 -25.504,83.493C-27.496,84.77 -29.634,86.007 -31.713,87.216C-31.742,87.226 -31.771,87.245 -31.79,87.255C-33.231,86.588 -34.691,85.979 -36.19,85.466C-37.438,85.021 -38.705,84.634 -40.001,84.315C-40.099,82.371 -40.001,80.418 -40.03,78.473C-38.793,78 -37.574,77.497 -36.375,76.936C-30.891,74.663 -26.693,70.185 -24.759,64.576C-22.922,59.895 -21.577,55.03 -20.407,50.127C-19.972,54.865 -19.237,59.605 -20.707,64.276C-21.364,66.79 -22.506,69.131 -23.415,71.558C-23.541,71.8 -23.638,72.1 -23.348,72.255C-23.192,72.332 -22.989,72.284 -22.893,72.139C-21.751,70.369 -20.784,68.483 -20.098,66.49C-17.399,59.875 -18.096,52.69 -18.338,45.726C-18.376,43.067 -18.086,40.3 -17.709,37.573C-16.848,33.25 -15.978,28.917 -15.137,24.584C-14.895,23.133 -14.662,21.673 -14.518,20.213C-14.508,20.126 -14.508,20.039 -14.498,19.942C-13.956,19.574 -13.705,18.704 -14.382,18.211C-16.8,16.508 -19.198,14.758 -21.161,12.524C-26.713,5.996 -28.937,-2.96 -29.063,-11.393C-29.034,-12.767 -29.934,-12.951 -30.446,-12.158C-30.476,-12.148 -30.494,-12.158 -30.523,-12.138C-31.104,-11.819 -31.51,-11.239 -31.955,-10.755C-39.063,-3.154 -48.929,2.32 -59.267,3.752C-59.509,3.162 -59.122,2.562 -58.89,2.021C-58.319,0.889 -57.643,-0.194 -56.868,-1.209C-54.615,-2.457 -52.574,-3.83 -50.833,-5.349C-49.412,-6.664 -47.71,-8.047 -47.322,-10.049C-47.564,-11.635 -50.03,-8.54 -50.708,-8.124C-60.892,0.599 -74.809,3.616 -87.865,4.845C-91.966,5.145 -96.086,4.893 -100.177,4.719C-100.68,4.748 -101.105,5.087 -101.173,5.59C-101.231,6.112 -100.941,6.431 -100.486,6.634C-101.135,7.62 -101.502,8.859 -101.947,9.903C-103.969,15.367 -104.693,21.286 -103.679,27.041C-102.808,31.732 -102.063,36.48 -101.251,41.21C-101.135,44.024 -100.603,46.886 -100.729,49.701C-100.835,57.583 -101.299,66.027 -96.966,73.019C-96.676,73.435 -96.019,73.077 -96.192,72.622C-96.657,71.346 -97.334,70.166 -97.672,68.841C-98.736,64.15 -98.678,59.334 -98.591,54.507C-97.537,58.889 -96.27,63.212 -94.606,67.419C-92.353,72.661 -86.599,76.162 -80.109,78.445C-79.877,79.45 -79.906,80.505 -79.848,81.529C-79.818,82.545 -79.857,83.551 -79.906,84.567C-80.621,84.537 -81.502,85.079 -82.159,85.301C-84.52,86.23 -86.84,87.275 -89.123,88.416C-91.405,87.081 -93.843,85.872 -96.019,84.305C-102.228,80.408 -106.048,75.505 -106.802,68.009C-106.89,67.351 -107.576,64.431 -108.33,66.191C-108.882,68.87 -108.688,71.394 -107.953,73.754C-108.291,73.851 -108.62,73.986 -108.949,74.111C-109.433,74.296 -109.916,74.46 -110.429,74.431C-115.951,72.797 -117.702,66.674 -118.079,61.51C-118.099,60.833 -118.012,59.662 -118.949,59.46C-119.549,59.295 -120.091,59.633 -120.391,60.136C-121.174,61.635 -121.89,63.212 -123.012,64.498C-122.915,59.662 -121.726,54.73 -118.901,50.745C-118.398,49.798 -117.16,49.034 -117.16,47.912C-117.383,47.254 -118.263,47.602 -118.679,47.834C-119.598,48.463 -120.381,49.208 -121.058,50.03C-124.588,49.778 -129.075,48.492 -130.294,44.846C-125.777,45.01 -121.522,42.786 -118.602,39.401C-109.606,28.163 -112.924,12.476 -112.073,-0.89C-111.367,-10.475 -105.729,-19.189 -98.34,-25.108C-93.427,-28.744 -87.633,-31.036 -81.763,-32.661C-65.775,-37.013 -43.618,-35.737 -29.518,-26.452C-28.038,-25.417 -26.549,-24.285 -25.281,-22.961C-25.127,-22.748 -24.904,-22.555 -24.672,-22.41C-24.479,-21.964 -23.966,-21.645 -23.454,-21.684C-15.397,-22.351 -10.804,-13.628 -9.546,-6.751C-8.144,1.431 -7.776,9.778 -6.731,18.007C-5.639,29.913 -3.501,43.53 10.57,45.794C8.762,48.811 4.951,50.175 1.614,50.61C0.977,50.552 0.271,50.775 0,51.403" style="fill:rgb(119,95,95);fill-rule:nonzero;"/>
            </g>
            <g transform="matrix(1,0,0,1,586.6016,178.1493)">
                <path d="M0,-2.976C-4.313,-3.278 -10.072,-4.077 -15.639,-5.668C-15.444,-5.32 -15.258,-4.964 -15.004,-4.688C-9.595,2.141 0.449,2.822 8.34,0.894C12.433,-0.276 15.713,-2.934 18.874,-5.591C18.876,-5.663 18.877,-5.73 18.879,-5.798C14.093,-4.193 9.073,-3.24 4.056,-3.13C2.862,-2.777 0.864,-3.137 0,-2.976" style="fill:rgb(247,140,116);fill-rule:nonzero;"/>
            </g>
            <g transform="matrix(1,0,0,1,583.6875,138.2317)">
                <path d="M0,11.094C1.91,10.459 3.884,11.365 5.821,11.14C8.653,10.991 10.936,9.068 13.641,8.431C20.442,7.295 19.93,12.757 17.415,17.159C14.903,21.687 9.444,23.991 4.4,23.228C1.402,22.871 -1.575,21.176 -2.891,18.382C-4.492,15.651 -3.27,11.755 0,11.094M-1.098,-1.727C-0.989,-2.09 -0.581,-2.373 -0.194,-2.241C0.962,-1.426 2.05,-0.713 3.53,-0.68C5.648,-0.495 7.661,-1.299 9.546,-2.147C10.039,-2.484 10.891,-2.744 11.116,-1.98C11.284,-1.438 10.637,-1.052 10.439,-0.655C9.235,1.948 6.644,4.159 3.617,3.381C1.788,3.004 0.619,1.443 -0.361,-0.02C-0.641,-0.564 -1.303,-1.036 -1.098,-1.727M-29.326,18.339C-27.629,25.281 -21.612,28.679 -15.379,30.821C-8.849,33.071 -1.963,34.406 4.926,34.655C11.806,34.358 18.817,33.05 25.047,30.372C33.891,26.968 36.567,21.636 39.131,12.982C42.107,3.533 43.697,-6.26 45.72,-15.938C45.853,-16.57 45.972,-17.205 46.1,-17.837C45.539,-17.804 44.875,-18.078 44.083,-18.142C44.075,-18.143 44.071,-18.144 44.063,-18.145C43.994,-18.141 43.932,-18.148 43.866,-18.153C43.463,-15.653 42.407,-13.18 41.618,-10.847C39.884,-5.456 35.976,-1.322 30.049,-1.156C23.963,-0.716 17.535,-2.596 12.804,-6.483C8.345,-10.474 6.74,-17.156 7.489,-23.053C5.051,-23.51 2.512,-23.561 0.797,-22.728C1.445,-16.911 -0.182,-10.402 -4.557,-6.483C-9.289,-2.596 -15.717,-0.716 -21.803,-1.156C-27.729,-1.322 -31.638,-5.456 -33.372,-10.847C-34.16,-13.177 -35.213,-15.645 -35.618,-18.141C-35.971,-17.981 -36.538,-17.735 -37.024,-17.531C-36.147,-11.489 -34.83,-5.506 -33.781,0.504C-32.644,6.569 -31.384,12.56 -29.326,18.339" style="fill:rgb(255,195,161);fill-rule:nonzero;"/>
            </g>
            <g transform="matrix(1,0,0,1,615.3008,208.5771)">
                <path d="M0,-26.186C-0.004,-26.19 -0.006,-26.193 -0.01,-26.196C-1.332,-26.843 -2.68,-27.443 -4.059,-27.975C-5.062,-28.484 -6.233,-28.743 -7.297,-29.165C-7.156,-27.754 -6.988,-25.892 -8.115,-25.867C-9.761,-26.581 -9.908,-30.948 -9.865,-34.144C-15.097,-28.832 -21.795,-25.958 -29.516,-26.938C-35.355,-27.637 -40.693,-30.634 -45.019,-34.541C-44.725,-30.676 -45.022,-25.337 -46.88,-25.664C-47.198,-25.818 -47.3,-26.189 -47.36,-26.51C-47.426,-27.219 -47.438,-27.932 -47.427,-28.646C-48.478,-28.234 -49.517,-27.786 -50.555,-27.346C-54.108,-25.861 -57.555,-24.105 -60.864,-22.125C-54.694,-7.837 -42.019,3.989 -26.819,7.823C-26.831,7.774 -26.842,7.726 -26.84,7.673C-26.756,5.586 -26.246,3.442 -25.29,1.594C-25.253,1.428 -25.053,1.345 -24.901,1.41C-24.735,1.481 -24.689,1.67 -24.766,1.814C-24.916,3.31 -25.195,4.799 -25.366,6.297C-25.466,6.884 -25.404,7.576 -25.735,8.085C-25.313,8.18 -24.891,8.272 -24.466,8.355C-12.959,2.591 0.029,-10.587 5.472,-22.216C5.56,-22.487 5.737,-22.702 5.953,-22.86C4.147,-23.996 2.295,-25.053 0.389,-26.002C0.256,-26.039 0.124,-26.092 0,-26.186" style="fill:rgb(255,195,161);fill-rule:nonzero;"/>
            </g>
            <g transform="matrix(1,0,0,1,584.5312,148.022)">
                <path d="M0,10.104C0.2,9.783 0.496,9.49 0.731,9.274C3.52,6.795 7.431,6.025 11.068,6.082C12.431,6.208 13.814,6.281 15.163,6.519C16.001,5.148 16.511,3.577 16.484,1.982C16.21,0 13.379,0.523 12.012,0.958C9.553,2.024 7.107,3.442 4.323,3.245C2.598,3.093 0.717,2.673 -0.944,3.18C-2.896,3.889 -2.959,6.38 -2.003,7.931C-1.504,8.827 -0.804,9.533 0,10.104" style="fill:rgb(221,80,123);fill-rule:nonzero;"/>
            </g>
            <g transform="matrix(1,0,0,1,569.5713,101.5936)">
                <path d="M0,2.36C-3.021,2.955 -6.076,3.566 -8.951,4.707C-7.999,3.447 -6.62,2.61 -5.234,1.901C-3.165,1.013 1.32,-0.374 3.165,1.359C2.277,2.12 1.13,2.065 0,2.36M-10.989,4.509C-11.546,5.222 -11.897,6.544 -10.751,6.856C-9.683,6.872 -8.714,6.142 -7.684,5.881C-6.127,5.339 -4.535,4.921 -2.927,4.577C-0.693,3.735 5.235,4.604 5.225,1.231C3.663,-4.512 -9.237,0.527 -10.989,4.509" style="fill:rgb(68,8,41);fill-rule:nonzero;"/>
            </g>
            <g transform="matrix(1,0,0,1,572.3525,124.1814)">
                <path d="M0,-6.719C-2.108,-6.272 -2.616,-3.948 -2.313,-2.019C-2.205,-1.059 -1.766,0.132 -0.699,0.331C2.414,0.533 3.931,-7.252 0,-6.719" style="fill:rgb(68,8,41);fill-rule:nonzero;"/>
            </g>
            <g transform="matrix(1,0,0,1,611.2842,102.0531)">
                <path d="M0,1.441C1.386,2.151 2.764,2.987 3.717,4.247C0.842,3.107 -2.214,2.495 -5.234,1.9C-6.364,1.606 -7.512,1.661 -8.4,0.899C-6.555,-0.833 -2.069,0.553 0,1.441M-2.308,4.118C-0.699,4.462 0.892,4.879 2.449,5.422C3.479,5.682 4.448,6.412 5.517,6.396C6.664,6.085 6.312,4.763 5.755,4.049C4.003,0.068 -8.896,-4.971 -10.459,0.771C-10.47,4.144 -4.541,3.275 -2.308,4.118" style="fill:rgb(68,8,41);fill-rule:nonzero;"/>
            </g>
            <g transform="matrix(1,0,0,1,603.2686,124.1814)">
                <path d="M0,-6.719C-3.932,-7.252 -2.414,0.533 0.699,0.331C1.766,0.132 2.205,-1.059 2.313,-2.019C2.617,-3.948 2.108,-6.272 0,-6.719" style="fill:rgb(68,8,41);fill-rule:nonzero;"/>
            </g>
            <g transform="matrix(1,0,0,1,592.7422,140.0983)">
                <path d="M0,-2.319C-0.856,-0.908 -2.269,0.295 -3.952,0.491C-5.451,0.621 -6.6,-0.195 -7.545,-1.298C-4.974,-0.563 -2.361,-1.234 0,-2.319M-5.437,1.514C-2.411,2.292 0.181,0.081 1.385,-2.521C1.582,-2.919 2.229,-3.304 2.062,-3.846C1.836,-4.611 0.984,-4.35 0.491,-4.013C-1.394,-3.165 -3.406,-2.361 -5.524,-2.547C-7.005,-2.579 -8.093,-3.292 -9.249,-4.108C-9.636,-4.24 -10.044,-3.956 -10.152,-3.594C-10.357,-2.903 -9.695,-2.43 -9.416,-1.887C-8.436,-0.423 -7.267,1.138 -5.437,1.514" style="fill:rgb(68,8,41);fill-rule:nonzero;"/>
            </g>
            <g transform="matrix(1,0,0,1,583.5869,156.5481)">
                <path d="M0,-5.346C1.661,-5.853 3.542,-5.433 5.268,-5.281C8.052,-5.084 10.497,-6.502 12.956,-7.568C14.323,-8.003 17.154,-8.526 17.429,-6.544C17.455,-4.95 16.945,-3.378 16.107,-2.008C14.759,-2.245 13.375,-2.318 12.013,-2.445C8.375,-2.501 4.464,-1.731 1.676,0.748C1.44,0.964 1.145,1.257 0.944,1.578C0.141,1.007 -0.56,0.301 -1.059,-0.596C-2.015,-2.146 -1.952,-4.637 0,-5.346M14.95,-0.456C13.081,1.599 10.558,3.112 7.724,3.231C5.925,3.387 3.969,3.112 2.284,2.347C2.832,1.82 3.372,1.293 4.02,0.877C7.334,-1.254 11.599,-1.992 15.447,-1.048C15.288,-0.845 15.123,-0.647 14.95,-0.456M4.501,4.911C9.545,5.675 15.004,3.371 17.516,-1.158C20.03,-5.56 20.543,-11.021 13.741,-9.886C11.036,-9.248 8.754,-7.325 5.922,-7.177C3.984,-6.951 2.011,-7.858 0.101,-7.222C-3.169,-6.562 -4.392,-2.665 -2.79,0.065C-1.475,2.859 1.503,4.555 4.501,4.911" style="fill:rgb(68,8,41);fill-rule:nonzero;"/>
            </g>
            <g transform="matrix(1,0,0,1,649.4834,157.9366)">
                <path d="M0,-14.297C-0.635,-14.356 -1.341,-14.136 -1.609,-13.511C-2.069,-12.12 -0.396,-11.575 0.306,-10.566C3.145,-7.541 2.6,-2.665 -0.022,0.327C-0.179,0.703 -1.04,1.141 -1.871,1.596C-1.068,-1.211 -1.099,-4.259 -2.107,-7.019C-2.232,-7.454 -2.794,-7.928 -3.12,-7.408C-3.422,-6.795 -3.289,-6.08 -3.351,-5.421C-3.286,0.794 -5.103,5.793 -10.92,8.772C-11.868,7.1 -12.59,5.2 -13.298,3.382C-13.825,2.44 -15.225,2.846 -15.421,3.828C-15.603,4.557 -15.671,5.11 -15.948,5.914C-17.886,11.377 -22.374,15.481 -27.114,18.584C-29.108,19.861 -31.248,21.092 -33.324,22.309C-33.351,22.318 -33.378,22.335 -33.403,22.346C-36.038,21.114 -38.771,20.11 -41.608,19.404C-41.711,17.464 -41.608,15.505 -41.645,13.562C-40.408,13.085 -39.185,12.583 -37.991,12.027C-32.5,9.747 -28.303,5.277 -26.367,-0.338C-24.534,-5.02 -23.191,-9.884 -22.022,-14.785C-21.585,-10.047 -20.848,-5.303 -22.315,-0.64C-22.973,1.878 -24.115,4.223 -25.024,6.65C-25.149,6.886 -25.249,7.192 -24.96,7.346C-24.806,7.421 -24.597,7.375 -24.506,7.225C-23.364,5.455 -22.393,3.574 -21.71,1.577C-19.008,-5.036 -19.706,-12.221 -19.949,-19.184C-19.984,-21.84 -19.694,-24.614 -19.321,-27.334C-18.462,-31.666 -17.585,-35.994 -16.748,-40.328C-16.501,-41.774 -16.271,-43.234 -16.129,-44.695C-16.121,-44.784 -16.118,-44.877 -16.114,-44.969C-15.563,-45.336 -15.321,-46.212 -15.992,-46.696C-18.407,-48.407 -20.811,-50.156 -22.771,-52.391C-28.325,-58.913 -30.549,-67.873 -30.67,-76.308C-30.646,-77.675 -31.548,-77.86 -32.059,-77.072C-32.087,-77.064 -32.107,-77.067 -32.138,-77.054C-32.713,-76.728 -33.119,-76.15 -33.568,-75.669C-40.67,-68.06 -50.536,-62.595 -60.875,-61.158C-61.115,-61.75 -60.734,-62.352 -60.497,-62.887C-59.935,-64.022 -59.251,-65.108 -58.479,-66.122C-56.226,-67.367 -54.182,-68.743 -52.446,-70.256C-51.021,-71.577 -49.322,-72.963 -48.933,-74.964C-49.177,-76.551 -51.646,-73.451 -52.319,-73.038C-62.501,-64.313 -76.415,-61.291 -89.479,-60.066C-93.58,-59.767 -97.692,-60.019 -101.788,-60.188C-102.287,-60.161 -102.714,-59.829 -102.785,-59.318C-102.84,-58.797 -102.555,-58.478 -102.098,-58.274C-102.741,-57.286 -103.108,-56.055 -103.563,-55.005C-105.579,-49.543 -106.302,-43.627 -105.292,-37.868C-104.42,-33.176 -103.673,-28.435 -102.858,-23.705C-102.747,-20.884 -102.216,-18.028 -102.338,-15.21C-102.444,-7.33 -102.909,1.119 -98.574,8.103C-98.291,8.521 -97.631,8.166 -97.805,7.706C-98.266,6.434 -98.943,5.257 -99.283,3.928C-100.35,-0.757 -100.284,-5.577 -100.202,-10.406C-99.15,-6.022 -97.877,-1.7 -96.214,2.51C-93.968,7.746 -88.208,11.247 -81.722,13.531C-81.484,14.538 -81.52,15.59 -81.459,16.621C-81.426,17.63 -81.471,18.642 -81.521,19.654C-82.234,19.627 -83.108,20.165 -83.767,20.389C-86.135,21.315 -88.456,22.365 -90.735,23.508C-93.013,22.174 -95.458,20.956 -97.632,19.394C-103.838,15.493 -107.656,10.596 -108.409,3.099C-108.501,2.442 -109.188,-0.479 -109.943,1.275C-110.497,3.96 -110.301,6.487 -109.565,8.838C-110.385,9.079 -111.167,9.568 -112.043,9.516C-117.56,7.885 -119.309,1.759 -119.694,-3.399C-119.71,-4.076 -119.624,-5.251 -120.559,-5.451C-121.155,-5.617 -121.704,-5.277 -121.999,-4.775C-122.786,-3.277 -123.503,-1.7 -124.621,-0.411C-124.521,-5.246 -123.34,-10.181 -120.511,-14.167C-120.007,-15.116 -118.768,-15.876 -118.772,-17.004C-118.991,-17.654 -119.875,-17.306 -120.291,-17.075C-121.208,-16.446 -121.99,-15.699 -122.673,-14.878C-126.197,-15.132 -130.688,-16.42 -131.909,-20.061C-127.392,-19.903 -123.131,-22.126 -120.209,-25.514C-111.221,-36.752 -114.537,-52.435 -113.682,-65.803C-112.982,-75.383 -107.338,-84.098 -99.952,-90.018C-95.035,-93.657 -89.24,-95.947 -83.378,-97.577C-67.387,-101.921 -45.229,-100.649 -31.131,-91.363C-29.648,-90.325 -28.162,-89.193 -26.891,-87.871C-26.734,-87.662 -26.52,-87.47 -26.283,-87.323C-26.092,-86.874 -25.579,-86.554 -25.063,-86.599C-17.012,-87.267 -12.412,-78.538 -11.16,-71.661C-9.757,-63.483 -9.392,-55.13 -8.342,-46.901C-7.248,-35.002 -5.109,-21.381 8.963,-19.117C7.153,-16.101 3.34,-14.737 0,-14.297M-44.003,14.415C-44.005,14.482 -44.006,14.55 -44.008,14.621C-47.169,17.278 -50.449,19.936 -54.542,21.106C-62.433,23.035 -72.477,22.354 -77.886,15.525C-78.14,15.248 -78.326,14.892 -78.521,14.544C-72.954,16.136 -67.195,16.935 -62.882,17.237C-62.018,17.076 -60.02,17.436 -58.826,17.083C-53.809,16.973 -48.789,16.019 -44.003,14.415M-101.414,-37.846C-101.009,-35.35 -99.956,-32.881 -99.168,-30.552C-97.434,-25.161 -93.525,-21.026 -87.599,-20.861C-81.513,-20.421 -75.085,-22.301 -70.353,-26.188C-65.978,-30.107 -64.351,-36.616 -64.999,-42.433C-63.284,-43.266 -60.745,-43.215 -58.307,-42.758C-59.056,-36.86 -57.451,-30.179 -52.992,-26.188C-48.261,-22.301 -41.833,-20.421 -35.747,-20.861C-29.82,-21.026 -25.912,-25.161 -24.178,-30.552C-23.389,-32.885 -22.333,-35.358 -21.93,-37.858C-21.864,-37.853 -21.802,-37.846 -21.732,-37.85C-21.725,-37.849 -21.721,-37.848 -21.713,-37.847C-20.921,-37.783 -20.257,-37.509 -19.696,-37.542C-19.824,-36.91 -19.943,-36.275 -20.076,-35.643C-22.099,-25.964 -23.688,-16.172 -26.665,-6.723C-29.229,1.931 -31.905,7.263 -40.749,10.667C-46.979,13.345 -53.99,14.653 -60.87,14.95C-67.759,14.701 -74.645,13.366 -81.175,11.116C-87.408,8.974 -93.425,5.576 -95.122,-1.366C-97.18,-7.145 -98.439,-13.136 -99.577,-19.201C-100.626,-25.211 -101.943,-31.194 -102.82,-37.235C-102.334,-37.44 -101.767,-37.686 -101.414,-37.846M-84.082,-23.109C-94.803,-21.915 -97.451,-30.151 -99.301,-38.931C-99.938,-43.025 -95.026,-43.458 -92.109,-44.186C-87.135,-45.052 -81.95,-45.547 -76.896,-45.947C-74.134,-45.919 -69.19,-46.981 -67.652,-43.89C-66.592,-38.903 -67.455,-33.052 -70.738,-29.036C-74.112,-25.345 -79.354,-23.61 -84.236,-23.102L-84.082,-23.109ZM-52.608,-29.036C-55.891,-33.052 -56.754,-38.903 -55.692,-43.89C-54.155,-46.981 -49.211,-45.919 -46.448,-45.947C-41.396,-45.547 -36.21,-45.052 -31.235,-44.186C-28.319,-43.458 -23.407,-43.025 -24.045,-38.931C-25.894,-30.151 -28.543,-21.915 -39.264,-23.109L-39.108,-23.102C-43.99,-23.61 -49.233,-25.345 -52.608,-29.036M-60.479,-59.068C-52.573,-59.011 -37.884,-66.842 -32.651,-74.074C-32.851,-70.88 -32.104,-67.644 -31.346,-64.547C-29.386,-56.913 -25.066,-49.575 -18.165,-45.521C-18.387,-44.926 -18.493,-44.205 -18.551,-43.739C-18.755,-42.498 -18.977,-41.261 -19.208,-40.026C-19.926,-40.394 -21.014,-40.433 -21.733,-40.551C-21.754,-40.55 -21.771,-40.545 -21.792,-40.544C-21.822,-40.953 -21.873,-41.363 -21.961,-41.772C-23.631,-47.622 -41.836,-47.593 -47.402,-48.334C-50.905,-48.501 -55.999,-48.748 -57.747,-45.146C-60.02,-46.049 -62.717,-45.75 -64.981,-44.964C-65.128,-44.899 -65.287,-44.837 -65.448,-44.771C-67.021,-48.754 -72.326,-48.506 -75.943,-48.334C-81.51,-47.593 -99.716,-47.622 -101.384,-41.772C-101.484,-41.307 -101.543,-40.84 -101.569,-40.374C-101.97,-40.311 -102.361,-40.063 -102.707,-39.875C-102.844,-39.768 -102.99,-39.674 -103.142,-39.584C-103.258,-40.523 -103.361,-41.463 -103.449,-42.405C-103.638,-46.502 -102.725,-50.57 -101.409,-54.521C-101.336,-55.087 -100.42,-56.699 -100.079,-57.927C-99.196,-57.886 -98.32,-57.9 -97.833,-57.781C-87.505,-57.106 -72.787,-59.395 -61.714,-64.491C-62.14,-63.868 -62.474,-63.192 -62.637,-62.43C-62.989,-60.916 -62.054,-59.31 -60.479,-59.068M-28.229,27.781C-28.445,27.938 -28.623,28.153 -28.711,28.425C-34.153,40.054 -47.142,53.232 -58.648,58.995C-59.073,58.913 -59.496,58.82 -59.918,58.725C-59.587,58.217 -59.648,57.524 -59.549,56.938C-59.378,55.44 -59.099,53.951 -58.948,52.454C-58.872,52.31 -58.918,52.122 -59.084,52.05C-59.235,51.985 -59.436,52.069 -59.473,52.235C-60.429,54.083 -60.938,56.226 -61.022,58.313C-61.024,58.367 -61.014,58.415 -61.002,58.463C-76.201,54.629 -88.877,42.803 -95.047,28.516C-91.737,26.535 -88.291,24.78 -84.737,23.294C-83.699,22.855 -82.66,22.406 -81.609,21.994C-81.621,22.709 -81.608,23.422 -81.543,24.131C-81.482,24.452 -81.381,24.822 -81.063,24.977C-79.205,25.304 -78.907,19.964 -79.201,16.099C-74.876,20.007 -69.538,23.004 -63.698,23.702C-55.978,24.682 -49.279,21.808 -44.048,16.497C-44.091,19.692 -43.943,24.06 -42.298,24.774C-41.171,24.748 -41.339,22.886 -41.479,21.475C-40.416,21.897 -39.245,22.157 -38.241,22.665C-36.862,23.197 -35.515,23.798 -34.192,24.444C-34.188,24.448 -34.187,24.451 -34.183,24.454C-34.059,24.548 -33.927,24.601 -33.794,24.639C-31.888,25.587 -30.035,26.644 -28.229,27.781M-26.351,29.002C-26.172,29.122 -25.989,29.239 -25.811,29.361C-11.618,38.925 -1.023,53.23 3.875,69.707C3.951,69.968 4.121,70.171 4.325,70.324C2.198,71.961 0.128,73.766 -2.136,75.241C-7.929,78.937 -14.568,81.155 -21.29,82.903C-42.283,88.428 -64.394,89.191 -85.843,85.971C-98.308,83.959 -111.002,81.069 -121.719,74.027C-123.107,73.062 -124.438,72.065 -125.694,70.932C-126.343,70.432 -126.884,69.731 -127.546,69.234C-126.981,68.251 -126.638,66.584 -126.313,65.962C-125.272,63.065 -124.013,60.26 -122.615,57.517C-116.847,46.008 -107.717,36.533 -96.904,29.655C-96.643,30.531 -96.193,31.392 -95.882,32.165C-88.707,46.449 -75.251,58.003 -59.452,61.326C-55.192,61.965 -42.132,49.935 -38.896,46.615C-34.669,42.349 -30.965,37.56 -27.963,32.361C-27.596,31.51 -26.492,30.117 -26.351,29.002M6.369,-22.246C4.04,-23.072 1.807,-24.464 0.142,-26.337C-5.236,-32.833 -5.18,-41.783 -6.265,-49.749C-6.703,-53.81 -7.152,-57.868 -7.522,-61.933C-8.314,-70.845 -9.375,-81.257 -17.3,-86.844C-18.93,-87.98 -22.612,-89.615 -24.936,-88.946C-25.259,-89.493 -25.766,-89.961 -26.211,-90.388C-28.694,-92.862 -31.712,-94.739 -34.843,-96.278C-55.196,-105.243 -82.467,-104.725 -101.172,-92.058C-107.344,-87.246 -112.319,-80.568 -114.715,-73.039C-116.575,-67.474 -116.268,-61.51 -115.958,-55.729C-115.73,-44.462 -115.986,-25.778 -129.585,-22.569C-131.237,-22.181 -133.881,-22.774 -134.131,-20.413C-133.604,-16.126 -128.756,-13.517 -124.822,-12.941C-124.608,-12.922 -124.345,-12.886 -124.063,-12.853C-126.267,-8.937 -126.797,-3.899 -126.856,0.434C-126.813,1.471 -125.728,2.288 -124.719,2.01C-123.31,1.633 -122.471,0.326 -121.703,-0.818C-121.111,4.609 -118.226,10.299 -112.629,11.863C-111.707,12.098 -110.779,11.795 -109.909,11.501C-109.514,11.348 -109.092,11.223 -108.703,11.041C-105.779,17.18 -99.21,21.905 -93.088,24.725C-105.685,31.556 -116.541,41.675 -123.42,54.304C-125.448,58.01 -127.229,61.848 -128.634,65.834C-128.968,67.014 -129.783,68.411 -129.204,69.626C-129.2,69.629 -129.197,69.631 -129.193,69.634C-129.088,71.543 -122.984,76.014 -121.786,76.707C-106.933,85.772 -89.104,88.412 -72.027,89.836C-55.072,90.946 -37.944,89.651 -21.471,85.404C-12.323,83.182 -3.24,79.879 3.784,73.39C4.512,72.657 5.477,72.077 5.986,71.173C6.147,70.832 6.047,70.482 5.825,70.232C6.705,69.393 5.669,67.68 5.413,66.621C4.854,64.986 4.249,63.361 3.588,61.763C-1.104,50.72 -8.104,40.601 -17.414,32.96C-21.573,29.46 -26.06,26.181 -30.889,23.607C-29.981,23.119 -29.073,22.598 -28.168,22.048C-22.26,18.395 -16.334,13.734 -13.898,6.996C-11.618,13.274 -10.196,11.488 -5.89,8.116C-4.454,6.839 -3.339,5.248 -2.563,3.503C-0.371,3.495 1.598,1.706 2.633,-0.123C5.32,-3.908 5.03,-9.482 1.466,-12.616C4.207,-13.076 7.008,-13.831 9.168,-15.687C10.523,-16.793 12.312,-19.056 10.827,-20.704C9.612,-21.748 7.794,-21.564 6.369,-22.246" style="fill:rgb(68,8,41);fill-rule:nonzero;"/>
            </g>
            <g transform="matrix(1,0,0,1,640.0186,105.0663)">
                <path d="M0,32.67C2.988,39.479 2.611,47.661 -0.977,54.17C-1.789,53.879 -2.186,52.961 -2.476,52.148C-3.511,49.305 -4.546,46.471 -5.58,43.628C-4.797,50.62 -8.84,57.284 -13.686,62.39C-17.921,66.839 -22.902,70.572 -28.337,73.425C-29.585,72.981 -30.852,72.593 -32.147,72.274C-32.245,70.331 -32.147,68.377 -32.177,66.433C-30.939,65.959 -29.721,65.456 -28.521,64.895C-23.037,62.622 -18.84,58.145 -16.905,52.535C-15.068,47.854 -13.724,42.989 -12.554,38.086C-12.118,42.825 -11.384,47.564 -12.854,52.235C-13.511,54.75 -14.652,57.09 -15.562,59.518C-15.688,59.76 -15.784,60.06 -15.494,60.214C-15.339,60.292 -15.136,60.243 -15.039,60.098C-13.897,58.328 -12.931,56.442 -12.244,54.45C-9.546,47.835 -10.242,40.649 -10.484,33.686C-10.522,31.026 -10.232,28.26 -9.855,25.532C-8.994,21.209 -8.124,16.877 -7.283,12.544C-7.041,11.093 -6.809,9.632 -6.664,8.172C-6.654,8.085 -6.654,7.998 -6.645,7.901C-6.103,7.534 -5.852,6.663 -6.528,6.17C-8.946,4.468 -11.345,2.717 -13.308,0.483C-18.859,-6.045 -21.084,-15.001 -21.21,-23.434C-21.181,-24.808 -22.08,-24.991 -22.593,-24.198C-22.622,-24.188 -22.641,-24.198 -22.67,-24.179C-23.25,-23.86 -23.656,-23.279 -24.102,-22.796C-31.21,-15.194 -41.075,-9.72 -51.413,-8.288C-51.655,-8.879 -51.269,-9.478 -51.036,-10.02C-50.466,-11.151 -49.789,-12.235 -49.015,-13.25C-46.762,-14.498 -44.721,-15.871 -42.979,-17.39C-41.559,-18.705 -39.856,-20.088 -39.469,-22.09C-39.711,-23.676 -42.177,-20.581 -42.854,-20.165C-53.038,-11.441 -66.955,-8.424 -80.012,-7.196C-84.112,-6.896 -88.232,-7.147 -92.323,-7.322C-92.826,-7.292 -93.252,-6.954 -93.319,-6.451C-93.378,-5.929 -93.088,-5.61 -92.633,-5.407C-93.281,-4.42 -93.648,-3.182 -94.094,-2.138C-96.115,3.327 -96.84,9.246 -95.825,15C-94.954,19.691 -94.21,24.44 -93.397,29.169C-93.281,31.983 -92.749,34.846 -92.875,37.66C-92.981,45.543 -93.445,53.986 -89.112,60.978C-88.822,61.394 -88.165,61.036 -88.339,60.582C-88.804,59.305 -89.48,58.125 -89.818,56.8C-90.883,52.109 -90.824,47.293 -90.737,42.467C-89.684,46.848 -88.416,51.171 -86.753,55.378C-84.499,60.62 -78.745,64.121 -72.256,66.404C-72.023,67.41 -72.053,68.464 -71.994,69.489C-71.965,70.504 -72.004,71.51 -72.053,72.526C-72.768,72.497 -73.648,73.039 -74.306,73.261C-76.666,74.19 -78.986,75.234 -81.27,76.375C-83.552,75.041 -85.989,73.832 -88.165,72.265C-94.374,68.367 -98.194,63.464 -98.948,55.968C-99.036,55.311 -99.723,52.39 -100.477,54.15C-101.028,56.829 -100.835,59.354 -100.1,61.713C-100.438,61.81 -100.767,61.945 -101.096,62.071C-104.248,59.179 -105.883,54.643 -106.019,50.272C-106.192,44.856 -104.451,39.575 -102.73,34.43C-102.237,32.931 -101.734,31.441 -101.24,29.952C-103.823,31.799 -107.034,32.737 -110.196,32.592C-106.251,27.351 -103.881,21.064 -102.479,14.652C-101.086,8.24 -100.622,1.673 -100.167,-4.874C-99.606,-12.805 -93.358,-19.082 -87.169,-24.072C-91.153,-21.877 -94.857,-19.15 -98.136,-15.997C-97.13,-22.08 -93.349,-27.467 -88.522,-31.316C-83.706,-35.165 -77.903,-37.593 -72.014,-39.402C-62.43,-42.332 -52.119,-43.705 -42.39,-41.336C-41.133,-41.026 -39.817,-40.621 -38.985,-39.634C-38.125,-38.609 -37.951,-37.129 -38.279,-35.833C-38.608,-34.527 -39.363,-33.376 -40.194,-32.332C-41.79,-30.32 -43.695,-28.57 -45.823,-27.148C-40.291,-28.744 -35.407,-32.661 -29.73,-33.618C-29.111,-33.725 -28.425,-33.773 -27.902,-33.434C-26.848,-32.767 -27.129,-31.171 -27.641,-30.04C-29.382,-26.19 -32.293,-23.018 -35.165,-19.923C-30.64,-23.879 -25.794,-27.467 -20.687,-30.649C-15.455,-28.618 -10.745,-24.663 -8.685,-19.44C-8.066,-17.893 -7.688,-16.277 -7.177,-14.691C-6.615,-12.941 -5.899,-11.239 -5.387,-9.459C-4.197,-5.271 -4.217,-0.842 -3.907,3.501C-3.434,10.077 -2.176,16.587 -0.164,22.863C1.199,27.128 3.269,31.674 7.351,33.502C4.729,34.189 2.302,34.111 0,32.67" style="fill:rgb(86,77,78);fill-rule:nonzero;"/>
            </g>
        </g>
    </g>
</svg>
