<?xml version="1.0" encoding="UTF-8" standalone="no"?>
<!DOCTYPE svg PUBLIC "-//W3C//DTD SVG 1.1//EN" "http://www.w3.org/Graphics/SVG/1.1/DTD/svg11.dtd">
<svg width="100%" height="100%" viewBox="0 0 588 879" version="1.1" xmlns="http://www.w3.org/2000/svg" xmlns:xlink="http://www.w3.org/1999/xlink" xml:space="preserve" xmlns:serif="http://www.serif.com/" style="fill-rule:evenodd;clip-rule:evenodd;stroke-linejoin:round;stroke-miterlimit:2;">
    <g transform="matrix(1,0,0,1,-355.735993,-1072.670407)">
        <g transform="matrix(4.166667,0,0,4.166667,0,0)">
            <g transform="matrix(1,0,0,1,112.1602,352.1875)">
                <path d="M0,0.666C-0.878,-1.422 -2.095,-3.27 -3.484,-4.995C-3.497,-4.734 -3.51,-4.486 -3.466,-4.32C-3.309,-0.603 -1.822,3.506 1.254,5.661C1.127,5.434 0.999,5.206 0.899,4.964C0.319,3.603 0.397,2.066 0,0.666" style="fill:rgb(252,149,149);fill-rule:nonzero;"/>
            </g>
            <g transform="matrix(1,0,0,1,134.9937,325.1394)">
                <path d="M0,-4.946C-2.508,-4.185 -4.255,-1.72 -4.731,0.741C-1.749,-1.939 2.433,-2.624 6.276,-3.162C5.694,-5.687 1.962,-5.388 0,-4.946" style="fill:rgb(183,95,65);fill-rule:nonzero;"/>
            </g>
            <g transform="matrix(0.531784,0.84688,0.84688,-0.531784,154.474496,360.567693)">
                <path d="M1.75,0.061C2.008,0.354 2.218,0.685 2.404,1.027C3.192,2.66 3.251,5.02 1.75,6.25C1.369,3.258 -0.122,0.351 -2.531,-1.503C-0.989,-1.454 0.683,-1.107 1.75,0.061" style="fill:rgb(252,149,149);fill-rule:nonzero;"/>
            </g>
            <g transform="matrix(1,0,0,1,178.4941,325.1404)">
                <path d="M0,-4.948C-1.961,-5.389 -5.693,-5.688 -6.274,-3.163C-2.432,-2.625 1.75,-1.94 4.731,0.74C4.257,-1.721 2.51,-4.186 0,-4.948" style="fill:rgb(183,95,65);fill-rule:nonzero;"/>
            </g>
            <g transform="matrix(1,0,0,1,199.375,353.6637)">
                <path d="M0,0.849C-0.251,3.724 -2.057,6.085 -4.225,7.866C1.508,5.31 3.685,-1.284 4.73,-7.017C3.049,-4.463 0.358,-2.304 0,0.849" style="fill:rgb(252,149,149);fill-rule:nonzero;"/>
            </g>
            <g transform="matrix(1,0,0,1,115.7109,344.7144)">
                <path d="M0,15.685C-0.238,15.662 -0.497,15.574 -0.755,15.394C-5.928,12.35 -7.513,7.398 -7.853,1.703C-7.856,1.642 -7.845,1.584 -7.826,1.53C-8.518,0.727 -9.238,-0.054 -9.979,-0.823C-10.639,-2.213 -7.617,-0.527 -7.273,-0.204C-5.37,1.357 -3.484,3.24 -2.563,5.562C-2.245,6.434 -2.432,7.415 -2.457,8.3C-2.396,11.723 0.21,13.98 2.985,15.499C1.878,12.389 0.756,9.141 -0.479,5.778C-0.856,4.416 -2.122,1.577 -2.846,-0.919C-5.189,-3.971 -9.3,-5.718 -11.429,-1.239C-12.146,1.109 -11.351,3.553 -10.659,5.794C-8.281,12.54 -3.826,21.403 4.532,20.53C4.625,20.513 4.713,20.485 4.803,20.461C4.416,19.444 4.032,18.405 3.65,17.348C2.366,17.042 1.093,16.481 0,15.685" style="fill:rgb(255,222,204);fill-rule:nonzero;"/>
            </g>
            <g transform="matrix(1,0,0,1,200.1108,360.2415)">
                <path d="M0,-17.636C-1.737,-12.425 -3.765,-7.24 -5.78,-2.174C-6.115,-1.397 -6.405,-0.603 -6.695,0.191C-6.76,0.388 -6.826,0.584 -6.891,0.78C-6.036,0.14 -5.221,-0.593 -4.533,-1.283C-2.947,-2.992 -1.804,-5.167 -1.938,-7.53C-2.09,-8.618 -1.881,-9.716 -1.115,-10.533C0.947,-13.089 3.021,-16.238 6.183,-17.424C7.712,-17.031 5.063,-15.271 4.776,-14.578C3.868,-7.407 0.813,1.134 -7.048,2.919C-7.232,3.049 -7.456,3.112 -7.673,3.115C-7.937,3.894 -8.206,4.674 -8.482,5.451C0.395,5.232 5.325,-4.499 7.273,-12.097C8.872,-17.589 5.684,-23.087 0.381,-17.941C0.276,-17.828 0.142,-17.725 0,-17.636" style="fill:rgb(255,222,204);fill-rule:nonzero;"/>
            </g>
            <g transform="matrix(1,0,0,1,206.2803,305.4794)">
                <path d="M0,-14.079C1.17,-11.749 2.2,-9.239 2.59,-6.649C2.83,-3.059 1.979,0.561 1.56,4.141C0.68,10.141 -0.19,16.08 -1.49,22.03C-2.26,25.671 -3.14,29.301 -4.26,32.851C-4.51,32.961 -4.75,33.101 -4.99,33.251C-4.93,32.671 -5.061,32.171 -5.79,32.36C-5.89,32.45 -5.96,32.561 -6.04,32.66C-6.14,31.28 -6.42,29.941 -6.85,28.641C-7.99,25.131 -10.15,21.921 -12.45,19.051C-13.19,18.04 -14.08,17.131 -14.66,16.011C-14.55,15.28 -14.16,14.601 -13.89,13.91C-9.92,5.41 -10.15,-5.439 -16.74,-12.579C-16.86,-12.689 -16.97,-12.819 -17.09,-12.949C-16.64,-13.059 -16.2,-13.17 -15.76,-13.289C-14.03,-13.579 -12.32,-13.819 -10.57,-13.699C-10.43,-13.689 -10.311,-13.769 -10.29,-13.92C-10.271,-14.05 -10.37,-14.18 -10.5,-14.199C-13.43,-14.89 -16.44,-14.989 -19.38,-14.559C-20.07,-14.97 -21.03,-14.399 -21.84,-14.059C-23.061,-13.739 -24.26,-13.329 -25.42,-12.809C-32.76,-10.59 -42.42,-9.6 -52.08,-9.76C-53.311,-10.1 -54.54,-10.47 -55.75,-10.829C-62.78,-13.59 -70.5,-19.96 -68.771,-28.38C-68.74,-28.42 -68.7,-28.529 -68.66,-28.579C-68.49,-28.859 -68.92,-29.109 -69.09,-28.829C-69.87,-27.55 -70.42,-26.059 -70.521,-24.539C-70.83,-17.439 -64.69,-12.569 -58.311,-10.019C-65.9,-10.539 -73.17,-11.76 -78.95,-13.659C-82.41,-16.05 -83.57,-19.649 -82.22,-26.739L-82.22,-26.76C-81.99,-27.909 -81.7,-29.159 -81.35,-30.51C-81.24,-30.89 -81.23,-31.289 -81.04,-31.63C-80.91,-31.93 -81.37,-32.13 -81.5,-31.829C-81.55,-31.72 -81.59,-31.6 -81.67,-31.51C-84.12,-28.149 -85.62,-23.159 -84.78,-18.859C-84.521,-17.519 -84.021,-16.239 -83.25,-15.1C-83.82,-14.88 -84.25,-14.34 -84.62,-13.89C-85.99,-12.22 -87.01,-10.3 -87.85,-8.319C-91.36,-0.579 -90.82,7.61 -86.94,15.091C-90.97,20.731 -95.22,27.54 -94.01,34.511C-94.16,34.381 -94.311,34.261 -94.46,34.15C-94.99,33.761 -95.58,33.431 -96.23,33.2C-96.37,33.15 -96.51,33.11 -96.65,33.07C-97.69,31.07 -98.57,28.981 -99.38,26.881C-102.311,17.671 -105.521,8.231 -105.45,-1.579C-105.28,-8.21 -97.72,-14.289 -92.45,-17.55C-91.54,-18.199 -90.32,-18.519 -89.6,-19.399C-89.42,-19.76 -89.5,-20.039 -89.71,-20.229C-89.3,-20.6 -89.11,-21.35 -88.92,-21.829C-88.36,-23.659 -87.811,-25.489 -87.12,-27.269C-84.92,-33.189 -81.29,-38.949 -75.5,-41.989C-61.9,-48.59 -39.45,-45.329 -26.021,-39.21C-21.63,-37.13 -17.311,-34.18 -13.55,-31.01C-8.35,-26.35 -3.14,-20.949 4,-19.42C3.62,-18.18 2.49,-17.39 1.39,-16.699C1.01,-16.51 0.439,-16.239 0.189,-15.84C-0.25,-15.59 -0.45,-14.97 0,-14.079" style="fill:rgb(216,133,91);fill-rule:nonzero;"/>
            </g>
            <g transform="matrix(1,0,0,1,109.6802,426.2899)">
                <path d="M0,33.13C-2.17,32.33 -4.31,31.45 -6.41,30.48C-9.3,29.14 -12.12,27.63 -14.85,25.93C-17.47,24.401 -19.86,22.691 -22.32,20.87C-22.1,20.51 -21.95,20.05 -21.78,19.67C-20.34,16.11 -19.04,12.48 -17.24,9.08C-15.47,5.901 -13.47,2.88 -11.27,0C-10.59,1.01 -9.71,2.03 -9.47,2.67C-7.94,5.6 -6.61,8.64 -5.45,11.74C-2.88,18.64 -1.16,25.901 0,33.13" style="fill:white;fill-rule:nonzero;"/>
            </g>
            <g transform="matrix(1,0,0,1,161.46,391.9637)">
                <path d="M0,5.3C4.469,3.835 7.902,0.529 11.148,-2.729C6.229,-0.354 0.779,0.92 -4.684,0.955C-4.867,1.039 -5.08,1.084 -5.332,1.064C-11.95,0.745 -17.222,-0.432 -21.533,-2.322C-21.263,-1.939 -21.029,-1.529 -20.804,-1.219C-16.518,5.942 -7.576,8.029 0,5.3" style="fill:rgb(252,149,149);fill-rule:nonzero;"/>
            </g>
            <g transform="matrix(1,0,0,1,210.6602,441.8193)">
                <path d="M0,-16.749C-1.57,-14.739 -2.66,-12.39 -3.76,-10.1C-4.13,-9.31 -4.49,-8.52 -4.83,-7.72C-8.01,-0.209 -9.59,7.881 -9.36,16.061C-11.67,16.811 -14,17.511 -16.34,18.15C-17.44,18.461 -18.55,18.751 -19.66,19.03C-36.28,23.511 -53.6,24.851 -70.74,23.501C-78.74,23.081 -86.69,21.9 -94.36,19.751C-96.1,19.261 -97.82,18.721 -99.53,18.131C-100.08,13.44 -100.8,8.761 -102.02,4.181C-102.74,1.171 -103.67,-1.789 -104.76,-4.689C-105.86,-7.64 -107.14,-10.52 -108.53,-13.339C-109.14,-14.26 -109.77,-16.26 -110.72,-17.439C-102.75,-27.239 -92.49,-35.22 -81.44,-41.379C-81.5,-39.35 -80.64,-36.3 -80.33,-35.409C-77.02,-25.079 -66.61,-18.76 -56.06,-18.419C-46.01,-18.029 -34.25,-22.52 -30.56,-32.589C-30.16,-33.699 -28.21,-38.479 -27.82,-41.6C-17.18,-35.64 -7.61,-26.859 0,-16.749" style="fill:rgb(163,206,118);fill-rule:nonzero;"/>
            </g>
            <g transform="matrix(1,0,0,1,172.9829,413.4128)">
                <path d="M0,-22.529C-0.218,-22.301 -0.413,-22.097 -0.519,-21.934C-5.205,-16.551 -12.153,-13.368 -19.336,-14.125C-24.458,-14.612 -29.849,-17.616 -33.45,-21.471C-33.028,-17.594 -33.072,-13.653 -33.562,-9.804C-30.001,-3.49 -22.283,0 -15.168,-0.19C-9.653,-0.6 -4.846,-3.981 -1.089,-7.804C-0.983,-7.921 -0.89,-8.048 -0.792,-8.17C-0.815,-8.464 -0.792,-8.769 -0.808,-9.059C-0.689,-11.697 -0.729,-14.343 -0.535,-16.975C-0.378,-18.818 -0.279,-20.694 0,-22.529" style="fill:rgb(255,222,204);fill-rule:nonzero;"/>
            </g>
            <g transform="matrix(1,0,0,1,223.77,435.1499)">
                <path d="M0,13.52C-0.15,13.53 -0.3,13.56 -0.44,13.64C-2.93,15.05 -5.57,16.2 -8.2,17.32C-10.98,18.541 -13.79,19.67 -16.64,20.71C-18.05,21.24 -19.46,21.73 -20.88,22.21C-20.75,20.25 -20.64,18.3 -20.42,16.35C-19.77,10.53 -18.2,4.86 -15.97,-0.57C-14.84,-3.35 -13.53,-6.06 -12.09,-8.69C-7.03,-1.72 -2.91,5.831 0,13.52" style="fill:white;fill-rule:nonzero;"/>
            </g>
            <g transform="matrix(1,0,0,1,132.4111,412.499)">
                <path d="M0,-6.75C3.769,3.775 15.322,9.521 26.075,8.363C34.845,7.659 43.804,2.619 46.608,-6.112C47.348,-8.468 47.915,-10.876 48.349,-13.305C48.351,-13.333 48.353,-13.364 48.355,-13.394C47.931,-13.613 47.508,-13.835 47.081,-14.046C45.686,-14.723 44.276,-15.357 42.87,-16.019C42.71,-16.096 42.535,-16.18 42.362,-16.271C42.169,-14.123 41.976,-11.975 41.819,-9.826C41.854,-9.859 41.881,-9.898 41.916,-9.932C44.11,-10.761 41.594,-5.778 40.975,-5.244C36.782,-0.229 30.233,3.481 23.569,3.174C16.302,2.634 8.455,-0.974 5.158,-7.783C4.682,-8.931 3.91,-10.332 4.428,-11.568C4.671,-11.928 4.944,-11.973 5.201,-11.861C5.182,-12.224 5.16,-12.575 5.119,-12.893C5.052,-13.923 5.022,-14.961 5.002,-16.001C4.072,-15.646 3.059,-15.407 2.216,-14.912C1.002,-14.312 -0.204,-13.684 -1.404,-13.04C-1.396,-13.004 -1.386,-12.967 -1.379,-12.932C-1.105,-10.842 -0.749,-8.66 0,-6.75" style="fill:white;fill-rule:nonzero;"/>
            </g>
            <g transform="matrix(1,0,0,1,152.4097,309.6038)">
                <path d="M0,63.905C-0.675,63.862 -2.721,63.638 -3.753,63.031C-4.181,63.378 -4.74,63.454 -5.089,62.836C-5.669,61.757 -3.591,60.365 -3.208,61.634C-2.88,61.674 -2.55,61.758 -2.245,61.803C-0.144,62.264 2.04,62.224 4.168,62.09C6.978,61.789 9.658,61.221 12.181,60.014C12.224,59.979 12.278,59.963 12.327,59.934C12.179,59.707 12.081,59.459 12.106,59.176C12.28,58.411 13.257,58.878 13.563,59.312C13.873,59.804 14.962,61.311 13.731,61.304C13.667,61.29 13.615,61.261 13.56,61.235C12.998,61.963 11.355,62.218 10.634,62.631C7.284,64.009 3.566,63.994 0,63.905M-10.853,14.596C-14.21,15.011 -17.307,15.597 -20.326,17.053C-21.075,17.3 -21.858,17.96 -22.665,17.791C-26.117,17.69 -22.426,11.578 -21.076,10.504C-18.798,8.355 -15.371,7.569 -12.345,8.272C-10.845,8.635 -9.399,9.656 -8.919,11.172C-8.446,12.584 -9.247,14.471 -10.853,14.596M-14.748,35.042C-19.435,33.815 -16.626,25.836 -12.212,27.053C-7.552,29.031 -9.587,35.96 -14.748,35.042M1.872,48.644C2.853,48.818 3.898,48.753 4.839,48.611C6.079,48.61 9.209,46.279 9.569,48.092C9.564,51.67 5.535,54.337 2.214,52.991C0.274,52.293 -1.324,50.51 -2.011,48.606C-2.782,46.629 1.068,48.639 1.872,48.644M17.588,11.171C18.068,9.656 19.516,8.635 21.014,8.272C24.041,7.569 27.468,8.355 29.745,10.503C31.096,11.578 34.787,17.69 31.333,17.791C30.527,17.96 29.745,17.3 28.995,17.053C25.978,15.597 22.879,15.011 19.522,14.596C17.916,14.471 17.115,12.584 17.588,11.171M23.417,35.042C18.257,35.96 16.222,29.031 20.881,27.053C25.296,25.836 28.104,33.815 23.417,35.042M4.216,80.942C4.561,80.934 4.903,80.926 5.247,80.911C11.439,80.592 17.572,78.668 22.796,75.438C26.163,73.293 29.213,70.404 31.52,67.235C35.181,61.374 37.456,54.937 40.256,48.668C42.007,43.022 43.853,37.4 46.094,31.928C46.033,30.977 46.169,29.79 46.027,29.27C45.374,23.209 41.529,18.447 37.873,13.87C36.967,12.829 36.831,11.407 37.513,10.214C38.101,8.847 38.589,7.312 39.032,5.921C41.734,-1.67 40.146,-10.707 34.424,-16.459C34.413,-16.455 34.4,-16.451 34.388,-16.449C34.377,-16.444 34.372,-16.433 34.361,-16.428C32.707,-15.66 30.959,-15.11 29.22,-14.565C20.611,-11.953 11.482,-11.472 2.532,-11.51C-2.186,-11.759 -6.983,-11.993 -11.726,-12.545C-11.743,-12.546 -11.753,-12.533 -11.771,-12.538C-11.795,-12.545 -11.821,-12.552 -11.847,-12.559C-17.036,-13.166 -22.161,-14.16 -27.045,-15.991C-27.676,-16.278 -28.328,-16.604 -28.883,-17.037C-29.665,-15.806 -30.375,-14.536 -30.989,-13.21C-34.653,-6.115 -34.91,2.354 -31.152,9.413C-30.375,10.563 -30.971,11.822 -31.772,12.768C-35.293,17.273 -38.055,22.649 -38.229,28.462C-38.27,29.447 -38.204,30.426 -38.128,31.406C-36.771,33.966 -35.445,39.137 -34.833,40.217C-26.647,61.98 -23.834,80.014 3.937,80.892C4.036,80.9 4.13,80.918 4.216,80.942" style="fill:rgb(255,222,204);fill-rule:nonzero;"/>
            </g>
            <g transform="matrix(1,0,0,1,223.334,271.386)">
                <path d="M0,177.405C-2.496,178.81 -5.137,179.96 -7.766,181.089C-11.916,182.916 -16.15,184.533 -20.448,185.971C-20.313,184.017 -20.205,182.059 -19.984,180.114C-19.003,171.31 -15.912,162.858 -11.649,155.071C-6.594,162.04 -2.473,169.598 0.439,177.281C0.288,177.291 0.138,177.325 0,177.405M-32.336,189.468C-48.952,193.947 -66.277,195.281 -83.414,193.929C-93.226,193.425 -102.977,191.765 -112.2,188.567C-112.751,183.869 -113.47,179.195 -114.69,174.615C-116.14,168.54 -118.442,162.688 -121.202,157.095C-121.81,156.171 -122.447,154.172 -123.396,152.993C-115.426,143.191 -105.166,135.215 -94.111,129.051C-94.171,131.089 -93.318,134.138 -93.006,135.025C-89.69,145.355 -79.286,151.674 -68.739,152.017C-58.687,152.404 -46.92,147.919 -43.235,137.849C-42.833,136.733 -40.886,131.952 -40.498,128.834C-29.851,134.798 -20.281,143.571 -12.678,153.684C-14.245,155.689 -15.337,158.047 -16.434,160.333C-20.323,168.5 -22.293,177.441 -22.037,186.493C-25.435,187.591 -28.869,188.583 -32.336,189.468M-128.504,180.831C-131.121,179.305 -133.513,177.595 -135.975,175.778C-135.753,175.416 -135.601,174.956 -135.431,174.574C-133.995,171.01 -132.699,167.385 -130.892,163.984C-129.123,160.807 -127.12,157.781 -124.922,154.904C-124.244,155.915 -123.359,156.933 -123.128,157.569C-118.202,167.019 -115.338,177.542 -113.657,188.038C-118.807,186.148 -123.786,183.777 -128.504,180.831M-88.707,126.201C-87.864,125.706 -86.851,125.467 -85.921,125.112C-85.901,126.152 -85.871,127.19 -85.804,128.22C-85.763,128.538 -85.741,128.889 -85.722,129.252C-85.979,129.14 -86.252,129.185 -86.495,129.545C-87.013,130.781 -86.241,132.182 -85.765,133.33C-82.468,140.139 -74.621,143.747 -67.354,144.287C-60.69,144.594 -54.141,140.884 -49.948,135.869C-49.329,135.335 -46.813,130.352 -49.007,131.181C-49.042,131.215 -49.069,131.254 -49.104,131.287C-48.947,129.138 -48.754,126.99 -48.561,124.842C-48.388,124.933 -48.213,125.017 -48.053,125.094C-46.647,125.756 -45.237,126.39 -43.842,127.067C-43.415,127.278 -42.992,127.5 -42.568,127.719C-42.57,127.749 -42.572,127.78 -42.574,127.808C-43.008,130.237 -43.575,132.645 -44.315,135.001C-47.119,143.732 -56.078,148.772 -64.848,149.476C-75.601,150.634 -87.154,144.888 -90.923,134.363C-91.672,132.453 -92.028,130.271 -92.302,128.181C-92.309,128.146 -92.319,128.109 -92.327,128.073C-91.127,127.429 -89.921,126.801 -88.707,126.201M-83.407,118.256C-79.096,120.145 -73.824,121.323 -67.206,121.641C-66.954,121.662 -66.741,121.617 -66.558,121.533C-61.095,121.498 -55.645,120.223 -50.726,117.848C-53.972,121.107 -57.405,124.413 -61.874,125.878C-69.45,128.606 -78.392,126.519 -82.678,119.359C-82.903,119.049 -83.137,118.638 -83.407,118.256M-51.143,133.857C-51.241,133.979 -51.334,134.106 -51.44,134.222C-55.197,138.046 -60.004,141.426 -65.519,141.837C-72.634,142.027 -80.352,138.537 -83.913,132.222C-83.423,128.374 -83.379,124.432 -83.801,120.555C-80.2,124.411 -74.809,127.415 -69.687,127.902C-62.504,128.659 -55.556,125.475 -50.87,120.092C-50.764,119.929 -50.569,119.725 -50.351,119.498C-50.63,121.333 -50.729,123.209 -50.886,125.051C-51.08,127.683 -51.04,130.33 -51.159,132.967C-51.143,133.258 -51.166,133.563 -51.143,133.857M-105.757,78.434C-106.369,77.355 -107.695,72.183 -109.053,69.624C-109.128,68.644 -109.194,67.665 -109.153,66.679C-108.979,60.867 -106.218,55.491 -102.697,50.986C-101.895,50.04 -101.299,48.781 -102.076,47.631C-105.834,40.572 -105.577,32.103 -101.913,25.008C-101.3,23.681 -100.589,22.412 -99.807,21.18C-99.252,21.614 -98.6,21.94 -97.97,22.227C-93.085,24.057 -87.96,25.051 -82.771,25.659C-82.745,25.666 -82.72,25.673 -82.695,25.679C-82.678,25.684 -82.667,25.672 -82.65,25.673C-77.907,26.224 -73.11,26.459 -68.392,26.708C-59.442,26.746 -50.313,26.264 -41.704,23.653C-39.965,23.108 -38.218,22.557 -36.563,21.79C-36.553,21.785 -36.547,21.774 -36.536,21.769C-36.524,21.766 -36.512,21.762 -36.5,21.759C-30.779,27.51 -29.19,36.548 -31.892,44.138C-32.335,45.53 -32.823,47.065 -33.411,48.431C-34.094,49.625 -33.957,51.047 -33.052,52.088C-29.395,56.665 -25.551,61.426 -24.897,67.488C-24.755,68.008 -24.891,69.195 -24.83,70.146C-27.072,75.618 -28.917,81.24 -30.668,86.885C-33.469,93.155 -35.743,99.592 -39.405,105.453C-41.711,108.622 -44.762,111.51 -48.128,113.656C-53.352,116.885 -59.485,118.81 -65.678,119.129C-66.021,119.144 -66.364,119.152 -66.708,119.16C-66.794,119.135 -66.888,119.118 -66.988,119.11C-94.759,118.232 -97.572,100.198 -105.757,78.434M-109.92,86.463C-112.996,84.307 -114.483,80.199 -114.64,76.481C-114.684,76.315 -114.671,76.067 -114.658,75.806C-113.269,77.532 -112.052,79.38 -111.174,81.467C-110.777,82.868 -110.855,84.404 -110.275,85.765C-110.175,86.008 -110.047,86.235 -109.92,86.463M-103.091,93.858C-111.449,94.731 -115.904,85.869 -118.282,79.123C-118.974,76.882 -119.769,74.437 -119.052,72.09C-116.923,67.61 -112.812,69.357 -110.469,72.409C-109.745,74.905 -108.479,77.745 -108.102,79.106C-106.867,82.469 -105.745,85.717 -104.638,88.828C-107.413,87.308 -110.019,85.051 -110.08,81.629C-110.055,80.744 -109.868,79.762 -110.186,78.89C-111.107,76.568 -112.993,74.685 -114.896,73.125C-115.24,72.801 -118.262,71.115 -117.602,72.506C-116.861,73.274 -116.141,74.055 -115.449,74.858C-115.468,74.913 -115.479,74.97 -115.476,75.031C-115.136,80.726 -113.551,85.678 -108.378,88.722C-108.12,88.902 -107.861,88.99 -107.623,89.013C-106.53,89.809 -105.257,90.371 -103.973,90.676C-103.591,91.733 -103.207,92.772 -102.82,93.79C-102.91,93.813 -102.998,93.842 -103.091,93.858M-116.438,60.975C-119.363,51.765 -122.577,42.327 -122.5,32.51C-122.333,25.885 -114.772,19.8 -109.508,16.546C-108.591,15.894 -107.374,15.572 -106.651,14.694C-106.477,14.334 -106.559,14.053 -106.763,13.86C-106.352,13.494 -106.164,12.741 -105.971,12.259C-105.414,10.436 -104.864,8.604 -104.178,6.826C-101.971,0.901 -98.339,-4.855 -92.557,-7.891C-78.956,-14.495 -56.506,-11.236 -43.072,-5.12C-38.688,-3.031 -34.367,-0.084 -30.607,3.08C-25.403,7.747 -20.197,13.149 -13.056,14.674C-13.431,15.913 -14.563,16.709 -15.659,17.391C-16.044,17.581 -16.611,17.855 -16.861,18.258C-17.304,18.507 -17.508,19.122 -17.052,20.013C-15.885,22.344 -14.855,24.851 -14.465,27.442C-14.227,31.032 -15.077,34.656 -15.489,38.232C-16.371,44.237 -17.244,50.176 -18.54,56.127C-19.314,59.768 -20.194,63.391 -21.312,66.944C-21.566,67.055 -21.808,67.193 -22.044,67.34C-21.983,66.767 -22.109,66.269 -22.84,66.455C-22.94,66.541 -23.012,66.653 -23.098,66.754C-23.452,61.658 -26.351,57.081 -29.509,53.142C-30.249,52.135 -31.135,51.221 -31.713,50.108C-31.601,49.375 -31.213,48.696 -30.942,48.006C-26.973,39.508 -27.207,28.654 -33.798,21.517C-33.91,21.4 -34.024,21.274 -34.14,21.147C-33.696,21.03 -33.252,20.922 -32.81,20.801C-31.088,20.51 -29.376,20.272 -27.622,20.393C-27.485,20.405 -27.36,20.323 -27.341,20.178C-27.321,20.042 -27.419,19.917 -27.552,19.897C-30.48,19.208 -33.493,19.104 -36.432,19.537C-37.125,19.127 -38.08,19.693 -38.893,20.037C-40.114,20.353 -41.31,20.769 -42.474,21.284C-49.81,23.499 -59.475,24.489 -69.139,24.333C-70.369,23.998 -71.593,23.619 -72.807,23.266C-79.835,20.505 -87.557,14.129 -85.826,5.713C-85.792,5.675 -85.757,5.566 -85.713,5.513C-85.545,5.236 -85.975,4.986 -86.146,5.259C-86.922,6.54 -87.478,8.033 -87.576,9.55C-87.888,16.652 -81.747,21.525 -75.361,24.073C-82.955,23.558 -90.225,22.331 -96,20.43C-100.032,17.654 -100.934,13.234 -98.401,3.582C-98.29,3.208 -98.282,2.808 -98.09,2.461C-97.965,2.16 -98.426,1.968 -98.551,2.265C-98.6,2.373 -98.642,2.494 -98.719,2.586C-101.948,7.002 -103.521,14.221 -100.306,18.998C-100.872,19.215 -101.303,19.757 -101.678,20.209C-103.046,21.874 -104.064,23.798 -104.908,25.771C-108.412,33.512 -107.87,41.704 -103.993,49.18C-108.027,54.826 -112.273,61.634 -111.067,68.603C-111.712,68.046 -112.444,67.591 -113.281,67.293C-113.42,67.241 -113.562,67.203 -113.702,67.163C-114.742,65.163 -115.621,63.076 -116.438,60.975M-28.184,90.143C-26.016,88.363 -24.21,86.002 -23.959,83.127C-23.601,79.973 -20.91,77.815 -19.229,75.26C-20.274,80.994 -22.451,87.588 -28.184,90.143M-15.95,76.759C-17.898,84.356 -22.828,94.088 -31.705,94.306C-31.429,93.529 -31.16,92.75 -30.896,91.97C-30.679,91.967 -30.455,91.904 -30.271,91.774C-22.41,89.989 -19.355,81.449 -18.447,74.277C-18.16,73.585 -15.511,71.825 -17.04,71.431C-20.202,72.618 -22.276,75.766 -24.338,78.322C-25.104,79.139 -25.313,80.237 -25.161,81.326C-25.027,83.688 -26.17,85.863 -27.756,87.572C-28.444,88.262 -29.259,88.996 -30.114,89.635C-30.049,89.439 -29.983,89.244 -29.918,89.047C-29.628,88.253 -29.338,87.459 -29.003,86.681C-26.988,81.616 -24.96,76.43 -23.223,71.219C-23.081,71.131 -22.947,71.027 -22.842,70.915C-17.539,65.768 -14.351,71.266 -15.95,76.759M-0.604,168.43C-10.841,148.916 -26.654,131.236 -47.4,122.841C-47.683,122.704 -48.035,122.645 -48.372,122.663C-48.329,122.161 -48.284,121.658 -48.245,121.156C-48.09,119.655 -48.011,118.153 -47.822,116.656C-47.806,116.531 -47.786,116.389 -47.772,116.244C-44.917,114.525 -42.296,112.422 -40.034,109.953C-36.615,106.036 -34.358,101.352 -32.509,96.489C-32.426,96.516 -32.344,96.544 -32.264,96.563C-26.198,97.242 -20.638,92.599 -17.83,87.54C-14.931,82.096 -10.425,73.318 -15.267,67.872C-16.288,66.875 -17.665,66.429 -19.044,66.456C-18.924,65.99 -18.813,65.541 -18.661,65.224C-16.241,57.708 -14.966,49.884 -13.911,42.076C-13.263,37.88 -12.814,33.662 -12.728,29.416C-12.333,25.841 -12.843,22.272 -14.883,19.246C-14.804,19.211 -14.726,19.176 -14.654,19.146C-11.545,18.138 -8.689,13.269 -13.27,12.181C-21.999,9.35 -27.98,2.014 -35.15,-3.291C-49.605,-14.086 -89.153,-20.346 -101.115,-3.764C-103.832,-0.399 -105.581,3.638 -106.975,7.701C-107.284,9.021 -108.777,12.194 -107.97,13.6C-108.039,13.616 -108.109,13.632 -108.172,13.659C-113.465,15.431 -123.885,23.678 -124.047,29.557C-125.117,38.84 -123.051,48.11 -120.28,56.928C-119.077,60.338 -117.989,63.919 -116.081,67.01C-118.492,67.354 -120.709,69.127 -121.422,71.508C-122.315,74.627 -121.223,77.903 -120.195,80.855C-117.707,87.443 -113.608,95.041 -105.984,96.246C-104.704,96.373 -103.243,96.353 -102.012,95.863C-98.403,104.91 -94.205,112.241 -86.397,116.757C-86.064,118.873 -85.991,121.033 -85.954,123.197C-86.621,123.314 -87.321,123.548 -87.712,123.668C-94.742,126.294 -101.181,130.323 -107.2,134.76C-118.401,142.823 -128.243,153.031 -134.157,165.656C-135.398,168.28 -136.531,170.955 -137.556,173.668C-137.812,174.393 -138.238,175.442 -137.693,176.019C-136.765,178.361 -129.685,182.484 -128.027,183.613C-114.283,192.401 -97.968,195.64 -81.879,196.436C-64.443,197.751 -46.862,195.898 -30.035,191.175C-20.487,188.608 -11.051,185.488 -2.234,180.964C-1.464,180.36 1.174,179.624 1.496,178.487C1.694,178.538 1.9,178.557 2.107,178.501C3.424,178.142 3.056,176.699 2.611,175.774C1.64,173.288 0.569,170.827 -0.604,168.43" style="fill:rgb(38,7,61);fill-rule:nonzero;"/>
            </g>
            <g transform="matrix(1,0,0,1,140.1973,344.3452)">
                <path d="M0,-7.688C-4.414,-8.906 -7.222,-0.926 -2.535,0.3C2.625,1.218 4.66,-5.71 0,-7.688" style="fill:rgb(38,7,61);fill-rule:nonzero;"/>
            </g>
            <g transform="matrix(1,0,0,1,130.2627,318.8559)">
                <path d="M0,7.025C0.476,4.563 2.223,2.098 4.731,1.338C6.693,0.895 10.425,0.596 11.007,3.122C7.164,3.66 2.982,4.344 0,7.025M9.802,-0.98C6.776,-1.683 3.349,-0.897 1.071,1.252C-0.279,2.326 -3.97,8.438 -0.518,8.539C0.289,8.708 1.072,8.047 1.821,7.801C4.84,6.345 7.937,5.759 11.294,5.344C12.9,5.219 13.701,3.332 13.228,1.92C12.748,0.404 11.302,-0.617 9.802,-0.98" style="fill:rgb(38,7,61);fill-rule:nonzero;"/>
            </g>
            <g transform="matrix(1,0,0,1,173.291,344.3452)">
                <path d="M0,-7.688C-4.659,-5.71 -2.624,1.218 2.535,0.3C7.223,-0.926 4.415,-8.906 0,-7.688" style="fill:rgb(38,7,61);fill-rule:nonzero;"/>
            </g>
            <g transform="matrix(1,0,0,1,178.4941,324.5434)">
                <path d="M0,-4.351C2.51,-3.589 4.257,-1.124 4.731,1.337C1.75,-1.343 -2.432,-2.028 -6.274,-2.566C-5.693,-5.091 -1.961,-4.792 0,-4.351M-6.562,-0.343C-3.205,0.072 -0.107,0.658 2.91,2.114C3.66,2.36 4.443,3.02 5.249,2.851C8.702,2.751 5.012,-3.362 3.66,-4.437C1.384,-6.584 -2.044,-7.371 -5.07,-6.667C-6.569,-6.304 -8.016,-5.284 -8.496,-3.769C-8.969,-2.356 -8.169,-0.468 -6.562,-0.343" style="fill:rgb(38,7,61);fill-rule:nonzero;"/>
            </g>
            <g transform="matrix(1,0,0,1,160.6982,361.0966)">
                <path d="M0,-2.37C-0.243,-0.445 -2.273,0.76 -4.075,0.961C-4.464,0.985 -4.856,0.984 -5.241,0.921C-6.798,0.638 -7.981,-0.593 -8.842,-1.873C-5.991,-0.819 -2.736,-1.102 0,-2.37M-6.074,1.498C-2.754,2.844 1.276,0.177 1.281,-3.4C0.921,-5.214 -2.21,-2.883 -3.449,-2.882C-4.39,-2.74 -5.436,-2.675 -6.417,-2.849C-7.22,-2.853 -11.07,-4.864 -10.3,-2.887C-9.612,-0.982 -8.014,0.8 -6.074,1.498" style="fill:rgb(38,7,61);fill-rule:nonzero;"/>
            </g>
            <g transform="matrix(1,0,0,1,165.9697,370.7889)">
                <path d="M0,0.05C0.055,0.076 0.107,0.105 0.171,0.119C1.402,0.126 0.313,-1.381 0.003,-1.873C-0.303,-2.307 -1.28,-2.774 -1.454,-2.01C-1.479,-1.726 -1.381,-1.478 -1.233,-1.251C-1.282,-1.222 -1.336,-1.206 -1.379,-1.171C-3.902,0.036 -6.582,0.604 -9.392,0.904C-11.52,1.039 -13.704,1.079 -15.805,0.618C-16.11,0.572 -16.44,0.488 -16.768,0.449C-17.151,-0.82 -19.229,0.571 -18.649,1.651C-18.3,2.269 -17.741,2.193 -17.313,1.846C-16.281,2.453 -14.235,2.677 -13.56,2.72C-9.994,2.809 -6.276,2.824 -2.926,1.446C-2.205,1.033 -0.562,0.778 0,0.05" style="fill:rgb(38,7,61);fill-rule:nonzero;"/>
            </g>
            <g transform="matrix(1,0,0,1,121.5,339.9901)">
                <path d="M0,-53.37C0.26,-52.03 0.76,-50.75 1.53,-49.61C0.96,-49.391 0.53,-48.85 0.16,-48.4C-1.21,-46.73 -2.23,-44.81 -3.07,-42.83C-6.58,-35.09 -6.04,-26.9 -2.16,-19.42C-6.19,-13.78 -10.44,-6.971 -9.23,0C-9.38,-0.13 -9.53,-0.25 -9.68,-0.36C-12.43,-7.84 -14.09,-15.721 -14.58,-23.67C-14.96,-29.79 -14.62,-36.1 -12.21,-41.74C-9.94,-47.09 -5.54,-51.76 0,-53.37" style="fill:rgb(183,95,65);fill-rule:nonzero;"/>
            </g>
            <g transform="matrix(1,0,0,1,199.4302,265.1101)">
                <path d="M0,69.01C-1.14,65.5 -3.3,62.29 -5.6,59.42C-6.34,58.409 -7.23,57.5 -7.81,56.38C-7.7,55.65 -7.31,54.97 -7.04,54.28C-3.07,45.78 -3.3,34.93 -9.89,27.79C-10.01,27.68 -10.12,27.55 -10.24,27.42C-9.79,27.31 -9.35,27.199 -8.91,27.08C-7.18,26.79 -5.47,26.55 -3.72,26.67C-3.58,26.68 -3.46,26.6 -3.44,26.449C-3.42,26.32 -3.52,26.19 -3.65,26.17C-6.58,25.48 -9.59,25.38 -12.53,25.81C-13.22,25.4 -14.18,25.97 -14.99,26.31C-16.21,26.63 -17.41,27.04 -18.57,27.56C-25.91,29.78 -35.57,30.77 -45.23,30.61C-46.46,30.27 -47.69,29.9 -48.9,29.54C-55.93,26.78 -63.65,20.409 -61.92,11.989C-61.89,11.949 -61.85,11.84 -61.81,11.79C-61.64,11.51 -62.07,11.26 -62.24,11.54C-63.02,12.82 -63.57,14.31 -63.67,15.83C-63.98,22.93 -57.84,27.8 -51.46,30.35C-59.05,29.83 -66.32,28.61 -72.1,26.71C-75.56,24.32 -76.72,20.72 -75.37,13.63L-75.37,13.61C-74.87,12.71 -74.28,11.86 -73.62,11.08C-71.25,8.27 -68.03,6.28 -64.67,4.77C-55.51,0.68 -45.03,0 -35.16,1.82C-25.3,3.64 -15.99,7.86 -7.47,13.17C-6.07,14.04 -4.49,15.59 -5.22,17.07C-5.58,17.78 -6.36,18.14 -7.09,18.46C-9.14,19.35 -11.2,20.25 -13.24,21.14C-8.7,19.47 -3.18,21.92 -0.27,25.92C2.86,30.23 3.61,35.79 3.77,41.11C4.05,50.53 2.77,60 0,69.01" style="fill:rgb(183,95,65);fill-rule:nonzero;"/>
            </g>
            <g transform="matrix(1,0,0,1,104.23,459.4203)">
                <path d="M0,-21.39C2.57,-14.491 4.29,-7.23 5.45,0C3.28,-0.8 1.14,-1.68 -0.96,-2.651C-0.08,-7.821 0.81,-15.29 0,-21.39" style="fill:rgb(215,244,236);fill-rule:nonzero;"/>
            </g>
            <g transform="matrix(-0.974728,0.223393,0.223393,0.974728,118.898351,460.099438)">
                <path d="M7.539,-25.293C5.491,-19.725 2.581,-9.814 2.861,0.853C4.448,-0.013 6.004,-0.924 7.539,-1.881C7.027,-6.576 6.683,-11.298 6.849,-16.035C6.879,-19.13 7.124,-22.223 7.539,-25.293" style="fill:rgb(121,175,93);fill-rule:nonzero;"/>
            </g>
            <g transform="matrix(1,0,0,1,201.2998,436.1899)">
                <path d="M0,21.69C-2.31,22.44 -4.64,23.14 -6.98,23.78C-5,16.77 -0.9,4.2 4.53,-2.09C1.35,5.42 -0.23,13.51 0,21.69" style="fill:rgb(121,175,93);fill-rule:nonzero;"/>
            </g>
            <g transform="matrix(0.755575,-0.655062,-0.655062,-0.755575,213.172169,452.273747)">
                <path d="M-6.915,1.248C-8.327,1.772 -9.714,2.325 -11.101,2.892C-9.719,4.288 -8.358,5.689 -6.915,7.019C-2.611,10.991 2.29,14.247 7.531,16.888C4.613,13.965 -1.319,7.886 -6.915,1.248" style="fill:rgb(215,244,236);fill-rule:nonzero;"/>
            </g>
        </g>
    </g>
</svg>
